<svg id="Layer_23" data-name="Layer 23" xmlns="http://www.w3.org/2000/svg" viewBox="0 0 512 512"><path d="M255.74,140.24q40.38,0,80.76,0c27,0,46.51,14.06,55,39.54,7.17,21.44,14.43,42.86,21.32,64.39,1.36,4.23,3.08,5.7,7.62,5.65A17.44,17.44,0,0,1,437.83,265c1.19,9.33-3.95,17.51-12.72,20.18a9.54,9.54,0,0,1-3.76.63c-4.36-.54-5.89,1.37-6.92,5.6-7.94,32.61-16.16,65.14-24.38,97.68-6.7,26.49-27.65,42.78-55,42.8q-79.26,0-158.53,0c-27.38,0-48.34-16.3-55-42.79Q109,339.9,96.86,290.62c-.84-3.41-2-4.77-5.82-4.82-10.17-.12-17.6-8.14-17.52-18.2a17.57,17.57,0,0,1,17.92-17.81c4.13,0,5.83-1.3,7.08-5.19,7-21.65,14.25-43.21,21.45-64.79,8.5-25.45,28.08-39.53,55-39.57S228.83,140.24,255.74,140.24Zm122.43,146H133.47c.23,1.16.35,2,.55,2.78q11.26,45.12,22.54,90.23c2.78,11.12,9,16.07,20.36,16.07q78.84,0,157.68,0c11.45,0,17.56-4.89,20.35-16.07q7.08-28.35,14.22-56.69C372.16,310.63,375.11,298.65,378.17,286.28Zm-2.08-36.78c-.31-1.23-.46-2-.72-2.82-6.32-19-12.58-38.05-19-57-2.95-8.68-9.33-13.05-18.92-13.06q-81.59-.08-163.16,0c-10.14,0-16.19,4.49-19.43,14.13q-9.24,27.48-18.36,55c-.39,1.16-.61,2.38-1,3.78Z"/><path d="M255.78,121.82c-12.38,0-24.76.16-37.13,0a18,18,0,0,1-17.47-15.7A18.19,18.19,0,0,1,214,86.33a16,16,0,0,1,4.6-.72c24.76,0,49.51-.12,74.27,0a17.53,17.53,0,0,1,16.77,12.79c2.27,7.49-.2,15.83-6.87,19.9a24.8,24.8,0,0,1-11.56,3.38c-11.79.43-23.61.16-35.42.16Z"/><path d="M184.43,304.36a16.33,16.33,0,0,1,14.13,9.19c6.57,12.58,13,25.24,19.06,38.07a18.12,18.12,0,0,1-32.33,16.31c-6.64-12.54-13.07-25.21-19-38.08C160.64,317.76,169.62,304.34,184.43,304.36Z"/><path d="M291.79,358.76c.93-2.95,1.52-6.06,2.86-8.81,5.66-11.64,11.48-23.2,17.35-34.74,5.05-9.93,15.41-13.63,24.77-9s12.7,15.24,7.85,25.15c-5.87,12-11.82,24-18,35.86a17.81,17.81,0,0,1-20.45,9.43C297.8,374.49,292.31,367.49,291.79,358.76Z"/><path d="M273.89,340.81c0,6.12.14,12.24,0,18.36-.27,10.34-8.25,18.11-18.3,18a18,18,0,0,1-17.9-17.95q-.28-18.57,0-37.14a18.09,18.09,0,0,1,36.18-.07C274,328.29,273.88,334.55,273.89,340.81Z"/></svg>