<svg id="Layer_27" data-name="Layer 27" xmlns="http://www.w3.org/2000/svg" viewBox="0 0 512 512"><path d="M332.52,180.5a25.64,25.64,0,0,1-5.69.48H259.71c-54.51,0-110.87,0-166.31.06h0c-6.32,0-11.35-2.44-13.81-6.69a10.78,10.78,0,0,1,0-10.88c2.45-4.23,7.34-6.66,13.42-6.66h0c61,.05,123,.05,183,.05h51.2c9.86,0,14,5.78,14.55,10.73A11.87,11.87,0,0,1,332.52,180.5Z"/><path d="M132.71,204.85v0H91.61c.46,0,.92-.05,1.39-.05h0Z"/><path d="M91.64,229h41.07v0l-39.31,0h0C92.79,229.05,92.21,229,91.64,229Z"/><path d="M245.56,229h-55v-.07c.49,0,1,.06,1.54.06Z"/><path d="M258.73,204.87H192.46c-.62,0-1.26,0-1.91,0v0Z"/><path d="M332.52,324.5a25.59,25.59,0,0,1-5.69.48H260.56c-54.78,0-111.44,0-167.16.07h0c-6.33,0-11.36-2.44-13.82-6.69a10.78,10.78,0,0,1,0-10.88c2.45-4.23,7.34-6.66,13.42-6.66h0c30.12,0,60.49,0,90.73,0H327.2c9.86,0,14,5.78,14.55,10.73A11.87,11.87,0,0,1,332.52,324.5Z"/><path d="M332.52,372.5a25.59,25.59,0,0,1-5.69.48H260.56c-54.78,0-111.44,0-167.16.07h0c-6.33,0-11.36-2.44-13.82-6.69a10.78,10.78,0,0,1,0-10.88c2.45-4.23,7.34-6.66,13.42-6.66h0c30.12,0,60.49,0,90.73,0H327.2c9.86,0,14,5.78,14.55,10.73A11.87,11.87,0,0,1,332.52,372.5Z"/><path d="M469,329.14a52.17,52.17,0,0,0-51.51-44.2h-.53c-26.12.27-47.51,19.82-50.87,46.5-3.11,24.71,13.66,49.18,38.2,55.72,1.49.4,3,.77,4.48,1.15l2.49.62h13.15l.64-.22.81-.31c.22-.09.53-.21.62-.23A51.82,51.82,0,0,0,469,329.14ZM445.68,337a28.1,28.1,0,0,1-28,28h0A28.08,28.08,0,0,1,389.75,337a28.22,28.22,0,0,1,27.84-28.11h.26A28.09,28.09,0,0,1,445.68,337Z"/><path d="M417.85,140.93h-.09a52,52,0,0,0-.37,104h.23a52,52,0,0,0,.23-104Zm-.1,80h-.07a28,28,0,0,1-.08-56.06,27.35,27.35,0,0,1,19.78,8.23,27.72,27.72,0,0,1,8.3,19.9A28.09,28.09,0,0,1,417.75,221Z"/><path d="M156.65,228.5A25.59,25.59,0,0,1,151,229H91.64c-5.51-.4-9.85-2.77-12.08-6.62a10.78,10.78,0,0,1,0-10.88c2.26-3.9,6.6-6.27,12-6.61h59.72c9.86,0,14,5.78,14.55,10.73A11.87,11.87,0,0,1,156.65,228.5Z"/><path d="M332.52,228.5a20.17,20.17,0,0,1-3.79.45c-.65,0-1.28,0-1.9,0H192.09c-.53,0-1.05,0-1.54-.06-8.76-.56-12.49-6-13-10.67a11.87,11.87,0,0,1,9.23-12.9,20.82,20.82,0,0,1,3.78-.45c.65,0,1.29,0,1.91,0H327.2q.8,0,1.53.06c8.76.56,12.5,6,13,10.67A11.87,11.87,0,0,1,332.52,228.5Z"/><path d="M328.73,204.86v.07q-.74-.06-1.53-.06h1.53Z"/><path d="M328.73,229v0h-1.9C327.45,229,328.08,229,328.73,229Z"/></svg>