<svg xmlns="http://www.w3.org/2000/svg" xmlns:xlink="http://www.w3.org/1999/xlink" viewBox="0 0 793.6 698.7"><defs><style>.cls-1{isolation:isolate;}.cls-2{opacity:0.1;}.cls-3{fill:#313f5d;}.cls-4,.cls-5{fill:none;}.cls-4{stroke:#000;stroke-miterlimit:10;stroke-width:2px;}.cls-6{fill:#231f20;}.cls-7{opacity:0.3;}.cls-8{fill:url(#linear-gradient);}.cls-9{fill:url(#linear-gradient-2);}.cls-10{fill:url(#linear-gradient-3);}.cls-11{fill:url(#linear-gradient-4);}.cls-12{fill:url(#linear-gradient-5);}.cls-13{fill:#d4b08b;}.cls-14{fill:#c2a281;}.cls-15{fill:#aa8e71;}.cls-16{fill:#ebc199;}.cls-17{fill:#c0a17f;}.cls-18{fill:#f3dbb9;}.cls-19{fill:#f0d9df;}.cls-20{fill:#e9b493;}.cls-21{fill:#252526;}.cls-22{fill:#ef4036;}.cls-23{fill:#585657;}.cls-24,.cls-64{fill:#fff;}.cls-25{fill:#595859;}.cls-26{fill:#d1ad89;}.cls-27{fill:#db8b4e;}.cls-28{fill:#ba9a7b;}.cls-29{fill:url(#radial-gradient);}.cls-30{fill:#170f0c;}.cls-31,.cls-43,.cls-44,.cls-50,.cls-56,.cls-58,.cls-59,.cls-62,.cls-66,.cls-67,.cls-68,.cls-69,.cls-72,.cls-78,.cls-84{mix-blend-mode:multiply;}.cls-31,.cls-35,.cls-36,.cls-43,.cls-44,.cls-50,.cls-56,.cls-58,.cls-59,.cls-68,.cls-69,.cls-72,.cls-78{opacity:0.5;}.cls-32{fill:url(#radial-gradient-2);}.cls-33{fill:url(#radial-gradient-3);}.cls-34{fill:url(#radial-gradient-4);}.cls-35,.cls-36,.cls-51,.cls-52,.cls-53,.cls-54,.cls-55,.cls-64,.cls-73,.cls-74,.cls-75,.cls-76,.cls-79,.cls-80,.cls-81,.cls-82,.cls-85{mix-blend-mode:screen;}.cls-35{fill:url(#radial-gradient-5);}.cls-36{fill:url(#radial-gradient-6);}.cls-37{fill:url(#radial-gradient-7);}.cls-38{fill:url(#radial-gradient-8);}.cls-39{fill:url(#radial-gradient-9);}.cls-40{fill:url(#radial-gradient-10);}.cls-41{fill:url(#linear-gradient-6);}.cls-42{fill:url(#linear-gradient-7);}.cls-43{fill:url(#radial-gradient-11);}.cls-44{fill:url(#radial-gradient-12);}.cls-45{fill:url(#radial-gradient-13);}.cls-46{fill:#653614;}.cls-47{fill:url(#radial-gradient-14);}.cls-48{fill:#552710;}.cls-49{fill:url(#radial-gradient-15);}.cls-50{fill:url(#radial-gradient-16);}.cls-51,.cls-52,.cls-53,.cls-54,.cls-55,.cls-64,.cls-73,.cls-74,.cls-75,.cls-76,.cls-79,.cls-80,.cls-81,.cls-82,.cls-83,.cls-84,.cls-85{opacity:0.3;}.cls-51{fill:url(#radial-gradient-17);}.cls-52{fill:url(#radial-gradient-18);}.cls-53{fill:url(#radial-gradient-19);}.cls-54{fill:url(#radial-gradient-20);}.cls-55{fill:url(#radial-gradient-21);}.cls-56{fill:url(#radial-gradient-22);}.cls-57{fill:url(#linear-gradient-8);}.cls-58{fill:url(#radial-gradient-23);}.cls-59{fill:url(#radial-gradient-24);}.cls-60,.cls-83{fill:#b3b3b3;}.cls-61{fill:url(#linear-gradient-9);}.cls-63{fill:#472414;}.cls-65{fill:url(#linear-gradient-10);}.cls-66{fill:url(#radial-gradient-25);}.cls-67{fill:url(#radial-gradient-26);}.cls-68{fill:url(#radial-gradient-27);}.cls-69{fill:url(#radial-gradient-28);}.cls-70,.cls-72{fill:url(#radial-gradient-29);}.cls-71{fill:#5c5e60;}.cls-73{fill:url(#radial-gradient-31);}.cls-74{fill:url(#radial-gradient-32);}.cls-75{fill:url(#radial-gradient-33);}.cls-76{fill:url(#radial-gradient-34);}.cls-77{fill:url(#linear-gradient-11);}.cls-78{fill:url(#radial-gradient-35);}.cls-79{fill:url(#radial-gradient-36);}.cls-80{fill:url(#radial-gradient-37);}.cls-81{fill:url(#radial-gradient-38);}.cls-82{fill:url(#radial-gradient-39);}.cls-84{fill:#893b1d;}.cls-85{fill:url(#radial-gradient-40);}</style><linearGradient id="linear-gradient" x1="-623.67" y1="1625.9" x2="-623.67" y2="1433.6" gradientTransform="matrix(-1, 0, 0, 1, -158.17, -1220)" gradientUnits="userSpaceOnUse"><stop offset="0" stop-color="#3f3c3e"/><stop offset="0.14" stop-color="#4e4d4e"/><stop offset="0.32" stop-color="#5b5a5a"/><stop offset="0.55" stop-color="#626262"/><stop offset="1" stop-color="#646464"/></linearGradient><linearGradient id="linear-gradient-2" x1="-646.47" y1="1433.62" x2="-646.47" y2="1430.78" xlink:href="#linear-gradient"/><linearGradient id="linear-gradient-3" x1="-530.37" y1="1658.9" x2="-530.37" y2="1346.2" xlink:href="#linear-gradient"/><linearGradient id="linear-gradient-4" x1="-548.27" y1="1693.9" x2="-548.27" y2="1401.13" gradientTransform="matrix(-1, 0, 0, 1, -158.17, -1220)" gradientUnits="userSpaceOnUse"><stop offset="0.08" stop-color="#3f3c3e"/><stop offset="0.46" stop-color="#434042"/><stop offset="0.86" stop-color="#4f4d4e"/><stop offset="1" stop-color="#555354"/></linearGradient><linearGradient id="linear-gradient-5" x1="-575.32" y1="1501.62" x2="-575.32" y2="1693.93" gradientTransform="matrix(-1, 0, 0, 1, -158.17, -1220)" gradientUnits="userSpaceOnUse"><stop offset="0" stop-color="#3f3c3e"/><stop offset="0.86" stop-color="#101e20"/><stop offset="1" stop-color="#08191b"/></linearGradient><radialGradient id="radial-gradient" cx="3441.35" cy="316.02" r="18.93" gradientTransform="matrix(-1.09, 0.08, 0.07, 0.96, 4165.51, -241.86)" gradientUnits="userSpaceOnUse"><stop offset="0.16" stop-color="#543928"/><stop offset="1" stop-color="#2d1d11"/></radialGradient><radialGradient id="radial-gradient-2" cx="3441.35" cy="316.02" r="18.93" xlink:href="#radial-gradient"/><radialGradient id="radial-gradient-3" cx="3434.77" cy="341.99" r="26.4" gradientTransform="matrix(-1.11, 0.08, 0.07, 1, 4173.39, -267.53)" xlink:href="#radial-gradient"/><radialGradient id="radial-gradient-4" cx="3442.38" cy="339.27" r="17.96" gradientTransform="matrix(-1.11, 0.08, 0.07, 1, 4173.39, -267.53)" xlink:href="#radial-gradient"/><radialGradient id="radial-gradient-5" cx="3430.05" cy="343.98" r="17.96" gradientTransform="matrix(-1.11, 0.08, 0.07, 1, 4173.39, -267.53)" xlink:href="#radial-gradient"/><radialGradient id="radial-gradient-6" cx="3440.47" cy="345.41" r="6.09" gradientTransform="matrix(-1.11, 0.08, 0.07, 1, 4173.39, -267.53)" xlink:href="#radial-gradient"/><radialGradient id="radial-gradient-7" cx="3454.96" cy="-105.75" r="22.2" gradientTransform="matrix(-1.09, 0.23, 0.24, 0.97, 4285.62, -357.55)" xlink:href="#radial-gradient"/><radialGradient id="radial-gradient-8" cx="3454.92" cy="-105.75" r="22.23" gradientTransform="matrix(-1.09, 0.23, 0.24, 0.97, 4285.62, -357.55)" xlink:href="#radial-gradient"/><radialGradient id="radial-gradient-9" cx="3480.85" cy="-104.55" r="21.29" gradientTransform="matrix(-1.09, 0.23, 0.24, 0.97, 4285.62, -357.55)" xlink:href="#radial-gradient"/><radialGradient id="radial-gradient-10" cx="3480.85" cy="-104.55" r="21.29" gradientTransform="matrix(-1.09, 0.23, 0.24, 0.97, 4285.62, -357.55)" xlink:href="#radial-gradient"/><linearGradient id="linear-gradient-6" x1="-2501" y1="282.62" x2="-2408.76" y2="306.44" gradientTransform="matrix(1.11, -0.08, 0.07, 1, 3119.64, -192.52)" gradientUnits="userSpaceOnUse"><stop offset="0.18" stop-color="#2e1711"/><stop offset="0.44" stop-color="#893b1d"/><stop offset="1" stop-color="#be7029"/></linearGradient><linearGradient id="linear-gradient-7" x1="-2469.4" y1="232.79" x2="-2294.93" y2="323.55" xlink:href="#linear-gradient-6"/><radialGradient id="radial-gradient-11" cx="361.37" cy="276.1" r="46.7" gradientTransform="matrix(-1, 0.07, 0.07, 1, 827.91, -29.4)" gradientUnits="userSpaceOnUse"><stop offset="0" stop-color="#dc9e52"/><stop offset="0.14" stop-color="#d9994e"/><stop offset="0.29" stop-color="#d08c42"/><stop offset="0.45" stop-color="#c1752d"/><stop offset="0.48" stop-color="#be7029"/><stop offset="1" stop-color="#893b1d"/></radialGradient><radialGradient id="radial-gradient-12" cx="431.62" cy="294.68" r="27.33" xlink:href="#radial-gradient-11"/><radialGradient id="radial-gradient-13" cx="-2475.74" cy="99.98" r="233.78" gradientTransform="matrix(1.11, -0.08, 0.07, 1, 3119.64, -192.52)" gradientUnits="userSpaceOnUse"><stop offset="0" stop-color="#dc9e52"/><stop offset="0.15" stop-color="#d99a4e"/><stop offset="0.3" stop-color="#d18d43"/><stop offset="0.47" stop-color="#c37730"/><stop offset="0.51" stop-color="#be7029"/><stop offset="0.69" stop-color="#a85926"/><stop offset="1" stop-color="#893b1d"/></radialGradient><radialGradient id="radial-gradient-14" cx="-2475.69" cy="100.03" r="233.72" xlink:href="#radial-gradient-13"/><radialGradient id="radial-gradient-15" cx="-2475.74" cy="99.98" r="233.78" gradientTransform="matrix(1.11, -0.08, 0.07, 1, 3119.64, -192.52)" xlink:href="#radial-gradient"/><radialGradient id="radial-gradient-16" cx="-2515.11" cy="222.47" r="51.13" gradientTransform="matrix(1.11, -0.08, 0.07, 1, 3119.64, -192.52)" xlink:href="#radial-gradient"/><radialGradient id="radial-gradient-17" cx="-2510.9" cy="179.23" r="17.39" gradientTransform="matrix(1.11, -0.08, 0.07, 1, 3119.64, -192.52)" xlink:href="#radial-gradient"/><radialGradient id="radial-gradient-18" cx="-2520.35" cy="217.67" r="16.25" gradientTransform="matrix(1.11, -0.08, 0.07, 1, 3119.64, -192.52)" xlink:href="#radial-gradient"/><radialGradient id="radial-gradient-19" cx="-2533.76" cy="244.38" r="16.35" gradientTransform="matrix(1.11, -0.08, 0.07, 1, 3119.64, -192.52)" xlink:href="#radial-gradient"/><radialGradient id="radial-gradient-20" cx="-2527.37" cy="246.13" r="15.43" gradientTransform="matrix(1.11, -0.08, 0.07, 1, 3119.64, -192.52)" xlink:href="#radial-gradient"/><radialGradient id="radial-gradient-21" cx="-2534.49" cy="218.69" r="9.12" gradientTransform="matrix(1.11, -0.08, 0.07, 1, 3119.64, -192.52)" xlink:href="#radial-gradient"/><radialGradient id="radial-gradient-22" cx="354.15" cy="99.98" r="240.46" xlink:href="#radial-gradient-11"/><linearGradient id="linear-gradient-8" x1="-2346.67" y1="108.68" x2="-2337.35" y2="108.68" gradientTransform="matrix(1.11, -0.08, 0.07, 1, 3119.64, -192.52)" gradientUnits="userSpaceOnUse"><stop offset="0" stop-color="#2d1d11"/><stop offset="0.44" stop-color="#543928"/></linearGradient><radialGradient id="radial-gradient-23" cx="-2343.8" cy="108.68" r="18.76" gradientTransform="matrix(1.11, -0.08, 0.07, 1, 3119.64, -192.52)" xlink:href="#radial-gradient"/><radialGradient id="radial-gradient-24" cx="-2213.94" cy="705.51" r="148.72" gradientTransform="matrix(1.1, 0.13, -0.16, 0.99, 3130.54, -325.24)" xlink:href="#radial-gradient-11"/><linearGradient id="linear-gradient-9" x1="-2310.06" y1="713.21" x2="-2309.8" y2="722.9" gradientTransform="matrix(1.1, 0.13, -0.16, 0.99, 3130.54, -325.24)" gradientUnits="userSpaceOnUse"><stop offset="0.42" stop-color="#5d2c0f"/><stop offset="0.5" stop-color="#4f250e"/><stop offset="0.67" stop-color="#3a1b0d"/><stop offset="0.84" stop-color="#2e150c"/><stop offset="1" stop-color="#2a130c"/></linearGradient><linearGradient id="linear-gradient-10" x1="-2280.22" y1="709.28" x2="-2277.56" y2="719.79" xlink:href="#linear-gradient-9"/><radialGradient id="radial-gradient-25" cx="-2192.67" cy="301.3" r="6.95" gradientTransform="matrix(1.2, -0.03, 0, 0.96, 3079.07, -220)" xlink:href="#radial-gradient-11"/><radialGradient id="radial-gradient-26" cx="-2398.07" cy="588.75" r="6.39" gradientTransform="matrix(1.09, 0.06, -0.09, 0.96, 3148.44, -275.55)" xlink:href="#radial-gradient-11"/><radialGradient id="radial-gradient-27" cx="-2402.93" cy="574.78" r="13.54" gradientTransform="matrix(1.09, 0.06, -0.09, 0.96, 3148.44, -275.55)" xlink:href="#radial-gradient-11"/><radialGradient id="radial-gradient-28" cx="3635.5" cy="-360.72" r="13.75" gradientTransform="matrix(-0.75, 0.19, 0.32, 0.92, 3317.24, -246.18)" xlink:href="#radial-gradient-11"/><radialGradient id="radial-gradient-29" cx="-2374.4" cy="52.43" r="40.26" gradientTransform="matrix(1.11, -0.08, 0.07, 1, 3119.64, -192.52)" xlink:href="#radial-gradient"/><radialGradient id="radial-gradient-31" cx="-2378.57" cy="63.49" r="19.14" gradientTransform="matrix(1.11, -0.08, 0.07, 1, 3119.64, -192.52)" xlink:href="#radial-gradient"/><radialGradient id="radial-gradient-32" cx="-2371.9" cy="66.81" r="16.5" gradientTransform="matrix(1.11, -0.08, 0.07, 1, 3119.64, -192.52)" xlink:href="#radial-gradient"/><radialGradient id="radial-gradient-33" cx="-2364.32" cy="65.08" r="14.42" gradientTransform="matrix(1.11, -0.08, 0.07, 1, 3119.64, -192.52)" xlink:href="#radial-gradient"/><radialGradient id="radial-gradient-34" cx="-2371.36" cy="53.89" r="12.28" gradientTransform="matrix(1.11, -0.08, 0.07, 1, 3119.64, -192.52)" xlink:href="#radial-gradient"/><linearGradient id="linear-gradient-11" x1="-2402.26" y1="178.36" x2="-2425.53" y2="159.7" xlink:href="#linear-gradient-8"/><radialGradient id="radial-gradient-35" cx="-2406.92" cy="175.33" r="17.99" gradientTransform="matrix(1.11, -0.08, 0.07, 1, 3119.64, -192.52)" xlink:href="#radial-gradient"/><radialGradient id="radial-gradient-36" cx="-2410.24" cy="168.26" r="4.54" gradientTransform="matrix(1.11, -0.08, 0.07, 1, 3119.64, -192.52)" xlink:href="#radial-gradient"/><radialGradient id="radial-gradient-37" cx="-2412.23" cy="177.83" r="7.02" gradientTransform="matrix(1.11, -0.08, 0.07, 1, 3119.64, -192.52)" xlink:href="#radial-gradient"/><radialGradient id="radial-gradient-38" cx="-2408.86" cy="180.93" r="5.46" gradientTransform="matrix(1.11, -0.08, 0.07, 1, 3119.64, -192.52)" xlink:href="#radial-gradient"/><radialGradient id="radial-gradient-39" cx="-2399.86" cy="167.53" r="5.85" gradientTransform="matrix(1.11, -0.08, 0.07, 1, 3119.64, -192.52)" xlink:href="#radial-gradient"/><radialGradient id="radial-gradient-40" cx="-2388.61" cy="153.64" r="9.75" gradientTransform="matrix(1.11, -0.08, 0.07, 1, 3119.64, -192.52)" gradientUnits="userSpaceOnUse"><stop offset="0" stop-color="#dc9e52"/><stop offset="0.09" stop-color="#d9994e"/><stop offset="0.2" stop-color="#d08c42"/><stop offset="0.31" stop-color="#c1752d"/><stop offset="0.33" stop-color="#be7029"/><stop offset="0.71" stop-color="#893b1d"/><stop offset="1" stop-color="#2e1711"/></radialGradient></defs><g class="cls-1"><g id="Layer_1" data-name="Layer 1"><g id="Layer_1-2" data-name="Layer 1"><g class="cls-2"><path class="cls-3" d="M489.7,597.9c0,.4-.6.7-1.4.7s-1.4-.3-1.4-.7.6-.7,1.4-.7S489.7,597.5,489.7,597.9Z"/><path class="cls-3" d="M659.6,468.2v11H646.1v7.5H633.5v8H610.3v2.6H586v11H565.9v-7H552.3v12.4h-4.5v13.7H534.7V539h4.7v2h-8.3v5.6H503.6v33.2h2.2V582h-4.7v2.9h-5.5v7.2H489v5.1h-1.6v-5.1H484l-2.1-2.8H467.5V585H430v-2.9h-4.7v-2.2h2.2v-67h-18v47.7h-1.8v3.6h-3.3V576h-1.2V564.2h-2.7v9.4h-1.2v-9.4h-5.7v-3.6h-7.2V548.2H373v-.9h1.8v-2.5h-8.9v38.8h1.3v1h-9v6h1.2v1H351v3.5h1.3v.7h-4.1V599h-3.9v6.5H343V599h-1.6v11.6H340V598.9h-3.9v-3.2h-3.6V595h.7v-3.5H325v-1h1.2v-6h-9v-1h1.3V532.9H290.8v-7h-9.9v37.5h5.8v1h-5.8v1.7h-7.4v2.8H237.8V601h-8.4v25.6H213.1v3.9h-2.3v-3.9h-5v3.9h-2.3v-3.9H177.7V611.3H173V600.9H159.9V562.1h-5.1v-9l-7.4.9v2h-6.5v-1.3l-6.8.8V468.1H659.6Z"/></g><path class="cls-4" d="M56.1,486.7H517.9"/><rect class="cls-5" x="87.6" y="472.7" width="18.9" height="15"/><rect class="cls-6" x="91.9" y="479.5" width="10.2" height="1.5"/><rect class="cls-6" x="88.3" y="479.5" width="2" height="1.5"/><rect class="cls-6" x="103.6" y="479.5" width="2" height="1.5"/><rect class="cls-5" x="106.4" y="472.7" width="18.9" height="15"/><rect class="cls-6" x="110.8" y="479.5" width="10.2" height="1.5"/><rect class="cls-6" x="107.2" y="479.5" width="2" height="1.5"/><rect class="cls-6" x="122.5" y="479.5" width="2" height="1.5"/><rect class="cls-5" x="125.3" y="472.7" width="18.9" height="15"/><rect class="cls-6" x="129.7" y="479.5" width="10.2" height="1.5"/><rect class="cls-6" x="126.1" y="479.5" width="2" height="1.5"/><rect class="cls-6" x="141.4" y="479.5" width="2" height="1.5"/><rect class="cls-5" x="144.2" y="472.7" width="18.9" height="15"/><rect class="cls-6" x="148.6" y="479.5" width="10.2" height="1.5"/><rect class="cls-6" x="145" y="479.5" width="2" height="1.5"/><rect class="cls-6" x="160.2" y="479.5" width="2" height="1.5"/><rect class="cls-5" x="163.1" y="472.7" width="18.9" height="15"/><rect class="cls-6" x="167.4" y="479.5" width="10.2" height="1.5"/><rect class="cls-6" x="163.9" y="479.5" width="2" height="1.5"/><rect class="cls-6" x="179.1" y="479.5" width="2" height="1.5"/><rect class="cls-5" x="182" y="472.7" width="18.9" height="15"/><rect class="cls-6" x="186.3" y="479.5" width="10.2" height="1.5"/><rect class="cls-6" x="182.7" y="479.5" width="2" height="1.5"/><rect class="cls-6" x="198" y="479.5" width="2" height="1.5"/><rect class="cls-5" x="200.8" y="472.7" width="18.9" height="15"/><rect class="cls-6" x="205.2" y="479.5" width="10.2" height="1.5"/><rect class="cls-6" x="201.6" y="479.5" width="2" height="1.5"/><rect class="cls-6" x="216.9" y="479.5" width="2" height="1.5"/><rect class="cls-5" x="219.7" y="472.7" width="18.9" height="15"/><rect class="cls-6" x="224.1" y="479.5" width="10.2" height="1.5"/><rect class="cls-6" x="220.5" y="479.5" width="2" height="1.5"/><rect class="cls-6" x="235.8" y="479.5" width="2" height="1.5"/><rect class="cls-5" x="238.6" y="472.7" width="18.9" height="15"/><rect class="cls-6" x="242.9" y="479.5" width="10.2" height="1.5"/><rect class="cls-6" x="239.4" y="479.5" width="2" height="1.5"/><rect class="cls-6" x="254.6" y="479.5" width="2" height="1.5"/><rect class="cls-5" x="257.5" y="472.7" width="18.9" height="15"/><rect class="cls-6" x="261.8" y="479.5" width="10.2" height="1.5"/><rect class="cls-6" x="258.3" y="479.5" width="2" height="1.5"/><rect class="cls-6" x="273.5" y="479.5" width="2" height="1.5"/><rect class="cls-5" x="276.4" y="472.7" width="18.9" height="15"/><rect class="cls-6" x="280.7" y="479.5" width="10.2" height="1.5"/><rect class="cls-6" x="277.1" y="479.5" width="2" height="1.5"/><rect class="cls-6" x="292.4" y="479.5" width="2" height="1.5"/><rect class="cls-5" x="295.2" y="472.7" width="18.9" height="15"/><rect class="cls-6" x="299.6" y="479.5" width="10.2" height="1.5"/><rect class="cls-6" x="296" y="479.5" width="2" height="1.5"/><rect class="cls-6" x="311.3" y="479.5" width="2" height="1.5"/><rect class="cls-5" x="314.1" y="472.7" width="18.9" height="15"/><rect class="cls-6" x="318.5" y="479.5" width="10.2" height="1.5"/><rect class="cls-6" x="314.9" y="479.5" width="2" height="1.5"/><rect class="cls-6" x="330.2" y="479.5" width="2" height="1.5"/><rect class="cls-5" x="333" y="472.7" width="18.9" height="15"/><rect class="cls-6" x="337.4" y="479.5" width="10.2" height="1.5"/><rect class="cls-6" x="333.8" y="479.5" width="2" height="1.5"/><rect class="cls-6" x="349" y="479.5" width="2" height="1.5"/><rect class="cls-5" x="351.9" y="472.7" width="18.9" height="15"/><rect class="cls-6" x="356.2" y="479.5" width="10.2" height="1.5"/><rect class="cls-6" x="352.7" y="479.5" width="2" height="1.5"/><rect class="cls-6" x="367.9" y="479.5" width="2" height="1.5"/><rect class="cls-5" x="370.8" y="472.7" width="18.9" height="15"/><rect class="cls-6" x="375.1" y="479.5" width="10.2" height="1.5"/><rect class="cls-6" x="371.5" y="479.5" width="2" height="1.5"/><rect class="cls-6" x="386.8" y="479.5" width="2" height="1.5"/><rect class="cls-5" x="389.6" y="472.7" width="18.9" height="15"/><rect class="cls-6" x="394" y="479.5" width="10.2" height="1.5"/><rect class="cls-6" x="390.4" y="479.5" width="2" height="1.5"/><rect class="cls-6" x="405.7" y="479.5" width="2" height="1.5"/><rect class="cls-5" x="408.5" y="472.7" width="18.9" height="15"/><rect class="cls-6" x="412.9" y="479.5" width="10.2" height="1.5"/><rect class="cls-6" x="409.3" y="479.5" width="2" height="1.5"/><rect class="cls-6" x="424.6" y="479.5" width="2" height="1.5"/><rect class="cls-5" x="427.4" y="472.7" width="18.9" height="15"/><rect class="cls-6" x="431.8" y="479.5" width="10.2" height="1.5"/><rect class="cls-6" x="428.2" y="479.5" width="2" height="1.5"/><rect class="cls-6" x="443.4" y="479.5" width="2" height="1.5"/><rect class="cls-5" x="446.3" y="472.7" width="18.9" height="15"/><rect class="cls-6" x="450.6" y="479.5" width="10.2" height="1.5"/><rect class="cls-6" x="447.1" y="479.5" width="2" height="1.5"/><rect class="cls-6" x="462.3" y="479.5" width="2" height="1.5"/><rect class="cls-5" x="465.2" y="472.7" width="18.9" height="15"/><rect class="cls-6" x="469.5" y="479.5" width="10.2" height="1.5"/><rect class="cls-6" x="465.9" y="479.5" width="2" height="1.5"/><rect class="cls-6" x="481.2" y="479.5" width="2" height="1.5"/><rect class="cls-5" x="484" y="472.7" width="18.9" height="15"/><rect class="cls-6" x="488.4" y="479.5" width="10.2" height="1.5"/><rect class="cls-6" x="484.8" y="479.5" width="2" height="1.5"/><rect class="cls-6" x="500.1" y="479.5" width="2" height="1.5"/><rect class="cls-5" x="502.9" y="472.7" width="18.9" height="15"/><rect class="cls-6" x="507.3" y="479.5" width="10.2" height="1.5"/><rect class="cls-6" x="503.7" y="479.5" width="2" height="1.5"/><rect class="cls-6" x="519" y="479.5" width="2" height="1.5"/><g class="cls-7"><polygon class="cls-8" points="503.7 405.9 427.4 405.9 427.4 248.6 425.2 248.6 425.2 244.1 429.9 244.1 429.9 238.3 467.5 238.3 467.5 229.5 481.8 229.5 484 223.8 487.5 223.8 487.5 213.6 488.3 213.6 489.1 213.6 489.1 223.8 495.6 223.8 495.6 229.5 495.6 236.1 495.6 238.3 501.1 238.3 501.1 244.1 505.8 244.1 505.8 248.6 503.7 248.6 503.7 405.9"/><path class="cls-9" d="M486.9,212.2a1.4,1.4,0,1,1,1.4,1.4A1.37,1.37,0,0,1,486.9,212.2Z"/><polygon class="cls-10" points="365.8 415.1 365.8 241.1 367.1 241.1 367.1 239.1 358.1 239.1 358.1 227 359.2 227 359.2 225.1 351 225.1 351 218.1 352.2 218.1 352.2 216.6 348.1 216.6 348.1 210.1 344.2 210.1 344.2 197 342.9 197 342.9 210.1 341.3 210.1 341.3 186.6 340 186.6 340 210.1 336 210.1 336 216.6 332.5 216.6 332.5 218.1 333.2 218.1 333.2 225.1 324.9 225.1 324.9 227 326.1 227 326.1 239.1 317.1 239.1 317.1 241.1 318.4 241.1 318.4 415.1 245.1 415.1 245.1 284.4 237.8 284.4 237.8 206.2 229.4 206.2 229.4 154.5 213.1 154.5 213.1 126.2 210.8 126.2 210.8 154.5 205.8 154.5 205.8 131.9 203.5 131.9 203.5 154.5 177.7 154.5 177.7 185.2 173 185.2 173 206.2 159.9 206.2 159.9 284.4 154.9 284.4 154.9 415.1 134.1 415.1 134.1 438.9 610.3 438.9 610.3 415.1 365.8 415.1"/></g><polygon class="cls-11" points="610.3 436.5 610.3 423.5 586 423.5 586 392.9 565.9 392.9 565.9 406.9 547.9 406.9 547.9 354.3 534.8 354.3 534.8 331 539.5 331 539.5 326.9 531.2 326.9 531.2 315.5 495.6 315.5 495.6 326.9 484 326.9 484 315.5 478 315.5 478 326.9 472.1 326.9 472.1 315.5 465.5 315.5 465.5 326.9 451.8 326.9 451.8 331 453.9 331 453.9 392.9 409.4 392.9 409.4 287.5 407.6 287.5 407.6 280.3 404.3 280.3 404.3 256.6 403.1 256.6 403.1 280.3 400.4 280.3 400.4 261.3 399.2 261.3 399.2 280.3 393.6 280.3 393.6 287.5 386.4 287.5 386.4 392.9 364.9 392.9 364.9 360.6 351.6 360.6 351.6 343.3 290.7 343.3 290.7 357.5 280.9 357.5 280.9 281.9 286.7 281.9 286.7 280 280.9 280 280.9 276.6 273.5 276.6 273.5 271 213.1 271 213.1 276.6 205.8 276.6 205.8 280 199.9 280 199.9 281.9 205.8 281.9 205.8 403.3 134.1 403.3 134.1 473.9 646.1 473.9 646.1 436.5 610.3 436.5"/><polygon class="cls-12" points="633.5 451.7 633.5 420.3 604.7 420.3 604.7 457.1 582.8 457.1 582.8 427.8 552.4 427.8 552.4 382 517.3 382 517.3 440 475.7 440 475.7 361.9 463 361.9 463 357.4 447.5 357.4 447.5 361.9 440.5 361.9 440.5 383.8 403.9 383.8 403.9 387 409 387 409 423.3 394.5 423.3 394.5 314.3 396.3 314.3 396.3 312.5 373 312.5 373 314.3 374.7 314.3 374.7 319.3 343.9 319.3 343.9 459.3 320.5 459.3 308.9 416.4 286.7 416.4 286.7 382.8 263.9 382.8 263.9 368.3 266.6 368.3 266.6 366.8 261.9 366.8 261.9 343.4 261 343.4 261 366.8 257.5 366.8 257.5 362.2 256.2 362.2 256.2 366.8 245.1 366.8 245.1 368.3 247.6 368.3 247.6 382.8 243.3 382.8 243.3 426.9 208.7 426.9 208.7 375.1 174.9 375.1 174.9 459.3 174.7 459.3 174.7 473.9 659.6 473.9 659.6 451.7 633.5 451.7"/><path class="cls-13" d="M680.4,540.1c-6.4-13.9-15.8-77-16.1-90-.3-13.8-1.2-35.9-3.9-41.7s-14.8-29.9-18.2-44-9.1-26.7-12.3-33.9.2-25.4-8.3-24.4c-31.4,3.4-14,61.5-14.3,65.9s3.1,19.8,4.7,28.8,2.7,25.3-.2,25.7-5.8,2.9-8.2,5-13.5-6-13.5-6L453.9,405s-11-5.8-21.4-1-10.8,19-9.7,24.9c1,5.5,19.1,31.4,19.1,31.4-12.4,9.2-6.8,34,28.3,54.3,10.7,6.2,33.9,39.2,41.3,51.5,14.5,24.2,36,37.7,48,41,39.2,6.1,58.2-36.8,91.5-47.9C661.7,555.3,670.1,546.5,680.4,540.1Z"/><path class="cls-14" d="M473.2,479.6s1.1,11.7-9.9,16.9c0,0,3.9-8.7-.4-8.5-7.6.2-9.7-1.2-9.7-1.2S462.5,487.2,473.2,479.6Z"/><path class="cls-14" d="M455,456.9s-.2,46.1,34.3,46.1c32,0,35.4-6.4,100.8-6.4,18.3,0,9.8-58.2,4.3-60.2S455,456.9,455,456.9Z"/><path class="cls-15" d="M455.1,429.8s-20.7,6.8-23.2,4.1L455,454.2Z"/><path class="cls-16" d="M456.5,374.6c1.4-3.6.1-12.9-1.3-20-1.5-7.7-6.6-11.7-12.9-11.5s-13.8,6.3-14.5,9.8-5.2,15.2-2.1,22.5c2.2,5.2,24.9,39.9,29.2,44.9,0,0,.2-8.9.2-16.3V377.1Z"/><path class="cls-17" d="M438.4,375.9c3.1,9.4,9.4,5.8,9.7,13.3l6.9,31.1V377.1l1.5-2.5c1.6-3.3.1-13.1-1.3-20.2a22.53,22.53,0,0,0-1.3-4.2C454.7,361.8,450.5,374.6,438.4,375.9Z"/><path class="cls-18" d="M430.7,380.2c-2.1-3.8-4.3-8.6-5-13.2-.2-.6-.3-1.3-.5-1.9a4.42,4.42,0,0,0-.3-.8c-.6,3.8-.6,7.8.7,10.9,2,4.7,12.9,20.8,16.6,26.9l3.2.3C443.8,400.1,432,382.5,430.7,380.2Z"/><path class="cls-19" d="M439,345.8s-7-2.1-9.9,8.7S431.6,369,432,370s-1.5,1.2-2.4.7-6-5.9-.9-18.4C432.4,343.2,439,345.8,439,345.8Z"/><path class="cls-20" d="M438.3,345.6s-7-2.1-9.9,8.8,2,14.5,2.4,15.5-1.1,1.3-1.9.8-6-5.8-1-18.4C431.5,343.3,438.3,345.6,438.3,345.6Z"/><path class="cls-16" d="M579.7,630.4h164c-29.9-43-59-84.7-62-88.2a7.19,7.19,0,0,1-1.2-2.1c-10.3,6.4-19,16-30.5,15.5-50.6-2.3-48,60.6-90.5,51.5a41.45,41.45,0,0,1,4.3,1.3C565.4,609,571.5,617.8,579.7,630.4Z"/><path class="cls-14" d="M470.1,514.6c10.7,6.2,33.9,39.2,41.3,51.5,14.5,24.2,36,37.7,48,41,8.5,2.5,12.7,10.4,20.4,23.3H595c8.8-11.5,20.3-32,14.5-56.2,0,0-14.2,23.7-50.1,18.7-11.9-3.3-33.5-16.8-48-41-7.3-12.2-30.5-45.3-41.3-51.5-19.2-11.1-29.6-23.6-33-34.2C432.3,477.8,441,497.7,470.1,514.6Z"/><path class="cls-21" d="M586.5,187.5l-82.1.2h-27a25.14,25.14,0,0,0-7.2,1.1h0a23.06,23.06,0,0,0-6.8,3.5c-.5.4-.9.8-1.4,1.2l-1.5,1.5a19.52,19.52,0,0,0-1.7,2.3,18.34,18.34,0,0,0-2.6,5.9c-.1.5-.3,1.1-.4,1.6-.1.3-.1.7-.2,1a19.42,19.42,0,0,0-.2,2.4V451.7a22.86,22.86,0,0,0,.2,2.5c.1.8.2,1.6.4,2.5a21.29,21.29,0,0,0,1.1,3.3,3.13,3.13,0,0,0,.5,1c.3.6.6,1.1.9,1.6a20.91,20.91,0,0,0,4.8,5.5,15.67,15.67,0,0,0,3,2,23.65,23.65,0,0,0,11.1,2.7h2.3l101.6-.3h5.3a22.63,22.63,0,0,0,13.7-4.4l1.5-1.2a21.32,21.32,0,0,0,6.8-15.9V380.5h0V373h0v-1.8l.1-57.6v-.5L608.4,209C608.4,196,598.5,187.5,586.5,187.5Z"/><polygon class="cls-22" points="466.3 226.7 466 425.6 598.3 425.5 598.6 226.6 466.3 226.7"/><rect class="cls-21" x="515.4" y="439.5" width="34.7" height="16"/><path class="cls-23" d="M516.8,440.7v13.5H549V440.7ZM548,453.3H517.9V441.7H548Z"/><g class="cls-2"><polygon class="cls-24" points="550.1 455.5 550.1 439.5 520.3 439.5 542.2 455.5 550.1 455.5"/></g><g class="cls-2"><path class="cls-24" d="M608.4,209c0-12.9-9.8-21.5-21.9-21.5l-93.3.3L608.2,415Z"/></g><path class="cls-25" d="M546.2,205.8a1.67,1.67,0,0,1-1.7,1.6H518.9a1.67,1.67,0,0,1-1.7-1.6h0a1.6,1.6,0,0,1,1.7-1.6h25.7a1.58,1.58,0,0,1,1.6,1.6Z"/><path class="cls-21" d="M546.2,205.4a1.6,1.6,0,0,1-1.7,1.6H518.9a1.67,1.67,0,0,1-1.7-1.6h0a1.67,1.67,0,0,1,1.7-1.6h25.7a1.52,1.52,0,0,1,1.6,1.6Z"/><path class="cls-16" d="M675.1,518c-5.2-24.2-10.1-59.8-10.3-69.1-.3-13.8-1.2-35.9-3.9-41.7s-14.8-29.9-18.2-44-9.1-26.7-12.3-33.9.2-25.4-8.3-24.4c-31.4,3.4-13.5,62-13.8,66.4-.2,2.6.7,8.8,1.8,15.3.8,4.6,1.7,9.3,2.3,13,1.6,9-3.2,26.2-5.4,28-26.5,21.9-27.2,50.3-29.5,70.6-5,45.4,31.3,75.1,31.3,75.1s8.1,14.9,50.7-19.4C675.1,541.4,678,530.5,675.1,518Z"/><path class="cls-13" d="M619.1,630.4c-2.2-3.3-4.2-6.2-5.8-8.3-1.3-1.7-1.3-16.1-2.5-30.3-1.3,14.1-7.3,27.3-16,38.7Z"/><path class="cls-18" d="M622.1,574.6s29.6,1.8,53.2-9.7l46.4,65.4H745c-30.2-43.5-59.8-85.9-62.8-89.4-6.4-7.4-17.1-78.2-17.3-92.1s-1.2-35.9-3.9-41.7-14.8-29.9-18.2-44-9.1-26.7-12.3-33.9.2-25.4-8.3-24.4c0,0,3.8,2.1,5.2,23,.6,7.8,7,18.5,10.4,32.5s11.6,39.8,14.3,45.6,3.7,27.9,3.9,41.7c.2,11.3,7.4,60.9,13.5,82.5C670.9,535,675.1,553.8,622.1,574.6Z"/><path class="cls-16" d="M457.2,424.9c1.7-6.4-1.4-17.3-3.6-19.4s-11-5.8-21.4-1-10.6,19.6-9.2,25.1c.8,2.9,6.1,2.7,10.9,5.2C443.8,437.9,453.8,437,457.2,424.9Z"/><path class="cls-13" d="M435.4,431c-6.1-1-10-6.1-10.7-9.1a27.52,27.52,0,0,1-.5-8.6,29.25,29.25,0,0,0-1.2,16.3c.7,2.9,5.1,6,10.4,7.6,10.7,3.3,20.5-.3,23.9-12.4a20.07,20.07,0,0,0,.5-4.2C453.6,429.9,445.2,432.5,435.4,431Z"/><path class="cls-16" d="M422.5,420.3s-.6,6,.4,9.4,5.4,10.6,18.9,30.6a37.68,37.68,0,0,1,4.8-2.8C446.6,457.4,423.9,435.2,422.5,420.3Z"/><path class="cls-20" d="M446.6,404.6s-3,.7-4.4,9.5.1,10.5.1,10.5.1,2.6-8,.5c-3.7-1-4.3-7.6-3.5-12.3a10.89,10.89,0,0,1,8.7-8.5C443.1,403.8,446.7,403.4,446.6,404.6Z"/><path class="cls-26" d="M433.2,425c-3.7-1-4.3-7.6-3.5-12.3s5.4-7.9,8.9-8.3q3.45-.45,6.9-.6c-1-.5-5.2.1-8,.4a10.9,10.9,0,0,0-8.8,8.3c-.8,4.6-.2,11.3,3.5,12.3.8.2,1.5.4,2.1.5Z"/><path class="cls-19" d="M442.2,414.1c1.4-8.8,4.4-9.5,4.4-9.5a.55.55,0,0,0-.3-.5,1.42,1.42,0,0,1-.6.2h0s-3,.7-4.4,9.5c-1.1,6.9-.4,9.4,0,10.2a9,9,0,0,1,1,.9.6.6,0,0,0,.1-.4C442.4,424.6,440.9,422.9,442.2,414.1Z"/><path class="cls-16" d="M442.4,460.9a26.93,26.93,0,0,1,8.9-5c6-2.2,12.8-5.9,17.4-6.5s11.2.4,13.3,10-5.3,17.6-9.9,20.9-15.6,8.2-23.2,5.9S436.1,473.9,442.4,460.9Z"/><path class="cls-20" d="M471.4,452.9c.6.5-1.1,5.6-.4,9.8.8,4.4-.5,6.2-5.5,7.5-4,1-4.7,0-5.9-1.3s-2-4.3-1.6-7.2,1.5-4.4,6.1-6.3C468,453.9,470.8,452.5,471.4,452.9Z"/><path class="cls-26" d="M458.6,469.2c-1.2-1.2-1.9-4.2-1.6-7.2s2.6-4.7,7.2-6.6c3-1.2,5.8-2.6,7-2.6a4.33,4.33,0,0,1-.5-.1c-.8,0-3.4.9-7.3,2.5-4.5,1.9-6.8,3.6-7.2,6.6s.5,6,1.6,7.2a3.66,3.66,0,0,0,2.7,1.6A3.31,3.31,0,0,1,458.6,469.2Z"/><path class="cls-19" d="M470.5,466a9.7,9.7,0,0,1-.1,1.7c.9-1.2,1-2.7.6-5-.8-4.2,1-9.3.4-9.8a.37.37,0,0,0-.3-.1,4.88,4.88,0,0,1-.3.7c.2,1.2-1.2,5.8-.5,9.5A7.86,7.86,0,0,1,470.5,466Z"/><path class="cls-20" d="M626.9,306.2c-.4-.9-4.7,2.6-4.9,4.9s5,17,8.3,24.8c0,0,2.3-.5,2.3-1.4S631.3,316,626.9,306.2Z"/><path class="cls-19" d="M627.1,306.7c-.1-.2-.1-.3-.2-.5-.4-.9-4.7,2.6-4.9,4.9a4.87,4.87,0,0,0,.1,1.2C622.3,310.4,625.8,307.1,627.1,306.7Z"/><path class="cls-27" d="M425.6,269.6a21.36,21.36,0,0,0-.6,3.5,13.87,13.87,0,0,0,1.3,6.9,30.71,30.71,0,0,0,1.7,3.1c1.2,2.1,2.4,4.2,3.5,6.3l1.7,3.2c.5,1.1,1.1,2.1,1.6,3.2-.7-1-1.3-2-2-3l-1.9-3.1c-1.3-2.1-2.5-4.1-3.7-6.2a32.39,32.39,0,0,1-1.7-3.2,13.64,13.64,0,0,1-1-3.6A14.73,14.73,0,0,1,425.6,269.6Z"/><path class="cls-27" d="M424.5,271.6a18.31,18.31,0,0,0-.5,4.7,25,25,0,0,0,.5,4.7l.2,1.1.3,1.1c.2.8.4,1.5.6,2.3s.5,1.5.7,2.3.6,1.5.8,2.2a21.16,21.16,0,0,1-1.1-2.1c-.3-.7-.7-1.5-1-2.2a26.43,26.43,0,0,1-1.3-4.6,19.39,19.39,0,0,1-.3-4.8A11.16,11.16,0,0,1,424.5,271.6Z"/><rect class="cls-21" x="355.91" y="371.41" width="16" height="34.7" transform="translate(-153.6 514.23) rotate(-60.52)"/><path class="cls-23" d="M376.6,388.1,365.8,382l-.9-.5-1.9-1.1-.3-.2-.5-.3-5-2.9-4.2-2.3-6.7,11.8,6.2,3.5,1.2.7,2.7,1.5,9.3,5.3,8.6,4.9,5.4-9.6,1.2-2.2Zm-2.6,13-8.2-4.6-8.8-5-1.6-.9-2.5-1.4-5.2-2.9,5.7-10.1,3.4,1.9,5,2.8.5.3.2.1,2.4,1.3.9.5,9.1,5.2,4.8,2.6-1,1.8Z"/><g class="cls-2"><polygon class="cls-24" points="344.9 387.2 352.7 373.3 378.6 387.9 351.7 391 344.9 387.2"/></g><path class="cls-28" d="M401.3,392.4s17.6-4.1,13.1,7.4-19.5,35.2-26.6,63.7c-7.4,29.7-21.2,2.2-21.2,2.2l-15.4-52.3Z"/><path class="cls-13" d="M382.3,465.3c4.6-27.6,23.4-53.2,28-64.7,3.2-8.2-4.9-8.5-9.7-7.9l.8-.3s17.6-4.1,13.1,7.4-31.9,56-30,90.8c.7,12.2-6.4-1.6-10.5-2.6C375.8,486.3,381,472.8,382.3,465.3Z"/><path class="cls-29" d="M432.7,315.34s17,11,9.78,19.2-20.83,8.67-27.54,3.07-5-16.6-5-16.6Z"/><path class="cls-30" d="M442.66,334.67a6.87,6.87,0,0,0,1.74-5.74c-1-6.89-11.14-13.48-11.56-13.76a.24.24,0,0,0-.2,0l-22.73,5.67a.2.2,0,0,0-.16.17c0,.11-1.69,11.17,5,16.78,3.25,2.71,8.27,4.11,13.45,3.74A21.14,21.14,0,0,0,442.66,334.67Zm-10-19.11c1,.67,10.34,7,11.3,13.43a6.52,6.52,0,0,1-1.65,5.43,20.65,20.65,0,0,1-14.1,6.67c-5.05.36-9.95-1-13.11-3.63-3.41-2.85-4.56-7.16-4.92-10.27a25.51,25.51,0,0,1,0-6Z"/><path class="cls-30" d="M438.34,338.36h0a.22.22,0,0,1-.22-.22s.26-4.44-3.59-9.56a.2.2,0,0,1,.06-.29.26.26,0,0,1,.32,0c3.94,5.25,3.68,9.64,3.67,9.82A.22.22,0,0,1,438.34,338.36Z"/><g class="cls-31"><path class="cls-32" d="M410,321l22.73-5.67s7.94,5.12,10.65,11c-1.65-2-5.63-6.57-5.88-3-.31,4.44-2.17,2-4.52,1.43s-2.33-.21-2.74,3-4.21-3-4.49,1.79-3.85,2.12-7.16,0-.93,13.51,16.19,8.8c4.9-2,1.88-6,0-8.48s3.53-.62,4.09,4.31c.55,1.8,2.76,1,4.71-1.14a8,8,0,0,1-1.1,1.62c-7.19,8.25-20.83,8.67-27.54,3.07S410,321,410,321Z"/></g><path class="cls-33" d="M374.14,333.39s8.91,2.82,12.13,13.86-6.81,12.48-18.07,13.65-22.11-3.34-18.67-20.49S374.14,333.39,374.14,333.39Z"/><path class="cls-30" d="M368.22,361.1c8.14-.84,14.59-1.78,17.45-5.5,1.59-2.08,1.86-4.83.82-8.4A21.88,21.88,0,0,0,379.15,336a17.05,17.05,0,0,0-4.9-2.82c-.07,0-7.24-3.42-13.87-2.95-6.09.44-9.81,3.84-11.07,10.12-1.5,7.46-.43,13.06,3.18,16.64,4.05,4,10.2,4.49,14.66,4.18Zm5.84-27.52a17.09,17.09,0,0,1,4.79,2.76,21.44,21.44,0,0,1,7.2,11c1,3.45.75,6.09-.76,8.06-2.74,3.57-9.37,4.52-17.11,5.32l-1.06.1c-4.36.31-10.37-.14-14.29-4-3.51-3.49-4.54-9-3.08-16.3,1.22-6.07,4.81-9.36,10.66-9.78C366.91,330.21,374,333.54,374.06,333.58Z"/><path class="cls-30" d="M378.83,359.44h-.08a.19.19,0,0,1-.15-.25,12.84,12.84,0,0,0-2.25-12,.19.19,0,0,1,0-.29.24.24,0,0,1,.32,0A13.3,13.3,0,0,1,379,359.29.26.26,0,0,1,378.83,359.44Z"/><g class="cls-31"><path class="cls-34" d="M349.53,340.41c3.44-17.14,24.61-7,24.61-7a20.11,20.11,0,0,1,11.43,11.82c-1.44-1.8-5.13-6.13-7.38-6.11-2.83,0,.58,8.14-5.56,4.4s-5,9.26-7.58,4.35-2.23,5.79-5.91,2.42-.53,12.4,15.59,8.53c7.13-2.33,3.66-8.44,1.24-11.18s4.54-1.59,4.54,6.95c.46,3.94,5.18.34,6.34-2.81-.54,7-9.15,8.15-18.65,9.14C357,362.06,346.09,357.56,349.53,340.41Z"/></g><path class="cls-35" d="M380.28,345.68a10.86,10.86,0,0,1,1.72,7.15c-.52,4,4.34,1.14,3.12-4.59S379.22,342.12,380.28,345.68Z"/><path class="cls-36" d="M375.05,349s5.33,6.71-.63,8.22S371.1,344.69,375.05,349Z"/><path class="cls-37" d="M499,323.29s9,7.92,13.54,17c4.21,9.1-2.93,14.15-16.51,13.92s-24.52-1.47-21.92-25.94Z"/><path class="cls-30" d="M503.83,353.78h0a.22.22,0,0,1-.23-.2c0-.06-.1-5.65-4.73-12a.2.2,0,0,1,.07-.29.25.25,0,0,1,.32.06c4.71,6.49,4.8,12.19,4.8,12.25A.23.23,0,0,1,503.83,353.78Z"/><g class="cls-31"><path class="cls-38" d="M474.14,328.24,499,323.29A69.1,69.1,0,0,1,511.4,338l-.16.06s-6.27-7.9-7.15-3.19-6.1-3.41-6.92,1.61-4.81,3-6-.16-9,1.42-9.27,7.75,9.68,9.1,17.56,8.36c3.82-.19,2-4.82-1-9.66s1.79-3.66,4.89,5.07c.78,3.56,7.18,3.18,10.27-1.58-.9,5.27-7.4,8.06-17.61,7.89C482.34,354,471.54,352.71,474.14,328.24Z"/></g><path class="cls-39" d="M472.36,330.19s7.81,8.11,11.93,17.22-3,14.17-16.54,13.93-23.86-1.58-17.52-26.65Z"/><path class="cls-30" d="M484.42,356.31c1.66-2.4,1.69-5.42.08-9-4.08-9-11.89-17.2-12-17.28a.25.25,0,0,0-.22-.07l-22.13,4.51a.24.24,0,0,0-.17.15c-2.84,11.25-2.55,18.35.91,22.35s9.67,4.43,16.82,4.55c1.43,0,2.8,0,4.09-.1C478,361,482.4,359.23,484.42,356.31Zm-12.15-25.9c.87.92,8,8.62,11.81,17.08,1.55,3.43,1.53,6.33-.05,8.61-1.94,2.8-6.17,4.5-12.23,4.93-1.27.09-2.63.13-4,.1-7-.12-13.13-.54-16.47-4.4s-3.65-10.83-.87-21.87Z"/><path class="cls-30" d="M475.52,360.93h0a.21.21,0,0,1-.22-.21,23.45,23.45,0,0,0-3.93-12.15.19.19,0,0,1,.08-.28.23.23,0,0,1,.31.07,23.76,23.76,0,0,1,4,12.37A.22.22,0,0,1,475.52,360.93Z"/><g class="cls-31"><path class="cls-40" d="M450.23,334.69l22.13-4.5a74.35,74.35,0,0,1,10.83,15l-.14.06s-5.64-8-6.56-3.28-5.41-3.53-6.42,1.52-4.66,3-5.47-.24-8.38,1.32-9.4,7.78,8.23,9.32,16.07,8.59c3.79-.18,2.29-4.86-.32-9.76s1.87-3.68,4.41,5.14c.6,3.6,6.93,3.22,10-1.53-.89,5.26-7.44,8.07-17.6,7.89C454.21,361.1,443.89,359.76,450.23,334.69Z"/></g><path class="cls-41" d="M425.24,263.31l-.7,7.3s-3.68,6.1-6.7,8.75.17,11.06,2.53,16.24,8.31,18.12,16.2,19.54c0,0-3.68,1.91-6.28-.24,0,0,5.36,4.48,4.08,11.16,0,0-3.57-5-5.95-6.37,0,0,3.74,5.08.31,9.64,0,0-4.79-6.1-6.78-7.19a4.93,4.93,0,0,0,.48,5.59s-3.13,1.11-6.52-3.58c0,0-2,2.67,1,5.41,0,0-3.8.2-6.1-6.35a8.94,8.94,0,0,0,.83,6.31s-5.5-2.21-5.7-10.42.1-29.67-2.87-32.82a9.93,9.93,0,0,1,.3-13.94c4.64-4.65,5.62-9,3.74-10.82S425.24,263.31,425.24,263.31Z"/><path class="cls-42" d="M495.58,207.73s8,11.08,7.43,18.35,1.57,27.68-4.66,39.84c0,0,2.79,10.32-3.79,17.56,0,0-4,40.56,11.07,39.7,0,0,1.26,4.84-4.93,4.66,0,0-.42,2.48,2.71,2.06,0,0-8,3.53-11.66-5.39,0,0,.18,6.84,2.93,9,0,0-7.13-1.55-10-7,0,0-.42,7,2.28,8.47,0,0-8.28-2.7-8.13-9.15,0,0-.69,7.45,1.75,9.6,0,0-5-3.62-5.33-8.39l-.91,6.51a17.36,17.36,0,0,1-1.22-17.05s-3.22-11,3.24-29.7c0,0,5.24-10,5.49-18.28A122.28,122.28,0,0,0,480.57,250s13.11-14.31,12.75-21.4S495.58,207.73,495.58,207.73Z"/><path class="cls-43" d="M503,226.08c-.57,7.27,1.57,27.68-4.66,39.84,0,0,2.79,10.32-3.79,17.56,0,0-4,40.56,11.07,39.7,0,0,1.26,4.84-4.93,4.66,0,0-.42,2.48,2.71,2.06,0,0-8,3.53-11.66-5.39,0,0,.18,6.84,2.93,9,0,0-7.13-1.55-10-7,0,0-.42,7,2.28,8.47,0,0-8.28-2.7-8.13-9.15,0,0-.69,7.45,1.75,9.6,0,0-5-3.62-5.33-8.39l-.91,6.51a17.36,17.36,0,0,1-1.22-17.05s-3.22-11,3.24-29.7c0,0,5.24-10,5.49-18.28A122.28,122.28,0,0,0,480.57,250s13.11-14.31,12.75-21.4,2.26-20.85,2.26-20.85S503.58,218.81,503,226.08Zm-9.64,89c-2-6.09-7.66-39.57-14.85-24.18-2.92,6.26-4.84,24.8.76,32.21s2.85-5.52,6.71.72.8-6.29,5.63-1.19S495.41,321.16,493.37,315.07Zm-8.81-59.5c-.27,6-2.51,21.89,3.14,25.3s10.47-6.81,8-14.35-2.76-8.85-.08-6.47,3.78-8.08,4.14-15.82S484.81,249.84,484.56,255.57Z"/><path class="cls-44" d="M430.29,314.9s5.36,4.48,4.08,11.16c0,0-3.57-5-5.95-6.37,0,0,3.74,5.08.31,9.64,0,0-4.79-6.1-6.78-7.19a4.93,4.93,0,0,0,.48,5.59s-3.13,1.11-6.52-3.58c0,0-2,2.67,1,5.41,0,0-3.8.2-6.1-6.35a8.94,8.94,0,0,0,.83,6.31s-5.5-2.21-5.7-10.42.1-29.67-2.87-32.82a9.93,9.93,0,0,1,.3-13.94c4.64-4.65,5.62-9,3.74-10.82s18.14,1.79,18.14,1.79l-.7,7.3s-3.68,6.1-6.7,8.75.17,11.06,2.53,16.24,8.31,18.12,16.2,19.54C436.57,315.14,432.89,317.05,430.29,314.9Zm-2.44,0c-3.05-4.31-10.12-13.47-12.14-22.58s-8.8-17.84-8.22,3.59c.18,6.54-1.33,26.35,2.92,23.39s9.07,8.36,9.24,1,8.42,4.12,6-2.06S430.91,319.24,427.85,314.94Z"/><path class="cls-45" d="M526.92,46.26a26.14,26.14,0,0,0-16.77,8.91,7.16,7.16,0,0,0-3.9,4.85c-1.14,4.49,4.63,7.84,4.63,7.84l-2.14,2.93c-4.89-1.09-7.95-7.14-7.95-7.14.65,4.37,2.15,12.59,2.15,12.59.13,1.84-5.58,3.69-5.58,3.69C495.92,74.17,494,67,494,67c-1.72,9.58,2.86,14.39,2.52,14.51s-4.67,3.63-4.67,3.63C484.45,80.33,484,69.77,484,69.77,483.42,83.59,488.33,85,488.33,85l-3.8,1.3c-4.19-.94-7.3-9.25-7.3-9.25,0,3.9-1,5.42-1,5.42-1.46.41-4.2-1-4.2-1s4.9-5.28,3.85-10.35.79-13,.79-13-8.14-9.8-14-11.24c0,0-6.69,25.05,7.36,31,0,0-6.58,18.56-14.09,25.67s-15,22.76,4.64,34.63c0,0-6.68,7.46,7.62,15.29l-.05.06a4.27,4.27,0,0,1,.46.11,58.73,58.73,0,0,0,7,2.19c-6.09,5.8-4.2,20.74-4.2,20.74-2.32-2-2.11-7.05-2.11-7.05-.9,5-8.59,11.2-15.28,13.73a15.06,15.06,0,0,0-8.65,8.84c-1.6-1.53-.37-5.14-.37-5.14a23.52,23.52,0,0,1-6.2,1.4s-11.08,3.56-18.94-2.25-28-23.2-48.45-14.54c0,0-46.18,12.62-28.27,63a83.47,83.47,0,0,0,8.41,13.58c5.7,7.65,14.11,22.78,4.84,29.3,0,0-7.55-4.62-11,1.75s-.24,12.72,0,15.59,0,22.25.84,31.16,2.93,17.09-.9,18c0,0,4.06.74,5.06-2.93,0,0,1.31,7.1,5.86,8.32,0,0-2.48-4.35-1.31-8.75,0,0,3.24,5.22,8.71,4.83,0,0-2.72-1.15-3-6.16,0,0,2.67,5.36,7.13,5.25,0,0-2.05-1.4-1.84-5,0,0,3.24,3.77,10.51,1.3a6.8,6.8,0,0,1-4.26-5.22s8.69,4.7,11.29-2.17c0,0-7.79,1.54-14-9.09s-10.48-24.83-8-35.08c0,0,23.07,1.71,23-35.32,0,0,31,24.07,54,14.76,0,0,3.71,15.63,3.3,20.73a84.45,84.45,0,0,0,3.18,29.52c3.9,14.11,5.58,20.5,2.76,23.89,0,0,4.63-1.53,5.06-6.22,0,0,.62,5,4.92,6.41,0,0-2.4-5.69-1.61-8.65,0,0,3.37,6.74,7.36,7.47a19,19,0,0,0-3-8.15c-.36-.41-.55-.68-.55-.68a7.11,7.11,0,0,1,.55.68,13.36,13.36,0,0,0,15.5,3.74s-5.65-2.2-6.47-6.19c0,0,3.56,4.89,8.31,3,0,0-2.86.62-7.79-9.65s-15.31-29.55-14-34,3.24-11.34.38-16.07c0,0,1.79-11.36,3.1-14.41,0,0,7.82-1.65,11.81-6.73,0,0,19.41-3.09,31-26.13s13-52.73,10.89-69c0,0-.85-4,4-15.81a79.07,79.07,0,0,0,4-14.52c.42-6.77,2-19-.23-32s-3.22-18.07-2-18.21,2.41.09,4-2.8C523.23,74.8,532.6,68.06,526.92,46.26Z"/><path class="cls-46" d="M474.83,324.82a.32.32,0,0,1-.14,0c-2.32-1.26-1.78-8-1.75-8.29a.22.22,0,0,1,.24-.19.2.2,0,0,1,.21.21c0,.07-.54,6.78,1.54,7.92a.19.19,0,0,1,.07.28A.23.23,0,0,1,474.83,324.82Z"/><path class="cls-47" d="M460.6,333.67a7.11,7.11,0,0,0-.55-.68S460.24,333.26,460.6,333.67Z"/><path class="cls-48" d="M460.62,333.87a.24.24,0,0,1-.2-.07c-.36-.42-.55-.69-.56-.7a.2.2,0,0,1,.06-.28.24.24,0,0,1,.31,0,8,8,0,0,1,.56.69.19.19,0,0,1-.05.28A.19.19,0,0,1,460.62,333.87Z"/><path class="cls-49" d="M371.49,171.54s-7.77-12.61-25-8.5-22.67,25.87-21.59,36.14c1.11,10.64-5.9,23.38-16.57,23.16,0,0,2,4.13,2.93,4.06s6.07-1.62,7.23-2.91c0,0-17,16.86-10.32,28.67A4.47,4.47,0,0,0,311,252a13.43,13.43,0,0,0,3.27,10.6c4.38,5.25,1.43,13.69-2.05,14.66,0,0,3.54,1.49,4.5.5a12.43,12.43,0,0,0,2.5-8.35s5.07,16.55-4.07,18.43c0,0,2.84,2.88,5.08,2.21s4.3-4,4.3-4-2.12,5.6-5.75,6.17c0,0,2.25,2.61,3.75,2.71s11.77-3.51,10.62-19.67c0,0,.61,5.41,4.36,6.48l1.88-1.63c-1.59-.76-5-2.88-4-9.32,1.3-9.1,11.13-20.59,7.85-36.16C325.31,184.16,371.49,171.54,371.49,171.54Z"/><path class="cls-30" d="M333.49,277.5c.58,1.67,1.73,3.74,4,4.38a.22.22,0,0,0,.23-.05l1.89-1.62a.21.21,0,0,0,.07-.18.2.2,0,0,0-.12-.15c-3.2-1.52-4.56-4.67-3.92-9.12.43-3,1.86-6.43,3.38-10,3.12-7.42,6.66-15.82,4.46-26.22-5.91-16.64-5.46-30.91,1.32-42.41,9.08-15.38,26.62-20.33,26.79-20.38a.23.23,0,0,0,.15-.12.17.17,0,0,0,0-.17,22.56,22.56,0,0,0-20.39-9.36,29.41,29.41,0,0,0-4.87.76C329,167,323.59,188.92,324.67,199.2a24,24,0,0,1-6,18.24,13.71,13.71,0,0,1-10.37,4.7.23.23,0,0,0-.19.09.17.17,0,0,0,0,.2c.48,1,2.15,4.25,3.14,4.18a25.83,25.83,0,0,0,5.82-1.94c-3.86,4.25-14.76,17.63-9.13,27.59a.24.24,0,0,0,.11.09,3.09,3.09,0,0,0,1.37.13,7.07,7.07,0,0,0,1.3-.22,14,14,0,0,0,3.37,10.42c2.68,3.23,2.49,7.47,1.42,10.37-.78,2.09-2.06,3.61-3.35,4a.22.22,0,0,0-.17.18.21.21,0,0,0,.13.2,10.5,10.5,0,0,0,3.73.86,1.58,1.58,0,0,0,1.05-.41,12.06,12.06,0,0,0,2.52-6.81c.75,3.17,2,10.25-.58,14.1a5.74,5.74,0,0,1-3.74,2.46.24.24,0,0,0-.17.14.19.19,0,0,0,.05.2c.1.1,2.52,2.53,4.74,2.37a2.71,2.71,0,0,0,.58-.11,7.14,7.14,0,0,0,3-2.2c-.94,1.62-2.51,3.65-4.54,4a.23.23,0,0,0-.18.13.17.17,0,0,0,0,.19c.09.12,2.33,2.69,3.91,2.8h.2C324.61,295,333.54,291.32,333.49,277.5Zm-8.73,8.57a.2.2,0,0,0-.12-.26.25.25,0,0,0-.29.09s-2,3.27-4.17,3.91a1.86,1.86,0,0,1-.47.09c-1.6.11-3.44-1.38-4.11-2a6.13,6.13,0,0,0,3.65-2.57c1.46-2.18,1.94-5.55,1.42-10a37.83,37.83,0,0,0-1.21-6,.22.22,0,0,0-.25-.14.22.22,0,0,0-.2.21,12.09,12.09,0,0,1-2.44,8.2,1.12,1.12,0,0,1-.73.27,8.91,8.91,0,0,1-3-.63,7.13,7.13,0,0,0,3.14-4c1.11-3,1.31-7.4-1.49-10.75A13.38,13.38,0,0,1,311.24,252a.19.19,0,0,0-.07-.19.24.24,0,0,0-.23,0,7.08,7.08,0,0,1-1.52.31,3.23,3.23,0,0,1-1.09-.08c-6.16-11.06,8.52-26.52,10.21-28.25l.13-.13a.19.19,0,0,0,0-.28.26.26,0,0,0-.32,0l-.12.11c-1.32,1.24-6.19,2.67-7,2.73-.42,0-1.62-1.81-2.55-3.65a14.19,14.19,0,0,0,10.37-4.85,24.4,24.4,0,0,0,6.06-18.54c-1.06-10.16,4.27-31.84,21.42-35.93a30.79,30.79,0,0,1,4.79-.74,22.15,22.15,0,0,1,19.81,8.93c-2.3.71-18.24,6-26.78,20.5-6.85,11.6-7.31,26-1.36,42.7,2.16,10.27-1.35,18.61-4.45,26-1.52,3.62-3,7-3.41,10.13-.64,4.5.71,7.74,3.89,9.39l-1.56,1.34c-3.44-1.1-4.07-6.21-4.07-6.26a.21.21,0,0,0-.25-.18.23.23,0,0,0-.21.22c1.1,15.39-8.34,19.31-10.24,19.45h-.14c-1-.07-2.59-1.57-3.35-2.38C322.7,291.42,324.68,286.29,324.76,286.07Z"/><path class="cls-5" d="M367.47,329.86c-.17-.24-.36-.46-.55-.68C366.92,329.18,367.11,329.45,367.47,329.86Z"/><path class="cls-30" d="M318.65,223.64l-.32-.29c.06,0,5.08-4.64,6.84-9.33l.43.13C323.81,218.93,318.71,223.59,318.65,223.64Z"/><path class="cls-30" d="M311.24,252l-.45,0c1.3-18.54,10.41-21.63,10.79-21.75l.15.38C321.64,230.61,312.52,233.74,311.24,252Z"/><path class="cls-30" d="M333,275.28c0-.12-4.24-12-.23-23.82l.43.11c-4,11.74.19,23.46.24,23.57Z"/><path class="cls-30" d="M324.75,286.09l-.41-.17c5.52-10.86.42-25,.37-25.13l.43-.14C325.19,260.8,330.35,275.08,324.75,286.09Z"/><path class="cls-50" d="M371.49,171.54s-7.77-12.61-25-8.5c14.67-3.1,17.39,6.25,6.85,11,0,0,5.42,1.06-1.73,5.4,0,0-22.41,14.27-14.76,44.56s-5.57,37.61-2.73,22.81c0,0-4.52,11-2.73,19.7S329,289.67,327.1,272c0,0-3.75,18-4.83,4.48s-3.83-13.52-4-8.79a14,14,0,0,0-3.27-7.59c-2.91-3.13-5.47-20.2,5-28.82,0,0-6.69,3.61-9,10.29s-6.32-.51,2.28-9.28,13.08-16,12.74-20.8c0,0-8.35,16.59-17.64,10.86,0,0,2,4.13,2.93,4.06s6.07-1.62,7.23-2.91c0,0-17,16.86-10.32,28.67A4.47,4.47,0,0,0,311,252a13.43,13.43,0,0,0,3.27,10.6c4.38,5.25,1.43,13.69-2.05,14.66,0,0,3.54,1.49,4.5.5a12.43,12.43,0,0,0,2.5-8.35s5.07,16.55-4.07,18.43c0,0,2.84,2.88,5.08,2.21s4.3-4,4.3-4-2.12,5.6-5.75,6.17c0,0,2.25,2.61,3.75,2.71s11.77-3.51,10.62-19.67c0,0,.61,5.41,4.36,6.48l1.88-1.63c-1.59-.76-5-2.88-4-9.32,1.3-9.1,11.13-20.59,7.85-36.16C325.31,184.16,371.49,171.54,371.49,171.54Z"/><path class="cls-51" d="M353.2,165.09C345.89,164,335,168.58,329.28,183s-2.35,27-1.14,20.5,1.87-16.58,5.74-21.24-4,13.72.64,9,6.13-15.78,19.15-19.59-6.7-3.78-14.54,4.05c0,0-2.67,1.71-.57-1.76C342.75,167,358.14,165.84,353.2,165.09Z"/><path class="cls-52" d="M333.9,211.43c-.43,3.69,3.27,18.46,4,27.53s-2.77,11.44-3.72.27S329.34,216,331.83,206,334.85,203.27,333.9,211.43Z"/><path class="cls-53" d="M320.81,233.53c-3.82,3.38-9.69,11.8-4.78,21.21s6.76,11.44,6.91,16.78,3.06,1.12.52-8.77-8.18-18.44-.42-28.55S323.37,231.27,320.81,233.53Z"/><path class="cls-54" d="M328.89,231.52c-3.51,2.1-6.11,11.95-2.86,25.39s1.83,16.63,3.68,17.52.38-16.78-1.23-24.89S333.36,228.84,328.89,231.52Z"/><path class="cls-55" d="M325.24,218.56c-.88,3.29-7.61,11-12.11,15s-1.83,4.76,1.67.81,10.79-5.7,11.4-13.45S326.42,214.19,325.24,218.56Z"/><path class="cls-5" d="M460.31,333.61q-.26-.36-.54-.69A8.06,8.06,0,0,0,460.31,333.61Z"/><path class="cls-5" d="M356.09,297.55c-.45-10.73-5.83-19.66-8.42,4.09-1.1,10.1,1.49,27.31,3.43,33.14s4.33,5.1,4.4,1.67,8.58,5.28,7-.22,10.57,6.65,7.09-1.47,5.44.78.06-5.86S356.53,308.28,356.09,297.55Z"/><path class="cls-5" d="M446.81,310.11c.29,5.14,4.16,27.87,6.48,20.2s4.39,7,5.42.54,12.16,9.92,9.35,1,3.24.49,1-4.6-9.1-13.54-13.7-23.59C450.11,292.09,445.84,292.6,446.81,310.11Z"/><path class="cls-56" d="M522.64,72.06c-1.16,1.38-.63,2.25.82,2.55a2.69,2.69,0,0,1-.23.18c-1.62,2.89-2.79,2.67-4,2.81s-.21,5.2,2,18.21.65,25.24.23,32a79,79,0,0,1-4,14.53c-4.88,11.86-4,15.81-4,15.81,2.08,16.3.76,46-10.89,69s-31.05,26.13-31.05,26.13c-4,5.08-11.81,6.73-11.81,6.73-1.31,3-3.1,14.41-3.1,14.41,2.86,4.73.9,11.58-.38,16.06s9.09,23.75,14,34,7.78,9.66,7.78,9.66c-4.75,1.92-8.3-3-8.3-3,.82,4,6.47,6.18,6.47,6.18a13.34,13.34,0,0,1-15.5-3.73c-.17-.24-.36-.47-.55-.69,0,0,.19.27.55.69a19.05,19.05,0,0,1,3,8.14c-4-.72-7.37-7.47-7.37-7.47-.78,3,1.61,8.66,1.61,8.66-4.29-1.4-4.91-6.41-4.91-6.41-.43,4.69-5.06,6.22-5.06,6.22,2.82-3.39,1.14-9.78-2.77-23.89a84.37,84.37,0,0,1-3.17-29.52c.4-5.1-3.31-20.74-3.31-20.74-23,9.32-54-14.76-54-14.76,0,37-23,35.33-23,35.33-2.48,10.25,1.74,24.44,8,35.07s14,9.1,14,9.1c-2.6,6.87-11.3,2.17-11.3,2.17a6.83,6.83,0,0,0,4.27,5.22c-7.27,2.47-10.52-1.31-10.52-1.31-.2,3.62,1.85,5,1.85,5-4.46.11-7.13-5.25-7.13-5.25.24,5,3,6.16,3,6.16-5.47.39-8.71-4.82-8.71-4.82-1.17,4.4,1.31,8.74,1.31,8.74-4.55-1.21-5.86-8.32-5.86-8.32-1,3.67-5.06,2.93-5.06,2.93,3.83-.89,1.76-9.07.9-18s-.64-28.3-.85-31.17-3.4-9.21,0-15.58,11-1.75,11-1.75c9.27-6.52.87-21.65-4.83-29.3a83.47,83.47,0,0,1-8.41-13.58c-17.91-50.43,28.27-63.05,28.27-63.05l1.17-.46a65.3,65.3,0,0,0-22.47,18.21c-15.75,20,3,51.48,11.63,64.23,10.37,15.36-8.1,35.86,10.88,26.83,13.66-6.49,7.17-50.6,3.68-61s-.59-17.92,3.5-8,14.39,30.91,26.65,39,23.38.31,24.74-9.6,12.83-19.27,9.05-5.55,2,29.17,4.1,45.4,12,8.86,10-.72,2.57-29.37,1.49-43,6.35-19.65,9.58-6.32,16,3.94,33-19.87,7.61-73.06,3.18-61.93-7.71,9.34-16.33,10-11.19,4.13-9.95,15.18-6.88,6.21-19,16.12-17.09,10.82-15.54,4.67-9-1.69-20.81-2.63-15.67-10-6.42-6.24c7.68,3.1,8.52,2.13,5.32-.58l1,.76c7.85,5.82,18.94,2.25,18.94,2.25,2.26.05,6.2-1.4,6.2-1.4s-1.23,3.62.37,5.15a15,15,0,0,1,8.64-8.84c6.69-2.53,14.38-8.73,15.29-13.73,0,0-.21,5.05,2.1,7.05,0,0-1.88-15,4.21-20.74a58.73,58.73,0,0,1-7-2.19,4.27,4.27,0,0,0-.46-.11l.05-.07a30.88,30.88,0,0,1-3.69-2.33h0c17.12,9.22,24.19,2.63,28.08-1.61s9.73-12.49,6.58-9.53S488,152,477.82,151.66s-18.46-9.53-17.67-12.25a1.14,1.14,0,0,0,0-.63,5,5,0,0,1,.46-.63,37.32,37.32,0,0,1-5.36-3.88,20.91,20.91,0,0,0,12.18,4c6.17-.24,5.61,6.79,17.08,5.08,11.82-1.77,17.93-12.93,16.4-18.26s1.43-4,4-.13,11.45,6.94,13.32-7.49-2.87-16.82-12.91-11.93-4.95-1.62-4.95-1.62-12.08-9.41-3-19.39c0,0-5,3.89-6.46,2.7,0,0-1.69-2.3-5.67,1s-6-3.53-6.36-4.33-.56,2-5.13.37c-1.79-.63-4.16-.31-6.38.31,1.67-3.89,2.68-6.73,2.68-6.73a12.71,12.71,0,0,1-5.29-4.2c1.1,0,1.35-1,.51-2.12-1.74-2.31-4-8.58-2-16s2.81,2.34,7.16,5.42,6-2,3.25-6.16c1.77,1.83,2.95,3.25,2.95,3.25s-1.84,7.94-.79,13-3.85,10.35-3.85,10.35,2.74,1.45,4.2,1c0,0,1-1.51,1-5.41,0,0,3.11,8.31,7.3,9.24l3.8-1.29s-4.91-1.4-4.29-15.22c0,0,.41,10.56,7.85,15.37,0,0,4.33-3.49,4.67-3.62s-4.25-4.93-2.52-14.52c0,0,1.88,7.17,3.32,12.92,0,0,5.71-1.84,5.58-3.68,0,0-1.5-8.22-2.16-12.6,0,0,3.07,6.06,8,7.15l2.14-2.93s-5.77-3.36-4.63-7.84a7.16,7.16,0,0,1,3.89-4.86,24,24,0,0,1,3.5-3.43c-3.5,3.44-5.67,9.06-3.75,10.66s9.25-3.34,11.41-9S526,49.4,526.14,56,525.76,68.34,522.64,72.06ZM356.38,297.61c-.44-10.73-5.83-19.66-8.41,4.1-1.1,10.09,1.48,27.3,3.43,33.13s4.33,5.1,4.39,1.67,8.58,5.29,7-.22,10.57,6.65,7.09-1.47,5.44.78.06-5.86S356.82,308.34,356.38,297.61Zm99.31,6.09c-5.29-11.55-9.55-11-8.58,6.47.28,5.14,4.15,27.87,6.47,20.2s4.39,7,5.42.54,12.16,9.92,9.35,1,3.24.49,1-4.6S460.3,313.75,455.69,303.7Z"/><path class="cls-57" d="M528.91,87s-5.24-6-5.68-12.24c-1.63,2.89-2.8,2.66-4,2.8s-.2,5.21,2,18.21.65,25.24.23,32a157.89,157.89,0,0,0,2.65-22.14l.91,4.77A43.26,43.26,0,0,0,523,82.07l-.11-.26.11.26C523.51,83.18,525.55,87.36,528.91,87Z"/><path class="cls-30" d="M521.62,127.85a168.19,168.19,0,0,0,2.57-20.2l.55,2.83a.21.21,0,0,0,.21.17.24.24,0,0,0,.23-.15,43.74,43.74,0,0,0-.89-25.79,5.39,5.39,0,0,0,4.53,2.54h.11a.24.24,0,0,0,.19-.13.19.19,0,0,0,0-.2c-.05-.06-5.2-6-5.64-12.13a.21.21,0,0,0-.18-.19.25.25,0,0,0-.25.12c-1.4,2.49-2.4,2.57-3.47,2.65l-.39,0a.66.66,0,0,0-.42.23c-.74.87-.1,4.63,1.45,13.74.23,1.38.49,2.86.76,4.47,1.84,11,1,21.53.48,28.5-.1,1.27-.19,2.44-.26,3.47a.2.2,0,0,0,.2.21h0A.21.21,0,0,0,521.62,127.85Zm6.85-41c-3-.07-4.87-4-5.22-4.85l-.11-.27a.24.24,0,0,0-.29-.11.2.2,0,0,0-.14.26l.11.27h0A43.94,43.94,0,0,1,525,109.47l-.74-3.83a.23.23,0,0,0-.45,0,150.25,150.25,0,0,1-1.85,17.6c.53-7,1.19-17-.57-27.5-.27-1.61-.53-3.1-.76-4.47-1.39-8.2-2.16-12.71-1.54-13.44a.2.2,0,0,1,.11-.07l.38,0c1-.08,2.13-.17,3.48-2.27C523.72,80.67,527.44,85.58,528.47,86.85Z"/><path class="cls-58" d="M521.56,82.92c-1.22-5.58,1.71-5.73,2.82-3.38a16,16,0,0,1-1.15-4.74c-1.63,2.89-2.8,2.66-4,2.8s-.2,5.21,2,18.21.65,25.24.23,32a157.89,157.89,0,0,0,2.65-22.14l.91,4.77C525.47,99.92,522.85,88.8,521.56,82.92Z"/><path class="cls-59" d="M462.18,99.24c-3.85-.18-6.28,3.84-3.46,3a9.86,9.86,0,0,1,9.93,2.22c3.39,3.08,4.48,0,2.66-1.7,9.26-4.84,6.72-17.88,1.75-19.39a7.58,7.58,0,0,0-5.23.51A55.46,55.46,0,0,1,462,94.7C460.71,97.85,462.18,99.24,462.18,99.24Z"/><path class="cls-60" d="M475.13,94.75c-1.16,5.13-4.13,7.32-7.17,6.8s-5-3.54-3.84-8.67,4.58-8.88,7.62-8.36S476.3,89.62,475.13,94.75Z"/><path class="cls-48" d="M475.36,94.79a13.18,13.18,0,0,0-.13-7c-.66-2-1.89-3.26-3.44-3.52a3.71,3.71,0,0,0-.88,0c-3,.21-5.93,3.81-7,8.56a9.35,9.35,0,0,0,.36,6.19,4.9,4.9,0,0,0,3.66,2.72,5.52,5.52,0,0,0,1.28.06C472.1,101.61,474.41,99,475.36,94.79Zm-3.67-10.07c1.39.24,2.49,1.39,3.11,3.25a12.82,12.82,0,0,1,.11,6.74c-.91,4-3.05,6.5-5.74,6.7a5.68,5.68,0,0,1-1.16-.06,4.43,4.43,0,0,1-3.33-2.49,8.94,8.94,0,0,1-.33-5.94c1-4.5,3.85-8,6.58-8.23A3.19,3.19,0,0,1,471.69,84.72Z"/><path class="cls-24" d="M474.07,95.1c-1,4.32-3.48,6.16-6.05,5.72s-4.21-3-3.23-7.3,3.85-7.48,6.41-7S475.05,90.77,474.07,95.1Z"/><path class="cls-61" d="M474.75,95c-.62,3.26-3,5.64-5.34,5.3s-3.7-3.26-3.08-6.53,3-5.64,5.35-5.3S475.38,91.77,474.75,95Z"/><g class="cls-62"><path class="cls-63" d="M473.35,95.87c-.46,2.4-2.22,4.14-3.92,3.89s-2.72-2.39-2.26-4.79,2.22-4.14,3.92-3.89S473.81,93.48,473.35,95.87Z"/></g><path class="cls-24" d="M474.33,92.78c-.12,1.34-.93,2.38-1.81,2.34S471,94,471.15,92.62s.92-2.37,1.8-2.33S474.44,91.45,474.33,92.78Z"/><path class="cls-64" d="M467.31,96.25s1.41,2.15,5.24,1.15c1.61-.3-.31,3.27-3.36,2.33S466.41,95.67,467.31,96.25Z"/><path class="cls-60" d="M510.56,93.33c.78,6-1.79,9.28-5.59,9.62s-7.37-2.38-8.15-8.37,1.66-11.14,5.45-11.48S509.78,87.33,510.56,93.33Z"/><path class="cls-48" d="M505,103.16a6.06,6.06,0,0,0,4.06-2c1.58-1.76,2.18-4.49,1.73-7.89-.78-6-4.57-10.69-8.43-10.41h-.1a5.15,5.15,0,0,0-3.35,1.79c-1.94,2.16-2.82,6-2.31,9.92.72,5.51,4,8.88,8.26,8.57Zm5.34-9.81c.43,3.3-.14,5.92-1.64,7.59a5.59,5.59,0,0,1-3.74,1.81h-.13c-4,.29-7.08-2.93-7.77-8.21-.51-3.85.34-7.54,2.21-9.62a4.64,4.64,0,0,1,3-1.63h.09C506,83,509.57,87.55,510.33,93.35Z"/><path class="cls-24" d="M509.44,94c.66,5-1.5,7.82-4.7,8.11s-6.21-2-6.87-7.06,1.4-9.38,4.6-9.67S508.79,89,509.44,94Z"/><path class="cls-65" d="M510,93.72c.48,3.76-1.2,7.12-3.75,7.5s-5-2.36-5.48-6.12,1.2-7.12,3.75-7.5S509.51,90,510,93.72Z"/><g class="cls-62"><path class="cls-63" d="M508.81,95.08c.35,2.76-.88,5.23-2.75,5.51s-3.67-1.73-4-4.5.88-5.22,2.75-5.5S508.46,92.32,508.81,95.08Z"/></g><path class="cls-24" d="M508.76,91.4c.34,1.49-.14,2.89-1.08,3.12s-2-.78-2.3-2.27.14-2.89,1.07-3.13S508.42,89.9,508.76,91.4Z"/><path class="cls-64" d="M502.63,97.43s2.22,1.89,5.88-.42c1.58-.85.81,3.66-2.71,3.61S501.49,97.1,502.63,97.43Z"/><path class="cls-66" d="M460.41,128.66s5,3.22,3.14,4.33C461.89,134.1,460.41,128.66,460.41,128.66Z"/><path class="cls-67" d="M486,127.54s-3.26,2.82-2.37,5.38C486.4,133.34,486,127.54,486,127.54Z"/><path class="cls-48" d="M483.31,133.24h0a.21.21,0,0,1-.22-.21c.12-2.41.85-4.17,2.15-5.26a4.43,4.43,0,0,1,2.81-1.06.2.2,0,0,1,.21.21.22.22,0,0,1-.24.2c-.17,0-4.17,0-4.47,5.92A.24.24,0,0,1,483.31,133.24Z"/><path class="cls-48" d="M464,132.74a.22.22,0,0,1-.23-.13,6.53,6.53,0,0,0-5.58-4.27.21.21,0,0,1-.22-.21.24.24,0,0,1,.24-.2,7.08,7.08,0,0,1,6,4.53.2.2,0,0,1-.13.27Z"/><path class="cls-68" d="M478.53,127s4.09-8,9.68-8,4,7.51,3.38,9.15-3.71,6-8.39,5.36c-1.7,0-.83-7.08,4.59-7.26,4.28-.08.53-8.42-6.59.53C479.16,129.19,477.51,128.67,478.53,127Z"/><path class="cls-69" d="M465.32,126.86s-5.12-7.31-9.16-6.64-.83,7.87.07,9.4,4.31,5.41,7.52,4.24c4.33-1.23-1.34-7.05-5.3-6.56-3.1.43-2.69-8.21,4.9-.29C465.47,129.11,466.52,128.41,465.32,126.86Z"/><path class="cls-46" d="M520,77.75a3.55,3.55,0,0,1-2.61-1.06.19.19,0,0,1,0-.29.24.24,0,0,1,.32,0,3,3,0,0,0,2.51.92c1.73-.32,2.83-2.57,2.84-2.59a.23.23,0,0,1,.3-.11.19.19,0,0,1,.12.26c-.05.11-1.21,2.48-3.17,2.84Z"/><path class="cls-46" d="M474,70.69h0a.22.22,0,0,1-.23-.2,8.94,8.94,0,0,0-4.66-7.2c-4.83-2.77-4.82-8.42-4.82-8.47a.23.23,0,0,1,.46,0c0,.06,0,5.48,4.61,8.13a9.34,9.34,0,0,1,4.86,7.54A.22.22,0,0,1,474,70.69Z"/><path class="cls-70" d="M475.89,71.07c1.05,5.07-3.85,10.35-3.85,10.35s2.74,1.45,4.2,1c0,0,1-1.52,1-5.42,0,0,3.11,8.31,7.3,9.25l3.8-1.3s-4.91-1.4-4.29-15.22c0,0,.41,10.56,7.85,15.38,0,0,4.34-3.5,4.67-3.63S492.32,76.59,494,67c0,0,1.88,7.16,3.32,12.92,0,0,5.71-1.85,5.58-3.69,0,0-1.5-8.22-2.15-12.59,0,0,3.06,6.05,7.95,7.14l2.14-2.93s-5.77-3.35-4.63-7.84a7.16,7.16,0,0,1,3.9-4.85s-4.73-8.51-17.61-7.59-15.86,10.48-15.86,10.48S474.84,66,475.89,71.07Z"/><path class="cls-30" d="M484.61,86.48l3.8-1.3a.21.21,0,0,0,.15-.2.21.21,0,0,0-.15-.19s-1.19-.37-2.29-2.39c-.86-1.58-1.81-4.49-1.9-9.6.7,3.53,2.58,9.31,7.54,12.51a.26.26,0,0,0,.29,0c1.63-1.32,4.32-3.46,4.6-3.59a.26.26,0,0,0,.14-.13c.06-.14,0-.27-.29-.74a18.72,18.72,0,0,1-2.41-12.72c.58,2.21,2,7.47,3.05,11.85a.26.26,0,0,0,.11.14.31.31,0,0,0,.19,0c.6-.19,5.87-2,5.73-3.92,0-.07-1.27-6.92-2-11.39,1.13,1.81,3.77,5.35,7.48,6.18a.25.25,0,0,0,.25-.09L511.07,68a.19.19,0,0,0-.06-.28c-.06,0-5.63-3.33-4.53-7.63a7,7,0,0,1,3.76-4.7.25.25,0,0,0,.12-.13.18.18,0,0,0,0-.16,14.32,14.32,0,0,0-4-4.2c-2.58-1.86-7.07-4-13.79-3.5-12.89.92-16,10.54-16.07,10.65s-1.84,8-.79,13.09-3.75,10.13-3.8,10.18a.22.22,0,0,0-.05.17.19.19,0,0,0,.11.14,9.38,9.38,0,0,0,3.92,1.13h0a2.1,2.1,0,0,0,.46-.08.2.2,0,0,0,.13-.09s.87-1.31,1-4.41c1,2.3,3.64,7.58,7,8.34h.14Zm-7.42-9.64a.22.22,0,0,0-.19.21c0,3.33-.72,4.9-.91,5.23l-.26,0h0a8.51,8.51,0,0,1-3.44-1c.88-1,4.68-5.71,3.72-10.33-1-5,.78-12.85.79-12.91A14.2,14.2,0,0,1,480,53.28c2.12-2.25,6-5,12.59-5.5,11.52-.82,16.49,6.09,17.27,7.3A7.45,7.45,0,0,0,506,60c-.48,1.9.19,3.9,1.93,5.78a14.14,14.14,0,0,0,2.61,2.16l-1.93,2.63c-4.64-1.15-7.62-6.93-7.65-7a.23.23,0,0,0-.27-.11.21.21,0,0,0-.16.23c.65,4.32,2.14,12.51,2.16,12.58.09,1.31-3.51,2.82-5.19,3.39C496.11,74,494.28,67,494.26,67a.22.22,0,0,0-.23-.16.24.24,0,0,0-.22.18c-1.4,7.82,1.37,12.52,2.28,14.06l.23.39c-.74.48-3.39,2.61-4.44,3.45-7.12-4.74-7.6-15-7.61-15.12a.23.23,0,0,0-.45,0c-.52,11.4,2.7,14.44,4,15.19l-3.26,1.11c-4-1-7-9-7.07-9.1a.24.24,0,0,0-.23-.13Z"/><path class="cls-30" d="M475.9,71.28h0a.22.22,0,0,1-.24-.19c-.73-11.87,7.5-16,7.58-16.05a.24.24,0,0,1,.31.09.19.19,0,0,1-.09.27c-.08,0-8.06,4.07-7.34,15.66A.22.22,0,0,1,475.9,71.28Z"/><path class="cls-24" d="M506.21,129.33s.08,1.5-8,9.11c-5.54,5.22-13.52,7.26-19.93,6.89a16.77,16.77,0,0,1-7.45-2q-1.51-.9-2.85-1.62a66.5,66.5,0,0,0-7.36-3.58c3.2,2.18,3.13,5.85,7.66,9a19.49,19.49,0,0,0,10.29,3.27c6.55-.07,12.23-4.44,19.11-10.8C507,131,506.21,129.33,506.21,129.33Z"/><path class="cls-46" d="M497.84,139.74c9.16-8.47,8.66-10.31,8.58-10.5a.24.24,0,0,0-.26-.12.2.2,0,0,0-.18.21c0,.06-.2,1.68-7.93,9a26.82,26.82,0,0,1-16.33,6.79,24.46,24.46,0,0,1-3.42,0,16.53,16.53,0,0,1-7.34-1.93c-.95-.56-1.88-1.1-2.85-1.63a69.05,69.05,0,0,0-7.4-3.59.23.23,0,0,0-.28.08.19.19,0,0,0,.05.27,10.48,10.48,0,0,1,3,3.67,15,15,0,0,0,4.63,5.3,18.09,18.09,0,0,0,3,1.64,17.78,17.78,0,0,0,7.46,1.67c.31,0,.62,0,.93,0h0C485.51,150.14,490.78,146.27,497.84,139.74Zm-30,2.17c1,.53,1.9,1.06,2.84,1.62a16.94,16.94,0,0,0,7.56,2,25.49,25.49,0,0,0,3.49,0,27.29,27.29,0,0,0,16.62-6.91c1.72-1.62,3.07-3,4.13-4.08-1.2,1.32-2.82,2.94-5,4.94-7,6.46-12.18,10.29-18,10.7-.3,0-.6,0-.9,0A19.07,19.07,0,0,1,468.42,147a14.68,14.68,0,0,1-4.51-5.17,14.22,14.22,0,0,0-2.05-2.88C463.12,139.47,465.21,140.46,467.86,141.91Z"/><path class="cls-71" d="M478.59,150.6h0a.21.21,0,0,1-.24-.19l-.3-5.07a.23.23,0,0,1,.22-.22.22.22,0,0,1,.24.19l.29,5.07A.22.22,0,0,1,478.59,150.6Z"/><path class="cls-71" d="M468.38,147.33a.22.22,0,0,1-.24-.19l-.38-5.39a.21.21,0,0,1,.21-.22.22.22,0,0,1,.24.19l.39,5.39A.23.23,0,0,1,468.38,147.33Z"/><path class="cls-72" d="M506.25,60a7.16,7.16,0,0,1,3.9-4.85s-4.73-8.51-17.61-7.59l-1.11.1c1.28.35,3.05.07,5.17.64,12.08,3.22,3.88,12.26,12.16,19.38l-.51,1.42s-5.84-3.64-7.81-8.69-1.5,7.78,1.06,14.89c0,0-2.12,2.35-3.37,2.52,0,0-3.18-10.46-3.55-14.36s-3.71,5.7-2.29,11.15,2.4,6.31,2.4,6.31l-2.55,2s-6.82-6.5-6.65-15.35-6.43,6.15-.07,16.68l-2,.6s-10.63-12.78-3.92-23.85a12.92,12.92,0,0,1,6.87-5.6c4.78-1.6-.68-3.67-5.27-.06-1.95,1.53-2.58.47-2-1.44a13.69,13.69,0,0,0-2.41,4.11s-1.84,8-.79,13S472,81.42,472,81.42s2.74,1.45,4.2,1c0,0,1-1.52,1-5.42,0,0,3.11,8.31,7.3,9.25l3.8-1.3s-4.91-1.4-4.29-15.22c0,0,.41,10.56,7.85,15.38,0,0,4.34-3.5,4.67-3.63S492.32,76.59,494,67c0,0,1.88,7.16,3.32,12.92,0,0,5.71-1.85,5.58-3.69,0,0-1.5-8.22-2.15-12.59,0,0,3.06,6.05,7.95,7.14l2.14-2.93S505.11,64.51,506.25,60Z"/><path class="cls-73" d="M480.86,61c-1.5,2.2-3,6.49-1.85,12.68s2.63,6.85,2.67,5.38-1.61-12,2.7-15.77S483.42,57.21,480.86,61Z"/><path class="cls-74" d="M487.46,64.66c-.58,2.34-.66,9,2.89,13.74s-.16-5.36,1.18-11.21S488.59,60.13,487.46,64.66Z"/><path class="cls-75" d="M496.08,65.69c.26,2.18,1.71,9.82,3.24,9.44s-.95-8.71-.88-12.41S495.1,57.21,496.08,65.69Z"/><path class="cls-76" d="M483.08,51.44c3.65-1.9,12.15-4.72,16.3-1.16s-10.5,9.69-8.24,5.52,2.38-6.93-6.39-3.45C478.39,54.88,483.08,51.44,483.08,51.44Z"/><path class="cls-77" d="M445.08,186.93s-1.23,3.61.37,5.14a15.06,15.06,0,0,1,8.65-8.84c6.69-2.53,14.38-8.73,15.28-13.73,0,0-.21,5.05,2.11,7.05,0,0-1.89-14.94,4.2-20.74a58.73,58.73,0,0,1-7-2.19,4.27,4.27,0,0,0-.46-.11c-.78,1.09-11.09,15-24.4,13.7,0,0,2.08,5.1,6.49,4.27,0,0-13.06,9.56-11.4,16.85A23.52,23.52,0,0,0,445.08,186.93Z"/><path class="cls-30" d="M445.5,192.27a.22.22,0,0,0,.17-.14,15,15,0,0,1,8.51-8.71c7.42-2.8,13.3-8.36,15-12.49.11,1.68.55,4.39,2.15,5.77a.23.23,0,0,0,.18.05.2.2,0,0,0,.21-.22.13.13,0,0,0,0-.06c-.12-1-1.61-15,4.15-20.52a.2.2,0,0,0,.05-.19.23.23,0,0,0-.15-.15,57.28,57.28,0,0,1-7-2.19l-.48-.11a.24.24,0,0,0-.24.09,41.39,41.39,0,0,1-6.47,6.89c-4.85,4.14-9.79,6.41-14.66,6.76h0a18.26,18.26,0,0,1-3.05,0,.24.24,0,0,0-.21.08.18.18,0,0,0,0,.2c.08.19,1.95,4.66,6,4.48a51.91,51.91,0,0,0-5.77,5.27c-4.1,4.44-5.83,8.25-5.12,11.33a.22.22,0,0,0,.21.16,4.28,4.28,0,0,0,.61,0h0a23.81,23.81,0,0,0,5.26-1.25c-.27,1-.82,3.65.54,5a.3.3,0,0,0,.18.06Zm-.5-5.53a24.35,24.35,0,0,1-5.93,1.38c-1.39-7.06,11.22-16.39,11.35-16.48a.19.19,0,0,0,.07-.25.23.23,0,0,0-.25-.11,5.73,5.73,0,0,1-.58.07c-3.18.23-5-2.89-5.51-3.9a19.41,19.41,0,0,0,2.75,0h0c5-.36,10-2.67,14.94-6.87a42.55,42.55,0,0,0,6.45-6.85l.25.06a52.38,52.38,0,0,0,6.73,2.12c-2.41,2.48-3.82,6.65-4.19,12.42a49.75,49.75,0,0,0,.11,7.59c-1.74-2.14-1.58-6.38-1.58-6.42a.22.22,0,0,0-.21-.21.22.22,0,0,0-.24.17c-.9,5-8.71,11.14-15.15,13.58a15.41,15.41,0,0,0-8.64,8.59c-1.1-1.56-.08-4.62-.07-4.66a.21.21,0,0,0-.06-.21.34.34,0,0,0-.17-.05Z"/><path class="cls-30" d="M469.4,169.71h-.06a.19.19,0,0,1-.18-.23,13.41,13.41,0,0,0,.15-6,.19.19,0,0,1,.16-.25.22.22,0,0,1,.28.14,13.34,13.34,0,0,1-.14,6.2A.25.25,0,0,1,469.4,169.71Z"/><path class="cls-30" d="M450.3,171.68a.19.19,0,0,1-.16,0,.18.18,0,0,1,0-.28,15.3,15.3,0,0,1,7.86-4.67.22.22,0,0,1,.27.15.2.2,0,0,1-.17.24,15.28,15.28,0,0,0-7.6,4.52A.21.21,0,0,1,450.3,171.68Z"/><path class="cls-30" d="M445.1,187.13H445a.2.2,0,0,1-.17-.24,22.07,22.07,0,0,1,8.65-11.7.24.24,0,0,1,.32,0,.19.19,0,0,1,0,.29A21.73,21.73,0,0,0,445.3,187,.22.22,0,0,1,445.1,187.13Z"/><path class="cls-78" d="M475.69,155.81a58.73,58.73,0,0,1-7-2.19,4.27,4.27,0,0,0-.46-.11,41.77,41.77,0,0,1-10.44,9.86h0c6-3.28,9.38-7.68,12.5-7.16s-3,3.63-2.3,8.19-.71,9.38-8.43,13.16-9.89,5.82-12.11,9.21.79-9.32,9.07-13c0,0-4.39,0-11.68,9.33-5.14,6.55-3.6-5.75,12.5-15.86,0,0-11.53,4.59-13.52-.06,0,0,2.08,5.1,6.49,4.27,0,0-13.06,9.56-11.4,16.85a23.52,23.52,0,0,0,6.2-1.4s-1.23,3.61.37,5.14a15.06,15.06,0,0,1,8.65-8.84c6.69-2.53,14.38-8.73,15.28-13.73,0,0-.21,5.05,2.11,7.05C471.49,176.55,469.6,161.61,475.69,155.81Z"/><path class="cls-79" d="M458.05,164a18.91,18.91,0,0,1-10.25,4c-4.17.11,3.14,1.52,7.78-.93S460.65,161.9,458.05,164Z"/><path class="cls-80" d="M451.54,172.78a55.3,55.3,0,0,0-7.36,8.73c-1.94,3.15,1.3-1,4-3.3s7.9-6.53,10.39-6.91S459.49,165,451.54,172.78Z"/><path class="cls-81" d="M450.57,180.4c.92-.92,6.16-5.94,9.81-6.61s1.57,1.48-1.38,2.72-8.45,4.41-9.52,6.18S448.49,182.49,450.57,180.4Z"/><path class="cls-82" d="M462.29,161.6c1.55-1.9,7.69-6.31,6.8-3.52s-3.73,5.45-2.84,8.68-3.91,6.66-3.69,3.3,1.78-5.86-.5-3.63S458,166.84,462.29,161.6Z"/><path class="cls-83" d="M464,142.39s3.95-1.16,4.23,3c0,0,7.24-2.71,10.23,3.52,0,0,2.07-2.35,6.91-3a26.1,26.1,0,0,0,9.58-3.86s10-8.66,11.25-12.72c0,0-3.69,7.63-15.69,13.95a26.16,26.16,0,0,1-12.9,2,22.41,22.41,0,0,1-8.05-2.65c-4.39-2.38-8.95-4.47-8.95-4.47S463.45,140.23,464,142.39Z"/><path class="cls-46" d="M497.84,139.74c9.16-8.47,8.66-10.31,8.58-10.5a.24.24,0,0,0-.26-.12.2.2,0,0,0-.18.21c0,.06-.2,1.68-7.93,9a26.82,26.82,0,0,1-16.33,6.79,24.46,24.46,0,0,1-3.42,0,16.53,16.53,0,0,1-7.34-1.93c-.95-.56-1.88-1.1-2.85-1.63a69.05,69.05,0,0,0-7.4-3.59.23.23,0,0,0-.28.08.19.19,0,0,0,.05.27,10.48,10.48,0,0,1,3,3.67,15,15,0,0,0,4.63,5.3,18.09,18.09,0,0,0,3,1.64,17.78,17.78,0,0,0,7.46,1.67c.31,0,.62,0,.93,0h0C485.51,150.14,490.78,146.27,497.84,139.74Zm-30,2.17c1,.53,1.9,1.06,2.84,1.62a16.94,16.94,0,0,0,7.56,2,25.49,25.49,0,0,0,3.49,0,27.29,27.29,0,0,0,16.62-6.91c1.72-1.62,3.07-3,4.13-4.08-1.2,1.32-2.82,2.94-5,4.94-7,6.46-12.18,10.29-18,10.7-.3,0-.6,0-.9,0A19.07,19.07,0,0,1,468.42,147a14.68,14.68,0,0,1-4.51-5.17,14.22,14.22,0,0,0-2.05-2.88C463.12,139.47,465.21,140.46,467.86,141.91Z"/><path class="cls-84" d="M473.93,68.44c.58,3.32-.62,7.3-4.92,4.46s-5.27-4.68-3.62-12.55c0,0,.45-1.67.85-.06s3.07,2.77,3.79,3.32S473.45,65.74,473.93,68.44Z"/><path class="cls-84" d="M523,55.53s-.39,2.69-4.88,4.88-10.62,8.38-7.46,11,9.69,3.55,12.16-4.36"/><path class="cls-84" d="M522.75,56.6S524.44,64,519.82,68c-5.52,4.74-10.48,2.69-9.32-.27s4.75-5.19,6.92-6.93S521.76,58.05,522.75,56.6Z"/><path class="cls-84" d="M464.94,62.57s.83,8.43,6.42,9.2,1.42-5.69.38-6.66-4.07-2.75-5-4.13-.88-1.86-1.27-.44C465.05,62.13,464.94,62.57,464.94,62.57Z"/><path class="cls-85" d="M461.44,145.81s.36.33,1,.87c.33.27.74.58,1.21.94l.77.55c.28.19.56.39.87.58s.62.4,1,.6.69.4,1.06.61c.73.4,1.53.77,2.36,1.13.42.18.85.34,1.28.51l1.35.44.7.18.35.09.18,0h.05l.09,0,.75.14a5.17,5.17,0,0,0,.74.12,20.77,20.77,0,0,0,2.87.18h.72l.72-.05.71,0,.69-.08a25.8,25.8,0,0,0,2.66-.46c.83-.19,1.62-.4,2.34-.62l1-.34.91-.34.79-.33.66-.31a8.63,8.63,0,0,0,.89-.49l.31-.19-.24.26a6.15,6.15,0,0,1-.75.69l-.59.44-.74.48-.86.5-1,.5c-.36.15-.73.33-1.12.48s-.81.31-1.24.44a19.78,19.78,0,0,1-2.78.72l-.75.14-.76.09-.78.08-.79,0a19,19,0,0,1-3.26-.16,5.88,5.88,0,0,1-.77-.13l-.75-.15-.1,0h-.13l-.19,0-.38-.11-.76-.22-1.45-.53c-.46-.21-.92-.4-1.35-.62a22,22,0,0,1-2.38-1.42,16.66,16.66,0,0,1-1.92-1.5,15.15,15.15,0,0,1-1.45-1.41,14.13,14.13,0,0,1-1-1.17A8.79,8.79,0,0,1,461.44,145.81Z"/><path class="cls-16" d="M440,278.6v2.2a64,64,0,0,1-2.1,13.8c-.2,1-.5,2-.8,3v.2c0,.1-.1.2-.1.3v.1a9.83,9.83,0,0,1-.5,1.6c-.7,2.6-1.6,5.3-2.6,8.2l-.8,2.4c-.8,2.3-1.6,4.5-2.3,6.5-.2.6-.4,1.2-.6,1.7-.7,1.8-1.3,3.6-1.9,5.2-.3.7-.5,1.4-.7,2,0,.1-.1.1-.1.2-.1.3-.2.5-.3.8a4.88,4.88,0,0,1-.3.7c-.7,1.9-1.4,3.7-2,5.5-.2.4-.3.8-.5,1.2-7.4,19.6-11.7,28.2-14.9,35.3v.1c-1.8,4.1-5.6,13-9.4,23h0c-1.9,4.9-3.8,9.9-5.5,14.8-.9,2.5-1.7,5-2.5,7.4a91.11,91.11,0,0,0-3.7,14.3c-.2,1.4-.4,3-.7,4.7-.2,1.5-.5,3.1-.8,4.7-.7,4-1.5,8.4-2.3,12.7a4.33,4.33,0,0,1-.1.5c-1.1,5.9-2.1,11.7-2.8,16.1-.1.4-.1.8-.2,1.2-.2,1.5-.3,2.7-.4,3.7v2.2c.1.3.1.6.2,1.1a157.89,157.89,0,0,1,3,16.7c.7,6.4.8,13-1.2,16.6-4.5,8-27.5,47.6-34.8,57.6-3.4,4.6-12.6,14.3-22.1,24.2-11.1,11.7-22.6,23.8-25.6,28.7a58.45,58.45,0,0,1-8.4,10.2H138c3-4,6.1-8.3,9.1-12.5l1.5-2.1c1.5-2.1,3-4.3,4.5-6.4l1.5-2.1c1.9-2.7,3.6-5.4,5.3-8h0c2.8-4.2,5.3-8.3,7.5-12h0c2.1-3.6,3.9-7,5.3-9.9a38.09,38.09,0,0,0,2.4-6.4c.9-3.9,1.7-7,2.3-9.5l.3-1.2c.1-.4.2-.8.3-1.1s.2-.7.3-1c.1-.5.3-1,.4-1.4a2.35,2.35,0,0,0,.2-.8h0a2.35,2.35,0,0,0,.2-.8,1.45,1.45,0,0,1,.2-.7,23.22,23.22,0,0,1,1.8-3.9,54.58,54.58,0,0,1,4.3-5.5,5.3,5.3,0,0,0,.8-1.5,7.84,7.84,0,0,0,.5-1.4,27.45,27.45,0,0,0,1-3.9c.2-.7.3-1.5.5-2.4.4-2.1.8-4.5,1.2-7.1.2-1,.3-2.1.5-3.2.2-1.7.5-3.4.7-5.3.2-1.2.3-2.4.5-3.7.1-.6.2-1.3.3-1.9.4-2.6.7-5.2,1-7.9l.3-2.1c.2-1.4.4-2.7.6-4.1,1.2-8.8,2.5-18,4-26.5.3-2,.7-3.9,1.1-5.8,2.2-11.3,4.8-21,8-26.9l1.3-2.4h0l.3-.6c2.2-4,4.5-7.7,6.7-11.2,0-.1.1-.1.1-.2,6.6-10.4,13-18.8,19.1-25a53.57,53.57,0,0,1,9.4-7.7c.6-.4,1.2-.7,1.7-1,4.7-2.7,9.1-3.6,13-2.6a16.52,16.52,0,0,1,4.1,1.8l.2.1h0v-.1h.1a92.65,92.65,0,0,1,7.7-8.9l.5-.5a.1.1,0,0,1,.1-.1l.3-.3c.1-.1.1-.2.2-.2l.5-.5.6-.6c7.4-7.2,17.8-14.6,26.6-11.8a9.43,9.43,0,0,1,2.3,1,29.61,29.61,0,0,1,2.6,1.6c.8.5,1.5,1,2.1,1.4h0c.1,0,.2.1.4.3s.4.3.6.5a1,1,0,0,0,.4.3,18.74,18.74,0,0,1,2.3,2.3,1,1,0,0,0,.4.5l.2.4h0c.1.1.1.3.2.4s.1.2.1.3v.1l1.2-2,1.1-2,.1-.2a.1.1,0,0,1,.1-.1h0v-.1h0c.7-1.3,1.6-2.7,2.5-4.3a8.79,8.79,0,0,0,.6-1l.1-.1.9-1.6,1.2-2.1h0c.2-.4.5-.8.7-1.2a8.79,8.79,0,0,1,.6-1l.7-1.3.9-1.5.1-.2.8-1.3c.3-.5.5-1,.8-1.4s.3-.5.5-.8.4-.8.6-1.1l.6-1.1h0a4.43,4.43,0,0,1,1.2-1.5c3.6-3.6,11.6-5.1,18-4.8a18.6,18.6,0,0,1,7,1.4c.2.1.3.1.5.2l.1.1a.31.31,0,0,0,.2.1l1.2.7a5.94,5.94,0,0,0,.8.4,1.27,1.27,0,0,1,.6.4c.6.4,1.3.8,1.9,1.2a17,17,0,0,1,5,5l.9,1.5a20,20,0,0,1,1,2.1,27.6,27.6,0,0,1,1.9,8.5c.1,1.2.1,2.5.1,3.8v.9s.3-.8.8-2.1c2.3-6,9.2-23.7,17.1-38.1h0c.5-.8.9-1.6,1.3-2.3l.9-1.5h0a.1.1,0,0,1,.1-.1c.2-.4.5-.8.7-1.2h0l.6-1c1.3-2.3,2.6-4.8,4-7.5.6-1.1,1.1-2.2,1.7-3.4s1.3-2.7,2-4c2.4-5.1,4.9-10.5,7.1-15.5.4-.9.8-1.9,1.2-2.8.1-.1.1-.3.2-.4l.1-.2c1.8-4.1,3.5-8,5-11.2,1.7-4,3.1-7,4-8.7.2-.4.4-.7.6-1.1.5-.7,1-1.5,1.6-2.5a3,3,0,0,1,.5-.7c.2-.2.3-.5.5-.7a5.58,5.58,0,0,0,.5-.8,17.1,17.1,0,0,1,1.1-1.4c.4-.4.5-.6.8-.9l.4-.5.9-.9a6.47,6.47,0,0,1,.9-.8,8.65,8.65,0,0,1,1-.7c.3-.2.7-.4,1-.6a8.57,8.57,0,0,1,4.1-1h0a4.1,4.1,0,0,1,1.1.1,2.35,2.35,0,0,1,.8.2c.2,0,.3.1.5.2h0l.3.1.4.2a11.22,11.22,0,0,1,1.3.5h0l.8.4,1.1.5a6.38,6.38,0,0,1,1.4.8l.5.3a2.19,2.19,0,0,0,.5.3l.2.2c.4.3.7.6,1.1.9a12.41,12.41,0,0,1,3.1,4.8,19.87,19.87,0,0,1,1.2,4.8c0,.3.1.6.1,1A12.75,12.75,0,0,0,440,278.6Z"/><path class="cls-13" d="M348.7,348.1a8.8,8.8,0,0,1,2.7,1c2.8,1.6,14.5,5.5,13.6,24.7-5.1,17-17.3,30.6-17.3,30.6s5-15,9.3-26.9C361.6,365,354.9,353.2,348.7,348.1Z"/><path class="cls-13" d="M434,308.1c-13.6,39.6-20.2,52.2-24.5,61.8-4,8.9-17.2,41.5-20.5,56.4-3,16.8-6.1,31.4-7.9,49-.4-1.9,1.5-36.8,3.2-49.5s13.5-47.4,17.8-57.1,13.7-23.8,27.3-63.4c8.3-24.2,8.7-37.8.5-43C436.4,265.2,446.7,271.1,434,308.1Z"/><path class="cls-13" d="M292.3,630.4a50.19,50.19,0,0,0,8.3-10.1c5.5-9.2,40.4-42.9,47.8-53s30.3-49.7,34.8-57.6-1.1-30.1-2-34.3-3.7,22.5-7.3,29c-4.5,8-32.5,43.1-41.7,51.6-12.1,11.2-46.6,36-53.7,47.7-6.4,10.6-28.5,16.2-33.6,20.9-1.9,1.8-3.8,3.7-5.7,5.8Z"/><path class="cls-13" d="M428.4,261.9c.5.2.9.5,1.3.7C429.3,262.4,428.8,262.1,428.4,261.9Z"/><path class="cls-18" d="M330.8,357.3c-3.2,5.6-30.2,41.7-32.7,46.1-.8-.8,10.9-21.1,13.6-27,2.8-4.9,9.9-17.2,13-22.6,3.8-6.8,21.2-7.9,26.6-4.8,1.7.9,3.3,1.9,4.9,2.9C349.6,349.6,334.3,351,330.8,357.3Z"/><path class="cls-18" d="M146.7,630.4c15.3-20.9,31.9-45.3,34.5-56.1,4.9-20.8,4.6-18.6,10.4-25.9s9.1-82.2,20.9-103.6c18.3-33.1,36.1-51.8,49.2-51.1,1.7.1-16.5,37.7-16.5,37.7s21.5-33.2,23.2-35.4c0,0,21.5-29.2,37.5-22.5-1.3-.9-2.8-1.9-4.7-3-16.1-9.1-39,22-39,22-13.5-9.2-34.4,9.8-56,48.9-11.8,21.4-15.1,96.3-20.9,103.6s-5.4,5.1-10.3,25.9c-2.7,11.4-21.1,38-37.1,59.6h8.8Z"/><path class="cls-18" d="M413.8,275.8c-1.7,4.3-16.7,36.4-26.1,56.2-8.9,18.9-28.6,55.9-28.6,55.9,3.7-9.3,17.8-46.1,26-58.2,11.8-17.3,24.6-53.2,27.2-57.1s7.7-13.7,15.9-10.9c1.8.6,4.8,1.8,6.5,3.5C427.7,262.1,417.7,265.5,413.8,275.8Z"/><path class="cls-13" d="M313.1,374s-27.8,52.4-30.7,57.2c0,0,27.9-54.9,23.6-57.8,0,0,4.2,3,4.6,5.1Z"/><path class="cls-13" d="M258,390.5s-1.4,11.4-16.9,49.2c0,0,23.3-48.2,30.2-57.5,0,0-3.8,2.2-9,10.2A12,12,0,0,0,258,390.5Z"/><path class="cls-20" d="M419.6,265.6c2.8-1.7,4.9-1.7,7.1-.9a9.08,9.08,0,0,1,5.4,5.9c1,3.1,1,3.9-2.8,13.9-1.2,3.3-5.6,3-9.2,1.6s-8.8-4.3-6.9-9.4C416.4,268.3,416.8,267.2,419.6,265.6Z"/><path class="cls-26" d="M420,287.4c3.7,1.4,8,1.7,9.2-1.6,2.4-6.5,3.3-9.1,3.3-11,.4,2.1-.2,4.2-3.2,12.3-1.2,3.3-5.5,3-9.2,1.6-3.5-1.4-7.2-2.9-6.8-6C414,285,417.1,286.2,420,287.4Z"/><path class="cls-19" d="M419.6,265.6c2.8-1.7,4.9-1.7,7.1-.9a9.08,9.08,0,0,1,5.4,5.9,7.89,7.89,0,0,1,.5,3c-.3.5,0,1.3-.2,1.8a13,13,0,0,0-.7-3.3,10.83,10.83,0,0,0-6-6.4c-2.4-.9-4.4-.4-7.3,1.3a5.83,5.83,0,0,0-1.5,1.1A6.52,6.52,0,0,1,419.6,265.6Z"/><path class="cls-20" d="M417.5,395.2c.2-.8-4.7-1-6.1.3s-6.3,13.9-8.6,20.9c0,0,2.9,1,3.3.5S414.9,404.1,417.5,395.2Z"/><path class="cls-19" d="M417.3,395.7c0-.1.1-.3.1-.4.2-.8-4.7-1-6.1.3a2.36,2.36,0,0,0-.6.9C411.9,395.3,416.3,395.1,417.3,395.7Z"/><rect class="cls-24" x="474" y="366.7" width="116.6" height="4.3"/><rect class="cls-24" x="474" y="377.3" width="116.6" height="4.3"/><rect class="cls-24" x="474" y="387.1" width="116.6" height="4.3"/><rect class="cls-24" x="474" y="397.7" width="116.6" height="4.3"/></g></g></g></svg>