<svg id="Layer_3" data-name="Layer 3" xmlns="http://www.w3.org/2000/svg" viewBox="0 0 512 512"><path d="M437.78,314.05c-.16-.47-.32-.95-.46-1.42q-.48-1.47-1-2.91c-3.95-10.84-11.46-17.2-21.73-18.4a42.38,42.38,0,0,0-16,1.36c-17.19,4.92-34.59,10.14-51.42,15.19q-9.86,3-19.7,5.9c-1.16.35-2.33.67-3.56,1-2-9.8-8.45-16.66-19.61-20.89-10-3.8-21.75-8.34-33.14-13.29-16.51-7.16-31-9.9-45.57-8.64-3.83.34-7.79.51-11.63.67-7.6.33-15.45.67-23.05,2.28-16.7,3.55-32.94,11.63-51.1,25.43-6.36,4.84-12.46,10.23-18.36,15.45-2.25,2-4.55,4-6.87,6-10.13-3.17-15-1.21-22.31,8.43q-1.17,1.53-2.37,3c-1.92,2.47-3.91,5-5.73,7.68L83,342.68c-9.64,14.16-15.46,22.71,3.25,38,9.1,7.43,18.31,15.05,27.21,22.42,10.11,8.35,20.56,17,30.9,25.42,5.23,4.26,10.44,6.39,15.41,6.39,5.64,0,11-2.74,15.71-8.2s8.84-11.09,12.93-16.66c1.38-1.89,2.77-3.78,4.16-5.65a16.5,16.5,0,0,0,2-17.05,17.38,17.38,0,0,0-1.57-2.86A23.61,23.61,0,0,1,203.2,379c7.87-2.17,16.23-1.44,25.58,2.23,5.38,2.11,10.85,4.31,16.14,6.43,6.69,2.68,13.6,5.46,20.44,8.1,13.73,5.31,27,5.55,39.49.71,5.1-2,28.78-12.47,53.86-23.58,22.56-10,45.88-20.34,54.17-23.79,13.59-5.65,21.51-13.72,24.94-25.39l.13-.45v-8.68ZM161.71,416.68a7.05,7.05,0,0,1-.78.65c-1,.73-2.07,1.18-4.37-.7-20.65-17-42-34.57-63.4-52.35-2.51-2.07-2.7-3.59-.75-6.19,2.32-3.12,4.68-6.2,7-9.29,2.61-3.4,5.29-6.93,7.91-10.44a4.1,4.1,0,0,1,.74-.82,4.42,4.42,0,0,1,1,.64c24.41,19.62,46.93,37.64,68.83,55.09a5.76,5.76,0,0,1,1,.93,3.64,3.64,0,0,1-.73,1.24c-2.22,2.85-4.42,5.78-6.54,8.61-2.81,3.73-5.71,7.6-8.67,11.29A11.41,11.41,0,0,1,161.71,416.68ZM416,327.78a26.3,26.3,0,0,1-6,3.82c-6.22,2.88-12.62,5.69-18.8,8.41l-6.28,2.77-11,4.83,0-.07-3,1.33c-1,.45-66.89,29.72-67.11,29.83-11,5.08-22,5.32-33.62.73-7.13-2.81-14.37-5.7-21.37-8.5q-6.78-2.71-13.56-5.42a62.28,62.28,0,0,0-23.13-4.82,49.8,49.8,0,0,0-14.79,2.24,42.74,42.74,0,0,0-17.28,10.37l-51.24-41a6.77,6.77,0,0,1,.57-.53c2.84-2.36,5.66-4.78,8.39-7.14A243.72,243.72,0,0,1,158,308.42c11.78-8.08,26.09-16.59,43-18.26,10.29-1,20.92-1.06,31.2-1.11l6.83,0a27.37,27.37,0,0,1,9.74,1.65c14.64,5.54,29.47,11.37,43.8,17l9,3.56a9.77,9.77,0,0,1,2.19,1.36c3.66,2.77,4.69,7.85,2.52,12.36-1.6,3.29-3.49,4.69-9.53,3.24L283,324.87q-15.76-3.81-31.56-7.58c-5.49-1.32-9.86.93-11.12,5.74a8.14,8.14,0,0,0,.75,6.39c.85,1.44,2.67,3.37,6.43,4.29l7.95,2c12.93,3.17,26.29,6.45,39.46,9.55,10.57,2.48,19.69-1.3,25.67-10.65a4.34,4.34,0,0,1,2.06-1.6c12.22-3.72,24.69-7.39,36.75-11l13-3.83,10.95-3.29c7.43-2.25,15.11-4.58,22.71-6.67,6.12-1.69,11.11.3,13.69,5.47a11.08,11.08,0,0,1,1.26,5C420.92,322.61,418.46,325.69,416,327.78Z"/><path d="M322.6,85.55c-7.75-10.41-19.85-15.91-30.84-14C281.62,73.27,274,81,270.18,93.33c-4.16,13.52-2,26.05,6.3,37.26,6,8,14.33,12.49,23.19,12.49.78,0,1.57,0,2.36-.1a26.86,26.86,0,0,0,13.53-5.12,32.63,32.63,0,0,0,9.85-11.94C332.35,112,331.32,97.3,322.6,85.55Zm-11.83,38.11c-5.13,6.56-13.14,7.54-19.71,2.47-10-7.71-12.22-25.37-4.5-35.33,5.51-7.1,14-8,20.74-2.06,6,5.27,8.19,12.18,8.27,19.94A23.5,23.5,0,0,1,310.77,123.66Z"/><path d="M384.15,80.83c-10.36-12.17-25.55-13.18-38.67-2.56-14.84,12-18,36.54-6.67,52.46,4.95,7,12,11.33,19.79,12.2a25.8,25.8,0,0,0,2.91.16,28.19,28.19,0,0,0,18.84-7.55C398,119.74,396.07,94.84,384.15,80.83ZM372.41,124.2c-7.48,7.78-18.17,6.69-23.27-2.83-5.74-10.71-4.72-22,3.1-30.89,7.36-8.37,18.21-7.31,23.85,2.27S380.05,116.27,372.41,124.2Z"/><path d="M433.1,123.25a24.11,24.11,0,0,0-17.43-12c-7.22-.93-14.6,1.71-20.27,7.26-10.9,10.69-12.87,29.68-4.36,42.33a24.1,24.1,0,0,0,13.45,10.21,22.77,22.77,0,0,0,6.25.87,24.48,24.48,0,0,0,14-4.53A29.76,29.76,0,0,0,434.77,155C439.64,144,439.08,133.31,433.1,123.25Zm-15.53,32.34c-4.88,4.08-10.75,3.35-14.65-1.69-5.68-7.31-4.21-20.42,2.94-26.35,5.14-4.26,11.48-3.61,15,2.11C427,139.71,423.54,150.6,417.57,155.59Z"/><path d="M409.06,211c-.05-.82-.1-1.65-.19-2.47a48.42,48.42,0,0,0-1-6.21c-.16-.71-.34-1.43-.53-2.13-.06-.24-.13-.48-.18-.65-.21-.74-.44-1.47-.68-2.19-.41-1.25-.88-2.51-1.4-3.74-5.24-12.47-14.84-21.35-22.62-27.7-17.65-14.4-33-20.61-51.16-20.78-27.75-.16-56.44,17.35-73.12,44.64-8.44,13.8-9.13,28.86-2,43.52a100.07,100.07,0,0,0,14.12,21.61c14,16.09,33.51,19.19,52.2,8.27,5.77-3.37,10.52-3.39,16.35-.06a58.06,58.06,0,0,0,15.46,5.68,32.74,32.74,0,0,0,7.66.93,30.74,30.74,0,0,0,16-4.54c1.3-.79,2.45-1.53,3.49-2.26l1.08-.77.54-.4c.39-.28.77-.57,1.09-.82s.82-.63,1.18-.93.78-.63,1.17-1l.29-.26c.41-.34.81-.69,1.18-1,1-.93,2-1.88,2.95-2.82.47-.45.93-.94,1.41-1.44s.86-.95,1.29-1.43c.67-.76,1.31-1.53,1.91-2.26l.93-1.18.09-.13.2-.28.56-.74c.35-.47.69-.94,1-1.41.7-1,1.27-1.87,1.76-2.67l.43-.69c.57-.93,1.09-1.85,1.55-2.7.16-.3.33-.62.46-.88.31-.58.6-1.17.88-1.75s.49-1,.69-1.48l.26-.57c.23-.53.44-1.06.64-1.55s.4-1,.59-1.5l.11-.31.13-.35.46-1.38a2.06,2.06,0,0,0,.12-.35c.16-.5.32-1,.46-1.47.36-1.25.66-2.39.89-3.47.09-.39.17-.77.24-1.15a3.82,3.82,0,0,0,.08-.39c0-.15.06-.29.08-.44.1-.51.18-1,.26-1.52l.05-.29c.08-.56.16-1.13.23-1.69s.14-1.34.19-2,.09-1.27.12-1.91v-.15c0-.64,0-1.28,0-1.92C409.12,212.68,409.1,211.87,409.06,211Zm-19,14.35a73.64,73.64,0,0,1-10.26,16.66c-9.82,11.9-20,13.64-33.93,5.83a37.4,37.4,0,0,0-8.36-3.57c-9.79-2.72-18.07,1.1-23.44,4.2-11.21,6.49-21,5.39-29.83-3.35a56.76,56.76,0,0,1-14.18-22.74,28.39,28.39,0,0,1,.71-19.93c2.72-6.82,7.21-13,13.76-19,16.69-15.13,30.53-21.62,46.2-21.62h.42c17.86.15,36.38,10.37,52.18,28.75,6.29,7.33,9.45,14.84,9.45,22.44A30.26,30.26,0,0,1,390.09,225.39Z"/><path d="M239.12,113.22a22.24,22.24,0,0,1,2.33-.94A22.24,22.24,0,0,0,239.12,113.22Z"/><path d="M265.06,117.76a23.9,23.9,0,0,0-18.7-6.55,23.24,23.24,0,0,0-4.91,1.07,22.24,22.24,0,0,0-2.33.94,25.48,25.48,0,0,0-9.86,8.33c-9.51,13.21-7.19,33.39,5.05,44.06A24.58,24.58,0,0,0,250.48,172a23.45,23.45,0,0,0,3.34-.24,23,23,0,0,0,10.58-4.5c.26-.2.51-.4.76-.62.52-.42,1-.86,1.48-1.33.24-.23.48-.46.71-.71a28.23,28.23,0,0,0,3.36-4.35,33.64,33.64,0,0,0,1.65-3c.33-.68.63-1.36.91-2.05s.54-1.42.76-2.13c.12-.37.22-.72.33-1.08s.2-.75.28-1.13.18-.73.26-1.12c.11-.54.21-1.1.28-1.66,0-.21.07-.41.1-.61a35.63,35.63,0,0,0,.3-4.88h0C275.48,132.4,272,124.06,265.06,117.76Zm-7.35,37a9.47,9.47,0,0,1-12.89,1.64c-8.55-5.67-10.3-20.65-3.31-28.21,3.78-4.1,8.93-4.56,13.43-1a18.33,18.33,0,0,1,6.93,14.58C261.77,147.27,260.7,151.37,257.71,154.76Z"/></svg>