<svg xmlns="http://www.w3.org/2000/svg" viewBox="0 0 512 512"><g id="Layer_26" data-name="Layer 26"><path d="M367.86,143.4a2.61,2.61,0,0,1-1.81,1.87c-2.85.83-5.66,1.7-8.41,2.63-1.61.54-3.19,1.09-4.77,1.67s-3.18,1.22-4.74,1.85q-4.69,1.89-9.16,4-3.77,1.8-7.37,3.71a2.58,2.58,0,0,1-2.75-.2c-1.1-.81-2.24-1.56-3.35-2.36-.45-.33-.91-.66-1.38-1a2.62,2.62,0,0,1,0-4.38q1.73-1.09,3.48-2.16c2.34-1.4,4.69-2.72,7.12-4s4.92-2.59,7.43-3.79c1.19-.57,2.4-1.12,3.63-1.67a2.61,2.61,0,0,0,.53-4.44h0l-3.59-2.52c-2.36-1.74-4.86-3.25-7.33-4.82-1.22-.81-2.5-1.52-3.77-2.24l-.86-.49-2.2-1.25c-.72-.42-1.46-.83-2.22-1.19l-4.52-2.29c-1.49-.79-3.06-1.4-4.59-2.11-3.05-1.44-6.23-2.6-9.36-3.84-1.57-.62-3.19-1.09-4.78-1.64s-3.19-1.11-4.82-1.53l-4.87-1.37c-1.62-.46-3.29-.77-4.92-1.17-3.28-.82-6.62-1.32-9.93-1.93-1.66-.31-3.35-.44-5-.68s-3.34-.48-5-.56c-3.37-.24-6.73-.57-10.11-.58a164.44,164.44,0,0,0-20.22.7l-5,.64-2.51.32-2.49.44-5,.89c-1.65.34-3.29.75-4.93,1.12a154.43,154.43,0,0,0-37.72,14.32,156.46,156.46,0,0,0-58.31,54.86c-.94,1.4-1.74,2.89-2.59,4.34s-1.72,2.9-2.48,4.41c-1.53,3-3.13,6-4.45,9.09a151.73,151.73,0,0,0-7.15,18.91A154.52,154.52,0,0,0,99,254.75l-.13,5.06.12,5.06c0,3.38.38,6.74.6,10.1.12,1.69.4,3.35.59,5s.37,3.35.71,5c.6,3.32,1.13,6.65,2,9.92a153.4,153.4,0,0,0,5.78,19.37c1.25,3.13,2.41,6.3,3.87,9.35.71,1.52,1.34,3.09,2.12,4.59l2.31,4.5a155.77,155.77,0,0,0,54.47,58.66l2.12,1.37,2.2,1.26,4.38,2.53,4.5,2.3,2.26,1.16,2.3,1,4.61,2.08,4.71,1.85,2.35.93,2.4.8,4.79,1.62,4.87,1.38,2.43.7,2.46.56,4.93,1.14,5,.9,2.49.44c.83.14,1.67.22,2.51.33l5,.64c1.67.19,3.36.27,5,.41s3.36.3,5.05.3l5.06.13,1.27,0,1.27,0,2.53-.06c1.68-.07,3.37,0,5.06-.18l5-.38c1.69-.09,3.36-.32,5-.54s3.35-.41,5-.65l5-.89,2.49-.45,2.46-.57,4.93-1.14,4.87-1.38,2.43-.69,2.4-.81,4.79-1.62,4.7-1.85,2.36-.93,2.3-1,4.61-2.08,4.51-2.31,2.25-1.15,2.19-1.26,4.38-2.53L339,390c.71-.46,1.43-.9,2.13-1.37l2.06-1.47c1.37-1,2.76-1.94,4.11-2.95l4-3.13c1.35-1,2.62-2.12,3.89-3.23s2.57-2.19,3.8-3.34a156.2,156.2,0,0,0,26-30.91,154.59,154.59,0,0,0,17.17-36.51,152.45,152.45,0,0,0,4.81-19.64,155.25,155.25,0,0,0-1-60.33,156,156,0,0,0-12.44-35.69,2.6,2.6,0,0,1,1.13-3.48l6.66-3.43a2.61,2.61,0,0,1,3.53,1.15,167.86,167.86,0,0,1,14.64,104,165,165,0,0,1-23.79,60.77,168.92,168.92,0,0,1-28.08,33.42c-1.34,1.24-2.74,2.41-4.11,3.61s-2.75,2.4-4.21,3.5l-4.3,3.38c-1.47,1.09-3,2.13-4.45,3.19l-2.23,1.58c-.75.52-1.53,1-2.3,1.49l-4.61,3-4.74,2.73-2.37,1.36L331.82,409l-4.88,2.49-5,2.25-2.49,1.13-2.55,1-5.09,2-5.19,1.75-2.59.87-2.64.75-5.26,1.5-5.34,1.23-2.67.62-2.69.49-5.39,1c-1.8.26-3.62.47-5.43.7s-3.61.48-5.44.59l-5.45.41c-1.82.14-3.65.12-5.47.19l-2.73.07-1.37,0-1.37,0-5.46-.14c-1.83,0-3.65-.2-5.47-.32s-3.64-.25-5.45-.45l-5.43-.69c-.9-.12-1.81-.21-2.71-.36l-2.7-.48-5.38-1-5.34-1.23-2.66-.62-2.64-.74-5.27-1.5-5.18-1.75-2.6-.88-2.54-1-5.1-2-5-2.25-2.49-1.13-2.44-1.24-4.87-2.5L169.32,405,167,403.62l-2.3-1.48a168.52,168.52,0,0,1-58.9-63.45l-2.5-4.87c-.84-1.62-1.53-3.31-2.3-5-1.58-3.3-2.84-6.73-4.19-10.12a167.86,167.86,0,0,1-6.26-21c-.89-3.54-1.47-7.14-2.12-10.74-.36-1.79-.5-3.61-.76-5.42s-.51-3.61-.64-5.43c-.25-3.64-.64-7.27-.65-10.92l-.13-5.47.14-5.47a165.37,165.37,0,0,1,14.82-63.55c1.43-3.36,3.16-6.57,4.82-9.82.82-1.64,1.79-3.18,2.68-4.78s1.78-3.18,2.8-4.7A167.54,167.54,0,0,1,215.34,96.64c1.78-.4,3.56-.83,5.34-1.21l5.39-1,2.7-.47,2.71-.35,5.43-.69a177.27,177.27,0,0,1,21.86-.76c3.64,0,7.28.36,10.92.63,1.82.09,3.62.4,5.44.61s3.62.4,5.42.73c3.59.65,7.2,1.2,10.74,2.09,1.78.42,3.57.77,5.33,1.26L301.89,99c1.77.46,3.48,1.09,5.22,1.66s3.48,1.11,5.17,1.78c3.4,1.34,6.83,2.59,10.13,4.15,1.66.77,3.36,1.44,5,2.29l4.88,2.47c.82.4,1.62.84,2.41,1.3l2.38,1.35.93.52c1.37.78,2.75,1.56,4.08,2.43,2.67,1.69,5.37,3.34,7.93,5.21l3.88,2.73.08.06a2.6,2.6,0,0,0,4.19-1.79c.14-1.32.27-2.66.38-4,.23-2.9.37-5.78.47-8.72s.16-5.92.13-8.9c0-1.31-.06-2.63-.1-4a2.61,2.61,0,0,1,4-2.29c1.09.72,2.18,1.45,3.24,2.22,2.07,1.47,4.17,2.88,6.18,4.42a2.58,2.58,0,0,1,1,2.19c-.14,3.2-.34,6.37-.6,9.48-.34,3.61-.77,7.19-1.27,10.69q-.37,2.63-.81,5.21t-1,5.21Q368.91,139.13,367.86,143.4Z"/></g><g id="Layer_37" data-name="Layer 37"><path d="M287.35,269.76c-3.4,0-6.75,0-10.11,0-6.68-.07-11.55-4.59-11.47-10.62s4.77-10.31,11.32-10.36c7.35-.05,14.7-.07,22.05,0,6.31.06,10.95,4.15,11,10.29,0,13.07-3.16,25.2-11.9,35.33-13.57,15.73-37.58,18.94-56.89,7.73-19.71-11.45-29.24-34.66-23.07-56.19a49.6,49.6,0,0,1,49.48-36.2,48.12,48.12,0,0,1,25,7.87c5.49,3.57,7.07,9.69,3.88,14.82s-9.53,6.48-15,2.92a28.62,28.62,0,0,0-43,15.79c-6,20.12,11.4,39.75,32.06,36.17C279,285.87,286.11,278.49,287.35,269.76Z"/><path d="M133.06,309c-8.1,0-12.89-7.41-10.08-14.93,4.6-12.32,9.33-24.59,14-36.89q7.22-18.92,14.44-37.84c2.39-6.24,6.51-9.4,12.11-9.35s9.6,3.18,12,9.49q14,37.08,28,74.17c2.38,6.32.26,12.1-5.16,14.46a10.4,10.4,0,0,1-13.91-5.71c-1.43-3.31-2.67-6.71-3.82-10.13-.62-1.85-1.63-2.47-3.58-2.45-9.09.09-18.19.11-27.28,0a3.36,3.36,0,0,0-3.78,2.69c-1.11,3.31-2.36,6.58-3.71,9.8A10.36,10.36,0,0,1,133.06,309Zm30.36-62.13-8.23,21.73h16.42Z"/><path d="M351.49,231.31v17.63c6.56,0,12.95-.11,19.34,0a10.52,10.52,0,0,1,10.63,10.7c-.14,5.75-4.64,10.09-10.7,10.25-2.56.07-5.13,0-7.7,0H351.58v17.47c1.24.06,2.47.16,3.71.17,6.06,0,12.13-.15,18.19.08a10.48,10.48,0,0,1,10.39,10.57,10.33,10.33,0,0,1-10.59,10.31q-16.09.19-32.2,0c-6.37-.07-10.4-4.15-10.78-10.5,0-.58,0-1.17,0-1.75q0-36.75,0-73.5c0-8.49,4-12.48,12.36-12.49q14.7,0,29.39,0c7.11,0,11.87,4.27,11.84,10.52s-4.81,10.45-11.92,10.47C365.2,231.33,358.45,231.31,351.49,231.31Z"/></g></svg>