<svg id="Layer_23" data-name="Layer 23" xmlns="http://www.w3.org/2000/svg" viewBox="0 0 512 512"><path d="M202.86,142c0-4.25,0-8.07,0-11.89.22-15.7,11.55-27.07,27.19-27.14q26-.1,52.05,0c15.39.08,26.73,11.43,27,26.91.07,3.84,0,7.68,0,12.12h62.38c17.26,0,30,9.79,34.68,26.52q10.88,39.25,21.66,78.52c.74,2.7,1.71,4,4.89,4.27,8,.69,13.35,6.82,13.82,14.91.46,7.83-4.49,14.71-12.33,16.15-3.28.6-4.15,2.25-4.9,5q-11.46,41.76-23.09,83.48c-4.71,17-17.44,26.74-34.92,26.74q-115.41,0-230.82,0c-17.23,0-30.08-9.84-34.71-26.5q-11.67-41.91-23.23-83.86c-.77-2.83-1.85-4.31-5-4.94A15,15,0,0,1,65.4,266.05c.61-8.2,6.29-14.29,14.4-14.84,2.65-.19,3.52-1.13,4.18-3.52q10.78-39.47,21.78-78.89C110.49,151.71,123.26,142,141,142ZM94.62,283c.27,1.06.41,1.69.59,2.31q11.42,41.18,22.86,82.32c3.18,11.39,10.91,17.17,22.71,17.18H370.84c12.41,0,20-5.85,23.36-17.94q8.71-31.39,17.42-62.79c1.92-6.95,3.8-13.92,5.75-21.08Zm1.64-32.2H415.88c-7.71-27.58-15.14-54.91-23.05-82.1-2.5-8.58-10.75-14-19.77-14q-117-.08-234,0a21.31,21.31,0,0,0-20.47,15.35c-1.33,4.3-2.43,8.67-3.63,13C108.77,205.59,102.57,228,96.26,250.83Zm159.35,19.34H358.93c22.78,0,45.56,0,68.35,0,2.55,0,6.39,1.19,6.49-3.05s-3.69-3.26-6.3-3.26q-171.47,0-342.93,0c-.8,0-1.59,0-2.39,0-2.29-.08-4.08.7-4,3.27s1.91,3.23,4.19,3.11c1.06-.05,2.12,0,3.18,0Zm-40-128.51h80.81c0-4.43.19-8.54,0-12.62a13.61,13.61,0,0,0-14-13.32q-26.37-.12-52.75,0a13.62,13.62,0,0,0-14,13.34C215.43,133.14,215.6,137.24,215.6,141.66Z"/><path d="M147.93,206.38c0-6,0-11.94,0-17.91,0-4.65,2.56-7.5,6.42-7.45s6.25,2.9,6.27,7.62q.06,17.91,0,35.82c0,4.65-2.58,7.51-6.43,7.46S148,229,147.94,224.3C147.89,218.33,147.93,212.35,147.93,206.38Z"/><path d="M198.79,206.1c0-6,0-11.94,0-17.91.05-4.4,2.55-7.15,6.3-7.17s6.35,2.74,6.37,7.1q.09,18.31,0,36.63c0,4.37-2.58,7.15-6.3,7.17s-6.31-2.76-6.37-7.11C198.73,218.57,198.79,212.34,198.79,206.1Z"/><path d="M313.23,206.86c0,5.84,0,11.67,0,17.51,0,4.69-2.5,7.54-6.34,7.55s-6.33-2.86-6.35-7.53q-.06-17.92,0-35.83c0-4.69,2.48-7.53,6.33-7.54s6.32,2.85,6.36,7.53C313.27,194.65,313.23,200.75,313.23,206.86Z"/><path d="M364.09,206.47c0,6,0,11.94,0,17.91,0,4.68-2.5,7.54-6.35,7.54s-6.32-2.87-6.34-7.54q-.06-17.92,0-35.83c0-4.69,2.49-7.53,6.35-7.53s6.3,2.85,6.34,7.54C364.13,194.53,364.09,200.5,364.09,206.47Z"/><path d="M262.37,206.47c0,6,0,11.93,0,17.9,0,4.68-2.49,7.54-6.34,7.55s-6.33-2.85-6.35-7.52q-.07-17.9,0-35.81c0-4.71,2.49-7.55,6.34-7.56s6.33,2.82,6.38,7.53c.07,6,0,11.94,0,17.91Z"/></svg>