<svg id="Layer_12" data-name="Layer 12" xmlns="http://www.w3.org/2000/svg" viewBox="0 0 512 512"><defs><style>.cls-1{fill:#fff;}</style></defs><path d="M436.44,129.75v4.94c-2.64,6.21-7.37,8.56-14,8.05-4.41-.33-8.87-.06-13.78-.06,0,4.22.12,8.06,0,11.9a11.45,11.45,0,0,0,2.28,7.47,136.05,136.05,0,0,1,22,50.24c1.47,7,2.34,14.06,3.48,21.1v19.74c-.43,2.88-.86,5.77-1.3,8.65-7.3,48.18-31.89,84.52-74.52,108.35-5.9,3.3-12.23,5.84-18.62,8.86,3.2,8.84,6.36,17.76,9.72,26.61.31.81,1.91,1.57,2.94,1.6,5.63.17,11.27-.05,16.9.16a10.26,10.26,0,0,1,10,11.28c-.39,5.94-5,9.77-12,9.78q-42.29,0-84.57,0c-3.64,0-7.29.1-10.92-.05-5-.19-8.81-3-10.2-7.28-2.25-6.9,2.62-13.54,10.21-13.79,3.55-.12,7.12,0,11.12,0-2.52-7-4.76-13.25-7.07-19.5-.21-.57-.8-1.33-1.29-1.4-5.65-.74-11.57-2.77-16.92-1.78-28.1,5.23-55.14,2.51-81.3-8.92a5.66,5.66,0,0,0-6.06.42q-26.93,16.69-54,33.12c-6.31,3.81-11.18,2.6-15.57-3.3-1.89-2.54-3.8-5.07-5.65-7.64Q86.42,383.17,75.56,368V362.4c1.9-3.81,5.1-6.16,8.66-8.31,12.06-7.27,24-14.7,36-22.09.85-.52,1.65-1.15,2.55-1.78-1.47-2.26-2.86-4.29-4.15-6.38-3.73-6.06-2.37-12,3.67-15.74s12.19-7.5,18.29-11.26c2.56-1.58,5.09-3.19,7.76-4.86-.56-.77-.88-1.25-1.24-1.69-18.31-22.42-28.31-48.12-30.44-77-.6-8.14,3.14-12.87,11.24-13.28q49.79-2.48,99.57-4.7c2.91-.13,4.71-1,6.22-3.48,2.56-4.2,5.48-8.2,8.25-12.27,17.63-25.91,35.18-51.88,52.94-77.69A57.13,57.13,0,0,1,318.5,82.37c34.27-15.79,73.72.82,86.57,36.48.71,2,1.59,2.8,3.73,2.72,4.45-.15,8.93.18,13.38-.09C428.87,121.07,433.82,123.32,436.44,129.75Zm-102,72.69-192,118.11c28.93,41,92.21,61.56,146.59,30.53S360.16,252.88,334.43,202.44ZM361,210c.86-.94,1.75-1.83,2.55-2.8a119.49,119.49,0,0,0,22.88-42.45,22.53,22.53,0,0,0,1-5.84c.13-6.22.07-12.45,0-18.67a42.38,42.38,0,0,0-5.62-21.55c-15.81-27.15-53.53-28.48-71.42-2.31q-43.39,63.5-86.43,127.26c-.41.61-.72,1.28-1.51,2.68,1.79-1.06,2.79-1.63,3.76-2.23q37.63-23.11,75.25-46.25c10.19-6.27,20.36-12.58,30.59-18.79,6.19-3.76,11.73-2.45,15.7,3.65a57.29,57.29,0,0,1,4,7C355,196.36,357.9,203.08,361,210Zm40.18-23.62c-.89,1.76-1.43,2.78-1.93,3.82-6.59,13.9-14.81,26.78-25.88,37.46-5.16,5-6.67,9.69-6.38,17,2,49.25-17.21,88.67-56.83,118.07-.91.68-1.8,1.37-2.69,2.06C353,358,386.29,334.31,405,292.17,420.59,256.86,418.45,221.55,401.19,186.38ZM167.1,281.09c4.19-3.18,9.27-5.52,12.1-9.47,12.15-17,23.63-34.41,35.35-51.69.53-.79,1-1.65,1.75-3l-77.58,3.71A113.36,113.36,0,0,0,167.1,281.09ZM136.3,347l-34.81,21.41L115,386.71l39.37-24.23Zm164.18,40.34c2.25,6.24,4.44,12.4,6.74,18.53a2.4,2.4,0,0,0,1.7,1.37c6.75.1,13.49.06,20.79.06-2.92-8.06-5.6-15.48-8.2-22.67Z"/><path class="cls-1" d="M167.1,281.09a113.36,113.36,0,0,1-28.38-60.43L216.3,217c-.78,1.33-1.22,2.19-1.75,3-11.72,17.28-23.2,34.72-35.35,51.69C176.37,275.57,171.29,277.91,167.1,281.09Z"/><path class="cls-1" d="M300.48,387.29l21-2.71c2.6,7.19,5.28,14.61,8.2,22.67-7.3,0-14,0-20.79-.06a2.4,2.4,0,0,1-1.7-1.37C304.92,399.69,302.73,393.53,300.48,387.29Z"/><path d="M359.07,132a10.39,10.39,0,0,1-10.36,10.62A10.59,10.59,0,0,1,338,132.29a10.74,10.74,0,0,1,10.46-10.68A10.53,10.53,0,0,1,359.07,132Z"/></svg>