<svg id="Layer_35" data-name="Layer 35" xmlns="http://www.w3.org/2000/svg" viewBox="0 0 512 512"><defs><style>.cls-1{fill:#010101;}</style></defs><path class="cls-1" d="M437.23,172.32c-7,9.29-15.68,16.6-26.85,20.25-8,2.61-15.16.12-21.3-5.43-2.43-2.21-4.84-4.44-7.16-6.76-3-3-6.28-3.13-9.91-1.25a58.6,58.6,0,0,0-12.73,9.52,34.48,34.48,0,0,1-4.35,3.77,7.25,7.25,0,0,1-9-1.18c-2.31-2.34-3.17-6.66-1-9,7.5-8.25,15.61-15.82,26.84-18.75,7-1.82,13.25.06,18.69,4.58,3.05,2.52,5.87,5.32,8.74,8.05s5.88,3,9.33,1.32c5.48-2.67,9.95-6.65,14.3-10.8,5.89-5.61,10.31-5.12,14.43,1.63Z"/><path class="cls-1" d="M331.78,81.83c4.23,1.93,5.8,5.22,5.48,9.83-.35,5.1-.74,10.15-2.62,15-2.8,7.23-8,11.32-15.74,12-3,.29-6.11.43-9.17.44-2.59,0-3.92,1.25-4.56,3.64a42.37,42.37,0,0,0-1.25,10.09c-.12,5.25-3.14,8.43-7.78,8.27-4.43-.15-7.23-3.44-7.16-8.57.08-5.57.58-11.09,2.67-16.33,3-7.47,8.57-11.44,16.57-12,2.49-.16,5-.26,7.48-.19,3.46.08,5.22-1.73,5.72-4.93a37.28,37.28,0,0,0,.76-7.41c-.22-4.56,1.39-7.87,5.51-9.89Z"/><path class="cls-1" d="M437.23,272.33c-1,.33-1.14,1.35-1.72,2a7.36,7.36,0,0,1-10.35,1.13,31.25,31.25,0,0,1-3-2.73c-2.13-2.12-3.83-2.24-6.19.14-7.21,7.21-14.51,7.56-22.76,1.41a40.46,40.46,0,0,1-5.57-5,7.06,7.06,0,0,1-.06-9.86,7.33,7.33,0,0,1,10.11-1c2.07,1.55,3.66,4.5,6.13,4.56s3.85-3.13,6-4.62c4.67-3.26,9.56-4,14.76-1.7a27.34,27.34,0,0,1,12.71,10.81Z"/><path class="cls-1" d="M225.64,81.83c3.58,1.29,7.24,2.36,10.54,4.33,4.28,2.55,5.71,6.72,3.56,10.6-2,3.68-6.23,4.74-10.6,2.66-.3-.15-.59-.33-.9-.48-5-2.57-5-2.57-8.16,2.25-4.19,6.44-9.62,8.73-17.13,7.13a31.17,31.17,0,0,1-10.53-4.55,7.43,7.43,0,0,1,7.24-12.93c2.26,1,4.5,3.16,6.79,2.69s2.87-3.76,4.32-5.72c2.25-3.06,5.48-4.5,8.75-6Z"/><path class="cls-1" d="M301.33,328.25A31.89,31.89,0,0,0,298.87,317,124.19,124.19,0,0,0,283,288.66a237.87,237.87,0,0,0-34.89-38.31c-13.22-11.67-27.21-22.16-43.5-29.22-4.58-2-9.34-3.52-14.43-3.38-1.18,0-2.58-.37-3.29,1.1A22,22,0,0,1,195,219c8.21,1.72,15.58,5.42,22.66,9.7,23.35,14.09,42.78,32.57,59.66,53.82,8.48,10.67,16,21.95,20.77,34.83,1.78,4.78,3.34,9.65,1.92,14.87C301.35,331.23,301.34,329.74,301.33,328.25Zm2.1-34c-19-31.19-44.21-56.45-74.81-76.29-10.88-7.05-22.44-12.77-35.59-14.34,1,1.08,2.41,1.18,3.73,1.44a78,78,0,0,1,21.63,7.87c15.77,8.45,29.89,19.24,42.92,31.42a237.37,237.37,0,0,1,31.57,35.45c9.57,13.42,18.46,27.21,21.44,43.87a3.75,3.75,0,0,0,1.16,2.4C314.21,314.39,309.41,304,303.43,294.22Zm-63.05,37.54c-10.42-19.33-25.24-34.7-43.15-47.15-7-4.86-14.41-9.07-22.77-11.14-3.25-.8-6.63-1.48-9.86.33,6.46-1.14,12.4.7,18,3.5,25.19,12.55,44.18,31.6,57.71,56.1,3.55,6.45,6.28,13.35,4.93,21.07,1.09-.94.92-2.23,1-3.47C246.6,343.88,243.61,337.75,240.38,331.76Zm16.85,2.76c-6.6-16.48-17-30.35-29.55-42.65C211.55,276,194,262.22,170.81,258.26c1.18,1.8,3.19,1.55,4.89,1.86a58,58,0,0,1,17.12,6.42,148.9,148.9,0,0,1,49.74,43.92c7.8,10.67,14.52,21.91,16.83,35.24.18,1,.31,2.05,1.41,2.56C259.79,343.63,259,339,257.23,334.52Zm-52.45,28.7c-4.32-15.47-13.85-27.35-26.19-37.13-8.73-6.93-18.36-12-29.75-13,1.08,1.24,2.66,1.14,4.06,1.45a46.57,46.57,0,0,1,7.85,2.16,75.85,75.85,0,0,1,31.61,24.37c6.11,7.85,10.9,16.41,12.47,26.44a3.69,3.69,0,0,0,1.16,2.74A65.36,65.36,0,0,0,204.78,363.22Zm-14.61.4C184,348.2,173,337.3,158.31,330a24.4,24.4,0,0,0-12.14-2.72c-1.4.06-2.71.22-3.6,1.48a13.76,13.76,0,0,1,8.67-.14c19.34,6.11,32,19.14,38.95,38a14.7,14.7,0,0,1,.16,10,4.4,4.4,0,0,0,1.48-3.62A22.16,22.16,0,0,0,190.17,363.62Z"/><path class="cls-1" d="M116.61,187.38c.41-2.57.62-5.18,1.26-7.68,2.14-8.51,7.32-12.79,16.06-12.64,3.75.07,5.07-1.24,5-4.67,0-1.13.09-2.26.19-3.39a7.23,7.23,0,0,1,6.84-6.77,7.46,7.46,0,0,1,7.66,5.45C157.34,170,148.8,181.8,136,181.81c-2.77,0-3.93.94-4.07,3.52-.06,1.25-.1,2.49-.17,3.73-.25,4.52-3.31,7.68-7.45,7.7s-7.38-3.31-7.51-8c0-.45,0-.91,0-1.36Z"/><path class="cls-1" d="M384.62,381.75c3.82.11,6,1.48,7.35,4.13s1.29,5.48-.68,7.63c-4,4.41-8.24,8.69-12.68,12.7-2.84,2.57-7.19,2-9.81-.79a7,7,0,0,1-.44-9.56c3.94-4.35,8.2-8.41,12.4-12.51A5.42,5.42,0,0,1,384.62,381.75Z"/><path class="cls-1" d="M414.88,116.74a7.09,7.09,0,0,1-3.9,6.94,6.52,6.52,0,0,1-7.67-.56,98,98,0,0,1-12.94-13c-2.42-3-1.82-6.84.95-9.52,2.47-2.38,6.63-2.91,9.34-.67a110.84,110.84,0,0,1,13,12.94A5.34,5.34,0,0,1,414.88,116.74Z"/><path class="cls-1" d="M107.54,231.77a8.46,8.46,0,0,1,5.83,2.61c3.41,3.46,6.9,6.84,10.27,10.34s3.47,7.76.43,10.86-7.45,3-10.88-.24c-3.67-3.52-7.25-7.14-10.78-10.79a7.2,7.2,0,0,1-1.46-8.44C102.21,233.22,104.64,232,107.54,231.77Z"/><path class="cls-1" d="M113.06,113.39a7.08,7.08,0,0,1-6.5-4.13c-1.29-2.66-1.3-5.47.69-7.63,4.06-4.4,8.24-8.71,12.69-12.69,2.91-2.61,7.18-2,9.79.8a7.13,7.13,0,0,1,.24,9.85c-3.82,4.16-7.91,8.06-11.94,12A6.91,6.91,0,0,1,113.06,113.39Z"/><path class="cls-1" d="M314.92,405.3c0,3.56-1.31,5.79-4,7.14s-5.5,1.35-7.66-.63a177.64,177.64,0,0,1-12.74-12.71c-2.65-3-2-7.14.86-9.81a7.16,7.16,0,0,1,9.88-.14c4.07,3.78,7.92,7.79,11.81,11.74A5.91,5.91,0,0,1,314.92,405.3Z"/><path class="cls-1" d="M413,331.7a8.57,8.57,0,0,1,5.79,2.65c3.41,3.46,6.91,6.83,10.28,10.33s3.47,7.75.4,10.86-7.47,3-10.88-.25c-3.66-3.53-7.24-7.14-10.78-10.8a7.18,7.18,0,0,1-1.44-8.43C407.66,333.18,410.1,332,413,331.7Z"/><path class="cls-1" d="M315.48,326a3.75,3.75,0,0,1-1.16-2.4c-3-16.66-11.87-30.45-21.44-43.87a237.37,237.37,0,0,0-31.57-35.45c-13-12.18-27.15-23-42.92-31.42A78,78,0,0,0,196.76,205c-1.32-.26-2.72-.36-3.73-1.44,13.15,1.57,24.71,7.29,35.59,14.34,30.6,19.84,55.77,45.1,74.81,76.29C309.41,304,314.21,314.39,315.48,326Z"/><path class="cls-1" d="M260.8,348.26c-1.1-.51-1.23-1.57-1.41-2.56-2.31-13.33-9-24.57-16.83-35.24a148.9,148.9,0,0,0-49.74-43.92,58,58,0,0,0-17.12-6.42c-1.7-.31-3.71-.06-4.89-1.86,23.23,4,40.74,17.75,56.87,33.61,12.51,12.3,22.95,26.17,29.55,42.65C259,339,259.79,343.63,260.8,348.26Z"/><path class="cls-1" d="M300,332.26c1.42-5.22-.14-10.09-1.92-14.87-4.77-12.88-12.29-24.16-20.77-34.83-16.88-21.25-36.31-39.73-59.66-53.82-7.08-4.28-14.45-8-22.66-9.7a22,22,0,0,0-8.08-.19c.71-1.47,2.11-1.07,3.29-1.1,5.09-.14,9.85,1.4,14.43,3.38,16.29,7.06,30.28,17.55,43.5,29.22A237.87,237.87,0,0,1,283,288.66,124.19,124.19,0,0,1,298.87,317a31.89,31.89,0,0,1,2.46,11.22C301.34,329.74,301.35,331.23,300,332.26Z"/><path class="cls-1" d="M206,370.23a3.69,3.69,0,0,1-1.16-2.74c-1.57-10-6.36-18.59-12.47-26.44a75.85,75.85,0,0,0-31.61-24.37,46.57,46.57,0,0,0-7.85-2.16c-1.4-.31-3-.21-4.06-1.45,11.39,1,21,6.09,29.75,13,12.34,9.78,21.87,21.66,26.19,37.13A65.36,65.36,0,0,1,206,370.23Z"/><path class="cls-1" d="M246.24,351c-.07,1.24.1,2.53-1,3.47,1.35-7.72-1.38-14.62-4.93-21.07-13.53-24.5-32.52-43.55-57.71-56.1-5.61-2.8-11.55-4.64-18-3.5,3.23-1.81,6.61-1.13,9.86-.33,8.36,2.07,15.78,6.28,22.77,11.14,17.91,12.45,32.73,27.82,43.15,47.15C243.61,337.75,246.6,343.88,246.24,351Z"/><path class="cls-1" d="M191.83,372.91a4.4,4.4,0,0,1-1.48,3.62,14.7,14.7,0,0,0-.16-10c-6.94-18.82-19.61-31.85-38.95-38a13.76,13.76,0,0,0-8.67.14c.89-1.26,2.2-1.42,3.6-1.48A24.4,24.4,0,0,1,158.31,330C173,337.3,184,348.2,190.17,363.62A22.16,22.16,0,0,1,191.83,372.91Z"/><path class="cls-1" d="M300,332.26c1.42-5.22-.14-10.09-1.92-14.87-4.77-12.88-12.29-24.16-20.77-34.83-16.88-21.25-36.31-39.73-59.66-53.82-7.08-4.28-14.45-8-22.66-9.7a22,22,0,0,0-8.08-.19c.71-1.47,2.11-1.07,3.29-1.1,5.09-.14,9.85,1.4,14.43,3.38,16.29,7.06,30.28,17.55,43.5,29.22A237.87,237.87,0,0,1,283,288.66,124.19,124.19,0,0,1,298.87,317a31.89,31.89,0,0,1,2.46,11.22C301.34,329.74,301.35,331.23,300,332.26Z"/><path class="cls-1" d="M315.48,326a3.75,3.75,0,0,1-1.16-2.4c-3-16.66-11.87-30.45-21.44-43.87a237.37,237.37,0,0,0-31.57-35.45c-13-12.18-27.15-23-42.92-31.42A78,78,0,0,0,196.76,205c-1.32-.26-2.72-.36-3.73-1.44,13.15,1.57,24.71,7.29,35.59,14.34,30.6,19.84,55.77,45.1,74.81,76.29C309.41,304,314.21,314.39,315.48,326Z"/><path class="cls-1" d="M246.24,351c-.07,1.24.1,2.53-1,3.47,1.35-7.72-1.38-14.62-4.93-21.07-13.53-24.5-32.52-43.55-57.71-56.1-5.61-2.8-11.55-4.64-18-3.5,3.23-1.81,6.61-1.13,9.86-.33,8.36,2.07,15.78,6.28,22.77,11.14,17.91,12.45,32.73,27.82,43.15,47.15C243.61,337.75,246.6,343.88,246.24,351Z"/><path class="cls-1" d="M260.8,348.26c-1.1-.51-1.23-1.57-1.41-2.56-2.31-13.33-9-24.57-16.83-35.24a148.9,148.9,0,0,0-49.74-43.92,58,58,0,0,0-17.12-6.42c-1.7-.31-3.71-.06-4.89-1.86,23.23,4,40.74,17.75,56.87,33.61,12.51,12.3,22.95,26.17,29.55,42.65C259,339,259.79,343.63,260.8,348.26Z"/><path class="cls-1" d="M370.17,301.64c-2-13.75-8.29-25.77-15.54-37.29-20.23-32.2-46.18-59.26-75.77-82.91-14.7-11.75-30.21-22.31-48-29.06-6.39-2.42-13-4.26-19.86-3.79-7.37.5-13.45,2.94-16.56,10.66Q147.9,275.11,101.14,390.88,95.43,405,89.69,419.15c-1.32,3.25-1.11,6.25,1.43,8.79s5.56,2.77,8.79,1.42l2.19-.9,115.63-46.63q70.86-28.57,141.74-57.08c5.78-2.31,8.89-6.3,10.34-12a24.15,24.15,0,0,0,.84-6.41C370.5,304.79,370.4,303.2,370.17,301.64ZM191.83,372.91a4.4,4.4,0,0,1-1.48,3.62q-23,9.39-46.06,18.81-15,6.12-30.15,12.13c-1.22.49-2.42,1.38-3.89.77Q125.7,370,141.16,331.76c.42-1,.94-2,1.41-3,.89-1.26,2.2-1.42,3.6-1.48A24.4,24.4,0,0,1,158.31,330C173,337.3,184,348.2,190.17,363.62A22.16,22.16,0,0,1,191.83,372.91ZM246.24,351c-.07,1.24.1,2.53-1,3.47L206,370.23a3.69,3.69,0,0,1-1.16-2.74c-1.57-10-6.36-18.59-12.47-26.44a75.85,75.85,0,0,0-31.61-24.37,46.57,46.57,0,0,0-7.85-2.16c-1.4-.31-3-.21-4.06-1.45L164.6,273.8c3.23-1.81,6.61-1.13,9.86-.33,8.36,2.07,15.78,6.28,22.77,11.14,17.91,12.45,32.73,27.82,43.15,47.15C243.61,337.75,246.6,343.88,246.24,351ZM300,332.26l-39.2,16c-1.1-.51-1.23-1.57-1.41-2.56-2.31-13.33-9-24.57-16.83-35.24a148.9,148.9,0,0,0-49.74-43.92,58,58,0,0,0-17.12-6.42c-1.7-.31-3.71-.06-4.89-1.86l16.1-39.41c.71-1.47,2.11-1.07,3.29-1.1,5.09-.14,9.85,1.4,14.43,3.38,16.29,7.06,30.28,17.55,43.5,29.22A237.87,237.87,0,0,1,283,288.66,124.19,124.19,0,0,1,298.87,317a31.89,31.89,0,0,1,2.46,11.22C301.34,329.74,301.35,331.23,300,332.26Zm48.2-19.17q-16.36,6.45-32.72,13a3.75,3.75,0,0,1-1.16-2.4c-3-16.66-11.87-30.45-21.44-43.87a237.37,237.37,0,0,0-31.57-35.45c-13-12.18-27.15-23-42.92-31.42A78,78,0,0,0,196.76,205c-1.32-.26-2.72-.36-3.73-1.44,5-12.68,10.09-25.36,15.09-38.07.74-1.87,2.25-2,3.87-2,6.15-.1,11.8,1.95,17.3,4.36,16.54,7.22,31.08,17.59,44.9,29,23.86,19.74,45.14,41.93,62.67,67.55,7.36,10.75,14.06,21.89,17.57,34.62.14.55.34,1.07.46,1.63C356.67,309.24,356.3,309.9,348.2,313.09Z"/><path class="cls-1" d="M191.83,372.91a4.4,4.4,0,0,1-1.48,3.62,14.7,14.7,0,0,0-.16-10c-6.94-18.82-19.61-31.85-38.95-38a13.76,13.76,0,0,0-8.67.14c.89-1.26,2.2-1.42,3.6-1.48A24.4,24.4,0,0,1,158.31,330C173,337.3,184,348.2,190.17,363.62A22.16,22.16,0,0,1,191.83,372.91Z"/><path class="cls-1" d="M206,370.23a3.69,3.69,0,0,1-1.16-2.74c-1.57-10-6.36-18.59-12.47-26.44a75.85,75.85,0,0,0-31.61-24.37,46.57,46.57,0,0,0-7.85-2.16c-1.4-.31-3-.21-4.06-1.45,11.39,1,21,6.09,29.75,13,12.34,9.78,21.87,21.66,26.19,37.13A65.36,65.36,0,0,1,206,370.23Z"/></svg>