<svg id="Layer_46" data-name="Layer 46" xmlns="http://www.w3.org/2000/svg" viewBox="0 0 512 512"><defs><style>.cls-1{fill:none;stroke:#000;stroke-miterlimit:10;stroke-width:17px;}</style></defs><path d="M377.8,136.65c15-24.9,10.18-55.18-11.83-74.15-3.48-3-6.92-6.06-10.38-9.09-5.95-5.29-13.17-6.87-17.91-4.08a10.22,10.22,0,0,0-3.8,4.08L311.22,95.79c-7.76-1.71-15.07-4-22.54-4.8-8.89-1-17.91-.86-26.88-.84-12.71,0-25.44,0-38.11.82-6.36.42-12.59,2.71-18.88,4.2-1.18.28-2.33.72-3.73,1.17l-23-42.93a11,11,0,0,0-4-3.82c-4.91-2.67-11.92-1.12-17.71,3.82-3.45,3-6.88,6.1-10.37,9.09-22,18.85-26.9,49.4-11.85,74.13,3.95,6.5,8.1,12.87,12,19.42a8.71,8.71,0,0,1,.92,4.84c-.48,5.83-1.74,11.63-1.79,17.45-.21,24.95-.32,49.9,0,74.85.24,20,8.87,36,25.12,47.73a5.54,5.54,0,0,1,2.55,5.22c-.08,15.22-.06,30.44,0,45.66,0,21.17,11.6,38,31.21,45.76a6.32,6.32,0,0,1,3.23,3.45c7.1,21.34,26.4,35.63,48.47,35.71,22.26.09,41.7-14.17,48.86-35.66a6.32,6.32,0,0,1,3.2-3.48c19.67-7.83,31.22-24.6,31.25-45.73,0-15.35-.05-30.69.11-46a6.36,6.36,0,0,1,2.19-4.51c16.77-12.32,25.31-28.81,25.39-49.58.1-24,.16-47.91-.06-71.86-.06-6.32-1.31-12.62-1.8-18.94a8.72,8.72,0,0,1,.91-4.85C369.71,149.52,373.87,143.15,377.8,136.65ZM158.31,132c-17.6-20-10.83-44.74,6.66-55.48q8.17,15.27,16.36,30.55c-4.28,4-8.64,7.72-12.49,11.89S161.78,127.64,158.31,132ZM258.41,414.2c-11.37.93-23.32-5.67-27.1-15.23A49.33,49.33,0,0,0,256,383.7c6.88,7.44,14.86,12.73,24.53,15.14C278.79,406.11,268.23,413.39,258.41,414.2Zm58.21-61.06c-.05,12.21-9.09,22.65-20.72,24.38a24.69,24.69,0,0,1-27.32-16.61,20.53,20.53,0,0,1-1.24-6.2c-.1-18.33-.06-36.66-.06-55.27,13.94-6,21.5-16.32,22.5-31.65h-1.5a19.05,19.05,0,0,1,.37,3.71c0,13.65-14.71,24.72-32.87,24.72s-32.87-11.07-32.87-24.72a18.91,18.91,0,0,1,.38-3.77h-.93A33,33,0,0,0,234.06,293c1.86,1.63,3.89,3.44,6.16,4.14,4.26,1.3,4.68,4,4.63,7.83-.19,16.22,0,32.43-.13,48.65a24.6,24.6,0,0,1-48,7.18,28.38,28.38,0,0,1-1.3-8.44q-.15-36.86,0-73.71c.14-31.61,24-57.39,55.6-60.36,30.58-2.88,59,18.85,64.69,49.6a51.79,51.79,0,0,1,.93,9.29Q316.71,315.16,316.62,353.14ZM344.36,252a35.65,35.65,0,0,1-5.16,19.13c-6.19-53.59-53.69-77.47-87-75.59-38.44,2.17-74.73,31.84-79.19,75.55a26.3,26.3,0,0,1-5.1-15.18c-.44-50.07-2.2-89.63,6.88-106.52,12.19-22.69,31.12-35.39,56.86-36.66,16.3-.81,32.68-.42,49-.08,31.16.65,63.74,27.34,63.74,67.12Zm9.88-120.36L331,106.42l15.87-29.73C365.87,84.85,369.26,112.81,354.24,131.68Z"/><path d="M207,149.46a11.28,11.28,0,0,1,10.77,12,11.12,11.12,0,0,1-11.94,10.36,11.29,11.29,0,0,1-10.5-11.53A11.48,11.48,0,0,1,207,149.46Z"/><path d="M308,149.46a11.28,11.28,0,0,1,10.77,12,11.12,11.12,0,0,1-11.94,10.36,11.29,11.29,0,0,1-10.5-11.53A11.48,11.48,0,0,1,308,149.46Z"/><path class="cls-1" d="M288.65,271.5c0,13.65-14.71,24.72-32.87,24.72s-32.87-11.07-32.87-24.72a18.91,18.91,0,0,1,.38-3.77c2.42-11.86,16.05-21,32.49-21s30.12,9.12,32.5,21A19.05,19.05,0,0,1,288.65,271.5Z"/></svg>