<svg id="Layer_15" data-name="Layer 15" xmlns="http://www.w3.org/2000/svg" viewBox="0 0 512 512"><defs><style>.cls-1{fill:#fff;}</style></defs><path class="cls-1" d="M163.11,315.73h10.24q82.23,0,164.45,0c18.21,0,26.2-6.55,29.89-24.47q11-53.46,21.89-106.95C394,162.86,384,150.7,362,150.7H125.82c-1.16-4.76-2.39-8.64-3-12.61-5.59-34.59-17-30.81-41.43-30.66-7.52,0-11.85,4.43-12,10.92-.18,6.85,4.23,11.27,12.09,11.65,5.25.26,10.53.05,15.87.05.83,2.83,1.58,4.95,2.08,7.13q24.52,108.31,48.89,216.67a38.13,38.13,0,0,1,.21,14c-3.17,19.67,9,39,27.91,43.7a37.57,37.57,0,0,0,45.32-25.77c1.44-5,1.58-10.36,2.35-15.81h67.12c.23,3.43.24,6.46.65,9.43,2.25,16.15,11.28,27,26.71,31.61,14.81,4.41,28.22.64,38.55-11,10.75-12.12,12.3-26.12,6.15-41.05-3.57-8.63-9.35-12.48-19.28-12.4-55.06.41-110.13.19-165.2.19h-8.63Z"/><path d="M163.11,315.73l7,31.07h8.63c55.07,0,110.14.22,165.2-.19,9.93-.08,15.71,3.77,19.28,12.4,6.15,14.93,4.6,28.93-6.15,41.05-10.33,11.64-23.74,15.41-38.55,11-15.43-4.59-24.46-15.46-26.71-31.61-.41-3-.42-6-.65-9.43H224c-.77,5.45-.91,10.82-2.35,15.81a37.57,37.57,0,0,1-45.32,25.77c-18.93-4.7-31.08-24-27.91-43.7a38.13,38.13,0,0,0-.21-14Q124,245.48,99.36,137.18c-.5-2.18-1.25-4.3-2.08-7.13-5.34,0-10.62.21-15.87-.05-7.86-.38-12.27-4.8-12.09-11.65.18-6.49,4.51-10.87,12-10.92,24.4-.15,35.84-3.93,41.43,30.66.65,4,1.88,7.85,3,12.61H362c22,0,32,12.16,27.62,33.6q-10.95,53.47-21.89,107C364,309.17,356,315.71,337.8,315.72q-82.23,0-164.45,0ZM210,173.8c2.86,15.17,5.43,29.56,8.46,43.86.35,1.68,3.17,4,4.88,4,18.64.29,37.29.18,56.57.18,3.13-16.13,6.19-31.89,9.34-48.08Zm148.73,47.69c3.24-15.82,6.44-31.47,9.73-47.55H312.37c-3,16-6,31.49-9,47.55Zm-227.85-48c3.53,15.78,6.76,30.53,10.25,45.21a4.91,4.91,0,0,0,3.52,3c16.78.2,33.56.13,51.25.13-3-15.91-5.71-30.75-8.77-45.52-.25-1.2-2.87-2.7-4.4-2.71C165.9,173.41,149,173.49,130.91,173.49ZM289.6,292.92c17.71,0,34.09.11,50.46-.16,1.62,0,4.31-2.08,4.65-3.61,3.23-14.49,6.05-29.07,9.07-44H298.71C295.7,260.94,292.78,276.27,289.6,292.92Zm-80,0c-3-15.82-5.65-30.41-8.64-44.93-.27-1.32-2.64-3.13-4.06-3.15-16.35-.22-32.7-.14-49.89-.14,3.53,15.5,6.79,30.22,10.36,44.86a5.43,5.43,0,0,0,4,3.22C176.93,293,192.53,292.91,209.58,292.91Zm14.14-47.85c2.88,15.27,5.48,29.66,8.47,44,.32,1.54,2.88,3.67,4.47,3.73,9.76.34,19.54.17,29.67.17,3.13-16.27,6.13-31.83,9.23-47.87Zm-52,124.84c-2,8.23.21,14.22,6.9,18a13.71,13.71,0,0,0,16.21-1.25c5.41-4.33,7.21-10,4.59-16.79Zm143.67,0c-2.56,7.07-.67,12.93,5.22,17.18a13.74,13.74,0,0,0,16.87.09c5.94-4.18,7.77-10,5.46-17.27Z"/></svg>