<svg id="Layer_6" data-name="Layer 6" xmlns="http://www.w3.org/2000/svg" viewBox="0 0 512 512"><path d="M72.25,189.78v-7.89c1.66-6.75,4.34-13,10.07-17.26,13.22-9.82,27.93-16,44.48-17.21,5.9-.41,11.86-.07,18-.07a19.09,19.09,0,0,0-.74-1.92A150.46,150.46,0,0,1,128.55,91,18.66,18.66,0,0,1,139.14,72c1.59-.76,3.26-1.36,4.89-2h7.18c6.31,1.78,10.43,6.15,14.29,11.24,15.92,21.06,35.18,38.06,60.07,47.88a13.5,13.5,0,0,0,6.88.61c13.42-2.24,26.85-3.11,40.34-1,6.5,1,12.52,1.48,19-1.63,22.23-10.67,40-26.43,54.69-45.88,3.84-5.09,8-9.49,14.29-11.24H368c1.08.45,2.15.93,3.25,1.34a18.57,18.57,0,0,1,12.26,19.06,149.39,149.39,0,0,1-15.11,54.16c-.46.92-.83,1.89-1.4,3.2,1.59-.09,2.75-.13,3.91-.24,17.05-1.63,32.93,2.18,48,10.16,10.19,5.4,18.52,12.24,20.89,24.3v8.61c-.44,1.2-.93,2.39-1.32,3.61-1.63,5.14-4.32,9.72-8.63,12.91-12.9,9.55-27.2,15.9-43.36,17.2-5.52.45-11.11.07-16.75.07.16,2.84.36,5.22.41,7.6.92,42.11-8.51,81.64-28.89,118.62-3.75,6.81-6,14.5-8.61,21.89-1.45,4-2.09,8.34-3.46,12.4-8.27,24.5-23.73,42-49.16,49.34-5.24,1.52-10.72,2.2-16.08,3.27H248.1c-1-.22-2.07-.53-3.12-.65a73.17,73.17,0,0,1-30.35-10.1c-18.67-11.43-28.92-28.76-33.94-49.49a125,125,0,0,0-11.85-30.6,217.57,217.57,0,0,1-26.27-91.2c-.66-10.21-.11-20.49-.11-31-1.31,0-2.24-.07-3.15,0a75.84,75.84,0,0,1-38.44-6.6C88,212,75.34,205.7,72.25,189.78Zm138.5-31.17c1.1,1.54,1.94,2.55,2.59,3.66,6.45,11,13.84,21.59,19.11,33.14,16.25,35.56,17.42,71.76,2,108-8.2,19.26-20.27,35.95-34.88,50.83a4.75,4.75,0,0,0-1.32,5.63c1.34,3.94,2.23,8,3.27,12.09,3,11.77,7.94,22.55,17.12,30.88,12.06,10.94,26.72,13.83,42.36,12.83,23-1.48,38.67-13.19,46.63-34.8,2.55-6.92,4-14.23,6.25-21.28.73-2.3.26-3.66-1.37-5.3a169.16,169.16,0,0,1-27.95-36.68c-14.64-26.15-20.71-54-16.43-83.86,3.35-23.39,12.52-44.47,25.38-64.07,2.47-3.77,5.11-7.42,7.85-11.37C271.05,145.77,241.16,145.92,210.75,158.61Zm113.81,177c.63-1.15,1.18-2.07,1.67-3,13.82-26.9,20.91-55.56,22.29-85.68.71-15.51-.28-30.84-5.78-45.58a70.82,70.82,0,0,0-22.58-31.53C276.82,223.72,276.75,285.07,324.56,335.62ZM191.86,170.1c-1.51,1.31-3.08,2.56-4.52,3.94-16.29,15.51-22.74,35.23-23.88,57-1.53,29.34,4.2,57.5,14.81,84.74,2.62,6.71,5.81,13.21,8.84,20C235.92,285.15,234.21,221.76,191.86,170.1Zm-33.85,4c-19.82-9.52-43.2-6.54-61.71,7-3.6,2.62-3.48,7.1.22,9.69C111,200.89,126.77,205.29,144.35,202a3.69,3.69,0,0,0,2.47-1.55C150.63,191.69,154.29,182.91,158,174.1Zm196.07-.22c3.73,8.91,7.3,17.59,11.05,26.18A4.35,4.35,0,0,0,368,202c17.43,3.25,33.1-1.2,47.39-11.19,3.82-2.67,3.9-7.35,0-9.86a90.49,90.49,0,0,0-14.72-8C384.86,166.54,369.08,167.43,354.08,173.88ZM197.74,140.26c-8-6.2-16.54-12.16-24.29-19s-14.73-14.61-22-21.9c3,20,14.72,46.45,24.28,55.3ZM360.83,98.07c-13.93,17-29.17,31-47.11,41.71l22.86,14.81C349.21,138.27,357.15,119.69,360.83,98.07Z"/><path d="M247.43,384.15c0,6.79-3.93,11.25-9.5,12-5,.7-10.37-2.5-11.38-7.74a22,22,0,0,0-8.74-14.17c-4.3-3.26-4.68-9.59-1.63-13.95s9-6.11,13.66-3.34C240.51,363.35,246.27,373,247.43,384.15Z"/><path d="M264.61,383.87c1.18-11,7-20.38,17.25-26.77,4.71-2.93,10.88-1.24,14,3.24s2.61,10.66-1.67,14a21.32,21.32,0,0,0-8.63,13.83,10.23,10.23,0,0,1-11.51,8C268.32,395.36,264.46,390.76,264.61,383.87Z"/><path d="M309.79,257.36a10.78,10.78,0,0,1,10.91-10.54,10.91,10.91,0,0,1,10.58,10.94,10.78,10.78,0,0,1-11,10.49A10.67,10.67,0,0,1,309.79,257.36Z"/><path d="M191.5,246.82a10.78,10.78,0,0,1,10.71,10.75,10.66,10.66,0,0,1-10.73,10.68,10.79,10.79,0,0,1-10.78-10.7A10.92,10.92,0,0,1,191.5,246.82Z"/></svg>