<svg id="Layer_23" data-name="Layer 23" xmlns="http://www.w3.org/2000/svg" viewBox="0 0 512 512"><defs><style>.cls-1{fill:#010101;}</style></defs><path class="cls-1" d="M151.53,340c.92-7.26,1.67-13.77,2.58-20.25,2.47-17.75-8.32-30.67-26.19-31.26-11.54-.39-11.54-.39-11.54-11.63,0-26.43.17-52.86-.12-79.29-.07-6.36,1.81-8.47,8.32-8.45q133.37.27,266.74,0c6.54,0,8.38,2.27,8.32,8.54-.25,27.41-.31,54.82,0,82.23.09,7-2.39,9.13-8.95,8.68a174.73,174.73,0,0,0-18.31,0c-7.3.29-12.13,4.92-12.07,11.12s4.89,10.63,12.26,10.79c7.81.17,15.64.26,23.44-.06,14.36-.58,25.16-10.88,25.34-25.19q.56-46.24,0-92.51c-.19-15.65-11.72-25.45-28.79-25.46q-115.43-.06-230.84,0c-13.19,0-26.38-.09-39.57,0-17.49.15-27.68,10.31-27.76,27.88q-.18,43.32,0,86.64c0,18.53,10,28.51,28.45,28.75,10.23.14,10.09.12,9,10.37A161.74,161.74,0,0,1,128,341.75c-3.21,13.29,6.68,23.77,20.28,21.81,25.86-3.74,42-19.79,51.59-42.65,3.61-8.6,8-10.74,16.75-10.6,32.24.53,64.49.22,96.73.2a51.26,51.26,0,0,0,8-.34c5.64-.91,8.53-4.8,8.8-10.16.26-5.07-2.22-9.11-7.3-10.59a31.75,31.75,0,0,0-8.67-.89c-34.2-.06-68.4.19-102.6-.14-15.07-.14-25.07,6.05-30.27,20.32a58.81,58.81,0,0,1-13.39,21.64C163.59,334.7,158.82,338.41,151.53,340Z"/><path class="cls-1" d="M257.48,248.17q-54.92,0-109.84,0c-3.95,0-7.8,0-10.9,3.1-5.75,5.69-3.85,14.85,3.73,18,3.07,1.3,6.23.95,9.38.95q108,0,216,0a51.84,51.84,0,0,0,5.85-.1c6.68-.77,10.85-5.52,10.48-11.77-.35-5.88-4.62-10-11.22-10.14-7.81-.22-15.62-.08-23.43-.09Z"/><path class="cls-1" d="M187.17,229.45c13.89,0,27.79.05,41.68,0,8.38,0,12.79-3.7,13-10.54.17-7-4.61-11.4-13.06-11.43q-41-.15-81.9,0c-8.34,0-13.57,4.52-13.54,11.17s5.09,10.79,13.63,10.82C160.35,229.49,173.76,229.45,187.17,229.45Z"/></svg>