<svg id="Layer_33" data-name="Layer 33" xmlns="http://www.w3.org/2000/svg" viewBox="0 0 512 512"><path d="M394.2,202l-30.81,24.25q-37.67,29.65-75.34,59.3c-13,10.19-25.1,10.05-38.11-.21q-37.18-29.36-74.45-58.6c-2.07-1.63-4.57-2.72-8-4.71-2.65,1.6-8.34,4.26-13.13,8-6.59,5.21-6.41,12.89-5.17,20.36a24.32,24.32,0,0,0,3,8c11.54,20.16,23.22,40.23,34.84,60.34a27.54,27.54,0,0,0,14,11.85c5.29,2.16,10.4,2,15.38-1.11,4-2.5,8.18-4.78,12.29-7.15,12.53-7.2,25.67-6.28,36.95,2.81a52,52,0,0,1,8.33,8C285.94,348.4,297,364.16,302.45,383a41.71,41.71,0,0,1,1.47,12.55c-.16,6.83-3.51,12-9.5,15.55-40.8,24.06-80.35,20.54-118.63-5.7a139,139,0,0,1-40.57-43.1c-16.14-26.7-32-53.6-46.85-81C75.26,257,68.67,230.69,71.09,202.88c3-34.3,18.82-61.08,48.16-79.47,1.37-.86,2.87-1.54,4.2-2.46,10.41-7.16,20-3.69,27.37,2.64,8,6.85,13.9,15.35,18.85,24.53,3.85,7.13,7.3,14.48,11.12,21.63.55,1,2.06,1.72,3.27,2.2a8.63,8.63,0,0,0,3,.07q98.25,0,196.5,0a41.7,41.7,0,0,1,10.36,1c10.37,2.68,16.33,10.63,16.34,21.37,0,48.4-.21,96.79.15,145.19.1,13.93-10.56,22.9-22,23.05-25.2.35-50.41.17-75.61.1a7.91,7.91,0,0,1-8.19-8c0-4.38,3-7.58,7.74-8,1.73-.16,3.49-.1,5.23-.1h66.25a39.55,39.55,0,0,0,4.49-.16c4.2-.49,5.88-2.37,5.91-6.67,0-5.63,0-11.25,0-16.88V202Zm-156,209.05c15-.17,28.36-2.94,40.64-9.64,10.95-6,11.27-7.06,6.62-18.92-5.1-13-12.73-24.59-21.09-35.66a60.67,60.67,0,0,0-9.12-9.36c-5.62-4.78-11.69-5.59-18.19-1.32-3.95,2.6-8.24,4.69-12.28,7.15-9.31,5.68-19,6.1-29.09,2.42a41.21,41.21,0,0,1-22.3-18.44c-11.79-20.44-23.7-40.8-35.45-61.26-11.53-20.09-5.64-42.11,14.22-53.73,3.88-2.27,7.73-4.57,11.65-6.76,5-2.76,6.79-7.12,6.49-12.53a28,28,0,0,0-1-6.64,136.93,136.93,0,0,0-25.15-46.85,28,28,0,0,0-6.55-5.49,4.81,4.81,0,0,0-4-.14,71.49,71.49,0,0,0-10.67,6.17c-23.07,17.05-35.18,40-36,68.73C86.09,234,93.16,257.26,105.26,279c13.12,23.55,26.83,46.78,40.52,70a144,144,0,0,0,27.4,33.54C192,399.57,213.31,410.65,238.18,411.07ZM180.94,210.78c1.74,1.26,3.18,2.24,4.54,3.32q37.2,29.27,74.39,58.57c6.95,5.48,11.42,5.57,18.42.06Q330.66,231.56,383,190.34a12.55,12.55,0,0,1,2.54-1.18l-1-.87H186.2C186.94,196.45,185.68,204,180.94,210.78Z"/></svg>