<svg xmlns="http://www.w3.org/2000/svg" viewBox="0 0 512 512"><defs><style>.cls-1{fill:#010101;}</style></defs><g id="Layer_38" data-name="Layer 38"><path class="cls-1" d="M391.88,219.43a33.53,33.53,0,0,1,23.63-57.27h.23A33,33,0,0,1,439.19,172a33.45,33.45,0,0,1,9.91,23.81h0C449,225.16,413.27,240.76,391.88,219.43Zm23.64-46.27a22.53,22.53,0,0,0,0,45.06h1.77a22.67,22.67,0,0,0,20.77-22.45h0a22.35,22.35,0,0,0-6.65-16l-.08-.09a22,22,0,0,0-15.63-6.57Z"/><rect x="70.3" y="166.17" width="277.04" height="12" rx="6"/><rect x="69.37" y="213.88" width="277.04" height="12" rx="6"/><path class="cls-1" d="M391.4,333.45A33.54,33.54,0,0,1,415,276.17h.23A33,33,0,0,1,438.71,286a33.43,33.43,0,0,1,9.91,23.8h0C448.52,339.16,412.79,354.78,391.4,333.45ZM415,287.17a22.54,22.54,0,0,0,0,45.07h1.76a22.67,22.67,0,0,0,20.78-22.44h0A22.38,22.38,0,0,0,431,293.83l-.08-.08a22,22,0,0,0-15.62-6.58Z"/><rect x="69.82" y="280.19" width="277.04" height="12" rx="6"/><rect x="68.88" y="327.9" width="277.04" height="12" rx="6"/></g></svg>