<svg id="Layer_7" data-name="Layer 7" xmlns="http://www.w3.org/2000/svg" viewBox="0 0 512 512"><path d="M175,53.41h5.25c2.9,2.1,6.1,3.89,8.63,6.36a165.33,165.33,0,0,1,27.9,35.51c1.32,2.28,2.48,2.69,5,2a135.57,135.57,0,0,1,68.48,0c2.5.64,3.67.25,5-2a163.76,163.76,0,0,1,27.37-35c2.7-2.66,6.09-4.62,9.16-6.9h5.25c2.85,2.16,6.05,4,8.49,6.55,5.67,6,11.32,12,16.37,18.51,13.09,16.87,23.28,35.32,26.83,56.62,4.27,25.6.45,50.48-8.33,74.73a19.72,19.72,0,0,0-1.37,6.48c-.06,25.87-4.93,50.85-13.67,75.15-8.65,24-22.63,45-37.95,65.11-4.94,6.48-10.68,12.9-17.38,17.35-7.35,4.89-9.62,10.16-9.4,18.79.41,15.63-6.62,28.44-19.8,36.94-5.61,3.62-12.5,5.24-18.8,7.77H250c-.8-.26-1.59-.59-2.41-.78-16.78-3.83-28.69-13.62-33.9-30-2.2-7-2-14.74-2.47-22.18a7.29,7.29,0,0,0-3.17-6c-7-5.59-14.09-11.23-20.08-17.81s-10.92-14.28-16-21.67c-25.69-37.1-38.83-78.19-38.9-123.39a16,16,0,0,0-.82-4.35c-2.36-8-5.38-15.87-7.07-24-3.75-18.08-5.34-36.35-1.43-54.67,4.93-23,16.57-42.68,31.57-60.46C161.16,65.12,166.8,57.86,175,53.41ZM267.3,369.06c17-2.78,30.57-11,40.74-24.26,7.67-10,14.4-20.71,21.67-31,1.76-2.48,1.2-3.92-.86-5.92-11.21-10.87-22.54-21.65-33.32-33-17.38-18.22-26.82-40.15-28.24-65.29-1.77-31.16,8.71-57.85,30.31-80.26,1.17-1.21,2.29-2.46,3.48-3.75-25.43-14.64-71.62-12.14-89.77.11a4.54,4.54,0,0,0,.41.63l3.61,3.81c17,17.76,27.27,38.79,29.31,63.33,2.79,33.51-8.13,62.15-32.12,85.77-9.89,9.73-19.75,19.49-29.73,29.13-1.78,1.72-2,3-.59,5,7.27,10.45,14,21.3,21.74,31.41,10.17,13.33,24,21.12,40.85,24.31,0-8,.06-15.75-.1-23.48,0-.84-1.19-2-2.1-2.44-12.67-5.77-20.9-15.6-25.72-28.37-4.36-11.53-.26-23.61,10.29-30,18.75-11.33,37.84-11.56,56.82-.63,11.79,6.79,16,19.86,10.67,32.38-5.15,12-13.18,21.42-25.44,26.76a3.33,3.33,0,0,0-1.82,2.25C267.25,353.37,267.3,361.11,267.3,369.06Zm-97-79.58c11.27-11.33,22.64-21.58,32.64-33a80.82,80.82,0,0,0,9.52-92.66c-5.45-9.77-12.8-18-20.89-25.81a102.68,102.68,0,0,0-33,54.48C154.7,208,155,223.67,157,239.38A194.47,194.47,0,0,0,170.27,289.48ZM320.5,137.89c-3.29,3.54-6.37,6.79-9.38,10.09a81.51,81.51,0,0,0,0,110.69c9.43,10.14,19.65,19.55,29.53,29.28a9.69,9.69,0,0,0,1.28.92,14,14,0,0,0,.74-1.38c10.48-26.63,15.93-54.19,13-82.78C352.9,178.2,341,156,320.5,137.89ZM314,106.54c24.25,13.29,41.4,32.19,53.32,56.77,3.91-29.41-10.74-59.15-33.15-82.59-1.58,1.76-3.27,3.42-4.69,5.28C324.42,92.63,319.44,99.33,314,106.54ZM178.31,80.25c-25,26.55-37.51,56.56-33.43,82.83,11.8-24.44,29-43.3,53.21-56.57C191.38,97.6,185,89.08,178.31,80.25Zm55.81,309.68a21.79,21.79,0,0,0,10.65,21.88,22.13,22.13,0,0,0,25-1.64c6.29-4.87,9.85-13.68,8-20.21A92.61,92.61,0,0,1,234.12,389.93ZM256,297.77c-5.39,1.85-10.67,3.56-15.85,5.5-2.48.92-3.12,3.08-1.65,5.17,2.92,4.14,5.68,8.57,9.35,12a12.43,12.43,0,0,0,16.55,0c3.58-3.33,6.33-7.61,9.15-11.67,1.7-2.45.73-4.68-2-5.68C266.56,301.19,261.5,299.61,256,297.77Z"/><path d="M192.82,206a11.29,11.29,0,0,1,10.77,12,11.13,11.13,0,0,1-11.94,10.36,11.3,11.3,0,0,1-10.5-11.54A11.48,11.48,0,0,1,192.82,206Z"/><path d="M331,217.31a11.24,11.24,0,0,1-22.48-.21,11.24,11.24,0,1,1,22.48.21Z"/></svg>