<svg id="Layer_48" data-name="Layer 48" xmlns="http://www.w3.org/2000/svg" viewBox="0 0 512 512"><defs><style>.cls-1{fill:#fff;}</style></defs><path d="M253.51,426.71c-4.14-.79-8.38-1.26-12.42-2.42-19-5.42-30.1-19.58-32-40.29a11.8,11.8,0,0,0-.86-4.08c-3.73-7.47-4.87-15.38-4.63-23.64a14.32,14.32,0,0,0-1.32-5.39C191.43,322.63,185,293.48,185,263.1c0-11.46,1.64-22.77,5.92-33.52a5.89,5.89,0,0,0-.53-5.85,310.38,310.38,0,0,1-39.13-100c-2.94-14.31-4.89-28.86-1-43.39,2-7.62,6.21-13.47,14.52-15.15C170.47,64,175.48,66,180.15,69c8.32,5.23,14.63,12.54,20.35,20.37,16.1,22,27.64,46.45,36.64,72.1,3.26,9.29,6,18.76,9,28.08H269.3c3.47-10.67,6.68-21.48,10.52-32.06,8.81-24.33,20-47.49,35.37-68.42,5.67-7.7,12-14.86,20.15-20.1,9.38-6,19.19-5.31,25.24,2,3.89,4.69,5.36,10.39,6,16.32,1.79,15.69-.89,31-4.53,46.13a312.87,312.87,0,0,1-36.83,90.09,6.59,6.59,0,0,0-.6,6.48c5.51,14.59,6.61,29.8,5.55,45.19a253.16,253.16,0,0,1-17.77,77.76,10.57,10.57,0,0,0-.54,4.13,49.62,49.62,0,0,1-4.3,22.31c-1.09,2.36-1.23,5.2-1.61,7.85-3.26,22.44-18.37,36.81-40.93,38.9a24,24,0,0,0-3.07.66Zm51.13-95.33c2.51-10.83,5.17-20.92,7.15-31.14,3.52-18.11,5.37-36.37,1.74-54.7-3.9-19.63-14.56-33.46-34.59-38.62a86.72,86.72,0,0,0-39.89-.6c-14.23,3-25.33,10.51-31.94,23.78-5.13,10.33-6.76,21.48-7,32.87-.36,19.35,3.15,38.16,7.91,56.8.93,3.64,2,7.23,3.2,11.3C233,296.41,282.06,295,304.64,331.38Zm-48,58.17c6.48-1,12.4-1.45,18-2.92,11.53-3,20.18-9.53,21.71-22.19,1.73-14.33-3.12-26.52-14.28-35.74-9.78-8.09-21.1-11.46-33.6-7.84C231.9,325.67,221.83,337,219.19,354c-2.23,14.37,2.38,26.28,18.69,31.66C244.06,387.67,250.69,388.34,256.65,389.55ZM314.7,211.72c.45-.73.76-1.23,1.05-1.74a302.51,302.51,0,0,0,32.47-83.87c2.67-12,4.64-24.08,3.41-36.39-1.26-12.59-5.48-8.43-12.22-5.06a6.6,6.6,0,0,0-1.31,1.18c-7.9,7.24-13.84,16-19.42,25C306.42,130.66,297.32,151.93,290,174c-2,6.09-3.62,12.33-5.48,18.72l7.69,2.7c.43-1.18.77-2.16,1.14-3.14,6.55-17.49,13-35,19.74-52.44,2.55-6.56,5.83-12.85,9-19.14,2.11-4.19,6.29-5.62,10.08-3.87s5.18,5.84,3.5,10.21c-.55,1.42-1.25,2.79-1.92,4.16a466,466,0,0,0-27,69.26c-.36,1.2-.28,3.12.45,4C309.39,207,312,209.16,314.7,211.72Zm-83.68-19c-.6-2.16-1.07-3.85-1.56-5.54-9.07-31.64-21.62-61.69-41-88.57-4.89-6.8-10.11-13.38-17.7-17.45-3.27-1.75-4.29-1.32-5.52,2.13-2.68,7.56-2.09,15.4-1.26,23.09,2,18.68,6.93,36.7,13.28,54.37a297.16,297.16,0,0,0,23.48,51c2.74-2.59,5.44-5,7.94-7.63a3.35,3.35,0,0,0,.31-2.77c-10.23-32.48-21.65-64.45-40.56-93.15-2.6-3.94-2-8.21,1.37-10.65s7.71-1.94,10.64,1.72a76.38,76.38,0,0,1,6,8.73c11.58,19.64,20.24,40.61,28.12,61.92,3.09,8.36,5.85,16.85,8.83,25.48ZM285.45,399A74,74,0,0,1,257.62,404a77.71,77.71,0,0,1-27.8-5C240.66,415.45,276.69,415.32,285.45,399Z"/><path class="cls-1" d="M285.45,399c-8.76,16.34-44.79,16.47-55.63,0a77.71,77.71,0,0,0,27.8,5A74,74,0,0,0,285.45,399Z"/><path d="M290.44,353.48a4.58,4.58,0,0,0-.39.53,8.81,8.81,0,0,1-3.61,3.3c-6.21,2.53-10.18,7.35-12.5,15.16-1.22,4.12-4.1,6.56-7.56,6.56a8.09,8.09,0,0,1-1.59-.16,7.38,7.38,0,0,1-4.77-3.3,8.49,8.49,0,0,1-1-6.64c2.78-11.49,9.47-19.9,19.88-25a8.35,8.35,0,0,1,8.13.14C293.33,347.8,290.43,353.39,290.44,353.48Z"/><path d="M257,370.47l0,.38c-.3,6.58-4.7,7.8-6.58,8a10,10,0,0,1-1.2.07,7.06,7.06,0,0,1-7.19-5.59c-2.2-8.37-6.42-13.57-13.28-16.35-3.71-1.5-5.15-5.22-3.6-9.24a7.78,7.78,0,0,1,4.31-4.47,7.94,7.94,0,0,1,6.35.18,36,36,0,0,1,20.13,22.67c.35,1.08.59,2.17.78,3,.07.33.14.64.21.92Z"/><path d="M287.37,256.9a8.92,8.92,0,0,1,8.51,9.49,8.8,8.8,0,0,1-9.44,8.19,8.92,8.92,0,0,1-8.29-9.12A9.06,9.06,0,0,1,287.37,256.9Z"/><path d="M227.89,256.9a8.91,8.91,0,0,1,8.51,9.49,8.79,8.79,0,0,1-9.43,8.19,8.93,8.93,0,0,1-8.3-9.12A9.07,9.07,0,0,1,227.89,256.9Z"/></svg>