<svg xmlns="http://www.w3.org/2000/svg" xmlns:xlink="http://www.w3.org/1999/xlink" viewBox="0 0 793.6 698.7"><defs><style>.cls-1,.cls-12,.cls-20,.cls-7{isolation:isolate;}.cls-2{fill:#b22d2d;}.cls-3{fill:#822525;}.cls-4{fill:#ef4036;}.cls-5{fill:url(#linear-gradient);}.cls-6{fill:#fdb97d;}.cls-12,.cls-7{opacity:0.1;}.cls-8{fill:#d8d8d8;}.cls-9{fill:#091214;}.cls-10,.cls-12,.cls-20{fill:#1c1c1b;}.cls-11{fill:#3c3c3a;}.cls-13{fill:#ebebeb;}.cls-14{fill:#5b8ea8;}.cls-15{fill:#1b3237;}.cls-16{fill:#233e45;}.cls-17{fill:#575756;}.cls-18{fill:#f4f4f4;}.cls-19{fill:#510b0a;}.cls-20{opacity:0.4;}.cls-21{fill:#241d19;}.cls-22{fill:#f1e3dc;}.cls-23{fill:#c5b8b4;}.cls-23,.cls-26,.cls-28,.cls-29,.cls-35,.cls-41{mix-blend-mode:multiply;}.cls-24{fill:#652f0b;}.cls-25{fill:#ee8a8a;}.cls-26{fill:#ce8c8c;opacity:0.3;}.cls-27{fill:#262630;}.cls-28{fill:#dacecb;}.cls-29,.cls-35{fill:#d1c7c1;}.cls-29{opacity:0.2;}.cls-30{fill:#14100f;}.cls-31{fill:#35353f;}.cls-32{fill:#faeee8;}.cls-33{fill:#0c0908;}.cls-34{fill:#f7f4f2;}.cls-35{opacity:0.4;}.cls-36{fill:#8b411d;}.cls-37{fill:#733a1d;}.cls-38{fill:#4a2411;}.cls-39{fill:#8d6f6a;}.cls-40{fill:#392623;}.cls-41{fill:#e9d8d3;}.cls-42{fill:#90583c;}</style><linearGradient id="linear-gradient" x1="577.12" y1="-0.45" x2="361.96" y2="367.42" gradientTransform="matrix(1, 0, 0, -1, 0, 700)" gradientUnits="userSpaceOnUse"><stop offset="0" stop-color="#fff"/><stop offset="0.46" stop-color="#fdfeff"/><stop offset="0.65" stop-color="#f6f9ff"/><stop offset="0.79" stop-color="#eaf2ff"/><stop offset="0.9" stop-color="#d8e7ff"/><stop offset="1" stop-color="#c2daff"/></linearGradient></defs><g class="cls-1"><g id="Layer_1" data-name="Layer 1"><g id="Layer_2" data-name="Layer 2"><path class="cls-2" d="M747.2,439.9v31l-434.8-251c-20.1-11.6-52.6-11.6-72.6,0L45,333.1V302.2c-35.2,19.9-35.2,53.2,0,73.1h0L481.7,627.4c20.1,11.6,52.6,11.6,72.6,0L747.2,515.3h0l2.2-1.3a51,51,0,0,0,6.6-4.7C782.1,488.6,779.1,458.5,747.2,439.9Z"/><path class="cls-3" d="M140.6,418.3,86.9,387.4c-2-1.2-3.6-4.5-3.6-7.5h0c0-3,1.6-4.4,3.6-3.3l53.7,30.9c2,1.2,3.6,4.5,3.6,7.5h0C144.2,418,142.6,419.4,140.6,418.3Z"/><path class="cls-3" d="M208.4,457.2l-53.7-30.9c-2-1.2-3.6-4.5-3.6-7.5h0c0-3,1.6-4.4,3.6-3.3l53.7,30.9c2,1.2,3.6,4.5,3.6,7.5h0C212,456.9,210.4,458.4,208.4,457.2Z"/><path class="cls-4" d="M749.1,441,312.4,188.9c-20.1-11.6-52.6-11.6-72.6,0L44.8,302.2c-20,11.6-19.9,30.4.2,42L481.7,596.3c20.1,11.6,52.6,11.6,72.6,0L749.3,483C769.4,471.4,769.2,452.6,749.1,441Z"/><path class="cls-5" d="M734.9,449.3,298.2,197.2c-12.2-7-31.8-7-43.9,0L220.1,217c-4,2.3-4.5,5.9-1.3,8.6l7.7,6.5c3,2.5,2.4,5.9-1.2,8l-91.9,53.4c-3.7,2.2-9.5,2.5-13.9.8l-11.3-4.5c-4.7-1.8-10.9-1.5-14.9.8L59.1,310.4c-12.1,7-12,18.4.1,25.5L496,588.1c12.2,7,31.8,7,43.9,0l195-113.3C747.1,467.7,747,456.3,734.9,449.3Z"/><path class="cls-2" d="M193.9,241.5a6.37,6.37,0,0,0-6,0L147.5,265c-1.6,1-1.6,2.5,0,3.5a6.37,6.37,0,0,0,6,0L193.9,245c1.6-1,1.6-2.5,0-3.5"/><path class="cls-2" d="M208.2,233.2a6.37,6.37,0,0,0-6,0l-4.6,2.7c-1.6,1-1.6,2.5,0,3.5a6.37,6.37,0,0,0,6,0l4.6-2.7c1.7-1,1.6-2.5,0-3.5"/><path class="cls-2" d="M142.3,271.5a11.45,11.45,0,0,0-10.5,0c-2.9,1.7-2.9,4.4,0,6.1a11.45,11.45,0,0,0,10.5,0c2.9-1.7,2.9-4.4,0-6.1"/><path class="cls-4" d="M139.2,420,85.5,389.1c-2-1.2-3.6-4.5-3.6-7.5h0c0-3,1.6-4.4,3.6-3.3l53.7,30.9c2,1.2,3.6,4.5,3.6,7.5h0C142.9,419.7,141.3,421.2,139.2,420Z"/><path class="cls-4" d="M207,459l-53.7-30.9c-2-1.2-3.6-4.5-3.6-7.5h0c0-3,1.6-4.4,3.6-3.3L207,448.2c2,1.2,3.6,4.5,3.6,7.5h0C210.7,458.7,209.1,460.1,207,459Z"/><path class="cls-3" d="M636.9,571.1l37.8-21.7c2.1-1.2,3.8-4.7,3.8-7.8h0c0-3.1-1.7-4.6-3.8-3.4l-37.8,21.7c-2.1,1.2-3.8,4.7-3.8,7.8h0C633.1,570.8,634.8,572.3,636.9,571.1Z"/><path class="cls-4" d="M676.4,537.8a5.1,5.1,0,0,1,.8,3c0,3.1-1.7,6.6-3.8,7.8l-37.8,21.7a3.43,3.43,0,0,1-1.6.4,2.15,2.15,0,0,0,3,.4l37.8-21.7c2.1-1.2,3.8-4.7,3.8-7.8C678.6,539.3,677.7,537.9,676.4,537.8Z"/><path class="cls-3" d="M691.8,534.4a6.59,6.59,0,0,1,3.1-5.3c1.7-1,3.1-.2,3.1,1.8a6.9,6.9,0,0,1-3.1,5.3C693.2,537.2,691.8,536.4,691.8,534.4Z"/><path class="cls-3" d="M700.1,529.7a6.59,6.59,0,0,1,3.1-5.3c1.7-1,3.1-.2,3.1,1.8a6.9,6.9,0,0,1-3.1,5.3C701.4,532.5,700.1,531.6,700.1,529.7Z"/><path class="cls-3" d="M708.3,524.9a6.59,6.59,0,0,1,3.1-5.3c1.7-1,3.1-.2,3.1,1.8a6.9,6.9,0,0,1-3.1,5.3C709.7,527.7,708.3,526.9,708.3,524.9Z"/><path class="cls-3" d="M716.5,520.2a6.59,6.59,0,0,1,3.1-5.3c1.7-1,3.1-.2,3.1,1.8a6.9,6.9,0,0,1-3.1,5.3C717.9,523,716.5,522.2,716.5,520.2Z"/><path class="cls-3" d="M724.7,515.4a6.59,6.59,0,0,1,3.1-5.3c1.7-1,3.1-.2,3.1,1.8a6.9,6.9,0,0,1-3.1,5.3C726.1,518.2,724.7,517.4,724.7,515.4Z"/><path class="cls-3" d="M733,510.7a6.59,6.59,0,0,1,3.1-5.3c1.7-1,3.1-.2,3.1,1.8a6.9,6.9,0,0,1-3.1,5.3C734.4,513.5,733,512.7,733,510.7Z"/><path class="cls-3" d="M569.1,605.1a6.59,6.59,0,0,1,3.1-5.3c1.7-1,3.1-.2,3.1,1.8a6.9,6.9,0,0,1-3.1,5.3C570.5,607.9,569.1,607.1,569.1,605.1Z"/><path class="cls-3" d="M577.3,600.3a6.59,6.59,0,0,1,3.1-5.3c1.7-1,3.1-.2,3.1,1.8a6.9,6.9,0,0,1-3.1,5.3C578.7,603.1,577.3,602.3,577.3,600.3Z"/><path class="cls-3" d="M585.6,595.6a6.59,6.59,0,0,1,3.1-5.3c1.7-1,3.1-.2,3.1,1.8a6.9,6.9,0,0,1-3.1,5.3C587,598.4,585.6,597.6,585.6,595.6Z"/><path class="cls-3" d="M593.8,590.8a6.59,6.59,0,0,1,3.1-5.3c1.7-1,3.1-.2,3.1,1.8a6.9,6.9,0,0,1-3.1,5.3C595.2,593.6,593.8,592.8,593.8,590.8Z"/><path class="cls-3" d="M602,586.1a6.59,6.59,0,0,1,3.1-5.3c1.7-1,3.1-.2,3.1,1.8a6.9,6.9,0,0,1-3.1,5.3C603.4,588.9,602,588.1,602,586.1Z"/><path class="cls-3" d="M610.3,581.4a6.59,6.59,0,0,1,3.1-5.3c1.7-1,3.1-.2,3.1,1.8a6.9,6.9,0,0,1-3.1,5.3C611.6,584.1,610.3,583.3,610.3,581.4Z"/><path class="cls-6" d="M289.8,289.9v5.7l.9,4,2.1,3.2c1.1,1.3,2.3,1.2,2.8.5a2,2,0,0,0-.1-2.1l-1.5-2.5-.5-4v-5.8h-.1l-1.3.4Z"/><path class="cls-7" d="M289.8,291.9h0v3.7l.9,4,2.1,3.2c1.1,1.3,2.3,1.2,2.8.5-1.8.1-2.9-1.3-3.7-3.3a3.94,3.94,0,0,1-.6-3.9c-.9-1.5-.5-3.5.3-5.3Z"/><path class="cls-6" d="M286.7,291.6v4.9l.5,4.6,2.5,3.7c1.3,1.5,2.6,1.2,3,.2a2,2,0,0,0-.2-1.8l-1.9-3.2-.1-4.1.2-5.2Z"/><path class="cls-7" d="M286.7,293.2v3.3l.5,4.6,2.5,3.7c1.3,1.5,2.6,1.2,3,.2-2,.3-4-1.3-4.3-4.2a3.35,3.35,0,0,1-.4-3.7,4.5,4.5,0,0,1,.4-4.5Z"/><path class="cls-6" d="M283.3,297.4l.8,4.7,2,3.7a1.52,1.52,0,0,0,2.5.3,1.34,1.34,0,0,0,.2-1.5l-1.3-3.4-.3-4.1.3-5.1-3.9.5-.1,1.4Z"/><path class="cls-7" d="M283.3,297.4l.8,4.7,2,3.7a1.52,1.52,0,0,0,2.5.3c-2.2.3-2.9-1.7-3.1-4a5.46,5.46,0,0,1-.7-4.2,4.26,4.26,0,0,1,0-4.1l-1.2.1Z"/><path class="cls-6" d="M280,291.4a3.63,3.63,0,0,0,.7,1.7l.5.5a3.44,3.44,0,0,0,2.6.4.9.9,0,0,0,.5-.1,33.76,33.76,0,0,0,5.6-2,12.21,12.21,0,0,0,2.8-1.7l.6-.6h0c.1-.1.2-.3.3-.4l-.1-.5-.7-3.5-3-15.1-7.1,2.5-.8.2.1,5.8C279.7,281.1,279.8,286.1,280,291.4Z"/><path class="cls-6" d="M280,291.4l.6,6,.7,3.5,1.6,3a1.27,1.27,0,0,0,1.9.4,1.11,1.11,0,0,0,.4-1.1l-.9-2.8-.6-2.9.2-3.4v-.4L281,292Z"/><path class="cls-7" d="M292.1,289.2a1.38,1.38,0,0,0,.4.3c0,.3.1.5.1.8a10.35,10.35,0,0,1,.2,4.6,32.16,32.16,0,0,0,1.2,3.7l-.5-4v-5.8h-.1l-.7-3.5-1.4-3.4-2.4-.4C288.8,285,289.6,287.1,292.1,289.2Z"/><path class="cls-6" d="M289,282.8c.6,2.6,1.7,4.8,4.1,6l.7,4.2a5.52,5.52,0,0,0,1.8,2.9,1.26,1.26,0,0,0,1.7-.2,1.71,1.71,0,0,0,.5-1.7l-.5-1.8-.8-3.5.1-5.6c-1.5-3.9-3.3-6.7-5.2-7.6l-.1-5.7-2.4.6C288.7,274.2,288.2,278.9,289,282.8Z"/><path class="cls-7" d="M280,291.4l.6,6,.7,3.5,1.6,3a1.27,1.27,0,0,0,1.9.4h0c-1.6-.4-2.2-1.7-2.4-3.6a2.86,2.86,0,0,1-.7-3.1c-.8-1.4-.2-2.6.4-3.8,0,0-.2-.8-.4-2.1-.5-3.5-1.1-10.4,2.1-12.9a9.87,9.87,0,0,1-1-6.3l-.8.2.1,5.8C279.7,281.1,279.8,286.1,280,291.4Z"/><path class="cls-7" d="M289,282.8c.6,2.6,1.7,4.8,4.1,6l.7,4.2a5.52,5.52,0,0,0,1.8,2.9,1.26,1.26,0,0,0,1.7-.2c-2.3-.1-3.4-2.7-3.4-7.4C291.6,287.7,290.1,285.6,289,282.8Z"/><path class="cls-7" d="M281.6,291.9c.2,1.3.4,2.1.4,2.1a5.15,5.15,0,0,0,1.8.1.9.9,0,0,0,.5-.1,33.76,33.76,0,0,0,5.6-2,12.21,12.21,0,0,0,2.8-1.7l.6-.6C289.7,291.6,284.2,293.6,281.6,291.9Z"/><path class="cls-8" d="M293,279.9c-4.8,4.1-8,3.6-11.8-.2-3.7-15.2-6.5-27.5-6-45.2a133,133,0,0,1,6.5-28.7c6.3-18.6,26.6-29.9,23.3-6l-10.9,36.9Z"/><path class="cls-9" d="M275.2,433.8s-2.2,10.6-2.3,14.3c-.1,4.7,8.9,5.2,11.2,5s19.2-4.4,19.2-4.4c5.1-2.5,8.8-5.5,7.7-8.7s-4.6-4.5-9-4.3l-7.3-.8-2.1-3.7-16.1-.5Z"/><path class="cls-9" d="M377.6,444c-8.3,5-15.3,8.6-21.8,10.8a17.15,17.15,0,0,1-7.3.9c-2.6-.4-4.1-1.8-4.5-3.9-.7-5.2,0-9.3,1.2-14.5v-11c9.3-1.1,6.5,0,11.8-4.2,5.8,11,5,8.7,4.8,11.3l6.7.4,3.4-.4a6.87,6.87,0,0,1,5.9,2.3C380.4,438.8,379.3,442.8,377.6,444Z"/><path class="cls-10" d="M293.4,280.3l-4.2,72c-7.6,19.1-11.1,41.6-15,80-1.7,8.9,21.1,9.7,24.2,3.1,7.4-19.2,8.8-40.7,20.1-71.8,2.2-15.2,11.8-58.7,9.5-69.2C328,294.4,305.8,294.7,293.4,280.3Z"/><path class="cls-11" d="M313.1,320.3l18.8,45.6c-3.2,24.2,1.7,44,9.3,74.1.9,6.9,21.6,2,21.6-6.6-.4-23.2-3.6-43.2-5.1-75.3-.9-14.3-14.2-60.1-16.5-70.6-2.1-17.9-52.5-27.4-52.9-9.8C287.2,299.4,288.2,316.1,313.1,320.3Z"/><path class="cls-6" d="M386.1,257.2l3.1-.4h.2l3.9-.6,2.6-1c1.4-.4,2.2.4,2.3,1.1a1,1,0,0,1-.5.9l-3.1,1.5-3.3.9s-2.6.8-3,.6l-.7-.9-1.4-1.8Z"/><path class="cls-12" d="M385.9,259.9l-.3-2.2.7-.2,2.8-.7,6.8-1.6h0c1.4-.4,2.2.4,2.3,1.1a8.06,8.06,0,0,0-3.3,1.4,4.19,4.19,0,0,0-2.9.9c-.9-.3-2.4.2-4.3.7A18.88,18.88,0,0,1,385.9,259.9Z"/><path class="cls-6" d="M388.5,258.9l-.7-1.7-1-2.4-.3-.6,2.4.1,3.4.2,4.1-1,2.7-1.3c1.5-.6,2.5.2,2.5,1a1.22,1.22,0,0,1-.4.9l-3.6,2.3-4.5,1.5C393.1,257.8,388.8,259,388.5,258.9Z"/><path class="cls-12" d="M387,257.4l-.4-2.5h.1l2.2-.5,3.4.2,4.1-1,2.7-1.3c1.5-.6,2.5.2,2.5,1a7.89,7.89,0,0,0-4,1.7c-1.1-.1-1.9.2-3.4,1.1-1.2-.4-3.7.5-6.4,1.3A1.1,1.1,0,0,0,387,257.4Z"/><path class="cls-6" d="M391.1,255.8l-1-2.3-.8-2.1-.2-.5h.3l5.7.3,4.2-1,2.8-1.3a2.45,2.45,0,0,1,1.9,0,1.06,1.06,0,0,1,.2,1.9l-3.8,2.4-4.6,1.5C395.9,254.7,391.5,256,391.1,255.8Z"/><path class="cls-12" d="M388.7,253.9l.6-2.5.1-.4,5.7.3,4.2-1,2.8-1.3a2.45,2.45,0,0,1,1.9,0,7.52,7.52,0,0,0-3.4,1.8,12.32,12.32,0,0,0-4.6,1.7c-1.1-.3-3.5.3-6,1.1A11.15,11.15,0,0,0,388.7,253.9Z"/><path class="cls-6" d="M368.9,260.1c1.9-1.2,2.6-4.2,1.9-6.8a7.17,7.17,0,0,0-1.9-3.4l9.5-1.3a13.77,13.77,0,0,1,8.1-3.9l.8.7,3.2,2.6.3.6,1.5,3.1c-.3,2.9-1.1,6.3-3.7,8.6-4.2-.3-8.1-.5-10.7-1.7Z"/><path class="cls-6" d="M391.4,252.7l-1.5-3.7-.3-.6-.1-.1-.2-.4,1.6.1,1.5.1,3,.1,4.2-1,2.8-1.3a1.88,1.88,0,0,1,2.5.6,1.1,1.1,0,0,1-.3,1.4l-3.8,2.4-4.6,1.5C396.2,251.5,391.8,252.8,391.4,252.7Z"/><path class="cls-6" d="M386.3,245.7c0-.3.1-.7.1-1a56,56,0,0,1,7.1-.7l3.9-1.7a2.54,2.54,0,0,1,.7-.2c.8-.1,1.2.5,1,1.3a3.43,3.43,0,0,1-1,1.7,19.13,19.13,0,0,1-4.2,2.4l-1.5.6-1.1.4-.7.3-.8.3-1.7.6A4,4,0,0,1,386.3,245.7Z"/><path class="cls-12" d="M388.7,248.3c.3,0,.6-.1.8-.1.5-.1,1-.2,1.4-.3a10.75,10.75,0,0,0,4.6-2,8.12,8.12,0,0,0,3.6-2.6,3.43,3.43,0,0,1-1,1.7,19.13,19.13,0,0,1-4.2,2.4l-1.5.6,3,.1,4.2-1,2.8-1.3a1.88,1.88,0,0,1,2.5.6c-1.7-.6-3.2.1-4.7,1.3-1.4-.2-2.8.5-4.5,1.6a10.64,10.64,0,0,0-4.3-.8h-1.8C389.4,248.3,389.1,248.3,388.7,248.3Z"/><path class="cls-12" d="M368.9,249.9l9.5-1.3a13.77,13.77,0,0,1,8.1-3.9,56,56,0,0,1,7.1-.7l3.9-1.7a2.54,2.54,0,0,1,.7-.2,20.54,20.54,0,0,0-4.9,2.8,10.39,10.39,0,0,0-6,.4,6.89,6.89,0,0,0-1,.4c-2.9,0-6.3,2.7-7.2,4.9-2.8-1.3-6.3.4-8.3,2.7A6.73,6.73,0,0,0,368.9,249.9Z"/><path d="M342.7,288.5c0,.1.1,5,0,6.9-16.3,11.5-50.1-2.5-53.1-13.4.1-2.3-.3-4.5,0-7.5C299.6,288.3,330.5,295.5,342.7,288.5Z"/><path class="cls-13" d="M289.5,276.6c8.6,11.9,38.7,23.1,53.2,12.4,8-29.5,6.1-68.9,1.9-81.6-5.9-7-15-13.8-26.1-19.1-11.1-2.1-11.3-4.6-18.5-2.6C278.1,191.9,286.7,272.7,289.5,276.6Z"/><path class="cls-8" d="M307.2,185.8c-5.3,4.8-5.3,9.6,4.3,14.4,8.7,2.4,16.4,1.7,22.1-3.3l-5.2-5.2Z"/><path class="cls-8" d="M377.5,248.4c2.3.7,5.2,8.5,1.2,11.7-11.9,6.4-28.6,8.3-38.8,8.3-6-9.9-10.3-22.4-11.8-39.5-3-19.4,18.2-34.8,20.3-10.8l6.2,29.4A216.24,216.24,0,0,1,377.5,248.4Z"/><path class="cls-6" d="M307.2,180.3l-.1,8c.5,7.8,17.9,8.9,21.3,4.7v-4.7l1.5-.6c3.1-1.5,3.9-3,4.4-11.2.3-5.1.2-7.8.7-10.6a16.91,16.91,0,0,0,0-4.5c-.3-5.7-5.5-15.2-16.5-14.1-10.6,1-16.5,7.2-16.5,17C302.1,170.8,303.4,176.3,307.2,180.3Z"/><path class="cls-10" d="M307.2,184c4.4,3,9.1,4.1,13.9,2.8,3.9-1.6,4.1-9.2,4.4-16.6l2.2-1.2a10.44,10.44,0,0,1,0-7c2.1-5.7,9.1-6,9.4-9.2s-7-7.3-13.5-8.3c-6.2-1-16.1.1-20.8,7.3-2.7,4.1-2.6,8.4-2.6,12.1A34.68,34.68,0,0,0,307.2,184Z"/><path class="cls-6" d="M325.7,168.9c-.9-3.8-5.8-1.4-4,5.8.7,2.8,2.1,5,4.1,2.3C325.7,176.5,325.7,169.2,325.7,168.9Z"/><path class="cls-6" d="M439.3,226.7h0c.2.2.6.8,1.3,1.7.4.6.9,1.2,1.4,1.9h0a51,51,0,0,1,3.1,5.2,13,13,0,0,1,1,2.5c.1.4.2.8.3,1.1a14.08,14.08,0,0,0,2.1-.1c2.8-.3,4.5-1.4,7-3.4l3.5-.8c2.6-2.4,1.1-9-1.8-9.8l-6.2.6-9.6.9-1.7.2Z"/><path class="cls-6" d="M432.9,242.9a2.09,2.09,0,0,0,.4.6c1.4,1,4.1-1.8,6.1-4.3a17.74,17.74,0,0,0,5.3-2.7,17.41,17.41,0,0,0,1.4-1.2l-2.6-3-6.3,4C434.8,238.6,432.4,241.4,432.9,242.9Z"/><path class="cls-6" d="M438.4,245.9c1.6.9,2.6-2.4,4.1-4.8a14.4,14.4,0,0,0,3.9-2,10.59,10.59,0,0,0,1.2-1l.6-.6-2.5-2.4-.6.4-4.7,3.6C438.2,241.4,436.7,245,438.4,245.9Z"/><path class="cls-6" d="M430.1,238.8c1,1.5,4.4-1,6.7-3.1a16.73,16.73,0,0,0,6.7-2.3l.6-.3-2.1-3.4-6.9,2.8C432.2,234.4,429,237.2,430.1,238.8Z"/><path class="cls-6" d="M427.9,233.1c0,.2.1.4.1.6.7,1.6,4.5-.4,7.1-2.2a15.18,15.18,0,0,0,6.9-1.1c.1-.1.3-.1.4-.2h.1l-.6-1.8-.6-1.9-.1-.2-1.6.4-.3.1-2.3.6-3,.7C431.1,229.4,427.9,231.3,427.9,233.1Z"/><path class="cls-12" d="M437,227.3a6.39,6.39,0,0,0,3.6,1.1h2.5c3.9,3.3,9.7,4.6,10.4-1.9a13.38,13.38,0,0,1-2.6-.9l-9.7.7Z"/><path class="cls-6" d="M453.4,225.4a25.28,25.28,0,0,1-6.1-2.7,3.15,3.15,0,0,0-2.5-.4,12.09,12.09,0,0,1-9.4-.3c-1.6,1-.6,3,1.2,3.9,2.8,1.5,3.2,1.2,6.4,1.2C446.9,230.5,454.5,235.2,453.4,225.4Z"/><path class="cls-12" d="M435,230.3c2.3.5,4.7-.3,7-1.5h0a.37.37,0,0,1,.3-.1c.6,3.4,3.4,8.1,5.6,8.7s4.6-.5,7.2-2.7l3.8.1-3.5.8c-2.6,2-4.3,3.2-7.2,3.4h-2a12,12,0,0,1-3.9,2c-1.6,2.4-2.5,5.6-4.1,4.8.8-.2,2-2.1,3.7-5.4a9.4,9.4,0,0,0,3.5-2,7.82,7.82,0,0,1-1.2-1.9,15.64,15.64,0,0,1-5,2.5c-2,2.5-4.6,5.3-6.1,4.3-.2-.2-.4-.3-.4-.6,2.3,0,4.3-1.9,6.3-4.6a9.46,9.46,0,0,0,5-2,27.18,27.18,0,0,1-1.1-2.5,14.58,14.58,0,0,1-6.2,2c-2.4,2.1-5.8,4.6-6.7,3.1,2,0,4.2-2.1,7-4.3l5.7-1.5a13,13,0,0,1-.8-2.7,15,15,0,0,1-6.8,1.1c-2.7,1.8-6.4,3.7-7.1,2.2a1.27,1.27,0,0,1-.1-.6C429.9,234.2,432.7,232.4,435,230.3Z"/><path class="cls-14" d="M519.2,185.7l-16,35.9c-19.3,9.9-45.3,20.1-48.9,15.9a12.9,12.9,0,0,1-2.1-13.1s27-13.4,34-18.9l12.6-31.2C505.3,159.6,527.5,167.1,519.2,185.7Z"/><path class="cls-10" d="M544.9,379.1l7.3,10.7-2.7,11.8c-5.2,4.4-7.5,7.8-6.1,10.7,3.1,3.2,7.6,3.5,12.5,2.7,8.9-.6,15-17.5,18-26.6-1.8-4-3.9-6.5-6.7-8.2l-7.4-11.5Z"/><path class="cls-10" d="M490.2,406.9l-2.8,14.2a22.12,22.12,0,0,1-10.7,8.6c-5.8,1.1-9.9,2.5-11.5,5.6a5.53,5.53,0,0,0,.7,5.9c1.8,2.4,4.2,4.1,9.7,4.1,10.6-.8,25-2.9,28.7-6.4,1-4.1,1.7-8.3.6-12.8l3.6-15.1Z"/><path class="cls-15" d="M498.2,270.3l11.6,65.2,42.4,54.4c2.7,2.3,19.2-1.2,16.4-10.4l-32.5-59.2-5.6-49-25.6-8.4Z"/><path class="cls-16" d="M543.2,309.4l-18.9,44.1c-8,44.2-14.4,63.4-17.6,74.8-1.5,5.4-21.6,3-21.6-6l11.6-79.1,17.1-50.5c-10-4.3-15.7-11.4-16.1-29.5,1.2-23.9,47.6-.9,52,13.1C552.9,288.2,549,302.3,543.2,309.4Z"/><path d="M549.6,271.2c0,.1.1,5,0,6.8-16.1,11.4-49.5-2.5-52.5-13.3.1-2.2-.3-4.4,0-7.4C507,270.9,537.5,278,549.6,271.2Z"/><path class="cls-17" d="M507.1,273.2c1.6,1.4,3.9,2.3,6.7,3.3v-4.2a29.88,29.88,0,0,1-6.7-3.3v4.2Z"/><path class="cls-18" d="M497,259.4c8.5,11.7,38.2,22.9,52.6,12.3,3-2.2,2.1-4.9,3-11.5.8-7,1.4-13.4,1.9-19.2,2.1-22.8,2.5-37.4,2.2-45h0c0-1.4.2-1.9.1-2.8-5.8-6.9-16.3-14.8-24.7-20.2-11.4-5.2-12.3-4.8-18.1-6.9C491.1,157.7,494.2,255.5,497,259.4Z"/><path class="cls-14" d="M558.3,304c-1.3.5-2.5,1-3.7,1.5a52.51,52.51,0,0,1-5.2,1.7,40.84,40.84,0,0,1-15.9,1.7,25.69,25.69,0,0,1-4-.7,24.13,24.13,0,0,1-2.5-.8,13.66,13.66,0,0,1-8.9-12.7l.7-19,.4-10.2,1.4-34c2.8-22.5,7.6-43.7,16.3-55.7,7.2,5,15.4,11,19.9,17.2l.4,32.3v.4l.9,69.5Z"/><path class="cls-14" d="M518.8,166.7c-6.3,16.3-12.1,35.7-13.6,56.9l-4.4,55.1c.1,4.9,0,13.4-8.1,9.5l-3.8-2.1,6.1-84.6C497.8,176.7,503,160.6,518.8,166.7Z"/><path class="cls-10" d="M535.3,171.5c.9,8-2.3,9.7-5.4,17.5-4.8,12-8,29.6-9.3,42.6l15.8-35.4-6-4.8,6.5.7c2.1-4.8,3.5-9.4,3.3-13.7A23.72,23.72,0,0,0,535.3,171.5Z"/><path class="cls-10" d="M519.9,166.6c-7.7,14.3-12.6,36.3-14.9,60.7-1.3-16-1.9-31-.7-43.8l5.3.8-4.6-3.6,10.2-15.3Z"/><path class="cls-19" d="M509.6,150.4c-5.3-2.3-6.3-6.4-5.6-11.9,1.3-7.8,9.8-10.3,18.5-10.3,12.4.1,18,10.4,15.2,23-1,4.4-1.1,8.9-1.4,10.8-.3,2.5-1.3,3-3.6,3.4Z"/><path class="cls-6" d="M515.5,179.2c0-.1-.1-.2-.1-.3l-.5-6.4-.2-1.9,19.1-12.3,1.4,12.4C537.6,183,517.7,185.4,515.5,179.2Z"/><path class="cls-12" d="M515.5,179.2c0-.1-.1-.2-.1-.3l-.5-6.4,14-7.4C529.9,173,523.5,181.2,515.5,179.2Z"/><path class="cls-6" d="M504.9,140.9c1.3-7.6,9.1-10.4,17.4-10.2,11.3.3,14.3,8.6,14.6,17.4a54.51,54.51,0,0,1-2.6,13l-5.4,4.1s-1.5,4.6-4.4,7-6.4,4.2-9.9,3.5c-3.8-.6-6.4-2.9-7.4-9-.9-5.8-1.7-6.2-2-8.8-.2-1.5.1-3.2,0-4-.1-1-.8-2.3-.9-3.4A43.11,43.11,0,0,1,504.9,140.9Z"/><path class="cls-19" d="M503.9,138.5a1.63,1.63,0,0,1,2.5.3c.6.7.9,1.7,1.6,2.4a4.6,4.6,0,0,0,4.9.8,22.38,22.38,0,0,0,4.5-2.7,7.07,7.07,0,0,1,5-1.5c2.4.3,4.1,2.6,4.6,5s.2,9.2.2,9.2,3.4-.3,4.2.4c2.1,1.8-2,11.5,3.2,12.5a120.64,120.64,0,0,0,2.6-14.6,24.88,24.88,0,0,0-1.4-11.5,14.48,14.48,0,0,0-7.9-8.2,19.31,19.31,0,0,0-10.4-.6,25.27,25.27,0,0,0-8.1,2.4A11.35,11.35,0,0,0,503.9,138.5Z"/><path class="cls-6" d="M531.5,148.5c2.7-1,2.7,2.8,2.5,4.4-.1,1.1-.5,2.1-.6,3.1s.1,2.3-.6,3.1c-1.8,2-3.5-1.4-3.9-2.7C528.4,154.5,529.2,149.4,531.5,148.5Z"/><path class="cls-20" d="M558.3,304c-1.3.5-2.5,1-3.7,1.5a52.51,52.51,0,0,1-5.2,1.7,40.84,40.84,0,0,1-15.9,1.7,25.69,25.69,0,0,1-4-.7c9.7-10.1,13.5-32.8,14.9-56l-3.9-36.1L557,238.9l1.2,56.4Z"/><path class="cls-6" d="M557.5,301.2v3.4l-.2,4-.7,2.8c-.2,1.5.6,2.2,1.3,2.2a.76.76,0,0,0,.8-.6l1.2-3.3.6-3.4a13.54,13.54,0,0,0,.3-3.1l-1-.6-2-1.2Z"/><path class="cls-12" d="M560.1,300.7l-2.2-.1-.1.8-.4,2.9-.9,7.1h0c-.2,1.5.6,2.2,1.3,2.2a6.56,6.56,0,0,1,1.1-3.5,4,4,0,0,1,.6-3c-.4-.9-.1-2.5.2-4.4A14.16,14.16,0,0,0,560.1,300.7Z"/><path class="cls-6" d="M559.4,303.4l-1.8-.5-2.5-.7-.7-.2.4,2.4.5,3.4-.5,4.2-1,2.9c-.4,1.6.5,2.5,1.3,2.4a1,1,0,0,0,.8-.5l1.9-4,1-4.7S559.6,303.7,559.4,303.4Z"/><path class="cls-12" d="M557.8,302.1l-2.6-.1v.2l-.3,2.3.5,3.4-.5,4.2-1,2.9c-.4,1.6.5,2.5,1.3,2.4a7.54,7.54,0,0,1,1.2-4.2,5.21,5.21,0,0,1,.7-3.6c-.5-1.2,0-3.8.5-6.7C557.7,302.6,557.7,302.3,557.8,302.1Z"/><path class="cls-6" d="M556.6,306.4l-2.5-.7-2.2-.6-.5-.1v.3l.9,5.8-.6,4.4-1,3a1.93,1.93,0,0,0,.3,1.9,1.13,1.13,0,0,0,2,0l1.9-4.1,1-4.9A18.85,18.85,0,0,0,556.6,306.4Z"/><path class="cls-12" d="M554.4,304.2l-2.4.9-.4.2.9,5.8-.6,4.4-1,3a1.93,1.93,0,0,0,.3,1.9,7.68,7.68,0,0,1,1.4-3.7,10.65,10.65,0,0,1,1.2-4.8c-.5-1.1-.1-3.5.4-6.2A7.72,7.72,0,0,1,554.4,304.2Z"/><path class="cls-6" d="M558.4,283.4c-.9,2.1-3.9,3.1-6.7,2.8a7.65,7.65,0,0,1-3.7-1.5l-.2,9.8a13.65,13.65,0,0,0-3,8.6l.8.8,3,2.9.7.2,3.3,1.1c2.9-.7,6.2-1.8,8.3-4.7-.8-4.3-1.5-8.2-3-10.6Z"/><path class="cls-6" d="M553.5,307.1l-4-1.1-.6-.2h-.1l-.4-.1.3,1.6.2,1.5.5,3-.6,4.4-1,3c-.3,1.3.2,2.2.9,2.4a1,1,0,0,0,1.3-.5l1.9-4.1,1-4.9S553.7,307.5,553.5,307.1Z"/><path class="cls-6" d="M545.8,302.7c-.3.1-.7.2-1,.3a63.34,63.34,0,0,0,.1,7.3l-1.2,4.2a2,2,0,0,0-.1.7c0,.8.6,1.1,1.4.9a2.82,2.82,0,0,0,1.6-1.2,19.25,19.25,0,0,0,1.9-4.6l.4-1.6.3-1.1.2-.8.2-.9.4-1.8A3.9,3.9,0,0,0,545.8,302.7Z"/><path class="cls-12" d="M548.7,304.9v.9c0,.5-.1,1-.1,1.5a10.88,10.88,0,0,1-1.4,4.8,9.39,9.39,0,0,1-2.2,4,2.82,2.82,0,0,0,1.6-1.2,19.25,19.25,0,0,0,1.9-4.6l.4-1.6.5,3-.6,4.4-1,3c-.3,1.3.2,2.2.9,2.4-.8-1.6-.3-3.2.8-4.9-.4-1.4.2-2.9,1.1-4.7a11.44,11.44,0,0,1-1.4-4.3,11,11,0,0,1-.2-1.8A3.18,3.18,0,0,1,548.7,304.9Z"/><path class="cls-12" d="M548,284.6l-.2,9.8a13.65,13.65,0,0,0-3,8.6,63.34,63.34,0,0,0,.1,7.3l-1.2,4.2a2,2,0,0,0-.1.7,18,18,0,0,1,2.3-5.3,10.42,10.42,0,0,1-.3-6.1,3.55,3.55,0,0,0,.2-1c-.3-3,2-6.7,4.1-7.9-1.7-2.7-.4-6.4,1.7-8.7A6.94,6.94,0,0,1,548,284.6Z"/><path class="cls-14" d="M556.7,193c8.3,8.6,8.9,32.3,11,49-1.1,16.8-2.6,33.8-6.8,51.3-.7,6.3-13.3,5.9-14.1,1.1-.7-19-.6-30.6,1.6-44.7-3.7-8.9-5.3-23.1-8.5-37.4C539.4,198.5,547.7,187.7,556.7,193Z"/></g><path class="cls-21" d="M649.7,458.55l.11.08a6.36,6.36,0,0,0,3,.24,10.62,10.62,0,0,0,7.84-4.15,17.2,17.2,0,0,0,2.92-6.7c.45-1.95,1.22-4.87.18-6.79-.83-1.54-2.58-2-3.94-2.45a29.49,29.49,0,0,0-7.38-1.44c-1.11-.06-2.48.21-3.54-.18-.37-.13-.49-.58-.93-.62-.68-.07-1.08.62-1.41,1.21-2.38,4.29-4.86,9-4.58,14.22a6,6,0,0,0,.37,1.94c.81,2,2.75,2.07,4.38.83a7.4,7.4,0,0,0,2-2.87,7.48,7.48,0,0,0,.09,2.53,20,20,0,0,0,.34,2.68C649.23,457.65,649.27,458.21,649.7,458.55Z"/><path class="cls-22" d="M663.76,357.31c-1.24,4.86-3.58,11.07-.78,19.95,1.18,3.74,2.77,6,2.46,9.93-.27,3.46-.3,6.79-1.21,10.14-1.43,5.26-.07,35.54.2,41,.11,2.3.07,4.88-1.75,6.54a12,12,0,0,1-6.35,2.62c-6,.88-10-3.47-10.26-9.2-.29-6,2.3-9.74,1.81-26.19-.27-9.18.28-12.9-1.28-15.43-2-3.17-6.49-7.18-8.73-10.16s-4.51-6.13-6.68-9.25c-22.09-31.67-20.21-36-22.44-45.26-2-8.53,4.74-17.61,8.92-24.65,1.84-3.1,2.31-4.7,5.67-6.36,12.47-6.17,31-2.23,35.89,4.09a30.64,30.64,0,0,1,3.48,6.1c5.18,11.13,4.53,14.71,3.41,27.32C665.53,345.08,665.38,350.92,663.76,357.31Z"/><path class="cls-23" d="M663.76,357.31c-1.24,4.86-3.58,11.07-.78,19.95,1.18,3.74,2.77,6,2.46,9.93-.27,3.46-.3,6.79-1.21,10.14-1.43,5.26-.07,35.54.2,41,.11,2.3.07,4.88-1.75,6.54a12,12,0,0,1-6.35,2.62c-6,.88-10-3.47-10.26-9.2-.29-6,2.3-9.74,1.81-26.19-.27-9.18.28-12.9-1.28-15.43-2-3.17-6.49-7.18-8.73-10.16s-4.51-6.13-6.68-9.25c-22.09-31.67-20.21-36-22.44-45.26-2-8.53,4.74-17.61,8.92-24.65,1.84-3.1,2.31-4.7,5.67-6.36,12.47-6.17,31-2.23,35.89,4.09a30.64,30.64,0,0,1,3.48,6.1c5.18,11.13,4.53,14.71,3.41,27.32C665.53,345.08,665.38,350.92,663.76,357.31Z"/><path class="cls-22" d="M687.3,306.91c20.17,2.78,30.9,28.22,34.21,45.69,4.51,23.78-.74,50.25,13.56,71.39,1.38,2-1.94,4-3.3,1.93-12.11-18.28-12.16-41-13.88-61.83-1-12.08-3.47-23.47-9.32-34.16-5.11-9.33-10.88-18.57-22.05-20.17C684.64,309.49,685.44,306.65,687.3,306.91Z"/><path class="cls-24" d="M741.47,430.78a53.65,53.65,0,0,0,3.93,6.06c-.13.11-.15-.28,0-.18l1.23.88c-.43-.31-3.07.38-3.25,1s.44,1.6.55,2.08a11.66,11.66,0,0,1,.29,2,17.49,17.49,0,0,1-.19,2.8,20.7,20.7,0,0,1-.54,3.05,20.17,20.17,0,0,1-2.69,5.24c-2.21-3.61-3.06-7.86-4.67-11.77a6.68,6.68,0,0,0-2.43-3.37c-1.2-.73-3.06-.53-3.68.73a48.5,48.5,0,0,0-1.24-9.52,4.51,4.51,0,0,0-1.54-3c-.28-.23-2.94-1.74-3.2-1a18.91,18.91,0,0,0,1.12-5.31c.08-1.23-.32-2.67.5-3.66,1.75-2.11,5.44-2,7.39-.37a55.27,55.27,0,0,0,9.26,6.43,7.2,7.2,0,0,1-4.15.82A52.83,52.83,0,0,0,741.47,430.78Z"/><path class="cls-25" d="M647,369.93c5.31-2.1,11.66-4.32,17-1.29,4.2,2.36,7.64,5,8.56,10a26.75,26.75,0,0,1-.15,8.7c-.54,3.59-.38,7.05-1.57,10.55a46.37,46.37,0,0,1-5.63,10.7,30.42,30.42,0,0,1-5.28,6.4,26.65,26.65,0,0,1-6.1,3.74c-5.9,2.78-12.47,4.59-18.94,3.7a20.65,20.65,0,0,1-10.42-4.52c-3.46-2.9-4.76-6.28-5.51-10.61-1.15-6.66-.64-13.81,2.62-19.73C626.66,378.39,637.16,373.81,647,369.93Z"/><path class="cls-26" d="M619,407.33c-1.15-6.66-.64-13.81,2.62-19.73,5.08-9.21,15.58-13.79,25.37-17.67,5.31-2.1,11.66-4.32,17-1.29,4.2,2.36,7.64,5,8.56,10a26.75,26.75,0,0,1-.15,8.7c-.53,3.55-.39,7-1.53,10.42-1.64-2.56-3.35-4.55-5.8-3.93-12.57,6.28-19.65,21.09-31.65,28.35a20.58,20.58,0,0,1-9-4.27C621,415,619.71,411.66,619,407.33Z"/><path class="cls-25" d="M672,415a1.11,1.11,0,0,1-.19.69c-.34.39-1,.16-1.41-.12A21.52,21.52,0,0,1,667,412.8a9.42,9.42,0,0,1-2.76-4.06,5.4,5.4,0,0,1,.76-4.35c1.39-2.1,2.21-1.25,3.43.46C670.58,407.8,672.16,411.32,672,415Z"/><path class="cls-25" d="M658.27,418.86c.24,2,.22,4.2-1.12,5.67-.4.44-1.07.8-1.58.49a1.48,1.48,0,0,1-.39-.4,13,13,0,0,1-2.61-8.25,4.43,4.43,0,0,1,.57-2.27c.74-1.14,3.4-2.82,4.2-1.4a15.72,15.72,0,0,1,.28,2.66C657.87,416.53,658.12,417.68,658.27,418.86Z"/><path class="cls-25" d="M643.38,426c0,1,0,2.21-.89,2.76a1.91,1.91,0,0,1-2-.13,3.71,3.71,0,0,1-1.26-1.72,11,11,0,0,1-.73-4.15,9,9,0,0,1,.85-4.35c.92-1.7,3.37-2.38,3.91-.16S643.31,423.6,643.38,426Z"/><path class="cls-21" d="M527.13,525.33a6.57,6.57,0,0,0,3,.52,10.62,10.62,0,0,0,8.05-3.33,16.27,16.27,0,0,0,3.43-6.15c.59-1.81,1.59-4.53.73-6.44-.7-1.53-2.38-2.12-3.68-2.64a30.11,30.11,0,0,0-7.15-2,13.43,13.43,0,0,1-3.47-.45c-.35-.16-.43-.59-.86-.67-.66-.11-1.12.51-1.49,1-2.69,3.89-5.51,8.16-5.66,13.17a5.28,5.28,0,0,0,.21,1.86c.57,1.75,2,2.77,3.63,1.6a7.5,7.5,0,0,0,1.34-1.36l1.56-1.87c-.4.48-.28,2.23-.32,2.84a17,17,0,0,0,0,2.76A1.34,1.34,0,0,0,527.13,525.33Z"/><path class="cls-22" d="M537.35,382.45a25.58,25.58,0,0,0-9.06-1.53,24.56,24.56,0,0,0-8.38,1.66,22.23,22.23,0,0,0-6.61,3.48c-5.94,4.86-6.18,12.05-5.1,18.77,1.79,11.26,7.42,20.82,11.37,31.4,1,2.68,2.29,5.47,3.07,8.19.84,2.95.51,6.5.68,9.54.21,4,.43,8,.94,11.93.82,6.31,2.4,12.56,2.42,18.91,0,8.86-3.84,23.66-1.07,26.81a10.9,10.9,0,0,0,9.76,3.06c8.5-1.64,7.24-5.87,7.12-8-1.32-23.54-1.88-23.65.79-39.6,1.43-8.55-.39-17.16,1-25.71,1.39-8.76,5.06-17.06,6.11-25.88a44.32,44.32,0,0,0-5.22-26.4A14.63,14.63,0,0,0,537.35,382.45Z"/><path class="cls-23" d="M537.35,382.45a25.58,25.58,0,0,0-9.06-1.53,24.56,24.56,0,0,0-8.38,1.66,22.23,22.23,0,0,0-6.61,3.48c-5.94,4.86-6.18,12.05-5.1,18.77,1.79,11.26,7.42,20.82,11.37,31.4,1,2.68,2.29,5.47,3.07,8.19.84,2.95.51,6.5.68,9.54.21,4,.43,8,.94,11.93.82,6.31,2.4,12.56,2.42,18.91,0,8.86-3.84,23.66-1.07,26.81a10.9,10.9,0,0,0,9.76,3.06c8.5-1.64,7.24-5.87,7.12-8-1.32-23.54-1.88-23.65.79-39.6,1.43-8.55-.39-17.16,1-25.71,1.39-8.76,5.06-17.06,6.11-25.88a44.32,44.32,0,0,0-5.22-26.4A14.63,14.63,0,0,0,537.35,382.45Z"/><path class="cls-21" d="M695.56,483.22l.39.08a11.66,11.66,0,0,0,2.7.19,10.68,10.68,0,0,0,7.84-4.15,17.18,17.18,0,0,0,2.93-6.71c.44-1.94,1.22-4.86.18-6.78-.83-1.55-2.58-2-3.94-2.45a29.57,29.57,0,0,0-7.39-1.44c-1.1-.07-2.47.2-3.54-.18-.36-.14-.49-.59-.93-.63-.67-.06-1.08.62-1.41,1.22-2.38,4.28-4.86,9-4.57,14.22a6,6,0,0,0,.36,1.93c.52,1.25,1.68,2.4,3.09,1.68a5.25,5.25,0,0,0,1.36-1.13l2.57-2.68c-.14.14,0,1,0,1.22,0,.45,0,.89,0,1.33,0,.89,0,1.78.05,2.67a4.52,4.52,0,0,0,.07,1.33A.48.48,0,0,0,695.56,483.22Z"/><path class="cls-22" d="M497.82,385.81c1.55,6.52,5.08,12.66,7.26,19.05,1.93,5.67,2.61,13.18,5.9,18.25,3,4.6,9.11,8.61,13.36,12a64.34,64.34,0,0,0,14.57,8.69c16.42,7.05,33.58,6.52,44.34,3.49l.89-.27c27.36-8.2,69-42.91,76.49-60.07,0,0,7.54-19.16,17.15-22.49,3.52-1.2,7.37-1.2,10.87-2.5,8.09-3,21.83,3.35,23.9-5a26.44,26.44,0,0,0,.76-5.57c.24-7.18-2.12-14.07-3.08-21.2a43.23,43.23,0,0,0-10.75-22.45,53.65,53.65,0,0,0-3.82-3.87c-.6-.56-1.21-1.09-1.82-1.63a75.63,75.63,0,0,0-29.79-15.59,74.32,74.32,0,0,0-17.61-2.5c-6.27-.13-12.84,4.14-20,9.75-6.85,5.37-14.22,12-22.32,17.07-7.8,4.88-15.59,15.68-35.29,16.44-2.88.11-5.76,0-8.63.18a41.48,41.48,0,0,0-5.35.74c-6,1.24-12,3.73-18.18,4.3a32.16,32.16,0,0,0-4.51.39,21.35,21.35,0,0,1-13.88-1.47c-1.82-.86-3.51-2-5.31-2.89a50.67,50.67,0,0,0-9.07-3.22,24.36,24.36,0,0,0-3.55-.83,16.89,16.89,0,0,0-6.81.65c-2.12.59-3.63.87-4.53,3A32.7,32.7,0,0,0,487,339.32c-.44,9.3-.22,20.31,3.35,29,2.37,5.77,6,10.55,7.33,16.74C497.71,385.34,497.77,385.57,497.82,385.81Z"/><path class="cls-27" d="M626.47,293.84a7.58,7.58,0,0,0,1.77,4.46c2.34,2.52,6.42,2.18,9.71,1.16s6.67-2.57,10-1.81c1.76.41,3.33,1.4,5.06,1.91a9.27,9.27,0,0,0,11.85-9.12,12.92,12.92,0,0,0-.84-3.85,74.32,74.32,0,0,0-17.61-2.5C640.17,284,633.6,288.23,626.47,293.84Z"/><path class="cls-27" d="M646.3,364c4.75,6.37,3.93,10.43,3.83,18.22-.06,4.15.72,8.65-1.45,12.2-2.76,4.5-9,5.41-12.7,9.19-4.66,4.78-4.28,13.11-9.34,17.45-4.78,4.09-13.38,1.85-15.56-4.05-1-2.67-.76-5.65-1.59-8.38-2-6.51-9.14-9.74-15.57-12a12.19,12.19,0,0,1-3.7-1.74c-5.66-4.42-.8-9.76,1.55-13.88,3.58-6.28,7.25-12.87,7.49-20.09.22-6.46-2.41-12.8-6.45-17.84-2.36-3-5.42-6.3-4.43-9.95.9-3.33,4.73-4.85,8.13-5.45s7.19-.92,9.59-3.4,2.69-6.71,5-9.45a13.37,13.37,0,0,1,5.42-3.4c4.58-1.82,10.21-2.86,14.12.14,2.08,1.6,3.26,4.08,4.37,6.45,2.63,5.64,5.33,11.77,4.12,17.87-.7,3.54-2.69,6.8-2.86,10.41-.34,7,5.68,12.08,9.6,17.12Z"/><path class="cls-27" d="M497.7,385.84c2.77,8.84,14.72,16.76,22.91,20.48a7.85,7.85,0,0,0,4.47.94c2.34-.4,3.94-2.63,4.73-4.86s1.06-4.67,2.1-6.8c3.23-6.64,12.5-8.16,16.5-14.36,2.25-3.5,2.45-7.93,2.12-12.08a58.83,58.83,0,0,0-9.23-27.22c-6.35-9.8-11.65-2.5-20.11,1.73a29.42,29.42,0,0,1-4.72,1.92c-4.58,1.39-8.58,2.6-12.45,5.71C492.64,360.42,493.82,373.49,497.7,385.84Z"/><path class="cls-28" d="M504,351.3c3-2.43,6.76-3.31,10.56-3.83a16,16,0,0,1,5.85.13c1.65.4,2.54,1.59,4.07,2.1a44.63,44.63,0,0,0,17.74,1.69,123.26,123.26,0,0,0,17.63-3.2,9,9,0,0,1,4.59-.27,1,1,0,0,1,.35.16.86.86,0,0,1,.27.59,4,4,0,0,1-.69,2.37c-4.55,8.09-13.16,13.1-15.19,13.87-6.49,2.46-13.12-1.91-26,15.13-14,18.55-8.15,33.78,10.56,43.13,9.11,5.06,14.76,10.38,24.88,8.36,6.07-2,10.12,11.13,18.21,6.07,9.55-6.08,20.12-15.15,20.29-26.55,3.32,8.32,29.72-2.93,33.12-5.41,21.85-16,20.45-29.72,22.46-63.13,4,6.07,4,13.15,8.09,19.22a56.53,56.53,0,0,1,7.71,10.77,74.12,74.12,0,0,0-7.88,14.43c-7.57,17.34-50,52.63-77.38,60.34-14,4-39,3.65-58.91-12.18-4.25-3.37-10.38-7.38-13.36-12-3.29-5.07-4-12.58-5.9-18.25-2.2-6.44-5.34-12.54-7.38-19C493.82,373.49,492.64,360.42,504,351.3Z"/><path class="cls-29" d="M652.34,348.76c.12-2.07.24-4.16.37-6.25,4,6.07,4,13.15,8.09,19.22a56.53,56.53,0,0,1,7.71,10.77,74.12,74.12,0,0,0-7.88,14.43c-1.82,4.16-5.66,9.36-10.81,15C655.66,385.07,656.22,366.87,652.34,348.76Z"/><path class="cls-22" d="M652.28,341.66c1.69,7,2.38,19.84,12.29,39.45a170.77,170.77,0,0,0,12.52,20.74q3.25,4.66,6.68,9.25a35.63,35.63,0,0,0,2.4,2.79c2.24,2.44,4.94,5.11,6.32,7.36,1.56,2.53,1,6.25,1.29,15.43.48,16.46-2.1,20.17-1.81,26.2.27,5.73,4.21,10.08,10.25,9.2a12.08,12.08,0,0,0,6.36-2.62c1.82-1.66,1.86-4.24,1.75-6.55-.28-5.42-1.63-35.71-.21-41,.91-3.35,1-6.68,1.22-10.14.31-4-1.29-6.19-2.47-9.93-2.79-8.87-.45-15.08.78-19.95a130.24,130.24,0,0,0,3.15-20.09c1.12-12.62.22-16.28.22-16.28s-31.31-26.14-43.78-20C665.88,327.24,650.23,333.12,652.28,341.66Z"/><path class="cls-21" d="M577.23,551.6a7.33,7.33,0,0,0,3,.48,10.64,10.64,0,0,0,8-3.33,16.27,16.27,0,0,0,3.43-6.15c.59-1.81,1.59-4.53.72-6.44-.69-1.53-2.37-2.12-3.68-2.64a30,30,0,0,0-7.14-1.95,13.32,13.32,0,0,1-3.47-.45c-.35-.16-.44-.59-.87-.67-.65-.11-1.11.51-1.48,1-2.69,3.89-5.51,8.16-5.66,13.17a5.51,5.51,0,0,0,.2,1.86c.51,1.55,1.78,2.67,3.39,1.86a5.7,5.7,0,0,0,1.39-1.06,20.19,20.19,0,0,0,1.92-2.11,20,20,0,0,0-.48,5.5A1.18,1.18,0,0,0,577.23,551.6Z"/><path class="cls-22" d="M587.47,408.68a25.62,25.62,0,0,0-9.06-1.53A24.84,24.84,0,0,0,570,408.8a22.44,22.44,0,0,0-6.6,3.49c-5.94,4.86-6.18,12-5.11,18.77,1.8,11.26,7.43,20.82,11.37,31.4,1,2.68,2.29,5.47,3.07,8.19.85,3,.52,6.5.69,9.54.21,4,.43,8,.94,11.93.82,6.31,2.4,12.56,2.42,18.91,0,8.86-3.84,23.66-1.08,26.81a10.93,10.93,0,0,0,9.77,3.06c8.5-1.64,7.24-5.87,7.12-8-1.32-23.54-1.88-23.65.79-39.61,1.43-8.54-.39-17.15,1-25.7,1.39-8.76,5.06-17.06,6.1-25.88,1.07-9-3.76-31.76-3.76-31.76S590.73,409.94,587.47,408.68Z"/><path class="cls-27" d="M703.48,349c1.17,7.58-2.33,11.7-10.37,12.28-6.24.45-7-1.86-8.52-6.51-.73-2.21.1-2.35-1.83-4.35-1.38-1.43-4-.8-5.06-2.88a5.07,5.07,0,0,1-.38-2.32c0-6.18,3.06-10.73,3-16.51,0-3.6-.78-7.84,1.9-10.24,2.19-1.95,5.77-1.46,8.11.3s3.75,4.47,5.07,7.09C699.26,333.42,702.21,340.88,703.48,349Z"/><path class="cls-22" d="M475.34,324.6c-3.47-4.19-9.17-7.86-14.76-7.72a24.83,24.83,0,0,0-5.72,1l-7.5,2a15,15,0,0,1,2.6,4.9,46.48,46.48,0,0,0,4.83,9,17.6,17.6,0,0,0,4.85,5.06c2.6,1.64,5.76,2.1,8.82,2.31,2,.14,4,.17,6,.44,1.77.25,3.55-.16,5.26.6.46.21.89.47,1.34.68,2.05.92,4.36,1,5.44-1.27a4.94,4.94,0,0,0,.38-2.61c-.33-3.1-4.13-2.85-5.44-5.21A61.91,61.91,0,0,0,475.34,324.6Z"/><path class="cls-30" d="M454.9,323.57A16.86,16.86,0,0,0,461.08,335c5.64,4.34,18,6.82,16.48.23C474.08,320.57,454.9,323.57,454.9,323.57Z"/><path class="cls-22" d="M451.66,399.42a24.64,24.64,0,0,0,1.79,6.64c3.06,6.53,15,12.85,28.78,8,5.72-2,5.95-5.38,7.84-8.27a6.27,6.27,0,0,1,.7-.95C495,400,501,393.38,506.05,390.17c5.28-3.33,11.07-6.75,15.91-10.63,4.36-3.52,6.93-9.05,7.83-14.49,1.11-6.75.42-14.59-2.75-20.66-4-7.56-12.11-15.28-20.28-18.05a34.49,34.49,0,0,0-4.15-1c-3.91-.81-7-1.76-10.87-.63-1.15.33-10.16,3.16-10.16,4.23-6.05,3-10.8,4.81-14.21,11-2.75,5-3.44,10.82-3.73,16.45-.46,8.92-.15,6.83-2.72,14.06-3.64,10.23-6.06,15.89-7.54,19.54C451.51,394.57,451.13,396,451.66,399.42Z"/><path class="cls-31" d="M486.2,399.14l0-.14a18.39,18.39,0,0,1-.26-7.05c.19-1.27,1.06-1.75,1.7-2.76s1.08-2,1.58-3a58.37,58.37,0,0,0,2.6-6c1.72-4.65,2.15-9.26,3-14.08,1.78-10.25,15.28-9,22.21-14.45,4.58-3.22,6-8.22,5.54-13.71a30.85,30.85,0,0,1,4.52,6.4c3.17,6.07,3.86,13.91,2.75,20.66-.9,5.44-3.47,11-7.83,14.49-4.84,3.88-10.63,7.3-15.91,10.63a50.71,50.71,0,0,0-9.18,7.94c-2,2.05-5.26,7.44-8.69,4.66A6.55,6.55,0,0,1,486.2,399.14Z"/><path class="cls-31" d="M460.92,370.45c2.57-7.23,2.26-5.14,2.72-14.06.52-9.94,1.73-17.7,9.72-23.16-.76,3.58-.83,6.47,1.22,9.36,4.51,8.21,3.57,17.28-.28,25.53A78.31,78.31,0,0,1,467.16,380c-1.2,1.7-1.79,3.42-3.46,4.74a15.2,15.2,0,0,1-7,3.07c-2.49.39-2.15-.66-1.44-2.41.53-1.31,1.05-2.62,1.56-3.94Q459,376,460.92,370.45Z"/><path class="cls-32" d="M538,337.38c4.84-2.48,11.53-3.58,16.62-1.23a24.93,24.93,0,0,1,4.83,3.22l6.11,4.78a14.78,14.78,0,0,0-4.34,3.47,45.84,45.84,0,0,1-8,6.35,17.56,17.56,0,0,1-6.46,2.73c-3,.47-6.11-.36-9-1.38-1.88-.66-3.73-1.42-5.65-2-1.73-.48-3.2-1.55-5.07-1.53-.5,0-1,.07-1.5.08-2.24,0-4.41-.76-4.49-3.31a4.86,4.86,0,0,1,.69-2.55c1.53-2.72,4.91-1,7.06-2.63A61.66,61.66,0,0,1,538,337.38Z"/><path class="cls-31" d="M451.66,399.42a24.64,24.64,0,0,0,1.79,6.64c3.06,6.53,15,12.85,28.78,8a11.28,11.28,0,0,0,4.29-2.52c.77-.77,2-2.09,2-3.24a9.3,9.3,0,0,0-1.65-4.53,11.24,11.24,0,0,0-3.77-3.52,19,19,0,0,0-9.53-2.11,18.63,18.63,0,0,1-4.48-.26c-3.48-.88-5.86-4.25-9.29-5.32a15.05,15.05,0,0,0-3.67-.52,7.36,7.36,0,0,0-2.2.08C451,392.84,451.31,397.15,451.66,399.42Z"/><path class="cls-33" d="M503,361.84a9.39,9.39,0,0,1,6.94-2.36c.27,0,3.21,4.61-2.76,8.85-1.64,1.17-4,.77-6,.68C501,366.4,501,363.76,503,361.84Z"/><path class="cls-34" d="M507.58,362.48a1,1,0,1,1-1.24-.81A1,1,0,0,1,507.58,362.48Z"/><path class="cls-30" d="M559.21,344a16.91,16.91,0,0,1-9.27,9.13c-6.66,2.48-19.25,1.2-15.82-4.64C541.76,335.49,559.21,344,559.21,344Z"/><path class="cls-33" d="M476.11,403.22a2.25,2.25,0,0,1,2.22.29,2.13,2.13,0,0,1,.51,1.79,1.16,1.16,0,0,1-.23.69,3,3,0,0,1-.65.56l-3.75,2.71a1.65,1.65,0,0,1-.56.31.46.46,0,0,1-.46-.15,3.74,3.74,0,0,1-.56-2.62,2.16,2.16,0,0,1,.13-.84c.37-.95,1.67-1.83,2.81-2.53Z"/><path class="cls-33" d="M457.41,399.32c-.41-.72-.91-1.08-1.31-1.08s-.72.33-1,.79a1.06,1.06,0,0,0-.14.54,3.62,3.62,0,0,0,.13.69l1,3.71a1.42,1.42,0,0,0,.18.49.29.29,0,0,0,.3.17c.56-.05.94-.65,1.31-1.24a1.67,1.67,0,0,0,.25-.57,7.19,7.19,0,0,0-.54-3.08Z"/><path class="cls-35" d="M703.52,419.15c4.05-19.22-12.14-35.41-6.07-54.63,5.91-17.73,8.83-39.3,2.4-56.41a43.17,43.17,0,0,1,10.38,22c.7,5.2,2.14,10.27,2.78,15.42h0s.9,3.66-.22,16.28a130.24,130.24,0,0,1-3.15,20.09c-1.23,4.87-3.57,11.08-.78,19.95,1.18,3.74,2.78,6,2.47,9.93-.27,3.46-.31,6.79-1.22,10.14-1.42,5.26-.07,35.55.21,41,.11,2.31.07,4.89-1.75,6.55a12.08,12.08,0,0,1-6.36,2.62c-6,.88-10-3.47-10.25-9.2-.29-6,2.29-9.74,1.81-26.2-.28-9.18.27-12.9-1.29-15.43-1.38-2.25-4.08-4.92-6.32-7.36a35.63,35.63,0,0,1-2.4-2.79q-3.42-4.58-6.68-9.25a170.77,170.77,0,0,1-12.52-20.74c-.21-.43-.4-.83-.61-1.25l-.05.09c.05-.42.1-.85.16-1.27C678.23,391.83,703.52,421.17,703.52,419.15Z"/><path class="cls-27" d="M586.18,446v0c-.55,2.08-2.23,4.15-1.37,6.13a6.12,6.12,0,0,0,1.42,1.76,21.81,21.81,0,0,1,3.09,3.82c1.32,2.08,2.32,4.6,1.64,7a7.84,7.84,0,0,1-2.54,3.66,8.21,8.21,0,0,1-3.9,2c-3.93.67-6.14-3.51-6.85-6.74-.54-2.45-.82-5.09-2.33-7.09-1.35-1.78-3.5-2.81-4.9-4.55-2.17-2.7-2-6.2-2.27-9.45-.2-2.16-2.65-7.77-1.18-9.51a2.9,2.9,0,0,1,1.42-.79,10.61,10.61,0,0,1,11.49,4C582.31,439.76,587.62,440.19,586.18,446Z"/><path class="cls-22" d="M72.6,182.77c-16.66,2.3-25.53,23.32-28.26,37.75-3.73,19.65.61,41.51-11.21,59-1.14,1.69,1.61,3.29,2.73,1.6,10-15.11,10-33.84,11.47-51.08.82-10,2.86-19.39,7.7-28.22,4.22-7.71,9-15.34,18.22-16.66C74.8,184.9,74.13,182.56,72.6,182.77Z"/><path class="cls-24" d="M27.85,285.11a45,45,0,0,1-3.25,5c.11.09.13-.23,0-.15l-1,.73c.36-.26,2.54.31,2.69.8s-.36,1.32-.46,1.72a10.46,10.46,0,0,0-.24,1.68,14.78,14.78,0,0,0,.16,2.31,17.72,17.72,0,0,0,.45,2.52,16.74,16.74,0,0,0,2.22,4.33c1.82-3,2.53-6.49,3.86-9.72a5.51,5.51,0,0,1,2-2.78,2.21,2.21,0,0,1,3,.6,39.91,39.91,0,0,1,1-7.86,3.7,3.7,0,0,1,1.27-2.47c.24-.19,2.43-1.44,2.65-.86a15.78,15.78,0,0,1-.93-4.39c-.07-1,.27-2.21-.41-3-1.45-1.75-4.5-1.64-6.11-.31a45.42,45.42,0,0,1-7.65,5.31,5.92,5.92,0,0,0,3.43.68A45.5,45.5,0,0,1,27.85,285.11Z"/><path class="cls-21" d="M103.66,308.05l-.09.06a5.23,5.23,0,0,1-2.43.2,8.8,8.8,0,0,1-6.48-3.43,14.17,14.17,0,0,1-2.42-5.54c-.37-1.6-1-4-.15-5.6.69-1.28,2.14-1.67,3.26-2a24.77,24.77,0,0,1,6.1-1.19,10.56,10.56,0,0,0,2.92-.15c.3-.11.41-.48.77-.51.56-.05.89.51,1.17,1,2,3.54,4,7.43,3.78,11.75a4.79,4.79,0,0,1-.31,1.6c-.67,1.64-2.27,1.71-3.62.69a6.32,6.32,0,0,1-1.66-2.37,6.11,6.11,0,0,1-.07,2.08,16.43,16.43,0,0,1-.28,2.22C104.05,307.3,104,307.76,103.66,308.05Z"/><path class="cls-24" d="M92.05,224.41c1,4,3,9.14.64,16.48-1,3.09-2.29,4.93-2,8.2a44.32,44.32,0,0,0,1,8.38c1.18,4.34.06,29.36-.17,33.84-.09,1.91-.06,4,1.45,5.41a9.89,9.89,0,0,0,5.24,2.16c5,.73,8.25-2.86,8.48-7.6.24-5-1.9-8-1.5-21.63.23-7.59-.23-10.66,1.06-12.75,1.61-2.62,5.37-5.93,7.21-8.39s3.73-5.07,5.52-7.64c18.25-26.17,16.7-29.74,18.54-37.4,1.69-7.05-3.92-14.54-7.37-20.36-1.52-2.56-1.91-3.88-4.68-5.25-10.31-5.1-25.59-1.84-29.66,3.37a25.92,25.92,0,0,0-2.87,5.05c-4.28,9.19-3.74,12.15-2.81,22.57C90.58,214.3,90.71,219.13,92.05,224.41Z"/><path class="cls-25" d="M105.93,234.84c-4.38-1.74-9.63-3.58-14.09-1.07-3.46,1.95-6.31,4.14-7.07,8.28a22.25,22.25,0,0,0,.13,7.19c.44,3,.31,5.82,1.3,8.71a38.17,38.17,0,0,0,4.65,8.85,25.19,25.19,0,0,0,4.36,5.28,22.26,22.26,0,0,0,5,3.1c4.87,2.29,10.3,3.78,15.64,3.05a17,17,0,0,0,8.61-3.74c2.86-2.39,3.93-5.18,4.55-8.76,1-5.5.53-11.4-2.16-16.3C122.69,241.82,114,238,105.93,234.84Z"/><path class="cls-26" d="M129.05,265.73c1-5.5.53-11.4-2.16-16.3-4.2-7.61-12.87-11.39-21-14.59-4.38-1.74-9.63-3.58-14.09-1.07-3.46,1.95-6.31,4.14-7.07,8.28a22.25,22.25,0,0,0,.13,7.19c.44,2.94.32,5.76,1.27,8.61,1.35-2.11,2.76-3.76,4.79-3.25C101.34,259.79,107.19,272,117.1,278a16.9,16.9,0,0,0,7.4-3.53C127.36,272.1,128.43,269.31,129.05,265.73Z"/><path class="cls-25" d="M85.23,272.09a.9.9,0,0,0,.16.56c.28.32.8.13,1.16-.1a17.07,17.07,0,0,0,2.79-2.3,7.78,7.78,0,0,0,2.29-3.36A4.52,4.52,0,0,0,91,263.3c-1.15-1.73-1.83-1-2.84.38A13.79,13.79,0,0,0,85.23,272.09Z"/><path class="cls-25" d="M96.58,275.26c-.2,1.63-.18,3.46.92,4.68.34.36.89.66,1.31.4a1.26,1.26,0,0,0,.33-.32,10.76,10.76,0,0,0,2.15-6.83,3.76,3.76,0,0,0-.47-1.87c-.61-.94-2.81-2.33-3.47-1.15a12.48,12.48,0,0,0-.23,2.2C96.91,273.33,96.71,274.28,96.58,275.26Z"/><path class="cls-25" d="M108.89,281.12c0,.84,0,1.83.73,2.28a1.59,1.59,0,0,0,1.69-.1,3.08,3.08,0,0,0,1-1.42,9.12,9.12,0,0,0,.6-3.43,7.24,7.24,0,0,0-.7-3.6c-.76-1.4-2.79-2-3.23-.13S108.94,279.18,108.89,281.12Z"/><path class="cls-21" d="M204.92,363.22a5.53,5.53,0,0,1-2.49.42,8.81,8.81,0,0,1-6.65-2.75,13.39,13.39,0,0,1-2.83-5.08c-.49-1.5-1.32-3.74-.6-5.32.57-1.27,2-1.75,3-2.18a24.68,24.68,0,0,1,5.91-1.61,10.44,10.44,0,0,0,2.86-.38c.29-.13.36-.49.72-.55.54-.09.92.42,1.23.87,2.22,3.21,4.55,6.74,4.67,10.88a4.43,4.43,0,0,1-.17,1.54c-.47,1.44-1.64,2.29-3,1.32a6.14,6.14,0,0,1-1.1-1.12l-1.3-1.55c.33.39.24,1.84.27,2.35a14.45,14.45,0,0,1,0,2.28A1.15,1.15,0,0,1,204.92,363.22Z"/><path class="cls-22" d="M196.47,245.18a20.9,20.9,0,0,1,7.49-1.26,20.47,20.47,0,0,1,6.92,1.36,18.3,18.3,0,0,1,5.46,2.88c4.91,4,5.1,10,4.22,15.5-1.48,9.31-6.14,17.2-9.39,25.94-.83,2.22-1.9,4.53-2.54,6.77-.7,2.44-.43,5.37-.56,7.89-.18,3.28-.36,6.58-.79,9.85-.67,5.21-2,10.37-2,15.62,0,7.32,3.17,19.54.89,22.15a9,9,0,0,1-8.07,2.52c-7-1.35-6-4.84-5.88-6.63,1.09-19.44,1.55-19.53-.66-32.72-1.18-7.05.32-14.17-.8-21.23-1.14-7.24-4.18-14.1-5-21.38A36.56,36.56,0,0,1,190,250.63,12.08,12.08,0,0,1,196.47,245.18Z"/><path class="cls-36" d="M207.28,314.11c.43-3.27.61-6.57.79-9.85.13-2.52-.14-5.45.56-7.89.64-2.24,1.71-4.55,2.54-6.77,3.25-8.74,7.91-16.63,9.39-25.94.88-5.55.69-11.48-4.22-15.5a18.3,18.3,0,0,0-5.46-2.88c-.32-.12-.65-.23-1-.33,1.57,7,3,13.4,2.23,20.51-1.67,12.54-13.37,20.06-15,32.6-1.67,10,5.85,20.05.84,28.41-1.46,2.08-3.17,4.26-4.88,6.54-.11,2.84-.34,6.35-.63,11.32a7,7,0,0,1,5.51-2.82,37.94,37.94,0,0,0,8.52,0,101.12,101.12,0,0,1-1.16-11.8C205.31,324.48,206.61,319.32,207.28,314.11Z"/><path class="cls-21" d="M65.78,328.42c-.09,0-.19,0-.32.07a9.35,9.35,0,0,1-2.24.15,8.77,8.77,0,0,1-6.48-3.42,14.22,14.22,0,0,1-2.41-5.54c-.37-1.61-1-4-.15-5.61.69-1.27,2.13-1.66,3.25-2a25,25,0,0,1,6.1-1.19,10.61,10.61,0,0,0,2.93-.15c.3-.11.4-.48.77-.52.55-.05.89.52,1.16,1,2,3.54,4,7.42,3.78,11.74a5,5,0,0,1-.3,1.6c-.42,1-1.39,2-2.55,1.39A4.51,4.51,0,0,1,68.2,325l-2.13-2.22c.12.12,0,.84,0,1,0,.37,0,.73,0,1.1,0,.74,0,1.47,0,2.2a3.34,3.34,0,0,1-.06,1.1A.38.38,0,0,1,65.78,328.42Z"/><path class="cls-37" d="M252.19,198c3.68-2.58,9-4.26,13.45-2.93a21,21,0,0,1,4.33,2.07l5.55,3.2a12.29,12.29,0,0,0-3.15,3.35,38.23,38.23,0,0,1-5.81,6.12,14.62,14.62,0,0,1-5,3,15.44,15.44,0,0,1-7.52-.08c-1.62-.32-3.22-.73-4.85-.94-1.47-.2-2.8-.9-4.32-.67-.41.06-.81.18-1.22.24-1.83.29-3.7-.11-4.06-2.19a4.1,4.1,0,0,1,.27-2.16c.94-2.41,3.91-1.38,5.47-3A50.91,50.91,0,0,1,252.19,198Z"/><path class="cls-38" d="M268.7,201.61a14,14,0,0,1-7.41,7.78c-5.44,2.22-15.86,1.5-13.18-3.41C254.07,195,268.7,201.61,268.7,201.61Z"/><path class="cls-39" d="M247.84,185.48c2.75-5.66,4.28-11.82,5.61-18,4.06,6.16,3.61,14.19,2.43,21.47q-.94,5.84-2.38,11.56c-.71,2.84-1.67,5.89-4.09,7.53-4.83,3.26-12.43-1.57-12-7.28.21-2.95,3.09-4.84,4.89-6.85A36.91,36.91,0,0,0,247.84,185.48Z"/><path class="cls-40" d="M255.9,188.82c1.17-7.24,1.58-15.2-2.45-21.31-1.33,6.15-2.86,12.31-5.61,18-.22.46-.47.91-.71,1.36l.1.07C250.38,188.48,253.2,189.4,255.9,188.82Z"/><path class="cls-22" d="M229.23,248c-1.69,5.36-4.28,10.4-6.1,15.71-1.59,4.69-2.15,10.89-4.86,15.08h0c-2.47,3.79-7.53,7.11-11,9.89a52.86,52.86,0,0,1-12,7.18c-13.57,5.83-27.74,5.39-36.63,2.89l-.74-.22c-22.6-6.78-57-35.45-63.19-49.63,0,0-6.23-15.83-14.17-18.57-2.91-1-6.09-1-9-2.08-6.69-2.49-18,2.77-19.75-4.16a21.83,21.83,0,0,1-.63-4.6c-.2-5.94,1.75-11.62,2.55-17.52a35.74,35.74,0,0,1,8.87-18.53c1-1.13,2.06-2.19,3.16-3.21.5-.45,1-.9,1.51-1.34a62.62,62.62,0,0,1,39.15-15c10.16-.22,21.27,13.58,34.94,22.15,6.44,4,12.88,13,29.16,13.59,2.37.09,4.75,0,7.13.14a34.16,34.16,0,0,1,4.41.62c6.68,1.38,12.95,4.62,19,7.79,2.8,1.47,5.77,3.44,8.79,4.93a23.76,23.76,0,0,0,3.89,1.59c3.79,1.14,7.09,2.15,10.29,4.71C233.41,227,232.43,237.78,229.23,248Z"/><path class="cls-36" d="M109.12,231.88c-2,1.22-4.09,2.6-5.12,4.71-1.25,2.54-.73,5.53-.69,8.35,0,3.44-.6,7.15,1.19,10.08,2.28,3.72,7.45,4.47,10.5,7.6,3.84,3.94,3.53,10.83,7.71,14.41,4,3.38,11.06,1.53,12.85-3.35.81-2.2.64-4.66,1.32-6.91,1.64-5.38,7.54-8,12.86-9.88a10.35,10.35,0,0,0,3.06-1.44c2.6-2,2.54-6.16.89-9s-4.45-4.82-7-6.94-5-4.73-5.43-8c-.55-4,.29-7.18-3.52-9.85-2.51-1.75-4.6-1.6-7.35-.53A140.75,140.75,0,0,0,109.12,231.88Z"/><path class="cls-36" d="M229.23,248c-1.69,5.36-4.28,10.4-6.1,15.71-1.59,4.69-2.15,10.89-4.86,15.08a17.15,17.15,0,0,1-5.11-7.5,25.39,25.39,0,0,1-.56-8.44,2.37,2.37,0,0,0-.26-1.47,1.92,1.92,0,0,0-1.45-.72c-3.15-.37-5.6,2.27-7.07,4.72a20.9,20.9,0,0,1-4.75,6.12c-4.48,3.85-5.93,11.42-5.14,17,.35,2.45,1.11,4.93,1.26,7.36-13.57,5.83-27.74,5.39-36.63,2.89l-.74-.22c.22-1.1.44-2.21.59-3.31.89-7.07-2-14.12-1.81-21.24a24.27,24.27,0,0,1,5.71-14.79c2.11-2.49,4.79-4.64,5.94-7.69,1.72-4.58-.58-9.76-3.88-13.36-1.72-1.86-3.74-3.54-4.75-5.86a12.54,12.54,0,0,1-.36-7.41,32,32,0,0,1,12.68-19.25A37.57,37.57,0,0,1,182,200.42c6.68,1.38,12.95,4.62,19,7.79,2.8,1.47,5.77,3.44,8.79,4.93a23.76,23.76,0,0,0,3.89,1.59c3.79,1.14,7.09,2.15,10.29,4.71C233.41,227,232.43,237.78,229.23,248Z"/><path class="cls-41" d="M224,219.45c-2.5-2-5.58-2.74-8.73-3.17-3.52-.48-6.64-.06-9.19,2.72a12.74,12.74,0,0,0-3.32,8.2l-16.63-.13c-3,0-7.45-3.21-9.95-1.6-.81,4.9,10.47,15,19.81,12.07,6.68-2.07,9,.94,13.21,7.23,10.27,15.28,4.19,27.07-9.76,34-7.52,4.18-12.2,8.57-20.56,6.9-5-1.67-8.35,9.19-15,5-7.89-5-16.62-12.52-16.76-21.94-2.74,6.88-24.55-2.42-27.36-4.47-18-13.19-16.89-24.54-18.56-52.15-3.34,5-3.34,10.86-6.68,15.88a46.52,46.52,0,0,0-6.37,8.9,61.14,61.14,0,0,1,6.51,11.92c6.26,14.33,41.35,43.47,63.93,49.84,11.59,3.27,32.17,3,48.66-10.06,3.51-2.78,8.58-6.09,11-9.89,2.72-4.19,3.27-10.39,4.87-15.08,1.82-5.32,4.42-10.36,6.1-15.72C232.43,237.78,233.41,227,224,219.45Z"/><path class="cls-29" d="M101.48,217.34c-.1-1.71-.2-3.43-.31-5.16-3.34,5-3.34,10.86-6.68,15.88a46.52,46.52,0,0,0-6.37,8.9,61.14,61.14,0,0,1,6.51,11.92c1.5,3.44,4.68,7.73,8.93,12.36C98.73,247.34,98.27,232.3,101.48,217.34Z"/><path class="cls-22" d="M101.53,211.48c-1.4,5.81-2,16.39-10.16,32.59A141.75,141.75,0,0,1,81,261.2q-2.7,3.87-5.53,7.64a28.1,28.1,0,0,1-2,2.31,49.33,49.33,0,0,0-5.22,6.08c-1.29,2.09-.84,5.17-1.06,12.75-.4,13.59,1.73,16.66,1.49,21.64-.22,4.73-3.48,8.32-8.47,7.6A9.89,9.89,0,0,1,55,317.05c-1.5-1.37-1.54-3.5-1.44-5.4.22-4.48,1.34-29.5.16-33.85a45.14,45.14,0,0,1-1-8.37c-.26-3.28,1.06-5.12,2-8.21,2.31-7.33.38-12.46-.64-16.48a106.4,106.4,0,0,1-2.6-16.6c-.93-10.42-.19-13.44-.19-13.44s25.87-21.6,36.17-16.51C90.3,199.57,103.23,204.43,101.53,211.48Z"/><path class="cls-21" d="M163.53,384.91a6.09,6.09,0,0,1-2.5.4,8.83,8.83,0,0,1-6.66-2.75,13.37,13.37,0,0,1-2.82-5.08c-.5-1.5-1.32-3.75-.61-5.32.58-1.27,2-1.75,3-2.18a25.18,25.18,0,0,1,5.91-1.62,10.54,10.54,0,0,0,2.86-.37c.29-.13.36-.49.72-.55.54-.09.92.42,1.22.86,2.23,3.22,4.56,6.75,4.68,10.88a4.71,4.71,0,0,1-.17,1.55c-.42,1.28-1.47,2.2-2.8,1.53a4.84,4.84,0,0,1-1.15-.87,18.76,18.76,0,0,1-1.58-1.75,17,17,0,0,1,.4,4.55A1,1,0,0,1,163.53,384.91Z"/><path class="cls-22" d="M155.07,266.85a21.12,21.12,0,0,1,7.49-1.27,20.73,20.73,0,0,1,6.92,1.37,18.3,18.3,0,0,1,5.46,2.88c4.9,4,5.1,9.95,4.22,15.5-1.49,9.31-6.14,17.2-9.4,25.94-.82,2.22-1.89,4.53-2.53,6.77-.7,2.43-.43,5.37-.57,7.88-.17,3.29-.35,6.59-.78,9.86-.67,5.21-2,10.37-2,15.62,0,7.31,3.18,19.54.89,22.15a9,9,0,0,1-8.06,2.52c-7-1.35-6-4.85-5.89-6.63,1.09-19.45,1.56-19.53-.65-32.72-1.18-7.06.32-14.17-.8-21.23-1.15-7.24-4.18-14.1-5-21.38-.88-7.45,3.11-26.24,3.11-26.24S152.38,267.89,155.07,266.85Z"/><path class="cls-36" d="M167.23,318c.64-2.24,1.71-4.55,2.53-6.77,3.26-8.74,7.91-16.63,9.4-25.94a43.46,43.46,0,0,0,.4-5.34,6.77,6.77,0,0,1,1.59-3.74,19.54,19.54,0,0,0,1.42-2.53,16.08,16.08,0,0,0,1.43-3.46,13.51,13.51,0,0,0,0-5.52,50.07,50.07,0,0,1-.89-5.62,5.32,5.32,0,0,0-.64-2.07,10.35,10.35,0,0,0-.67-1.54,15.54,15.54,0,0,0-5.71-4.54,7.84,7.84,0,0,0-7.08.31c-2.43,1.53-4.4,4.79-6.2,7q-3.28,4.11-6.29,8.45a37.61,37.61,0,0,0-5.09,9.38,15.08,15.08,0,0,0,0,10.47c.78,1.86,2,3.49,2.82,5.34a18.23,18.23,0,0,1,1.12,4.17c1.07,6.4.61,13.29-3.41,18.64a31.21,31.21,0,0,0-2.2,4.82c.25,5.71-.54,11.44.41,17.13,1.73,10.34,1.82,12.63,1.25,22.52a2.5,2.5,0,0,0,2.21-1c6.69-5.85-1.67-15,3.35-22.57,2.31-3.08,7.47-4.75,9.57-7.62,0-.7.08-1.41.11-2.12C166.8,323.41,166.53,320.47,167.23,318Z"/><path class="cls-22" d="M273.7,251.46a20.31,20.31,0,0,1-.64,5.65c-1.69,5.71-10.63,12.34-22.52,10.09-4.92-.92-5.52-3.66-7.42-5.78a5.62,5.62,0,0,0-.69-.69c-4-3.46-9.74-8.11-14.29-10.1a142.71,142.71,0,0,1-14.32-6.72c-4-2.33-6.78-6.53-8.18-10.86-1.75-5.38-2.15-11.87-.31-17.22a26.5,26.5,0,0,1,9.24-12.47c6.77-5.08,17.3-10.17,25.77-7.16,13,4.62,16.14,11.23,18.26,21.6,1.48,7.23,1,5.55,4,11.14,4.24,7.91,6.91,12.23,8.57,15C273.22,247.48,273.72,248.61,273.7,251.46Z"/><path class="cls-36" d="M258.6,217.79a35.59,35.59,0,0,0-3.75-11,19.64,19.64,0,0,0-3.41-4.29c-1.39-1.33-2.93-3.07-4.82-1.65a15.14,15.14,0,0,0-5,6.11,9.85,9.85,0,0,0-.45,1.29c-.38,1.33-.8,3.74,0,5a16.09,16.09,0,0,0,2.24,2.2c.76.77,1.51,1.57,2.2,2.41,1.07,1.29,2,2.68,3.23,3.87a17.56,17.56,0,0,0,5.21,3.44,12.11,12.11,0,0,0,4.2,1.15,1.67,1.67,0,0,0,.74-.07c.67-.24.91-1,1.07-1.74s-.39-1.83-.57-2.63C259.14,220.53,258.88,219.16,258.6,217.79Z"/><path class="cls-36" d="M242,226c-.2-.16-.42-.32-.65-.47a10.35,10.35,0,0,0-7.41-1.53c-2.36.27-5,.87-7.21-.48a5.61,5.61,0,0,1-2-2.82c-.47-1-1.2-1.89-1.65-3a7.57,7.57,0,0,1,.53-7c1.24-1.87,3.26-3.08,4.63-4.85s1.44-3.69,1.8-5.88c.2-1.22,1.47-3.16,0-4.13s-5.46,1-6.95,1.74a69.39,69.39,0,0,0-7.14,4.14,67,67,0,0,0-8.2,6.75c-2.87,2.69-6.31,6.29-6.54,10.5-.11,2,1.25,4,1.93,5.85a45.71,45.71,0,0,1,2,7.26c.1.53,2.52,8.33,8.45,11.79,3.36,2,6.56,4.11,10.08,2.86,4.06-1.44,6.81-4.25,11.48-4.06C242.85,243.05,247.91,230.87,242,226Z"/><path class="cls-22" d="M197.41,215.49c-4.33-1.21-9.93-1-13.66,1.71a21,21,0,0,0-3.39,3.4l-4.17,4.87a12.28,12.28,0,0,1,4.08,2.1,38.62,38.62,0,0,0,7.52,3.84,14.53,14.53,0,0,0,5.68,1.15,15.48,15.48,0,0,0,7.07-2.58c1.41-.84,2.78-1.76,4.25-2.5s2.34-1.79,3.86-2.08c.4-.07.82-.09,1.23-.17,1.82-.34,3.44-1.34,3.09-3.42a4.09,4.09,0,0,0-1-1.95c-1.68-2-4.14,0-6.15-1A50.31,50.31,0,0,0,197.41,215.49Z"/><path class="cls-39" d="M201.5,201.57c-4.34-2.56-8.39-5.71-13.07-7.58,1.76,5.85,5.1,11.11,8.88,15.91a30.09,30.09,0,0,0,6.53,6.51,13,13,0,0,0,8.73,2.42,8.35,8.35,0,0,0,7-5.35,6.13,6.13,0,0,0-4.8-8C209.81,204.7,206,204.19,201.5,201.57Z"/><path class="cls-40" d="M201.5,201.57c-4.35-2.56-8.39-5.71-13.07-7.58a43.93,43.93,0,0,0,6.29,12.42C198.61,208.28,202.41,202.1,201.5,201.57Z"/><path class="cls-36" d="M83.87,200.8c-.81,2.5-2,5-1.84,7.6.08,1.63.66,3.21.65,4.84,0,5.16-5.84,8.49-11,8.58s-10.15-1.89-15.3-2.13c-1.75-.09-3.57,0-5.28-.22-.2-5.94,1.75-11.62,2.55-17.52a35.74,35.74,0,0,1,8.87-18.53c1-1.13,2.06-2.19,3.16-3.21-.22,3,.74,6.16,3.16,7.88,4.36,3.1,11.77.67,14.76,5.11C85.07,195.37,84.67,198.3,83.87,200.8Z"/><path class="cls-36" d="M89.71,203.42c-.24,1.64-.38,3.45.52,4.84,1.39,2.17,4.54,2.29,7,1.63s5-1.85,7.54-1.43c3.27.55,5.63,3.61,8.84,4.42a3.84,3.84,0,0,0,2.55-.12c1.41-.67,1.93-2.37,2.28-3.89.88-3.85,1.47-8.37-1.14-11.33-1.73-1.95-4.58-2.82-5.83-5.11a17.44,17.44,0,0,1-1.1-3.75,4.16,4.16,0,0,0-2.28-3c-3.19-1.12-9.71,1.87-12.13,4.15C92.35,193.28,90.41,198.62,89.71,203.42Z"/><path class="cls-36" d="M91.37,244.05v0A141.75,141.75,0,0,1,81,261.2q-2.7,3.87-5.53,7.64a28.1,28.1,0,0,1-2,2.31,17.21,17.21,0,0,1-2.11-8.89c.15-3.78,1.56-7.54,1-11.29a2.42,2.42,0,0,0-.54-1.32,2.25,2.25,0,0,0-1.44-.59,36,36,0,0,0-4.51.27c-1.52,0-3.2-.47-3.91-1.81a4.53,4.53,0,0,1-.33-2.45c.72-9.26,12.11-19.59,21.53-14.53C88,233.13,90.66,238.62,91.37,244.05Z"/><path class="cls-25" d="M273.7,251.46a20.31,20.31,0,0,1-.64,5.65c-1.69,5.71-10.63,12.34-22.52,10.09a9.26,9.26,0,0,1-3.81-1.53c-.73-.53-1.86-1.46-2-2.4a7.77,7.77,0,0,1,.78-3.9,9.27,9.27,0,0,1,2.65-3.34,15.69,15.69,0,0,1,7.52-2.91,14.85,14.85,0,0,0,3.63-.76c2.73-1.15,4.26-4.2,6.93-5.5a13.39,13.39,0,0,1,2.93-.88,6.53,6.53,0,0,1,1.81-.2C273.44,246,273.71,249.56,273.7,251.46Z"/><path class="cls-21" d="M227.13,227.11a7.78,7.78,0,0,0-6-1.07c-.22.05-2,4.16,3.35,6.89,1.48.75,3.37.13,5-.19C229.32,230.59,229,228.43,227.13,227.11Z"/><path class="cls-34" d="M223.46,228.2a.87.87,0,0,0,.81.91.88.88,0,0,0,.92-.81.87.87,0,0,0-1.73-.1Z"/><path class="cls-42" d="M181.3,224.32a13.94,13.94,0,0,0,9,5.88c5.8.93,15.78-2.16,12.05-6.33C194,214.58,181.3,224.32,181.3,224.32Z"/><path class="cls-21" d="M254.21,257.59a1.9,1.9,0,0,0-1.79.51,1.77,1.77,0,0,0-.19,1.53,1,1,0,0,0,.28.53,2.49,2.49,0,0,0,.59.38l3.4,1.75a1.47,1.47,0,0,0,.49.18.37.37,0,0,0,.36-.18,3.11,3.11,0,0,0,.14-2.21,2,2,0,0,0-.21-.67,5.82,5.82,0,0,0-2.61-1.72Z"/><path class="cls-21" d="M269,252.09c.24-.64.6-1,.93-1a1,1,0,0,1,.88.52.75.75,0,0,1,.18.42,2.84,2.84,0,0,1,0,.58c-.11,1.06-.22,2.11-.34,3.16a1.31,1.31,0,0,1-.08.42.26.26,0,0,1-.23.18c-.46,0-.85-.42-1.22-.86a1.39,1.39,0,0,1-.28-.43,6,6,0,0,1,.06-2.58Z"/><path class="cls-36" d="M128.87,205.37a9.36,9.36,0,0,0,7.54-4.85,5.11,5.11,0,0,1,1.09-1.64c.55-.44,1.3-.55,1.84-1a2.84,2.84,0,0,0,.74-2.71c-1.54-8.66-11.61-12.26-18.58-7.59-1.45,1-2.68,2.72-2.15,4.38a3.35,3.35,0,0,0,2.72,2.12c2,.28,4.19-2,5.4-.08.88,1.4-.54,3.54-.94,4.94C125.78,201.54,124.73,205.63,128.87,205.37Z"/><path class="cls-36" d="M91,169.21a3.47,3.47,0,0,0-1,1.88c-.22,1.82,2,3.06,3.83,2.79s3.34-1.43,5-2.13a10.06,10.06,0,0,1,6.54-.38,3,3,0,0,0,1.62.2,1.76,1.76,0,0,0,1-.76c2.67-4-3.68-4.68-6-4.84C97.92,165.67,94,165.93,91,169.21Z"/><path class="cls-36" d="M143.55,211.4c1,.34,2.26.66,3.13,0,1.17-.87.81-2.76,1.64-3.95a4.45,4.45,0,0,1,2.37-1.43l5.05-1.76a.93.93,0,0,1,.65-.07.94.94,0,0,1,.46.61l2.23,5.68a5.09,5.09,0,0,1,.45,1.74c0,1.76-2,3.07-3.75,2.63.26-1.69.22-3.92-1.38-4.5s-3,1-3.31,2.48,0,3.13-.2,4.68a2,2,0,0,1-.48,1.17c-.78.8-2.16.16-2.94-.64-1.05-1.08-1.93-1.89-3.49-1.94A36.33,36.33,0,0,0,143.55,211.4Z"/><path class="cls-36" d="M152.25,228.74a2.24,2.24,0,0,0-1.92,1.39,6.57,6.57,0,0,0-.45,2.45c-.06,1.14.12,2.62,1.23,2.88a2.09,2.09,0,0,0,1.93-.92,6.3,6.3,0,0,0,.6-7.12.74.74,0,0,0-1,.22Z"/><path class="cls-35" d="M59.2,275.49c-3.34-15.87,10-29.25,5-45.12-4.88-14.66-7.29-32.47-2-46.6A35.56,35.56,0,0,0,53.66,202c-.59,4.3-1.78,8.49-2.3,12.74h0s-.74,3,.19,13.44a106.4,106.4,0,0,0,2.6,16.6c1,4,3,9.15.64,16.48-1,3.09-2.3,4.93-2,8.21a45.14,45.14,0,0,0,1,8.37c1.18,4.35.06,29.37-.16,33.85-.1,1.9-.06,4,1.44,5.4a9.89,9.89,0,0,0,5.25,2.17c5,.72,8.25-2.87,8.47-7.6.24-5-1.89-8.05-1.49-21.64.22-7.58-.23-10.66,1.06-12.75a49.33,49.33,0,0,1,5.22-6.08,28.1,28.1,0,0,0,2-2.31q2.83-3.76,5.53-7.64a141.75,141.75,0,0,0,10.33-17.13c.18-.35.34-.69.51-1l0,.08c0-.35-.08-.7-.13-1C80.09,252.93,59.2,277.16,59.2,275.49Z"/></g></g></svg>