<svg id="Layer_5" data-name="Layer 5" xmlns="http://www.w3.org/2000/svg" viewBox="0 0 512 512"><path d="M64,205.81v-9c.3-.94.64-1.86.89-2.81,4-15.53,18.44-25.35,34.08-22.51,20.08,3.64,37.54,12.54,51.65,27.55,1,1.07,2,2.16,3,3.33l17-14.36c-5.74-3.55-11.37-6.77-16.72-10.42-8.61-5.86-12.36-14.22-11.21-24.55,1.07-9.59,6.17-16.63,14.95-20.47a58.41,58.41,0,0,1,31.18-4.36,63.09,63.09,0,0,1,41,21.92,3.65,3.65,0,0,0,3,1.21c7.21-2.33,14.35-4.88,21.25-7.28-.58-6.75-1.77-13.45-1.61-20.11.31-13.1,5.06-24,18.1-29.33A55.89,55.89,0,0,1,304,91.52c16.26,3.48,29.11,12.74,40.67,24.12C359,129.76,370.21,146.32,381.3,163a22.94,22.94,0,0,0,5.52,5.33c12.67,9.32,25.7,18.17,38.05,27.89,10.77,8.47,17.81,19.79,21.26,33.19.67,2.63,1.25,5.28,1.87,7.92v13.51c-.19.31-.5.61-.54.94-2.37,17.23-10.94,30.93-24.27,41.68-8.35,6.74-16.67,13.71-25.82,19.23-10.13,6.1-17.61,14-24,23.85-11.12,17.11-23.68,33.19-40,45.81-17.62,13.58-36.88,19.42-59,12.6-12-3.71-19.06-11.64-21.15-23.75-.88-5.1-.62-10.44-.42-15.65.15-3.82,1.07-7.6,1.64-11.37-7.3-2.53-14.44-5.1-21.66-7.4-.85-.27-2.45.69-3.23,1.52-17.68,19.1-39.11,26-64.49,19.79-12.84-3.12-20.86-11-22.25-21.91-1.62-12.61,3.55-21.76,14.56-27.9,4.45-2.49,8.71-5.32,13.3-8.15l-17-14.28c-17.94,18.12-32.48,26.4-53.61,30.64A29.72,29.72,0,0,1,66.23,298c-.86-2.18-1.49-4.46-2.23-6.69v-9c2-4.94,4-9.9,6-14.82a58.34,58.34,0,0,0,0-46.88C68,215.7,66,210.75,64,205.81ZM349.52,313.54q-41.5-69.78,0-139c-35.42-15.67-71.06-16.86-107-2.49a8.2,8.2,0,0,0-3.39,3.2,125.27,125.27,0,0,0-19.35,56.46q-4,44.24,19.78,81.76a6.8,6.8,0,0,0,3,2.57C278.49,330.36,314.12,329.24,349.52,313.54Zm21-10.42c15.46-9.31,30.39-19.15,43.18-31.75,15.26-15.05,15.81-38.06,1-53.6-12.77-13.37-28.37-23.17-44-32.75C346.28,217.22,344.34,267.3,370.5,303.12ZM94.69,294.37c.9-.19,2.5-.46,4.06-.87,14.64-3.91,27.79-10.3,37.54-22.44,1.67-2.08,1.91-3.73.77-6.32-6.11-13.86-6-27.84.1-41.71.8-1.83,1.28-3.21-.18-5.05-10.76-13.61-25.14-21-41.83-24.1-5.84-1.09-9.94,4.55-7.91,10.17a29,29,0,0,0,1.43,3c9.59,19.42,11.67,39.55,5.34,60.32-1.66,5.45-4.29,10.6-6.5,15.88C85.23,288.75,88.48,294.33,94.69,294.37Zm111.43,3.12c-12.72-36-12.67-71-.36-105.93-.5,0-.78-.08-.93,0C189.45,201.68,174.74,212.66,162,226c-9.25,9.7-9.47,26.15-.17,35.92C174.71,275.45,189.59,286.63,206.12,297.49Zm71,50.52c-1.64,6.64-3.15,12.89-1.69,19.47.66,3,2.27,5.15,5.29,5.63,4.77.75,9.61,1.69,14.4,1.6,7.55-.16,14.13-3.6,20.49-7.51,7.76-4.76,23.27-20.39,26.14-26.46A154.31,154.31,0,0,1,277.11,348Zm-.78-207.78c23.13-2.41,44.49.33,66.35,7.37-10.82-13.3-21.33-25.34-36.72-31.72a37,37,0,0,0-23.83-1.47c-4.32,1.09-7,3.65-7,8C275.16,128.19,275.87,134,276.33,140.23Zm-66.45,186c-6.18-3.77-12-7.36-17.89-10.84a3.1,3.1,0,0,0-2.63,0c-7.5,4.48-15,9-22.34,13.68-3,1.89-2.6,5,.78,6.18a43.59,43.59,0,0,0,9.8,2.27C189.94,338.65,200.58,334.76,209.88,326.2ZM209.66,162c-10.1-10.67-28-14.67-41.41-9.29-1.21.48-2.82,1.86-2.86,2.88a5.21,5.21,0,0,0,2.2,3.77c7,4.53,14.17,8.87,21.34,13.16a3.51,3.51,0,0,0,2.95.24C197.79,169.35,203.6,165.73,209.66,162Z"/><path d="M391.26,255.33a11.27,11.27,0,0,1,.38-22.54,11.27,11.27,0,1,1-.38,22.54Z"/></svg>