<svg id="Layer_24" data-name="Layer 24" xmlns="http://www.w3.org/2000/svg" viewBox="0 0 512 512"><path d="M246.9,149.14c-7.92-10.64-20.27-16.26-31.5-14.32-10.35,1.77-18.19,9.69-22,22.26-4.25,13.81-2.09,26.61,6.43,38.06,6.11,8.2,14.64,12.76,23.69,12.76.8,0,1.6,0,2.41-.1a27.46,27.46,0,0,0,13.82-5.23,33.44,33.44,0,0,0,10.06-12.19C256.86,176.16,255.81,161.13,246.9,149.14Zm-12.08,38.93c-5.25,6.7-13.43,7.69-20.14,2.51-10.18-7.87-12.48-25.91-4.59-36.08,5.63-7.25,14.32-8.19,21.19-2.11,6.08,5.39,8.36,12.45,8.44,20.37A24,24,0,0,1,234.82,188.07Z"/><path d="M309.78,144.31c-10.59-12.43-26.1-13.46-39.5-2.61C255.11,154,251.92,179,263.46,195.29c5.06,7.14,12.25,11.56,20.22,12.46a26.82,26.82,0,0,0,3,.16,28.83,28.83,0,0,0,19.25-7.71C323.93,184.06,322,158.62,309.78,144.31Zm-12,44.31c-7.64,7.94-18.56,6.83-23.77-2.9-5.86-10.94-4.82-22.48,3.17-31.55,7.52-8.55,18.6-7.46,24.36,2.32S305.58,180.51,297.78,188.62Z"/><path d="M359.77,187.65A24.58,24.58,0,0,0,342,175.43a25.05,25.05,0,0,0-20.69,7.41c-11.14,10.92-13.15,30.32-4.46,43.24a24.58,24.58,0,0,0,13.74,10.43,23.35,23.35,0,0,0,6.39.89,24.91,24.91,0,0,0,14.26-4.63,30.35,30.35,0,0,0,10.28-12.69C366.46,208.83,365.89,197.92,359.77,187.65Zm-15.86,33c-5,4.17-11,3.42-15-1.72-5.79-7.47-4.29-20.86,3-26.91,5.25-4.35,11.73-3.69,15.32,2.15C353.59,204.46,350,215.58,343.91,220.67Z"/><path d="M335.22,277.31c-.05-.83-.11-1.68-.19-2.51a48.59,48.59,0,0,0-1-6.35c-.16-.72-.34-1.46-.54-2.18-.06-.24-.13-.48-.18-.66-.22-.75-.45-1.51-.7-2.24-.41-1.27-.9-2.56-1.43-3.82-5.35-12.73-15.16-21.81-23.1-28.29-18-14.71-33.66-21-52.26-21.22-28.35-.17-57.65,17.71-74.69,45.59-8.62,14.1-9.33,29.48-2,44.46a101.84,101.84,0,0,0,14.42,22.07c14.3,16.43,34.23,19.6,53.32,8.45,5.9-3.45,10.74-3.47,16.7-.07a59.14,59.14,0,0,0,15.8,5.8,33,33,0,0,0,7.82,1,31.4,31.4,0,0,0,16.38-4.63c1.33-.8,2.5-1.56,3.57-2.31l1.1-.78.55-.41c.4-.29.79-.58,1.11-.84s.84-.65,1.21-.95l1.2-1,.29-.26c.42-.36.83-.71,1.21-1.06,1.06-.95,2.08-1.92,3-2.88.48-.46,1-1,1.44-1.47s.88-1,1.32-1.47c.68-.77,1.34-1.55,1.94-2.3l1-1.2.09-.14.21-.28.57-.76c.35-.48.7-1,1-1.44.72-1,1.3-1.91,1.79-2.72l.45-.72c.58-.95,1.11-1.88,1.58-2.75.17-.31.34-.63.47-.9.32-.59.61-1.19.89-1.78s.51-1.06.72-1.52c.09-.22.2-.44.25-.58.24-.54.46-1.09.66-1.58s.41-1,.61-1.54l.1-.31c.06-.14.11-.28.14-.36.16-.47.32-.94.47-1.41a2.91,2.91,0,0,0,.12-.35c.17-.52.33-1,.47-1.51.37-1.28.68-2.44.91-3.55.1-.39.17-.78.25-1.17a3.53,3.53,0,0,0,.08-.4c0-.15.06-.29.08-.44.11-.53.18-1,.27-1.56l0-.3c.09-.57.17-1.15.24-1.73s.15-1.36.19-2,.1-1.3.13-2v-.15c0-.66,0-1.3,0-2C335.27,279,335.26,278.16,335.22,277.31ZM315.84,292a74.87,74.87,0,0,1-10.48,17c-10,12.16-20.39,13.93-34.65,6a37.89,37.89,0,0,0-8.55-3.65c-10-2.78-18.45,1.12-23.94,4.3-11.45,6.62-21.42,5.5-30.47-3.43a58.07,58.07,0,0,1-14.49-23.23,29,29,0,0,1,.73-20.36c2.78-7,7.37-13.29,14.06-19.36,17-15.45,31.18-22.08,47.18-22.08h.44c18.24.16,37.16,10.59,53.3,29.37,6.42,7.49,9.64,15.16,9.64,22.92A30.91,30.91,0,0,1,315.84,292Z"/><path d="M188.13,182a24.37,24.37,0,0,0-19.1-6.69,22.92,22.92,0,0,0-5,1.09c-.81.28-1.6.59-2.38.95a26.11,26.11,0,0,0-10.07,8.52c-9.71,13.49-7.35,34.11,5.16,45a25.09,25.09,0,0,0,16.52,6.49,24.56,24.56,0,0,0,3.41-.25,23.3,23.3,0,0,0,10.8-4.6c.27-.2.53-.41.78-.62.53-.43,1-.89,1.51-1.36.25-.24.49-.48.73-.73a29.41,29.41,0,0,0,3.43-4.44,33.93,33.93,0,0,0,1.69-3.05c.33-.7.64-1.4.92-2.1s.55-1.45.78-2.18c.12-.37.23-.73.33-1.1s.21-.76.3-1.15.18-.75.25-1.14q.18-.84.3-1.71a6.17,6.17,0,0,0,.09-.62,35.51,35.51,0,0,0,.32-5h0C198.77,197,195.16,188.47,188.13,182Zm-7.51,37.79a9.67,9.67,0,0,1-13.16,1.68c-8.74-5.8-10.53-21.1-3.39-28.83,3.86-4.18,9.13-4.65,13.72-1a18.72,18.72,0,0,1,7.08,14.89C184.76,212.18,183.67,216.37,180.62,219.83Z"/><path d="M398.35,237.33A142.73,142.73,0,0,0,356.26,136c4.44-6.27,8.86-12.54,13.34-18.78,1.5-2.11,3.43-2.45,5.63-.76,2.44,1.87,5,3.6,7.49,5.42,1.39,1,2.81,2,4.57,1.12,2-1,1.86-3,1.74-4.74q-1.25-17.7-2.7-35.39c-.34-4.08-2-5.09-5.95-4l-24,6.34c-3.33.87-6.68,1.71-10,2.7-1.58.48-3.25,1.13-3.58,3.09s1.13,3,2.51,4c2.3,1.64,4.53,3.4,6.89,4.93,3.11,2,3.21,4.16,1.11,7.06q-5.9,8.13-11.66,16.35A142.37,142.37,0,0,0,255.2,94.17c-78.93,0-143.15,64.23-143.15,143.16,0,75.57,58.87,137.67,133.17,142.8.14,1.6.16,3.67.19,6.41.06,4.16-1.33,5.28-4.86,5.12-5.54-.25-11.09,0-16.64-.1-3.12-.07-4.67,1.21-4.62,4.78.08,4.41.06,8.84,0,13.28,0,3.44,1.41,5,4.56,4.95,5.68-.08,11.37.17,17-.09,3.51-.16,4.52,1.28,4.48,5-.15,14.18-.06,28.38,0,42.58,0,5.4.86,6.33,5.84,6.37,3.18,0,6.38-.08,9.56,0,3.79.13,5.61-1.49,5.49-5.93-.2-7.17-.06-14.36-.06-21.54s.12-14.65,0-22c-.09-3.36,1-4.65,4.07-4.56,5.82.19,11.64,0,17.46.08,3.33.05,4.88-1.67,4.89-5.24,0-4.28,0-8.56,0-12.83,0-3.29-1.46-5-4.65-4.93-3.61.13-7.22,0-10.82,0-10.9,0-11,0-10.93-11.52C340,374.46,398.35,312.58,398.35,237.33ZM255.2,369.27c-72.75,0-131.94-59.19-131.94-131.94S182.45,105.39,255.2,105.39s131.94,59.18,131.94,131.94S328,369.27,255.2,369.27Z"/></svg>