<svg id="Layer_20" data-name="Layer 20" xmlns="http://www.w3.org/2000/svg" viewBox="0 0 512 512"><defs><style>.cls-1{fill:#b83439;}</style></defs><path class="cls-1" d="M460,255.08q-7.8,9.48-15.62,18.95c-5.2,6.24-9.26,6.56-15.52,1.34L259.94,134.53c-1.22-1-2.46-2-4-3.25Q246.44,139.16,237,147L82.77,275.6c-5.86,4.89-10.1,4.53-15-1.26q-6.3-7.45-12.54-15c-4.85-5.87-4.46-10,1.46-14.93L191.71,132c14.7-12.24,29.33-24.56,44.11-36.69,10.35-8.49,21.89-9.56,33.93-4.14,3.2,1.44,6,3.87,8.77,6.15q27.57,22.92,55,46c.88.74,1.84,1.38,3.23,2.42.09-1.82.22-3.08.22-4.34,0-14.08,0-28.16,0-42.24,0-7.84,2.68-10.5,10.52-10.52q21.72,0,43.44,0c8.08,0,10.79,2.72,10.8,10.75q0,48.42-.06,96.83a7.37,7.37,0,0,0,3,6.39q24.92,20.49,49.64,41.24c2.17,1.83,3.79,4.3,5.66,6.48Z"/><path class="cls-1" d="M288.48,412.46V315.82h-65v96.92h-94.1c-13,0-19.31-6.37-19.31-19.32q0-57.78,0-115.55c0-2.68.51-4.65,2.77-6.51q69.87-57.42,139.59-115c1.11-.91,2.27-1.76,3.61-2.79,10.46,8.61,20.8,17.11,31.13,25.63q55.79,46,111.6,92a7.37,7.37,0,0,1,3.07,6.36c-.09,39.18,0,78.36-.07,117.54,0,10.65-6.74,17.61-17.35,17.64-31.08.11-62.16,0-93.24,0C290.42,412.73,289.66,412.58,288.48,412.46Z"/></svg>