<svg id="Layer_20" data-name="Layer 20" xmlns="http://www.w3.org/2000/svg" viewBox="0 0 512 512"><defs><style>.cls-1{fill:#010101;}</style></defs><path class="cls-1" d="M418.91,211.75c-10.84-9-21.67-17.94-32.68-26.68a11.49,11.49,0,0,1-4.85-10.15c.24-21.62.18-43.26.08-64.89-.06-12.42-5.74-18.1-17.84-18.2-10.05-.06-20.09-.1-30.14,0C322.79,92,316.57,98,316.3,108.52c-.16,5.88,0,11.78,0,19-15.1-12.38-28.95-23.88-43-35.19C261.76,83,250.41,82.73,239.09,92Q164.71,152.79,90.58,213.9c-13,10.76-17.43,27.95-11.92,43.71a39.3,39.3,0,0,0,36.59,26.58c4.91.1,9.86-.94,15.24-1.51q0,45.6,0,91.23c0,27,14.33,41.47,41.25,41.49q84,.06,168,0c27.48,0,41.74-14.27,41.76-41.73,0-30.18,0-60.36,0-91a9,9,0,0,1,2.13-.18c21.38,4.81,38.86-2.64,47.64-20.31S435.52,225.54,418.91,211.75ZM343.2,114.46a3.14,3.14,0,0,0,.75,0c14.94-.46,14.94-.46,14.94,14.5v33.48c-6.81-5.6-12.3-10.19-17.92-14.64-1.79-1.43-2.16-3.12-2.14-5.25.08-8,.21-16.07,0-24.1C338.67,114.93,340.16,114.06,343.2,114.46ZM287.07,392.85q-31.26-.27-62.52,0c-3.58,0-4.71-1-4.69-4.67q.24-32.07,0-64.14c0-4.17,1.75-5.12,5.42-5.1q30.87.12,61.75,0c4,0,5.13,1.59,5.07,5.44-.2,10.81-.08,21.62-.08,32.43,0,10.31-.16,20.64.1,30.95C292.2,391.67,291,392.89,287.07,392.85ZM408.64,255.66c-6.3,7.39-16.59,8.12-24.87,1.35-12.26-10-24.28-20.29-36.4-30.44-2.11-1.77-4.19-3.63-6.44-5.22-5.54-3.92-11.5-3.4-15.53,1.21-4.26,4.89-4,11.36,1.33,16.11q13,11.47,26.56,22.25c4.07,3.24,5.78,6.64,5.72,12-.26,33.68-.1,67.39-.14,101.09,0,14.31-4.49,18.68-19,18.74-6.54,0-13.09-.32-19.59.1-4.69.31-5.86-1.16-5.8-5.81.26-20.86.14-41.74.12-62.62,0-18.22-9.64-28-27.8-28.09q-30.87-.18-61.75,0c-18.18.1-27.71,9.85-27.73,28.15,0,20.88-.18,41.76.1,62.62.06,4.75-1.29,6-5.86,5.75-7-.38-14.05,0-21.08-.12-12.52-.14-17.33-4.87-17.39-17.27-.08-17.36,0-34.71,0-52.05s.12-34.71-.08-52.06a10.26,10.26,0,0,1,4-9q47.46-39.6,94.59-79.47c3.47-2.92,5.72-2.64,8.92.2,7.51,6.64,15.26,13.05,23,19.43,7.16,5.9,14,6,18.46.38,4.27-5.37,2.9-12-3.79-17.6Q286.16,175.11,274,165c-12.34-10.19-23.78-10.23-35.88-.08q-51.68,43.31-103.3,86.67c-2.3,1.94-4.55,3.95-6.95,5.78-8.29,6.35-18.8,5.46-24.86-2.07s-5.22-17.94,2.95-24.7C132,208.93,158.29,187.51,184.51,166c21.92-18,44-35.86,65.67-54.12,4.72-4,7.51-3.39,12,.3Q331.22,169.3,400.62,226c1.76,1.43,3.55,2.82,5.22,4.33C414.11,237.7,415.22,248,408.64,255.66Z"/></svg>