<svg id="Layer_47" data-name="Layer 47" xmlns="http://www.w3.org/2000/svg" viewBox="0 0 512 512"><path d="M358.19,246.66c1.89-28.5-2.91-52.33-14.65-72.8a3,3,0,0,1,.07-1.67c13.91-24.83,16.31-51.37,7.12-78.88-1-3-2.66-8-8.61-8.37-5.27-.37-7.61,3.38-9.33,6.12l-2.25,3.6c-3.72,5.94-7.56,12.09-11.65,17.86-3.89,5.49-8,10.76-12.27,16.35l-2.85,3.69-.28-.51C294,114.7,281,103.3,264.77,98.17c-13.2-4.17-24.21-1.19-31.9,8.62a5.7,5.7,0,0,1-1.54,0c-13.33-1.43-24.21,5.47-28.43,18a32.65,32.65,0,0,0-.92,3.42L201.1,127c-8.26-11.73-16.8-23.86-25.1-35.85l-.43-.64c-1.71-2.52-4.06-6-9.1-5.56-5.86.49-7.47,5.46-8.34,8.13-9.63,29.68-5.8,58,11.71,86.5-12.79,23.55-16.73,50.6-11.71,80.43a223.2,223.2,0,0,0,30.66,81.33c1.17,1.87,1.53,3.61,1.39,6.65-.09,2.06-.2,4.13-.31,6.2-.45,8.47-.92,17.22-.25,25.85,2,25.62,18.8,42.8,44.92,46a157.23,157.23,0,0,0,19,1.11,242.65,242.65,0,0,0,27.9-1.79c20.62-2.38,33.59-12.77,39.67-31.77,5.05-15.8,3.31-31.41,1.24-43.24a5.09,5.09,0,0,1,.26-2.94C343.81,316.84,355.77,283,358.19,246.66Zm-20-130.85a83.41,83.41,0,0,1-6.55,41.81l-14.82-12.81ZM218.43,132.87c.61-3.41,2-5.85,4-7.27s4.77-1.78,8.1-1.13c.77.14,1.55.33,2.33.54,8.51,2.31,10.7,1.24,13.77-6.78,1.44-3.79,5.73-5.38,10.91-4.07,8.7,2.2,16.08,7.3,23.92,16.53,10.53,12.39,15.14,28,14.5,49-.14,4.81-.65,9.55-1.18,14.56,0,.05,0,.1,0,.14h0A131,131,0,0,0,285,184.28c-4.2-3.78-7.71-3.42-9.42-2.87-3.07,1-5.29,4-6.26,8.34a46,46,0,0,1-4.78,12.87,39.5,39.5,0,0,0-.37-5.55,38.15,38.15,0,0,0-4.32-12.51c-1.36-2.49-5-5.09-8.23-5.09l-.42,0c-3.17.23-6.47,3.35-7.72,6.11a36.81,36.81,0,0,1-8.08,11.82l.45-3c1.43-9.44-.37-18.89-5.51-28.88q-1.47-2.83-3-5.65c-2.16-4.09-4.38-8.33-6.36-12.55C218.47,141.87,217.64,137.26,218.43,132.87Zm43.49,195H249.35l.18-3c.31-4.86.61-9.63.91-14.4,1.62-25.42,2.22-52.57-4-79.46a8.56,8.56,0,0,0,2.22,2.07c3.39,2.23,7.21,2,10.75-.57,2-1.47,4-3,6-4.5C258.56,262,260.2,296.73,261.92,327.86Zm-16.52-107-.36,2.22c-.06.38-.15.92-.2,1.58-.37-1.26-.76-2.5-1.14-3.71-.66-2.11-1.29-4.11-1.78-6.06a1.48,1.48,0,0,1,.13-.63c1.54-1.45,3.17-2.88,4.88-4.33,0,.61-.1,1.22-.17,1.82C246.4,214.81,245.89,217.9,245.4,220.89ZM170.8,116.18l24.95,33.31-15.16,14C172.89,149.41,169.67,133.86,170.8,116.18Zm31.86,216.61a230.33,230.33,0,0,1-23-56.49c-3.73-14.43-7.57-31.25-5.87-48.42,2.48-25.09,10.09-43.12,23.94-56.74a104,104,0,0,1,9.16-7.69l2.08-1.62,1.46,2.84c2.13,4.15,4.15,8.07,6,12,3.09,6.66,3.25,14.15.52,24.28-.83,3.07-1.74,6.36-2.76,9.55-.62,1.93-2.26,7.06,2,11.08,3.57,3.36,7.65,2.21,10.08,1.27,10.81,33.71,8.33,68.48,5.92,102.13l-.22,3-4.85,1c-8.12,1.62-15.81,3.16-23.59,4.54A3.13,3.13,0,0,1,202.66,332.79Zm99.93,59.68c-3.8,8.57-10,13.45-19.09,14.92-16.63,2.71-31.71,3.19-46.08,1.44-18.6-2.25-28.29-11.61-30.52-29.47-.77-6.12-.52-12.6-.28-18.87.11-2.83.22-5.77.24-8.66,0-.75,0-1.12,1.8-1.66,13-3.86,26.64-4.37,43.91-5l4.52-.17c2.24.24,4.84.49,7.69.76,7.62.71,17.1,1.6,26.44,3.08,14.1,2.22,14.15,2.76,15.4,16.58A53.94,53.94,0,0,1,302.59,392.47Zm7.35-57.57a3.73,3.73,0,0,1-.71.86,5.41,5.41,0,0,1-1.74-.29c-8.5-2.19-17.23-4-25.67-5.67l-1.87-.38-.29-.05-.06-.95c-1.83-32.45-3.73-66,3.58-98.47,1-4.48,2.31-9,3.68-13.71a2.33,2.33,0,0,1,.07-.25l.82,1.43c1.83,3.15,4.45,5,7.4,5.26s5.8-1.17,8.09-4c5.86-7.13,7.79-15.71,8.91-23.18a120.47,120.47,0,0,0,.55-32.1,84.87,84.87,0,0,1,7.84,7.79c12.09,14.23,18.65,31.5,20,52.78C343.18,263.18,332.86,300.49,309.94,334.9Z"/><path d="M293.41,369.37a6.31,6.31,0,0,0-.44.6,9.88,9.88,0,0,1-4.07,3.73c-7,2.86-11.5,8.3-14.12,17.12-1.38,4.66-4.63,7.41-8.54,7.41a9.47,9.47,0,0,1-1.8-.18,8.3,8.3,0,0,1-5.38-3.73,9.6,9.6,0,0,1-1.09-7.5c3.14-13,10.7-22.47,22.46-28.25a9.46,9.46,0,0,1,9.18.16C296.68,363,293.4,369.27,293.41,369.37Z"/><path d="M255.64,388.56l0,.43c-.34,7.43-5.31,8.81-7.43,9.06a10.54,10.54,0,0,1-1.36.08,8,8,0,0,1-8.11-6.31c-2.49-9.46-7.26-15.33-15-18.47-4.19-1.7-5.82-5.9-4.07-10.44a8.78,8.78,0,0,1,4.87-5.05,9,9,0,0,1,7.17.21,40.73,40.73,0,0,1,22.74,25.6c.39,1.22.66,2.45.88,3.44.08.37.15.72.23,1Z"/><path d="M207.64,241.28a11.29,11.29,0,0,1,10.77,12,11.12,11.12,0,0,1-11.94,10.36A11.3,11.3,0,0,1,196,252.12,11.5,11.5,0,0,1,207.64,241.28Z"/><path d="M307.45,241.28a11.29,11.29,0,0,1,10.77,12,11.12,11.12,0,0,1-11.94,10.36,11.3,11.3,0,0,1-10.5-11.54A11.5,11.5,0,0,1,307.45,241.28Z"/></svg>