<svg id="Layer_17" data-name="Layer 17" xmlns="http://www.w3.org/2000/svg" viewBox="0 0 512 512"><defs><style>.cls-1{fill:#010101;}</style></defs><path class="cls-1" d="M256,67.85C153.37,67.77,69.33,151.71,69.23,254.36s83.92,186.69,186.5,186.78S442.4,357.23,442.49,254.61,358.59,67.92,256,67.85ZM176.39,178.5c5.86-23.26,13.23-45.9,23.64-67.57,2.67-5.55,6-8.86,12.11-10.21,7.78-1.72,15.51-3.55,23.42-4.74,5.39-.82,7.25.46,7.09,6.28-.42,14.49-.15,29-.15,43.53s-.19,29,.11,43.53c.1,5.15-1.42,6.52-6.59,6a406.61,406.61,0,0,1-54.29-8.57C176.87,185.63,175,184.14,176.39,178.5ZM142.8,142a109.18,109.18,0,0,1,21.14-16q-4.65,15.12-9.32,30.23c-.51,1.69-1,3.39-1.44,5.11-4.22,16-4.21,16-19.59,9.47a42,42,0,0,1-5.67-2.5,32.49,32.49,0,0,1-3.63-2.37A108.85,108.85,0,0,1,142.8,142ZM117,316.67c-5.53,2.7-8.08,1.83-10.24-4.09a176,176,0,0,1-10.88-58,170.68,170.68,0,0,1,11.23-58.84c1.85-4.9,3.86-6.52,8.94-3.69,4.59,2.58,9.7,4.28,14.65,6.17,14.24,5.48,14.11,5.43,12.55,20.21a339.5,339.5,0,0,0,1.25,80.53c.71,5.39-.74,7.27-5.36,8.87A196.11,196.11,0,0,0,117,316.67Zm8.51,30.21c-1.93-2.66-2.52-4.71,1.5-5.7,25.83-6,15.86-28.7,38.1,42.23C148.5,374.34,136.14,361.51,125.51,346.88Zm110.37,66.19a229.75,229.75,0,0,1-27.65-5.94c-3.13-.86-4.7-2.95-6.08-5.84a383.84,383.84,0,0,1-25.68-72.37c-1.17-4.7.8-5.62,4.32-6.47a397.49,397.49,0,0,1,56-8.87c5.14-.47,5.89,1.57,5.83,5.9-.18,14.5-.07,29-.07,43.47s-.19,29,.11,43.47C242.71,411.59,241.91,414,235.88,413.07Zm6.75-184c-.46,8.57-.13,17.19-.13,25.78,0,8.9-.13,17.78.07,26.68.08,3.58-.8,5.34-4.77,5.63-21.29,1.48-42.42,4.15-63.1,9.65-3.12.83-4-.28-4.37-3.36a343.63,343.63,0,0,1-.12-78.06c.47-4.17,2.32-3.83,5.23-3.08a313.89,313.89,0,0,0,60.48,9.21C241.34,221.87,242.91,223.79,242.63,229.1Zm146.65-62.49c-7.6,3.19-14.65,6-21.54,9.12-4.63,2.12-6,.31-6.94-4.07a365.33,365.33,0,0,0-13.32-46.6C364.47,135.52,377.74,149.63,389.28,166.61ZM277.62,96.16c8.33,1.89,16.68,3.73,25.05,5.45,3.87.8,5.94,3.22,7.64,6.61,11.43,22.8,19.29,46.83,25.26,71.57,1.07,4.37,0,6.17-4.65,7.26-18.19,4.22-36.61,6.54-55.14,8.47-6.09.62-6.75-1.87-6.66-6.9.27-14.19.1-28.4.1-42.6s.45-28.41-.19-42.58C268.68,96.08,271.41,94.74,277.62,96.16Zm57.43,233.15a381.25,381.25,0,0,1-24.93,70.92c-1.94,4.16-4.45,6.37-8.91,7.53a221.41,221.41,0,0,1-26,5.33c-4.78.61-6.16-.78-6.07-5.55.27-14.81.1-29.63.1-44.44,0-14.52.2-29-.12-43.55-.11-5.26,1.62-6.52,6.63-6,18.58,1.77,37,4.16,55.22,8.44C335.87,323.1,336.09,325,335.05,329.31ZM340.92,297a340.67,340.67,0,0,0-65.54-9.86c-5-.26-6.36-1.94-6.28-6.82q.43-25.77,0-51.55c-.07-4.83,1.14-6.63,6.22-6.88a318.57,318.57,0,0,0,60.54-8.69c4.34-1.08,5.35-.52,5.82,4A344.47,344.47,0,0,1,340.92,297Zm38.89,58.29c-9.22,11.18-19.53,21.2-32.46,28.79,4.34-16.73,10.06-32.78,13.51-49.45a3.19,3.19,0,0,1,1.34-2.36c1.1-.58,2.51.05,3.16.35,5.59,2.61,10.62,5.75,14.56,7.51,4.83,2.15,6.45,1.54,7.16,3.18C388,345.52,385.56,348.31,379.81,355.26Zm15.62-39.17c-4.53-2.7-9.67-4.38-14.61-6.34-13.93-5.52-14-5.49-12.53-20a352.13,352.13,0,0,0-.5-78c-.66-5.65.59-8.47,6.31-10.21a113.26,113.26,0,0,0,21.27-8.7c6.07-3.31,7.9-.94,9.83,4.34a173.87,173.87,0,0,1,10.64,57.28,173,173,0,0,1-10.64,57.28C403.29,316.94,401.33,319.6,395.43,316.09Z"/></svg>