<svg id="Layer_17" data-name="Layer 17" xmlns="http://www.w3.org/2000/svg" viewBox="0 0 512 512"><path d="M266.28,432.16H245.43a17.73,17.73,0,0,0-2.68-.56,164.19,164.19,0,0,1-62.34-16.3c-54.55-26.88-87.94-70.22-99.61-130-1.32-6.77-1.89-13.68-2.8-20.52V243.92c.75-6.06,1.28-12.15,2.3-18.16,6.84-40.13,24.85-74.43,54.91-101.9C174.4,88,220.88,72.56,273.68,77.5c37.72,3.53,71.08,18.17,99.43,43.39,37.65,33.49,57.83,75.68,60.38,126,1.62,32.1-5.14,62.67-20.65,90.87q-41.38,75.22-126,91.63C280.06,430.66,273.14,431.25,266.28,432.16Zm-16.68-184V171.79c-1.91,0-3.51,0-5.12,0-25.28.63-50.23,4.09-75.08,8.53-3.19.57-4.51,1.81-5.07,4.82-2.48,13.51-5.39,26.95-7.56,40.51-1.18,7.35-1.18,14.89-1.73,22.51Zm12.42-.1H356.3a5.53,5.53,0,0,0,.19-1,256.6,256.6,0,0,0-9.78-63.92,4.42,4.42,0,0,0-3.08-2.41c-19.91-2.81-39.82-5.63-59.78-8.07-7.17-.88-14.48-.75-21.83-1.08Zm-12.33,89.31V260.6H155.42a7.14,7.14,0,0,0-.2,1A256.6,256.6,0,0,0,165,325.5a4.48,4.48,0,0,0,3.08,2.42c14.6,2.36,29.19,4.93,43.87,6.66C224.33,336,236.83,336.47,249.69,337.38ZM356.47,260.5H262.1V337h2.33c26.92-.45,53.48-4.15,79.88-9.11a4.17,4.17,0,0,0,2.48-2.66c1.68-6.24,3.27-12.52,4.61-18.85A250.34,250.34,0,0,0,356.47,260.5Zm-186.7,79.82a166.71,166.71,0,0,0,18.65,37.17c10.75,15.87,23.76,29.3,41.62,37.2a53.17,53.17,0,0,0,19.58,5v-70.9C222.71,348.51,196.35,345.31,169.77,340.32Zm80-251.46a60.28,60.28,0,0,0-25.9,8.19c-27.79,16.1-42.59,42.12-54.3,71.35a463.1,463.1,0,0,1,80.2-8.56Zm12.25,71a461.26,461.26,0,0,1,79.79,8.48c-5.28-17-18-38.74-30.4-52.31-8.44-9.25-18.08-16.91-29.6-22A55.88,55.88,0,0,0,262,89Zm0,189v71c1.62-.18,3-.25,4.33-.48a67.74,67.74,0,0,0,27.06-11.09c24.25-16.63,38-40.81,48.66-67.95C315.43,345.3,289.07,348.49,262.05,348.83ZM143.33,248.19a274.72,274.72,0,0,1,9.19-64.35c-.72-.18-1-.32-1.15-.28-15.83,2.72-31.67,5.43-47.48,8.27a3.85,3.85,0,0,0-2.49,2.25c-3,9.94-6.23,19.84-8.48,29.95-1.74,7.81-2.16,15.91-3.21,24.16ZM359,183.3a274,274,0,0,1,9.41,64.82h53c.25-14.71-5.38-42.11-11.28-54.55a4,4,0,0,0-2.51-1.78c-3-.71-6.13-1.16-9.2-1.69C385.56,187.87,372.7,185.66,359,183.3ZM143.34,260.55H90.17a160.84,160.84,0,0,0,11.43,54.54,4.13,4.13,0,0,0,2.81,1.85c10.23,1.89,20.49,3.65,30.74,5.43,5.64,1,11.3,1.9,17.54,3A272.58,272.58,0,0,1,143.34,260.55Zm225-.07a274.71,274.71,0,0,1-9.18,64.35c.71.18.94.32,1.14.28,15.83-2.72,31.67-5.42,47.49-8.27a3.86,3.86,0,0,0,2.48-2.24c3-10,6.23-19.84,8.48-30,1.74-7.81,2.17-15.91,3.21-24.16ZM108.09,178.72c1.52-.11,2.21-.11,2.89-.22,13.79-2.38,27.55-4.9,41.37-7.07,3.22-.51,4.64-1.81,5.63-4.85a151.83,151.83,0,0,1,26.36-48.88c5.65-7,11.87-13.5,18.09-20.52C160.61,112.26,129.4,139.14,108.09,178.72Zm295.65.21c-21.44-39.8-52.64-66.68-94.36-81.36,2.55,3,5.42,5.67,8.1,8.52a162,162,0,0,1,36.75,61.8,4.06,4.06,0,0,0,3.79,3.24c7.43,1.12,14.81,2.56,22.22,3.83S395.25,177.5,403.74,178.93ZM108,329.73c21.43,39.78,52.61,66.68,94.37,81.34-2.54-3-5.4-5.63-8.08-8.45a162,162,0,0,1-36.76-61.8c-.65-2-1.54-3-3.76-3.28-6.07-.85-12.08-2.08-18.12-3.11C126.75,332.9,117.87,331.41,108,329.73Zm295.57.33c-1.39.07-2.2,0-3,.15-13.9,2.41-27.78,4.94-41.71,7.16-2.86.46-4.1,1.6-5,4.23A160.79,160.79,0,0,1,311,409.09c-.6.57-1.12,1.23-1.67,1.84C351.18,396.33,382.41,369.47,403.54,330.06Z"/></svg>