<svg id="Layer_22" data-name="Layer 22" xmlns="http://www.w3.org/2000/svg" viewBox="0 0 512 512"><defs><style>.cls-1{fill:#fff;}</style></defs><path d="M255.9,402.81C270,385.2,283.73,368,297.48,350.75c15.44-19.34,31.12-38.48,46.2-58.1,17.29-22.49,24.37-48.23,22.22-76.48-3.82-50.27-40.51-90.92-92.48-99.76a109.79,109.79,0,0,0-64.19,8.15A20.59,20.59,0,0,1,199,126.32c-5.17-.61-8.79-5.33-9.31-10.41a12.23,12.23,0,0,1,6.94-12.24,131.08,131.08,0,0,1,37.9-12c55.36-8.86,111.75,17.41,138.49,66.77,27.36,50.48,24.22,100.66-9,147.51-18.13,25.59-38.9,49.31-58.47,73.87Q285.78,404.63,266,429.45c-5.85,7.34-14.75,7.22-20.57-.07-31.67-39.69-63.56-79.19-95-119C128.84,283,118.93,251.73,121,216.79a133.07,133.07,0,0,1,13.4-51c3.5-7.19,10.3-10,16.76-6.92s8.55,10.29,5.19,17.72c-18.22,40.21-15.16,78.86,10.6,114.59,16.4,22.75,34.81,44,52.33,66q17.4,21.8,34.83,43.55C254.54,401.34,255.07,401.88,255.9,402.81Z"/><path d="M329.43,225.44a73.61,73.61,0,0,1-73.94,73.68c-40.69,0-73.51-33.3-73.33-74.33.18-40.43,33.44-73.26,74.14-73.21C296.26,151.63,329.51,185.21,329.43,225.44Zm-24.44.31c.06-27.16-22-49.62-48.67-49.66-27.41-.05-49.71,21.88-49.79,49a49.23,49.23,0,1,0,98.46.69Z"/><path class="cls-1" d="M305,225.75a49.23,49.23,0,1,1-98.46-.69c.08-27.09,22.38-49,49.79-49C283,176.13,305.05,198.59,305,225.75Z"/></svg>