<svg id="Layer_19" data-name="Layer 19" xmlns="http://www.w3.org/2000/svg" viewBox="0 0 512 512"><defs><style>.cls-1{fill:#010101;}.cls-2{fill:#030303;}</style></defs><path class="cls-1" d="M253.89,89.87c92.08.58,162,67.81,172.78,150.23A172.55,172.55,0,0,1,290.42,431.41c-109.44,22.67-211.53-65-206.36-177a170.42,170.42,0,0,1,19.61-72.23c4.92-9.37,11.09-12.39,18.09-8.9,7.39,3.67,8.65,10.66,3.69,20.43-42.87,84.49.07,184.78,90.23,210.7,81,23.28,164.21-26,184.05-108.89C419,215.16,365.52,132.81,284.1,117.5c-44.16-8.31-83.92,1.87-119.52,29-3.06,2.33-6,5.08-10,5.29-5.72.3-10-2.23-12.34-7.66-2.54-5.95-.48-10.72,4.11-14.58a168.77,168.77,0,0,1,50.11-28.9A175.54,175.54,0,0,1,253.89,89.87Z"/><path class="cls-1" d="M356.31,198.63a37,37,0,0,0-39-18.28c-14.1,2.4-26.19,14-29.48,28.54-2.34,10.4.71,19.81,5.14,29.22,7,14.91,5.39,29.52-4.83,42.42-10.11,12.74-23.49,18.36-39.85,15.16-27.73-5.44-40.65-33.3-28.1-60.5,9.52-20.64,3.16-41.85-15.42-51.37-18.91-9.69-40.19-2.06-51,18.34a113.07,113.07,0,0,0-13.1,60.89c3.58,60.89,56.49,110.88,115.75,109.17,63.09-1.8,115.14-54,115.27-115.64C371.62,235.91,366.75,216.5,356.31,198.63ZM252.1,347.54c-50.76-2.11-90.61-47.14-86.84-98a89.26,89.26,0,0,1,10.29-36c4.52-8.47,11.19-11.27,18-7.77s8.46,10.4,4.34,19.11c-18.32,38.85,0,82.25,39.85,93.48,26.41,7.46,49.6.71,67.5-19.82,18.11-20.8,21.36-44.86,10.39-70.39-5.28-12.31-4.51-19,3.23-22.64s14.08.35,19.65,12.11a91,91,0,0,1,8.58,38.91C346.88,306.26,301.63,349.6,252.1,347.54Z"/><path class="cls-2" d="M243.7,190.07c0-7.92-.2-15.84.06-23.75.26-8.24,5.23-13.62,12.12-13.7s12.23,5.32,12.36,13.45q.38,24.57,0,49.13c-.12,8.34-5.13,13.59-12.12,13.67S244,223.7,243.77,215.45C243.49,207,243.71,198.53,243.7,190.07Z"/></svg>