<svg id="Layer_9" data-name="Layer 9" xmlns="http://www.w3.org/2000/svg" viewBox="0 0 512 512"><path d="M271,153.37c-6-8.09-15.42-12.37-24-10.9-7.88,1.35-13.83,7.38-16.77,16.94-3.23,10.5-1.58,20.24,4.89,29,4.65,6.23,11.14,9.7,18,9.7.6,0,1.21,0,1.83-.07a20.88,20.88,0,0,0,10.51-4,25.28,25.28,0,0,0,7.65-9.28C278.56,173.92,277.76,162.49,271,153.37ZM261.79,183c-4,5.09-10.21,5.85-15.32,1.91-7.74-6-9.49-19.71-3.49-27.45,4.28-5.51,10.9-6.23,16.11-1.6,4.63,4.1,6.37,9.47,6.43,15.5A18.24,18.24,0,0,1,261.79,183Z"/><path d="M318.81,149.69c-8.06-9.45-19.85-10.23-30.05-2-11.53,9.34-14,28.39-5.18,40.76A21.85,21.85,0,0,0,299,198a18.85,18.85,0,0,0,2.25.12,21.94,21.94,0,0,0,14.64-5.86C329.57,179.93,328.07,160.58,318.81,149.69Zm-9.13,33.71c-5.81,6-14.11,5.19-18.08-2.21-4.46-8.32-3.67-17.09,2.41-24,5.72-6.5,14.15-5.67,18.53,1.77S315.62,177.23,309.68,183.4Z"/><path d="M356.84,182.66a18.79,18.79,0,0,0-13.55-9.3A19.08,19.08,0,0,0,327.55,179c-8.48,8.31-10,23.06-3.39,32.89a18.62,18.62,0,0,0,10.45,7.93,17.23,17.23,0,0,0,4.86.68A19,19,0,0,0,350.32,217a22.94,22.94,0,0,0,7.81-9.65C361.92,198.77,361.49,190.47,356.84,182.66Zm-12.07,25.12c-3.79,3.17-8.35,2.6-11.38-1.31-4.41-5.68-3.27-15.87,2.28-20.47,4-3.31,8.92-2.81,11.66,1.63C352.13,195.45,349.41,203.91,344.77,207.78Z"/><path d="M338.16,250.87c0-.64-.08-1.28-.15-1.92a36.29,36.29,0,0,0-.77-4.83c-.12-.55-.26-1.11-.41-1.65,0-.19-.1-.37-.14-.51-.16-.57-.34-1.14-.53-1.7-.31-1-.68-1.95-1.09-2.91-4.07-9.68-11.53-16.59-17.57-21.52-13.72-11.19-25.6-16-39.75-16.14-21.56-.13-43.86,13.48-56.82,34.68-6.55,10.73-7.09,22.42-1.54,33.82a77.65,77.65,0,0,0,11,16.79c10.88,12.5,26,14.91,40.56,6.43,4.48-2.63,8.17-2.64,12.7-.05a45.38,45.38,0,0,0,12,4.41,25.47,25.47,0,0,0,5.95.72A24,24,0,0,0,314.05,293c1-.62,1.9-1.2,2.71-1.76l.84-.6.42-.31c.3-.22.6-.44.84-.64s.64-.49.92-.72.61-.49.91-.74l.23-.21c.32-.26.63-.53.92-.8.81-.72,1.58-1.46,2.29-2.19.36-.35.72-.73,1.09-1.12l1-1.11c.52-.59,1-1.19,1.49-1.76.23-.28.45-.56.72-.91l.07-.1.16-.22.43-.58c.27-.36.54-.73.78-1.09.55-.79,1-1.45,1.37-2.07l.34-.54c.44-.73.85-1.44,1.2-2.1.13-.23.26-.48.36-.68.24-.46.46-.91.68-1.36s.38-.8.54-1.16c.08-.16.16-.33.2-.44.18-.41.35-.82.5-1.2s.31-.78.46-1.17l.08-.24.1-.27c.12-.36.25-.71.36-1.07,0-.09.07-.18.1-.27l.35-1.15c.28-1,.51-1.85.69-2.7.08-.29.14-.59.19-.88a2.84,2.84,0,0,0,.06-.31,3.4,3.4,0,0,0,.07-.34c.08-.4.13-.79.2-1.18l0-.23c.07-.43.13-.87.19-1.31s.1-1,.14-1.56.07-1,.09-1.49v-.11c0-.5,0-1,0-1.49S338.19,251.51,338.16,250.87ZM323.42,262a57.44,57.44,0,0,1-8,12.94c-7.63,9.25-15.51,10.6-26.36,4.53a29.19,29.19,0,0,0-6.5-2.77c-7.61-2.11-14,.85-18.21,3.26-8.71,5-16.3,4.19-23.18-2.6a44.19,44.19,0,0,1-11-17.67,22,22,0,0,1,.56-15.49,39.6,39.6,0,0,1,10.69-14.72c13-11.76,23.72-16.8,35.89-16.8h.33c13.87.12,28.27,8.06,40.54,22.34,4.89,5.7,7.34,11.53,7.34,17.44A23.5,23.5,0,0,1,323.42,262Z"/><path d="M226.27,178.39a18.52,18.52,0,0,0-14.53-5.08,17,17,0,0,0-3.81.83,16.63,16.63,0,0,0-1.81.72,19.78,19.78,0,0,0-7.66,6.48c-7.39,10.26-5.59,25.94,3.92,34.23A19.13,19.13,0,0,0,215,220.5a18.9,18.9,0,0,0,2.59-.18,17.8,17.8,0,0,0,8.22-3.5c.2-.16.4-.31.59-.48.4-.33.78-.67,1.15-1l.55-.55a21.61,21.61,0,0,0,2.61-3.39,25.21,25.21,0,0,0,1.29-2.32c.25-.52.48-1.06.7-1.59s.42-1.1.59-1.66c.1-.28.18-.56.26-.84s.16-.58.22-.87.14-.57.2-.87.16-.86.22-1.3c0-.15.05-.31.07-.47a26.33,26.33,0,0,0,.24-3.79h0C234.37,189.77,231.62,183.29,226.27,178.39Zm-5.71,28.75a7.36,7.36,0,0,1-10,1.28c-6.64-4.41-8-16-2.57-21.93,2.93-3.18,6.94-3.54,10.43-.78A14.28,14.28,0,0,1,223.8,197C223.72,201.32,222.88,204.51,220.56,207.14Z"/><path d="M389.58,209c-.29-1.79-.56-3.59-.83-5.38-.58-3.91-1.18-8-2.07-11.93-9.64-42.89-45.42-76.74-89-84.23-2.46-.43-4.95-.8-7.35-1.15l-3.38-.51-16.46,0-.43.11-.76.22c-.19.06-.46.15-.54.16a111,111,0,0,0-89.52,159.59c2,4,4.34,7.85,6.58,11.55l1.54,2.55-6.69,6.74c-3.56-1.79-6.36-.92-10.06,2.79L97.42,362.63a39.4,39.4,0,0,0-3,3.27,24.79,24.79,0,0,0,.79,31.66A24.53,24.53,0,0,0,113,406.23h.84A26.82,26.82,0,0,0,132.75,398q26.38-26.36,52.75-52.74l20-20c4.15-4.15,5-6.54,3.06-10.65l6.76-6.81C240.33,324.83,268,331,297.69,326c43.57-7.3,79.33-41.14,89-84.2.89-4,1.5-8,2.08-11.94.27-1.8.54-3.6.83-5.39l.05-14.9ZM278.73,312.11h-.11a95.38,95.38,0,0,1-.05-190.75h.11a95.38,95.38,0,0,1,.05,190.75ZM167.14,341.53c-15,15.05-30.59,30.61-45.91,45.88a10.35,10.35,0,0,1-7.45,3.25,9.05,9.05,0,0,1-6.56-3.1,9.26,9.26,0,0,1-.38-12.2c.24-.29.48-.56.72-.8L165,317.11l13.25,13.27Zm22.64-18.31-17.73-17.74,5.1-5.21,17.93,17.93Zm8.09-16-9.66-9.51,9.5-9.49,9.47,9.72Z"/></svg>