<svg id="Layer_28" data-name="Layer 28" xmlns="http://www.w3.org/2000/svg" viewBox="0 0 512 512"><defs><style>.cls-1{fill:#010101;}</style></defs><path d="M363.32,119.47c-.7-9.44-5.28-16.39-13.61-20.62a33.16,33.16,0,0,0-4.38-1.67l-1.73-.62-174-.21-1.25.21c-15.49,6-19.73,12.22-19.73,29.09V410.24c0,1,0,2.09.07,3.13A24,24,0,0,0,164.43,435l2.91,1.05,1.12.34,174.58.21.63-.21c15.69-6.11,19.72-12.15,19.72-29.37V122.88A28,28,0,0,0,363.32,119.47ZM346.17,411.21c0,5.42-2.64,8.13-8,8.13H173.87c-5.35,0-8-2.78-8-8.13V374.27H346.17ZM166.09,356.56V155.45H346V356.56Zm180-218.75H165.89v-3.13c-.07-5-.07-10,.07-14.93a6.64,6.64,0,0,1,6.31-6,16.88,16.88,0,0,1,1.88-.07H337.07c6.87,0,9.1,2.29,9.1,9.24Z"/><path d="M256.1,384.62H256a12.11,12.11,0,0,0-12.09,11.94,12.35,12.35,0,0,0,3.54,8.68,11.51,11.51,0,0,0,8.62,3.54,12.08,12.08,0,0,0,0-24.16Zm-5.35,12.22a5.24,5.24,0,1,1,5.21,5.07A5.25,5.25,0,0,1,250.75,396.84Z"/><path d="M260.54,120.72c-9.93-.07-19.86-.07-29.86,0-3.54,0-5.84,2.16-5.77,5.21s2.3,5,5.91,5.07c4.86.07,9.72,0,14.58,0s10,.07,14.93,0c3.61,0,5.9-2,6-5.07S264.08,120.72,260.54,120.72Zm-.21,6.81c-3.47.07-6.94.07-10.48,0h-8.69c-3.47.07-6.87.07-10.27,0-2.5,0-2.5-1.25-2.5-1.67a1.37,1.37,0,0,1,.34-1,2.63,2.63,0,0,1,2-.62c5.07,0,10.14-.07,15.21-.07,4.86,0,9.79.07,14.65.07a2.58,2.58,0,0,1,1.94.62,1.36,1.36,0,0,1,.35,1C262.83,126.28,262.83,127.53,260.33,127.53Z"/><path class="cls-1" d="M260.54,120.72c-9.93-.07-19.86-.07-29.86,0-3.54,0-5.84,2.16-5.77,5.21s2.3,5,5.91,5.07c4.86.07,9.72,0,14.58,0s10,.07,14.93,0c3.61,0,5.9-2,6-5.07S264.08,120.72,260.54,120.72Zm-.21,6.81c-3.47.07-6.94.07-10.48,0h-8.69c-3.47.07-6.87.07-10.27,0-2.5,0-2.5-1.25-2.5-1.67a1.37,1.37,0,0,1,.34-1,2.63,2.63,0,0,1,2-.62c5.07,0,10.14-.07,15.21-.07,4.86,0,9.79.07,14.65.07a2.58,2.58,0,0,1,1.94.62,1.36,1.36,0,0,1,.35,1C262.83,126.28,262.83,127.53,260.33,127.53Z"/><path d="M282.21,120.72a5.14,5.14,0,1,0-.28,10.28,5.14,5.14,0,0,0,.28-10.28Zm.9,6.32a2,2,0,0,1-1.11.49,1.7,1.7,0,0,1-1.18-.56,1.93,1.93,0,0,1-.49-1.11,1.49,1.49,0,0,1,.56-1.18,1.35,1.35,0,0,1,1.18-.48,1.85,1.85,0,0,1,1.6,1.66A1.69,1.69,0,0,1,283.11,127Z"/><path class="cls-1" d="M282.21,120.72a5.14,5.14,0,1,0-.28,10.28,5.14,5.14,0,0,0,.28-10.28Zm.9,6.32a2,2,0,0,1-1.11.49,1.7,1.7,0,0,1-1.18-.56,1.93,1.93,0,0,1-.49-1.11,1.49,1.49,0,0,1,.56-1.18,1.35,1.35,0,0,1,1.18-.48,1.85,1.85,0,0,1,1.6,1.66A1.69,1.69,0,0,1,283.11,127Z"/></svg>