<svg id="Layer_25" data-name="Layer 25" xmlns="http://www.w3.org/2000/svg" viewBox="0 0 512 512"><defs><style>.cls-1{fill:#020202;}</style></defs><rect class="cls-1" x="85.78" y="232.27" width="340.43" height="44.61" rx="22.3"/><rect class="cls-1" x="85.78" y="324.27" width="340.43" height="44.61" rx="22.3"/><path class="cls-1" d="M85.78,162.58a22.31,22.31,0,0,1,22.31-22.31H403.91a22.31,22.31,0,0,1,22.31,22.31h0a22.3,22.3,0,0,1-22.31,22.3H108.09a22.3,22.3,0,0,1-22.31-22.3"/><path class="cls-1" d="M85.78,254.58a22.31,22.31,0,0,1,22.31-22.31H403.91a22.31,22.31,0,0,1,22.31,22.31h0a22.3,22.3,0,0,1-22.31,22.3H108.09a22.3,22.3,0,0,1-22.31-22.3"/></svg>