<svg id="Layer_22" data-name="Layer 22" xmlns="http://www.w3.org/2000/svg" viewBox="0 0 512 512"><defs><style>.cls-1{fill:#010101;}</style></defs><path class="cls-1" d="M335.41,231c-7.17-19.86-21.71-32-42.79-35.41-4.85-.77-6.72-2.25-6.48-7.46.47-9.89.17-19.82.13-29.73-.11-25.55-20.49-37.28-42.75-24.56-23.85,13.64-48,26.79-71.38,41.2-15.23,9.4-30.41,16.52-48.77,12.87-6.42,0-12.83,0-19.24,0-18,.11-28.44,10.4-28.51,28.34q-.16,32.94,0,65.89c.09,18.14,10.12,28.24,28.31,28.46,12.83.15,25.65.17,38.48-.07a23.85,23.85,0,0,1,12.83,3.56Q199.88,340,244.76,365.5c20.72,11.8,41.34-.34,41.51-24.3.06-10.19.19-20.35-.07-30.54-.13-4.66.54-6.82,6.16-7.47,12.89-1.48,23.87-7.59,32.39-17.5C338.6,269.56,342.63,251,335.41,231ZM140.18,249.4c0,10.45-.19,20.89.09,31.34.1,4.35-.86,6.11-5.62,5.92-9.61-.39-19.26-.26-28.87,0-4.16.08-6.29-.65-6.22-5.62.25-21.17.19-42.32,0-63.49,0-4.14,1.29-5.64,5.51-5.51,9.61.25,19.26.34,28.85-.05,4.85-.19,6.54,1,6.33,6.14C139.88,228.51,140.18,239,140.18,249.4Zm122,.39q0,44.63,0,89.25c0,7.78-.79,8.25-7.49,4.44-28.48-16.31-56.9-32.76-85.47-48.93-3.71-2.1-5.12-4.31-5.08-8.69.23-24.38.19-48.77,0-73.16,0-3.9,1-6.24,4.55-8.25q43.2-24.45,86.13-49.36c6.59-3.84,7.47-1.67,7.45,4.66C262.12,189.75,262.2,219.78,262.2,249.79Zm28.89,29.45c-4.07.77-5-.63-4.89-4.46.24-8.54.07-17.1.07-25.64,0-8.27.19-16.55-.07-24.81-.13-4.14.62-5.66,5.26-4.66,12.82,2.81,23.4,16.05,23.29,29.88S303.73,276.79,291.09,279.24Z"/><path class="cls-1" d="M445.39,250.84c-.27,30.35-10,58.33-28.84,83.2-3.3,4.34-7.2,7.23-12.89,6.34a11.57,11.57,0,0,1-9.38-7.84c-2.19-5.8.85-10.22,4.12-14.64,21.74-29.35,27.6-62,19.29-97.25-3.53-15-10.55-28.44-19.83-40.74-5.81-7.68-5.57-14.45.26-19.09s13.2-3,19.09,4.79C436,190.54,445.34,218.68,445.39,250.84Z"/><path class="cls-1" d="M391.93,249.21a82.58,82.58,0,0,1-13.05,42.88c-4.32,6.88-11,8.71-17.06,5s-7.64-10.46-3.44-17.46c12.46-20.78,12.38-41.26-.12-62-4.16-6.9-2.3-13.77,3.86-17.28,5.87-3.34,12.35-1.65,16.53,4.74C387.35,218.44,391.47,233.17,391.93,249.21Z"/></svg>