<svg id="Layer_29" data-name="Layer 29" xmlns="http://www.w3.org/2000/svg" viewBox="0 0 512 512"><defs><style>.cls-1{fill:#010101;}.cls-2{fill:#fff;}</style></defs><path class="cls-1" d="M431.67,375.21c-.42-2.55-.8-5.16-1.17-7.71,0-.15,0-.31-.06-.46-.88-6-1.77-12.17-3.25-18.22-12.8-52.46-43.4-91.79-91-117,.36-.5.7-1,1-1.5,2.89-4.16,5.87-8.46,8.41-13a102.33,102.33,0,0,0-72-150.18c-2.33-.41-4.67-.8-7-1.18l-3.64-.6H248l-.42.07-3.08.58c-2.18.42-4.36.83-6.56,1.2-27,4.6-51.48,20.66-67.1,44.08s-21.05,52.22-14.89,79c7.45,32.37,28.82,58.49,58.6,71.66s63.28,11.39,92.14-4.82c1.59-.89,2.07-.72,3-.25,2.23,1.14,4.48,2.2,6.67,3.23a124.21,124.21,0,0,1,12,6.21c39.15,24,61.61,58.27,68.53,104.64H115.27a140.47,140.47,0,0,1,21.3-59.17,145.53,145.53,0,0,1,25.94-30.27c6.29-5.62,8-13.54,4.4-20.66s-11.14-10.81-18.39-9a25.52,25.52,0,0,0-10.43,6c-25.94,23.62-43.43,52.52-52,85.88-1.84,7.2-3,14.57-4.17,21.71-.13.82-.26,1.65-.4,2.47-.39,2.41-.79,4.86-1.21,7.25l-.08.41V392l.29.79A19.61,19.61,0,0,0,85,399.91c.26.26.52.52.81.78A25,25,0,0,0,92.57,405l.92.4h325l1-.43a26.36,26.36,0,0,0,6.7-4.31c.28-.25.55-.51.81-.77a19.3,19.3,0,0,0,4.46-7.12l.29-.78V375.6Zm-176-275.74a68.09,68.09,0,0,1,48.91,20.61,69,69,0,0,1,20,50.43c-.87,35.9-32.21,66.15-68.47,66.15h-.5a67.08,67.08,0,0,1-48.13-20.34,69.86,69.86,0,0,1-20-50.12c.74-35.93,31.78-66.49,67.77-66.73Z"/><path class="cls-2" d="M85.82,400.69H85v-.78C85.27,400.17,85.53,400.43,85.82,400.69Z"/><path class="cls-1" d="M85.82,400.69H85v-.78C85.27,400.17,85.53,400.43,85.82,400.69Z"/><path class="cls-2" d="M427,399.92v.77h-.81C426.46,400.44,426.73,400.18,427,399.92Z"/><path class="cls-1" d="M431.74,375.6l-.07-.39c-.42-2.55-.8-5.16-1.17-7.71Z"/><path class="cls-1" d="M427,399.92v.77h-.81C426.46,400.44,426.73,400.18,427,399.92Z"/></svg>