<svg id="Layer_29" data-name="Layer 29" xmlns="http://www.w3.org/2000/svg" viewBox="0 0 512 512"><path d="M378.19,142.5c-31.41-33.57-74.74-52-122-52h0c-47.34,0-90.73,18.48-122.18,52-30.14,32.13-46.79,74.61-46.89,119.61-.1,44.07,17.29,85.77,49,117.43a168.67,168.67,0,0,0,120,49.86h.38A168.78,168.78,0,0,0,375.66,380c31.92-31.71,49.49-73.59,49.49-118v-.23C424.87,216.92,408.19,174.55,378.19,142.5ZM357.38,376.56c-32.46,27.62-70.08,40.27-111.83,37.61-34.43-2.2-65.5-15.36-92.35-39.1-2.64-2.33-3.56-4.33-3.39-7.4.17-3.29.17-6.64.17-9.87a118.32,118.32,0,0,1,.56-14.34c1.93-16,10.28-27.21,24.14-32.52,22.75-8.71,45.63-15.86,65-21.71a55.62,55.62,0,0,1,16.2-2.33,74.79,74.79,0,0,1,23.4,4c21.75,7.16,38.35,12.71,53.82,18,17.77,6.07,28.95,21.65,29.17,40.67,0,2,0,4.08,0,6.13v2.85c0,.69,0,1.38-.06,2.08a25.13,25.13,0,0,0,.14,4.89C363.06,369.84,361.66,372.93,357.38,376.56ZM256.22,272.1h-.13a51.56,51.56,0,0,1-36.39-15,50.42,50.42,0,0,1-15.27-36.05c-.05-29.61,22.11-52,51.54-52.13h.21c14.11,0,27.1,5.19,36.6,14.63s15,22.81,15,37.25C307.82,249,284.69,272,256.22,272.1ZM377.42,355c0-.47,0-.94,0-1.4a102,102,0,0,0-.69-11c-3.16-23.32-15.79-39.22-37.55-47.27-11.45-4.23-23.24-8.09-34.64-11.84-5.07-1.66-10.14-3.32-15.19-5,13.94-8.42,24-20.33,29.22-34.58a68.72,68.72,0,0,0,.87-43.5,65.79,65.79,0,0,0-63.23-46.8h-.3a65.74,65.74,0,0,0-63.24,47.22c-9.17,31,2.74,61.13,30.38,77.69l-.63.22-7.71,2.58q-19.51,6.54-39.06,13.06c-25.37,8.45-40.59,29.45-40.7,56.19v.38c0,1.34,0,2.64-.06,4a142.37,142.37,0,0,1-28.23-55.32,149.34,149.34,0,0,1-2.24-65.84C116.86,166.89,168.53,116,233,107c70.31-9.82,132.54,23.84,162.4,87.84C420.65,249.07,413.55,311.47,377.42,355Z"/></svg>