<svg xmlns="http://www.w3.org/2000/svg" viewBox="0 0 512 512"><defs><style>.cls-1{fill:#bcbec0;}.cls-2{fill:#b73339;}</style></defs><g id="Layer_1" data-name="Layer 1"><g id="Layer_30_copy" data-name="Layer 30 copy"><rect class="cls-1" x="255.29" y="278.17" width="134.73" height="30.38" rx="12.98"/><rect class="cls-1" x="255.29" y="344.34" width="213.25" height="30.38" rx="12.98"/></g><path class="cls-2" d="M224,177.15a12.18,12.18,0,0,1-5,9.19c-8.18,8.21-8.18,8.21,0,16.3.72.72,1.5,1.44,2.19,2.19,3.6,4,3.77,8.64.46,12.06s-8.26,3.4-12.41-.48A97.62,97.62,0,0,1,202,209c-2.18-2.56-3.71-2.19-5.76,0a94.58,94.58,0,0,1-7.69,7.69,8.29,8.29,0,1,1-12.13-11.3,6.25,6.25,0,0,1,.44-.45,107.9,107.9,0,0,1,8.09-8.06c2-1.79,2.19-3.11,0-5-2.7-2.42-5.24-5-7.71-7.69-3.92-4.15-4.06-9-.52-12.39s8-3.08,12.06.46,6.34,9.39,10.57,9c3.63-.32,6.74-5.76,10.14-9.07a8.41,8.41,0,0,1,14.4,4.78Z"/></g><g id="Layer_3" data-name="Layer 3"><g id="Layer_2" data-name="Layer 2"><path class="cls-1" d="M133,239.55h58.94c28.34,0,51.31,23.45,51.31,52.38v60.18c0,28.94-23,52.39-51.31,52.39H133c-28.34,0-51.31-23.45-51.31-52.39V291.93C81.67,263,104.64,239.55,133,239.55Z"/></g><path class="cls-2" d="M205,227.74q-65.76,0-131.5,0H71.18a95.54,95.54,0,0,0-2.83-9.18c-4.46-10.68-12.5-16.93-23.93-18.78-3-.5-16.17-.43-17.3,0-4.35,1.54-6.76,5.19-6.07,9.24.71,4.23,4.15,7,8.79,7h9.72c7.25,0,12.36,3.91,14.16,10.92q10.35,40.32,20.67,80.63a1.68,1.68,0,0,1-1,2.31c-5.29,2.95-10.59,5.86-15.77,9A19,19,0,0,0,49.16,340c2.27,8.84,9.86,14.51,19.45,14.51h8.08a13.8,13.8,0,1,0,15.29,0H171.1a13.78,13.78,0,1,0,19.1,3.81,13.55,13.55,0,0,0-3.81-3.81h4a8.3,8.3,0,0,0,7.67-8.87,8,8,0,0,0-.47-2.21c-1.25-3.47-4.31-5.44-8.49-5.44H68.77c-1.7,0-3.13-.33-3.58-2.15s.67-2.68,2.06-3.46c6-3.36,11.9-6.8,17.89-10.1a6.67,6.67,0,0,1,3.09-.8c14.39-.06,28.78,0,43.17-.05a13.59,13.59,0,0,0,13.22-9.48,1.84,1.84,0,0,1,2.15-1.56c8.75.05,17.51,0,26.26,0,9.82,0,17.12-5.63,19.56-15.09q6.06-23.61,12.1-47.24c1.43-5.55,2.93-11.09,4.4-16.64V229.6C208.15,228,206.73,227.74,205,227.74ZM187,366a8.26,8.26,0,1,1-8.24-8.32A8.25,8.25,0,0,1,187,366ZM154,233.43h21.61l-3.06,19.92H153C153.34,246.7,153.67,240.15,154,233.43Zm-29,71.38H110.68c-1-6.69-2-13.3-3.07-20H124C124.29,291.44,124.63,298.06,125,304.81Zm-1.33-25.7H106.73q-1.53-10-3.09-20.12h19C123,265.75,123.32,272.32,123.66,279.11Zm-18.56,25.7H90.75q-2.53-9.94-5.13-20h16.43C103,291.44,104.07,298.09,105.1,304.81Zm16.22-71.39c.34,6.6.68,13.19,1,20H102.78q-1.52-10-3.06-20ZM101.15,279.1h-17c-1.7-6.63-3.39-13.29-5.13-20.05h19c1,6.65,2.06,13.29,3.1,20.05Zm-7-45.76c1,6.71,2,13.33,3.07,20.06H77.59c-1.69-6.65-3.39-13.3-5.13-20.06ZM92.61,366.07a8.26,8.26,0,1,1-8.15-8.41,8.26,8.26,0,0,1,8.15,8.41Zm38.51-50.16c-14.2,0-28.41,0-42.61,0a11.91,11.91,0,0,0-6.4,1.7c-6,3.52-12.14,6.85-18.17,10.36-5.25,3.06-5.89,9.82-1.39,13.59a8.83,8.83,0,0,0,6,1.94q19.64,0,39.3,0h80.24c.61,0,1.23,0,1.84,0A2.74,2.74,0,0,1,190,349a7.94,7.94,0,0,1-1.29,0H68.41c-8.39,0-14.66-6.22-14.33-14.31a13.26,13.26,0,0,1,7.08-11.49c5.73-3.3,11.48-6.53,17.23-9.79,2.26-1.29,2.65-2.1,2-4.63q-10.62-41.55-21.3-83.1a41.05,41.05,0,0,0-2.27-5.94h0a20.14,20.14,0,0,0-2.9-3.61,19.69,19.69,0,0,0-2.15-1.82,3.38,3.38,0,0,0-.36-.27l-.36-.24h0c-4.15-2.8-8.91-3.49-13.91-3.27-2.32.11-4.64,0-7,0a5.39,5.39,0,0,1-1.45-.08,2.62,2.62,0,0,1-2.16-2.61c0-1.48.82-2.71,2.22-2.7A36.69,36.69,0,0,1,39,204.48c3.55.27,13.29,1,19.82,8.43a21.9,21.9,0,0,1,3.74,5.94h0a25.23,25.23,0,0,1,1.84,5.05Q75,265.45,85.66,307c.77,3,1.27,3.42,4.43,3.42h49.15a8.09,8.09,0,0,1-8.13,5.48Zm13.72-11.12H130.51c-.34-6.64-.68-13.26-1-20h16.39c-.35,6.75-.69,13.32-1,20Zm1.34-25.73h-17c-.34-6.64-.68-13.22-1-19.93h19c-.34,6.58-.67,13.19-1,19.93Zm1.3-25.66H127.91c-.35-6.65-.7-13.27-1.06-20h21.66c-.36,6.72-.7,13.33-1,20Zm17.2,51.41H150.36c.35-6.68.68-13.26,1-20h16.34c-1,6.73-2,13.34-3.06,20Zm-13-25.72c.34-6.74.68-13.35,1-20h19c-1,6.73-2,13.35-3.07,20Zm35,16.57a13.49,13.49,0,0,1-12.63,9.23c-1.21,0-2.43,0-3.82,0l3.07-20.09h16.31c-1,3.7-1.8,7.34-2.95,10.86Zm4.34-16.53H174.19c1-6.7,2-13.3,3.07-20h18.89c-1.73,6.78-3.43,13.39-5.12,20Zm6.59-25.75h-19.5c1-6.73,2.05-13.35,3.08-20h21.51c-1.72,6.75-3.42,13.39-5.11,20Z"/></g></svg>