<svg xmlns="http://www.w3.org/2000/svg" viewBox="0 0 512 512"><defs><style>.cls-1{fill:#bcbec0;}.cls-2{fill:#b73339;}</style></defs><g id="Layer_1" data-name="Layer 1"><g id="Layer_30_copy" data-name="Layer 30 copy"><rect class="cls-1" x="255.29" y="278.17" width="134.73" height="30.38" rx="12.98"/><rect class="cls-1" x="255.29" y="344.34" width="213.25" height="30.38" rx="12.98"/></g><path class="cls-2" d="M224,177.15a12.18,12.18,0,0,1-5,9.19c-8.18,8.21-8.18,8.21,0,16.3.72.72,1.5,1.44,2.19,2.19,3.6,4,3.77,8.64.46,12.06s-8.26,3.4-12.41-.48A97.62,97.62,0,0,1,202,209c-2.18-2.56-3.71-2.19-5.76,0a94.58,94.58,0,0,1-7.69,7.69,8.29,8.29,0,1,1-12.13-11.3,6.25,6.25,0,0,1,.44-.45,107.9,107.9,0,0,1,8.09-8.06c2-1.79,2.19-3.11,0-5-2.7-2.42-5.24-5-7.71-7.69-3.92-4.15-4.06-9-.52-12.39s8-3.08,12.06.46,6.34,9.39,10.57,9c3.63-.32,6.74-5.76,10.14-9.07a8.41,8.41,0,0,1,14.4,4.78Z"/></g><g id="Layer_3" data-name="Layer 3"><g id="Layer_2" data-name="Layer 2"><path class="cls-1" d="M133,239.55h58.94c28.34,0,51.31,23.45,51.31,52.38v60.18c0,28.94-23,52.39-51.31,52.39H133c-28.34,0-51.31-23.45-51.31-52.39V291.93C81.67,263,104.64,239.55,133,239.55Z"/></g><g id="Layer_26" data-name="Layer 26"><path class="cls-2" d="M189.22,254.17a1.3,1.3,0,0,1-.92,1c-1.45.42-2.88.87-4.28,1.34l-2.43.85c-.8.3-1.62.62-2.41.94q-2.38,1-4.67,2c-1.27.61-2.53,1.24-3.75,1.89a1.32,1.32,0,0,1-1.4-.1c-.56-.42-1.14-.8-1.7-1.21l-.7-.5a1.34,1.34,0,0,1-.39-1.85,1.29,1.29,0,0,1,.39-.38c.58-.37,1.17-.74,1.77-1.1,1.19-.72,2.38-1.39,3.62-2s2.51-1.32,3.78-1.93l1.85-.85a1.33,1.33,0,0,0,.67-1.76,1.39,1.39,0,0,0-.4-.5h0l-1.83-1.28c-1.2-.89-2.47-1.66-3.73-2.46-.62-.41-1.27-.77-1.92-1.14l-.43-.25-1.12-.63c-.37-.22-.75-.43-1.13-.61l-2.31-1.16c-.75-.41-1.55-.72-2.33-1.08-1.56-.73-3.17-1.32-4.77-1.95-.8-.32-1.62-.56-2.43-.84s-1.62-.56-2.45-.78l-2.48-.69c-.83-.24-1.68-.4-2.51-.6-1.67-.42-3.37-.67-5.05-1-.85-.16-1.71-.23-2.55-.35s-1.7-.24-2.54-.28c-1.72-.13-3.43-.29-5.15-.3a84.13,84.13,0,0,0-10.29.36l-2.55.32-1.28.17-1.27.22-2.54.45c-.84.18-1.68.38-2.51.57A78.54,78.54,0,0,0,93.88,244a79.69,79.69,0,0,0-29.69,27.93c-.48.71-.88,1.47-1.32,2.21s-.87,1.48-1.26,2.25c-.78,1.52-1.59,3-2.26,4.62a75.55,75.55,0,0,0-3.64,9.63,78.72,78.72,0,0,0-3.36,20.26l-.06,2.57.06,2.58c0,1.72.19,3.43.3,5.14.06.86.21,1.7.3,2.54s.19,1.71.36,2.55c.31,1.69.58,3.39,1,5.05a78.64,78.64,0,0,0,2.94,9.86c.64,1.59,1.23,3.21,2,4.76.37.77.69,1.57,1.08,2.34l1.18,2.29A79.24,79.24,0,0,0,89.23,380.4l1.08.7,1.12.64L93.66,383,96,384.2l1.15.59,1.17.51,2.35,1.06,2.39.94,1.2.47,1.22.41,2.44.82,2.48.71,1.24.35,1.25.29,2.51.58,2.55.46,1.26.22c.43.07.85.11,1.28.17l2.55.32c.85.1,1.71.14,2.54.21s1.71.16,2.57.16l2.58.06H132l1.29,0c.85,0,1.71,0,2.58-.09l2.54-.19c.86-.05,1.71-.17,2.55-.28s1.7-.21,2.54-.33l2.55-.45,1.26-.23,1.26-.29,2.51-.58,2.48-.7,1.23-.36,1.22-.41,2.44-.82,2.4-.94,1.2-.48,1.17-.51,2.34-1.06,2.3-1.17L169,383l1.11-.64,2.23-1.29,2.21-1.38c.36-.24.73-.46,1.08-.7l1-.75c.7-.51,1.41-1,2.1-1.5l2-1.59c.69-.51,1.34-1.08,2-1.65s1.31-1.11,1.94-1.7a79.69,79.69,0,0,0,13.23-15.73,78.55,78.55,0,0,0,8.74-18.59,76,76,0,0,0,2.45-10,78.78,78.78,0,0,0-6.84-48.88,1.32,1.32,0,0,1,.58-1.77l3.39-1.75a1.34,1.34,0,0,1,1.79.57v0a85.41,85.41,0,0,1,7.46,52.94,84,84,0,0,1-12.12,30.94,85.85,85.85,0,0,1-14.29,17c-.68.63-1.39,1.23-2.09,1.84s-1.4,1.22-2.15,1.78l-2.18,1.72c-.75.56-1.53,1.09-2.27,1.63l-1.14.8c-.38.27-.77.51-1.17.76l-2.34,1.53L173.34,388l-1.2.69-1.27.66-2.48,1.27-2.54,1.14-1.27.58-1.3.51-2.59,1-2.64.89-1.32.44-1.35.38-2.67.77L150,397l-1.36.32-1.37.25-2.75.51c-.91.13-1.84.23-2.76.35s-1.84.25-2.77.3l-2.77.21c-.93.07-1.86.06-2.79.1l-1.39,0h-1.39l-2.78-.07c-.93,0-1.86-.1-2.79-.16s-1.85-.13-2.77-.23l-2.77-.35-1.38-.18-1.37-.25-2.74-.51-2.72-.62-1.35-.32-1.35-.38-2.68-.76-2.63-.89L102,393.9l-1.29-.51-2.6-1-2.54-1.14-1.27-.58L93,390l-2.48-1.27-2.41-1.41-1.18-.7-1.17-.75a85.78,85.78,0,0,1-30-32.3l-1.27-2.48c-.43-.83-.78-1.69-1.17-2.55-.8-1.68-1.45-3.42-2.13-5.15a84.68,84.68,0,0,1-3.19-10.69c-.45-1.8-.75-3.63-1.08-5.47-.18-.91-.25-1.83-.39-2.76s-.26-1.83-.32-2.76c-.13-1.85-.33-3.7-.33-5.56l-.07-2.78.07-2.79a84.11,84.11,0,0,1,7.55-32.35c.72-1.71,1.61-3.35,2.45-5,.42-.83.91-1.62,1.36-2.43s.91-1.62,1.43-2.4a85.26,85.26,0,0,1,52.86-38.05c.9-.21,1.81-.43,2.72-.62l2.74-.51,1.37-.24,1.38-.18,2.77-.35a89.88,89.88,0,0,1,11.13-.39c1.85,0,3.7.19,5.56.33.92,0,1.84.2,2.77.31s1.84.2,2.75.37c1.83.33,3.67.61,5.47,1.06.91.22,1.82.39,2.72.64l2.68.78c.9.23,1.77.55,2.66.84s1.77.57,2.63.91c1.73.68,3.47,1.32,5.15,2.11.85.39,1.71.73,2.55,1.17l2.48,1.25c.42.21.83.43,1.23.67l1.21.68.48.27c.69.39,1.4.79,2.07,1.23,1.36.87,2.74,1.71,4,2.66l2,1.39,0,0a1.33,1.33,0,0,0,2.13-.91c.07-.68.14-1.36.19-2,.12-1.48.19-2.94.24-4.44s.08-3,.07-4.53c0-.67,0-1.34,0-2a1.33,1.33,0,0,1,1.28-1.37,1.39,1.39,0,0,1,.75.21c.56.36,1.11.74,1.65,1.13,1.06.75,2.13,1.46,3.15,2.25a1.32,1.32,0,0,1,.51,1.11c-.07,1.63-.18,3.25-.31,4.83-.17,1.84-.39,3.66-.64,5.44-.13.89-.27,1.78-.42,2.65s-.32,1.76-.51,2.66C189.91,251.24,189.58,252.72,189.22,254.17Z"/></g><g id="Layer_40" data-name="Layer 40"><path class="cls-2" d="M160.89,359.31,124,322.44a5.22,5.22,0,0,1-1.53-3.69v-51.3a5.22,5.22,0,0,1,5.22-5.22h0a5.21,5.21,0,0,1,5.21,5.22h0v47a5.19,5.19,0,0,0,1.53,3.69l33.82,33.82a5.21,5.21,0,0,1,0,7.38h0A5.22,5.22,0,0,1,160.89,359.31Z"/></g></g></svg>