<svg xmlns="http://www.w3.org/2000/svg" viewBox="0 0 512 512"><defs><style>.cls-1{fill:#bcbec0;}.cls-2{fill:#f48c96;}.cls-3{fill:#f69ba5;}.cls-4{fill:#dc3f46;}.cls-5{fill:#fff;}</style></defs><g id="Layer_30_copy" data-name="Layer 30 copy"><rect class="cls-1" x="81.67" y="242.94" width="161.56" height="161.56" rx="43.83"/><rect class="cls-1" x="255.29" y="278.17" width="134.73" height="30.38" rx="12.98"/><rect class="cls-1" x="255.29" y="344.34" width="213.25" height="30.38" rx="12.98"/></g><g id="Layer_31" data-name="Layer 31"><path class="cls-2" d="M47.12,131.46c.72-2.77,1.32-5.58,2.19-8.3,1.92-6,4.87-11.48,10.29-15.11,6.23-4.18,12.89-3.71,19.58-1.31,5.15,1.84,8.78,5.62,12.09,9.76,1,1.23,2,2.4,3,3.63.59.75,1.08.75,1.68,0,1.36-1.7,2.75-3.36,4.12-5,5.39-6.6,12.2-10.27,20.87-10.07,6.32.15,11.16,3.08,14.86,8,4.18,5.62,6,12.09,7,18.94,1.53,10.66-3,19.18-9.35,27C123,172,110,181.82,96.11,190.75a1.68,1.68,0,0,1-2.11,0c-12.42-8-24.12-16.9-34.09-27.89-4.94-5.43-9.15-11.37-11.57-18.41-.45-1.3-.45-2.72-1.22-3.91v-4.34a3.82,3.82,0,0,0,0-2.54Z"/><path class="cls-2" d="M186,222.48c.46,2.3,1,4.59,1.38,6.89,1.94,10.26-1.58,19-7.65,27-7.69,10.16-17.29,18.29-27.46,25.82-3.68,2.73-7.45,5.33-11.36,7.74a3.31,3.31,0,0,0-.62.62h-.73c-2.76-1.92-5.51-3.84-8.28-5.75a162.48,162.48,0,0,1-22.35-18.34,85.14,85.14,0,0,1-11.95-14.71c-6.21-9.73-6.07-19.9-2.53-30.38,1.69-5,4.2-9.51,8.32-12.92,6.29-5.22,13.39-5.13,20.68-2.74,5.31,1.74,9.12,5.51,12.49,9.79,1,1.27,2.1,2.49,3.12,3.75.61.75,1.13.74,1.74,0,1.45-1.77,2.95-3.51,4.4-5.28a25.81,25.81,0,0,1,12.91-8.87c.44-.13,1,0,1-.77a26.35,26.35,0,0,1,10.39-.16c6.55,1.43,10.83,5.79,13.9,11.46C184.52,217.77,185.76,219.94,186,222.48Z"/><path class="cls-3" d="M47.12,133.63a2.1,2.1,0,0,1,0,2.54Z"/><path class="cls-4" d="M186,222.48c-1.49-3.14-2.59-6.45-4.64-9.33-3.13-4.39-7-7.6-12.43-8.64a23.32,23.32,0,0,0-7.55,0,3.52,3.52,0,0,1-2.27-.16A105.92,105.92,0,0,1,143.24,187c-7.26-10.12-8.14-21-4.17-32.48a35,35,0,0,1,4.75-9.31c7.21-9.93,18.69-9.86,27.69-5.14,4.44,2.33,7.51,6.17,10.56,10,2.59,3.25,2.61,3.26,5.17,0,2.93-3.7,5.87-7.41,10.08-9.74,9.88-5.46,22.86-5.35,30,7.75,4.76,8.72,6.89,18.05,4.16,27.89-1.84,6.63-5.82,12.16-10.27,17.29C211.07,204.93,198.94,214.24,186,222.48Z"/><path class="cls-5" d="M127.09,133.71c3.39,0,3.6.28,2.89,3.95a37.64,37.64,0,0,1-6.45,14.62c-6,8.53-13.64,15.4-22,21.56-1.16.86-1.72.74-2.5-.46-2.49-3.82-2.49-3.73,1.12-6.54,7.22-5.61,13.91-11.75,19-19.47,2.34-3.57,4.19-7.36,4.58-11.66.16-1.78.86-2.29,2.47-2A5.4,5.4,0,0,0,127.09,133.71Z"/><path class="cls-5" d="M120.67,117.58c0-3.22.5-3.6,3.55-2.37a9,9,0,0,1,5.9,7.2c.21,1.25-.06,2-1.56,1.8a13.09,13.09,0,0,0-2.17,0c-1.34.06-2.66.18-2.94-1.68,0-.35-.54-.62-.79-1-.52-.69-2-.11-2-1.46C120.66,119.27,120.67,118.42,120.67,117.58Z"/><path class="cls-5" d="M175,234.36a34.46,34.46,0,0,1-6.56,16.83c-6,8.67-13.76,15.62-22.2,21.86-1.2.88-1.8.7-2.45-.53s-2.41-2.54-2.15-3.79c.23-1.07,2.1-1.79,3.23-2.68,7.85-6.2,15.21-12.86,20.29-21.64a21.88,21.88,0,0,0,3.35-10.2c0-.9.37-1.32,1.3-1.29a31.22,31.22,0,0,0,3.62,0C174.75,232.82,175.29,233.27,175,234.36Z"/><path class="cls-5" d="M171.89,223.43c-.66,0-1.32,0-2,0s-1.28-.16-1.38-1a2,2,0,0,0-1.35-1.78c-1.88-.36-1.69-1.65-1.64-3,0-.3,0-.6,0-.9,0-3.4.45-3.69,3.69-2.32a9.38,9.38,0,0,1,5.62,6.61c.55,2.11.33,2.37-1.87,2.38Z"/><path class="cls-5" d="M219.79,167.05c-.37,5.87-2.66,11.07-5.85,15.92-6.16,9.36-14.38,16.68-23.37,23.22-.65.47-1,.6-1.53-.23-.85-1.45-2.57-2.85-2.54-4.24s2.32-2.15,3.62-3.17c7.19-5.68,13.87-11.83,18.86-19.61a25.63,25.63,0,0,0,4.41-12.1c.06-.77.29-1.06,1.07-1,1.45,0,2.9,0,4.34,0C219.74,165.77,220,166.2,219.79,167.05Z"/><path class="cls-5" d="M216.55,156.16c-.66,0-1.32,0-2,0s-1.08-.07-1.23-.89a2.59,2.59,0,0,0-2.15-2.17c-.82-.15-1.05-.57-1-1.36.06-1.32.08-2.65,0-4-.05-1,.44-1.17,1.31-1.13,4.15.21,8.3,4.48,8.35,8.6,0,.77-.31.93-.95.92S217.33,156.16,216.55,156.16Z"/></g></svg>