<svg id="Layer_1" data-name="Layer 1" xmlns="http://www.w3.org/2000/svg" viewBox="0 0 512 512"><defs><style>.cls-1{fill:#bcbec0;}.cls-2{fill:#b73339;}</style></defs><g id="Layer_30_copy" data-name="Layer 30 copy"><path class="cls-1" d="M107.36,255.47c-4.46,4.5-9,9-13.42,13.43-3.33-2.58-3.34-2.59-6.41.31l-3.48,3.27a44,44,0,0,1,23.36-25.65,14.52,14.52,0,0,0,.38,7.43A1.54,1.54,0,0,1,107.36,255.47Z"/><path class="cls-1" d="M124.81,247.45c-1.37-1.36-2.69-2.78-3.94-4.26C122.12,244.66,123.44,246.09,124.81,247.45Z"/><path class="cls-2" d="M250,179.59a75.92,75.92,0,0,0-61.26-58c-3.54-.6-7.12-.92-10.68-1.36h-4.71c-2.71.31-5.43.56-8.13,1-19.55,2.84-36,11.75-48.15,27.17-19,24.06-22.46,50.69-10.73,79.09,1.6,3.88,3.85,7.49,5.86,11.36a16.21,16.21,0,0,0-4.83,8.05,14.52,14.52,0,0,0,.38,7.43,1.54,1.54,0,0,1-.43,1.21c-4.46,4.5-9,9-13.42,13.43-3.33-2.58-3.34-2.59-6.41.31L84,272.52q-32.63,30.69-65.27,61.35c-6.42,6-10.2,11.09-6.45,19.08,4.34,9.26,16.07,10.95,23.3,3.3q23.05-24.45,46-48.93l4.42-4.7,17.72-18.85c2-2.1,2-2.48,0-4.65a8.56,8.56,0,0,1-.59-.85c4.5-4.48,8.91-8.94,13.42-13.28a3,3,0,0,1,2.29-.26c4.33,1,8.41.35,11.66-2.67,2.09-1.94,3.43-1.9,5.89-.44,20.29,12.08,41.79,14.41,64.15,6.85a73.18,73.18,0,0,0,26.57-15.58,77.14,77.14,0,0,0,14.44-18.17C251.61,217.48,254.29,199,250,179.59ZM120.52,260.9c-4.6-.88-7.64-3.93-9.13-8.23a8.92,8.92,0,0,1,.63-7.61,12.11,12.11,0,0,1,2.3-2.93l1.8,1.82,13.66,13.76A9.22,9.22,0,0,1,120.52,260.9Zm87.39-17.13a57.68,57.68,0,0,1-31.95,10A55.93,55.93,0,0,1,142.56,243a58.35,58.35,0,0,1-24.08-46.5c-.33-31.27,25.56-57.27,57.19-57.45a57.27,57.27,0,0,1,32.24,104.78ZM244,220.59c-.44,1.25-.92,2.48-1.44,3.7.51-1.22,1-2.45,1.44-3.7s.86-2.51,1.24-3.79A34.92,34.92,0,0,1,244,220.59Zm4.1-20.47c.06-1.23.1-2.46.1-3.71,0-1.62,0-3.22-.15-4.81.11,1.59.16,3.19.16,4.81,0,1.25,0,2.48-.07,3.71Z"/><path class="cls-1" d="M129.78,257.71a9.22,9.22,0,0,1-9.26,3.19c-4.6-.88-7.64-3.93-9.13-8.23a8.92,8.92,0,0,1,.63-7.61,41.34,41.34,0,0,1,4.1-1.11Z"/><path class="cls-1" d="M207.91,243.77a57.68,57.68,0,0,1-31.95,10A55.93,55.93,0,0,1,142.56,243H199.4A43.34,43.34,0,0,1,207.91,243.77Z"/><path class="cls-1" d="M243.23,286.77v73.9A43.83,43.83,0,0,1,199.4,404.5H125.5a43.83,43.83,0,0,1-43.83-43.83h0V307.28l4.42-4.7,17.72-18.85c2-2.1,2-2.48,0-4.65a8.56,8.56,0,0,1-.59-.85c4.5-4.48,8.91-8.94,13.42-13.28a3,3,0,0,1,2.29-.26c4.33,1,8.41.35,11.66-2.67,2.09-1.94,3.43-1.9,5.89-.44,20.29,12.08,41.79,14.41,64.15,6.85a73.18,73.18,0,0,0,26.57-15.58A43.7,43.7,0,0,1,243.23,286.77Z"/><rect class="cls-1" x="255.29" y="278.17" width="134.73" height="30.38" rx="12.98"/><rect class="cls-1" x="255.29" y="344.34" width="213.25" height="30.38" rx="12.98"/></g><path class="cls-2" d="M198.41,203.1H153.22c-2,0-3.25,1.11-3.31,2.79s1.24,2.94,3.31,3c2.34,0,4.68.05,7,0,1,0,1.24.3,1.22,1.24-.05,2.46,0,4.92,0,7.38a8.64,8.64,0,0,0,17.28.08c0-2.34.09-4.68,0-7-.07-1.34.33-1.71,1.69-1.69,6,.07,12,0,18,0a3.1,3.1,0,0,0,3-1.51C202.6,205.29,201.08,203.11,198.41,203.1ZM173,217.45a2.87,2.87,0,0,1-5.74,0h0c0-2.52,0-5,0-7.54,0-1.7,5.27-1.63,5.72,0C173.11,210.63,173,217.4,173,217.45Z"/><path class="cls-2" d="M155.42,177.15a4,4,0,0,1,3,1.48c1.06,1,1.85,2.81,3.15,2.66,1.09-.12,2-1.71,3-2.69.83-.83,1.67-1.6,3-1.44a2.81,2.81,0,0,1,2.34,1.74,2.62,2.62,0,0,1-.47,3q-1.5,1.6-3,3.07c-.62.58-.67,1,0,1.61,1,.89,1.91,1.83,2.81,2.8a2.89,2.89,0,1,1-3.53,4.58,3.41,3.41,0,0,1-.47-.46,17.77,17.77,0,0,1-2.28-2.31c-1-1.36-1.81-1.11-2.77.06a20.4,20.4,0,0,1-2.42,2.41,2.86,2.86,0,0,1-4-4.07,36.69,36.69,0,0,1,2.92-2.93c.69-.63.73-1.09,0-1.74a37.78,37.78,0,0,1-3-3.07,2.61,2.61,0,0,1-.42-3A2.81,2.81,0,0,1,155.42,177.15Z"/><path class="cls-2" d="M198.93,179.76a4.21,4.21,0,0,1-1.72,3.19c-2.84,2.85-2.84,2.85,0,5.66.25.25.52.5.76.76,1.25,1.39,1.31,3,.16,4.19s-2.87,1.18-4.31-.17a34,34,0,0,1-2.53-2.56c-.76-.89-1.29-.76-2,0a33.63,33.63,0,0,1-2.67,2.67,2.88,2.88,0,0,1-4.21-3.93l.15-.15a37.11,37.11,0,0,1,2.81-2.8c.68-.62.76-1.08,0-1.73-.94-.84-1.82-1.75-2.68-2.67-1.36-1.44-1.41-3.11-.18-4.3s2.78-1.07,4.19.16,2.2,3.26,3.67,3.12c1.26-.11,2.34-2,3.52-3.15a2.92,2.92,0,0,1,5,1.66Z"/></svg>