<svg xmlns="http://www.w3.org/2000/svg" xmlns:xlink="http://www.w3.org/1999/xlink" viewBox="0 0 793.57 698.71"><defs><style>.cls-1{isolation:isolate;}.cls-2{opacity:0.1;}.cls-3{fill:#313f5d;}.cls-4,.cls-5{fill:none;}.cls-4{stroke:#000;stroke-miterlimit:10;stroke-width:2px;}.cls-6{fill:#231f20;}.cls-7{opacity:0.3;}.cls-8{fill:url(#linear-gradient);}.cls-9{fill:url(#linear-gradient-2);}.cls-10{fill:url(#linear-gradient-3);}.cls-11{fill:url(#linear-gradient-4);}.cls-12{fill:url(#linear-gradient-5);}.cls-13{fill:#d4b08b;}.cls-14{fill:#c2a281;}.cls-15{fill:#aa8e71;}.cls-16{fill:#ebc199;}.cls-17{fill:#c0a17f;}.cls-18{fill:#f3dbb9;}.cls-19{fill:#f0d9df;}.cls-20{fill:#e9b493;}.cls-21{fill:#252526;}.cls-22{fill:#ef4036;}.cls-23{fill:#585657;}.cls-24{fill:#fff;}.cls-25{fill:#595859;}.cls-26{fill:#d1ad89;}.cls-27{fill:#fff1ca;}.cls-28{fill:#893930;}.cls-29,.cls-32,.cls-38,.cls-42,.cls-45,.cls-48,.cls-49,.cls-50,.cls-54,.cls-57,.cls-71,.cls-73,.cls-80,.cls-82{mix-blend-mode:multiply;}.cls-30{fill:#e6b48e;}.cls-31{fill:#e47747;}.cls-32{fill:#e27546;opacity:0.68;}.cls-33{fill:#fff0c9;}.cls-34,.cls-50{fill:#e6b48f;}.cls-35{fill:#ffbb6e;}.cls-36{fill:#9b3d3e;}.cls-37{fill:#cb7b4c;}.cls-38{opacity:0.53;}.cls-39{fill:#eb804e;}.cls-40,.cls-51{fill:#ffbd6d;}.cls-41,.cls-42{fill:#f4cca3;}.cls-43{fill:#db8b4e;}.cls-44,.cls-45{fill:#f9cdb1;}.cls-46{fill:#c4382b;}.cls-47,.cls-48{fill:#ff8a65;}.cls-49,.cls-50{opacity:0.86;}.cls-51{mix-blend-mode:screen;}.cls-52{fill:#f48d5f;}.cls-53,.cls-54{fill:#dd564f;}.cls-54,.cls-57{opacity:0.62;}.cls-55{fill:#f5905b;}.cls-56{fill:#ffb96d;}.cls-58{fill:#ffbb6f;}.cls-59{fill:#f69a5c;}.cls-60{fill:#f5c9a5;}.cls-61{fill:#fcf8ed;}.cls-62{fill:#e3703a;}.cls-63,.cls-79{fill:#e27038;}.cls-64{fill:#734742;}.cls-65{fill:#3e232c;}.cls-66{fill:#fdf7f4;}.cls-67{fill:#361c26;}.cls-68{fill:#825f5b;}.cls-69{fill:#3f1521;}.cls-70,.cls-71{fill:#8a3b3a;}.cls-71{opacity:0.36;}.cls-72,.cls-73{fill:#ff7e69;}.cls-73,.cls-80{opacity:0.51;}.cls-74{fill:#fbece3;}.cls-75{fill:#feb96d;}.cls-76{fill:#e39556;}.cls-77{fill:#e8885a;}.cls-78{fill:#f3dcc8;}.cls-79{opacity:0.59;}.cls-81{fill:#cc572a;}.cls-82{opacity:0.5;}.cls-83{fill:#ba9a7b;}</style><linearGradient id="linear-gradient" x1="344.32" y1="405.93" x2="344.32" y2="213.62" gradientTransform="matrix(-1, 0, 0, 1, 809.83, 0)" gradientUnits="userSpaceOnUse"><stop offset="0" stop-color="#3f3c3e"/><stop offset="0.14" stop-color="#4e4d4e"/><stop offset="0.32" stop-color="#5b5a5a"/><stop offset="0.55" stop-color="#626262"/><stop offset="1" stop-color="#646464"/></linearGradient><linearGradient id="linear-gradient-2" x1="321.54" y1="213.62" x2="321.54" y2="210.78" xlink:href="#linear-gradient"/><linearGradient id="linear-gradient-3" x1="437.62" y1="438.88" x2="437.62" y2="126.23" xlink:href="#linear-gradient"/><linearGradient id="linear-gradient-4" x1="419.72" y1="473.93" x2="419.72" y2="181.16" gradientTransform="matrix(-1, 0, 0, 1, 809.83, 0)" gradientUnits="userSpaceOnUse"><stop offset="0.08" stop-color="#3f3c3e"/><stop offset="0.46" stop-color="#434042"/><stop offset="0.86" stop-color="#4f4d4e"/><stop offset="1" stop-color="#555354"/></linearGradient><linearGradient id="linear-gradient-5" x1="392.67" y1="281.62" x2="392.67" y2="473.93" gradientTransform="matrix(-1, 0, 0, 1, 809.83, 0)" gradientUnits="userSpaceOnUse"><stop offset="0" stop-color="#3f3c3e"/><stop offset="0.86" stop-color="#101e20"/><stop offset="1" stop-color="#08191b"/></linearGradient></defs><g class="cls-1"><g id="Layer_1" data-name="Layer 1"><g class="cls-2"><path class="cls-3" d="M489.7,597.88c0,.39-.63.7-1.42.7s-1.42-.31-1.42-.7.64-.71,1.42-.71S489.7,597.49,489.7,597.88Z"/><path class="cls-3" d="M659.63,468.16v11H646.09v7.53H633.52v8H610.29v2.56H586v11H565.94v-6.95H552.36V513.7h-4.45v13.73H534.78V539h4.71V541h-8.3v5.63H503.66v33.19h2.16v2.24H501.1V585h-5.45v7.16h-6.57v5.06h-1.59v-5.06H484l-2.14-2.83H467.46V585H429.92V582.1H425.2v-2.24h2.17v-67h-18v47.72h-1.76v3.56h-3.31v11.76h-1.2V564.13h-2.69v9.39h-1.18v-9.39h-5.68v-3.56h-7.17V548.16H372.94v-.88h1.76v-2.49h-8.88v38.75h1.27v1h-9v6h1.17v1H351v3.45h1.28v.74h-4.1v3.25h-3.94v6.48h-1.3v-6.48H341.3v11.62H340V598.93h-3.93v-3.25h-3.57v-.74h.74v-3.45h-8.28v-1h1.17v-6h-9v-1h1.27V532.9H290.74v-7h-9.87v37.45h5.81v.95h-5.81V566h-7.38v2.79H237.83v32.09h-8.41v25.62h-16.3v3.9h-2.3v-3.9h-5v3.9h-2.29v-3.9H177.69V611.24H173V600.85H159.92V562.09h-5.07v-9l-7.45.91v2.05h-6.49v-1.27l-6.79.82V468.16Z"/></g><path class="cls-4" d="M56.09,486.74H517.87"/><rect class="cls-5" x="87.56" y="472.74" width="18.88" height="15"/><rect class="cls-6" x="91.91" y="479.48" width="10.17" height="1.5"/><rect class="cls-6" x="88.34" y="479.49" width="2.03" height="1.5"/><rect class="cls-6" x="103.6" y="479.49" width="2.03" height="1.5"/><rect class="cls-5" x="106.44" y="472.74" width="18.88" height="15"/><rect class="cls-6" x="110.79" y="479.48" width="10.17" height="1.5"/><rect class="cls-6" x="107.22" y="479.49" width="2.03" height="1.5"/><rect class="cls-6" x="122.48" y="479.49" width="2.03" height="1.5"/><rect class="cls-5" x="125.32" y="472.74" width="18.88" height="15"/><rect class="cls-6" x="129.67" y="479.48" width="10.17" height="1.5"/><rect class="cls-6" x="126.1" y="479.49" width="2.03" height="1.5"/><rect class="cls-6" x="141.36" y="479.49" width="2.03" height="1.5"/><rect class="cls-5" x="144.2" y="472.74" width="18.88" height="15"/><rect class="cls-6" x="148.55" y="479.48" width="10.17" height="1.5"/><rect class="cls-6" x="144.98" y="479.49" width="2.03" height="1.5"/><rect class="cls-6" x="160.24" y="479.49" width="2.03" height="1.5"/><rect class="cls-5" x="163.08" y="472.74" width="18.88" height="15"/><rect class="cls-6" x="167.43" y="479.48" width="10.17" height="1.5"/><rect class="cls-6" x="163.86" y="479.49" width="2.03" height="1.5"/><rect class="cls-6" x="179.12" y="479.49" width="2.03" height="1.5"/><rect class="cls-5" x="181.96" y="472.74" width="18.88" height="15"/><rect class="cls-6" x="186.31" y="479.48" width="10.17" height="1.5"/><rect class="cls-6" x="182.74" y="479.49" width="2.03" height="1.5"/><rect class="cls-6" x="198" y="479.49" width="2.03" height="1.5"/><rect class="cls-5" x="200.84" y="472.74" width="18.88" height="15"/><rect class="cls-6" x="205.19" y="479.48" width="10.17" height="1.5"/><rect class="cls-6" x="201.62" y="479.49" width="2.03" height="1.5"/><rect class="cls-6" x="216.88" y="479.49" width="2.03" height="1.5"/><rect class="cls-5" x="219.72" y="472.74" width="18.88" height="15"/><rect class="cls-6" x="224.07" y="479.48" width="10.17" height="1.5"/><rect class="cls-6" x="220.5" y="479.49" width="2.03" height="1.5"/><rect class="cls-6" x="235.76" y="479.49" width="2.03" height="1.5"/><rect class="cls-5" x="238.6" y="472.74" width="18.88" height="15"/><rect class="cls-6" x="242.95" y="479.48" width="10.17" height="1.5"/><rect class="cls-6" x="239.38" y="479.49" width="2.03" height="1.5"/><rect class="cls-6" x="254.64" y="479.49" width="2.03" height="1.5"/><rect class="cls-5" x="257.48" y="472.74" width="18.88" height="15"/><rect class="cls-6" x="261.83" y="479.48" width="10.17" height="1.5"/><rect class="cls-6" x="258.26" y="479.49" width="2.03" height="1.5"/><rect class="cls-6" x="273.52" y="479.49" width="2.03" height="1.5"/><rect class="cls-5" x="276.36" y="472.74" width="18.88" height="15"/><rect class="cls-6" x="280.71" y="479.48" width="10.17" height="1.5"/><rect class="cls-6" x="277.14" y="479.49" width="2.03" height="1.5"/><rect class="cls-6" x="292.4" y="479.49" width="2.03" height="1.5"/><rect class="cls-5" x="295.24" y="472.74" width="18.88" height="15"/><rect class="cls-6" x="299.59" y="479.48" width="10.17" height="1.5"/><rect class="cls-6" x="296.02" y="479.49" width="2.03" height="1.5"/><rect class="cls-6" x="311.28" y="479.49" width="2.03" height="1.5"/><rect class="cls-5" x="314.12" y="472.74" width="18.88" height="15"/><rect class="cls-6" x="318.47" y="479.48" width="10.17" height="1.5"/><rect class="cls-6" x="314.9" y="479.49" width="2.03" height="1.5"/><rect class="cls-6" x="330.16" y="479.49" width="2.03" height="1.5"/><rect class="cls-5" x="333" y="472.74" width="18.88" height="15"/><rect class="cls-6" x="337.35" y="479.48" width="10.17" height="1.5"/><rect class="cls-6" x="333.78" y="479.49" width="2.03" height="1.5"/><rect class="cls-6" x="349.04" y="479.49" width="2.03" height="1.5"/><rect class="cls-5" x="351.88" y="472.74" width="18.88" height="15"/><rect class="cls-6" x="356.23" y="479.48" width="10.17" height="1.5"/><rect class="cls-6" x="352.66" y="479.49" width="2.03" height="1.5"/><rect class="cls-6" x="367.92" y="479.49" width="2.03" height="1.5"/><rect class="cls-5" x="370.76" y="472.74" width="18.88" height="15"/><rect class="cls-6" x="375.11" y="479.48" width="10.17" height="1.5"/><rect class="cls-6" x="371.54" y="479.49" width="2.03" height="1.5"/><rect class="cls-6" x="386.8" y="479.49" width="2.03" height="1.5"/><rect class="cls-5" x="389.64" y="472.74" width="18.88" height="15"/><rect class="cls-6" x="393.99" y="479.48" width="10.17" height="1.5"/><rect class="cls-6" x="390.42" y="479.49" width="2.03" height="1.5"/><rect class="cls-6" x="405.68" y="479.49" width="2.03" height="1.5"/><rect class="cls-5" x="408.52" y="472.74" width="18.88" height="15"/><rect class="cls-6" x="412.87" y="479.48" width="10.17" height="1.5"/><rect class="cls-6" x="409.3" y="479.49" width="2.03" height="1.5"/><rect class="cls-6" x="424.56" y="479.49" width="2.03" height="1.5"/><rect class="cls-5" x="427.4" y="472.74" width="18.88" height="15"/><rect class="cls-6" x="431.75" y="479.48" width="10.17" height="1.5"/><rect class="cls-6" x="428.18" y="479.49" width="2.03" height="1.5"/><rect class="cls-6" x="443.44" y="479.49" width="2.03" height="1.5"/><rect class="cls-5" x="446.28" y="472.74" width="18.88" height="15"/><rect class="cls-6" x="450.63" y="479.48" width="10.17" height="1.5"/><rect class="cls-6" x="447.06" y="479.49" width="2.03" height="1.5"/><rect class="cls-6" x="462.32" y="479.49" width="2.03" height="1.5"/><rect class="cls-5" x="465.16" y="472.74" width="18.88" height="15"/><rect class="cls-6" x="469.51" y="479.48" width="10.17" height="1.5"/><rect class="cls-6" x="465.94" y="479.49" width="2.03" height="1.5"/><rect class="cls-6" x="481.2" y="479.49" width="2.03" height="1.5"/><rect class="cls-5" x="484.04" y="472.74" width="18.88" height="15"/><rect class="cls-6" x="488.39" y="479.48" width="10.17" height="1.5"/><rect class="cls-6" x="484.83" y="479.49" width="2.03" height="1.5"/><rect class="cls-6" x="500.08" y="479.49" width="2.03" height="1.5"/><rect class="cls-5" x="502.92" y="472.74" width="18.88" height="15"/><rect class="cls-6" x="507.27" y="479.48" width="10.17" height="1.5"/><rect class="cls-6" x="503.71" y="479.49" width="2.03" height="1.5"/><rect class="cls-6" x="518.96" y="479.49" width="2.03" height="1.5"/><g class="cls-7"><polygon class="cls-8" points="503.66 405.93 427.36 405.93 427.36 248.55 425.19 248.55 425.19 244.05 429.93 244.05 429.93 238.29 467.47 238.29 467.47 229.54 481.81 229.54 483.95 223.83 487.49 223.83 487.49 213.62 488.28 213.62 489.07 213.62 489.07 223.83 495.65 223.83 495.65 229.54 495.65 236.13 495.65 238.29 501.1 238.29 501.1 244.05 505.83 244.05 505.83 248.55 503.66 248.55 503.66 405.93"/><path class="cls-9" d="M486.86,212.2a1.42,1.42,0,1,1,1.42,1.42A1.43,1.43,0,0,1,486.86,212.2Z"/><polygon class="cls-10" points="365.82 415.15 365.82 241.13 367.08 241.13 367.08 239.12 358.06 239.12 358.06 227.02 359.23 227.02 359.23 225.09 350.95 225.09 350.95 218.13 352.24 218.13 352.24 216.65 348.12 216.65 348.12 210.08 344.19 210.08 344.19 197.01 342.88 197.01 342.88 210.08 341.29 210.08 341.29 186.64 339.98 186.64 339.98 210.08 336.05 210.08 336.05 216.65 332.48 216.65 332.48 218.13 333.22 218.13 333.22 225.09 324.94 225.09 324.94 227.02 326.11 227.02 326.11 239.12 317.09 239.12 317.09 241.13 318.35 241.13 318.35 415.15 245.05 415.15 245.05 284.42 237.83 284.42 237.83 206.19 229.41 206.19 229.41 154.5 213.12 154.5 213.12 126.23 210.82 126.23 210.82 154.5 205.77 154.5 205.77 131.91 203.48 131.91 203.48 154.5 177.7 154.5 177.7 185.24 173.02 185.24 173.02 206.19 159.92 206.19 159.92 284.42 154.85 284.42 154.85 415.15 134.12 415.15 134.12 438.88 610.29 438.88 610.29 415.15 365.82 415.15"/></g><polygon class="cls-11" points="610.29 436.51 610.29 423.45 586.02 423.45 586.02 392.85 565.94 392.85 565.94 406.88 547.91 406.88 547.91 354.34 534.77 354.34 534.77 331.05 539.5 331.05 539.5 326.87 531.19 326.87 531.19 315.53 495.64 315.53 495.64 326.87 484.02 326.87 484.02 315.53 478.05 315.53 478.05 326.87 472.08 326.87 472.08 315.53 465.51 315.53 465.51 326.87 451.78 326.87 451.78 331.05 453.87 331.05 453.87 392.85 409.38 392.85 409.38 287.46 407.61 287.46 407.61 280.3 404.31 280.3 404.31 256.56 403.11 256.56 403.11 280.3 400.43 280.3 400.43 261.34 399.23 261.34 399.23 280.3 393.56 280.3 393.56 287.46 386.39 287.46 386.39 392.85 364.9 392.85 364.9 360.61 351.62 360.61 351.62 343.29 290.74 343.29 290.74 357.47 280.87 357.47 280.87 281.9 286.69 281.9 286.69 279.99 280.87 279.99 280.87 276.57 273.49 276.57 273.49 270.95 213.15 270.95 213.15 276.57 205.77 276.57 205.77 279.99 199.95 279.99 199.95 281.9 205.77 281.9 205.77 403.3 134.12 403.3 134.12 473.94 646.09 473.94 646.09 436.51 610.29 436.51"/><polygon class="cls-12" points="633.52 451.71 633.52 420.31 604.69 420.31 604.69 457.14 582.77 457.14 582.77 427.84 552.36 427.84 552.36 382.05 517.33 382.05 517.33 440.02 475.72 440.02 475.72 361.86 463.03 361.86 463.03 357.36 447.45 357.36 447.45 361.86 440.46 361.86 440.46 383.75 403.86 383.75 403.86 387.03 409.03 387.03 409.03 423.27 394.48 423.27 394.48 314.28 396.32 314.28 396.32 312.52 372.95 312.52 372.95 314.28 374.7 314.28 374.7 319.3 343.85 319.3 343.85 459.33 320.54 459.33 308.93 416.44 286.69 416.44 286.69 382.76 263.85 382.76 263.85 368.26 266.59 368.26 266.59 366.81 261.92 366.81 261.92 343.41 261.03 343.41 261.03 366.81 257.45 366.81 257.45 362.25 256.25 362.25 256.25 366.81 245.05 366.81 245.05 368.26 247.58 368.26 247.58 382.76 243.32 382.76 243.32 426.91 208.71 426.91 208.71 375.14 174.94 375.14 174.94 459.33 174.68 459.33 174.68 473.94 659.63 473.94 659.63 451.71 633.52 451.71"/><path class="cls-13" d="M680.44,540.1c-6.44-13.87-15.85-77-16.11-90-.27-13.82-1.22-35.86-3.94-41.7s-14.82-29.93-18.22-44-9.06-26.74-12.32-33.88.16-25.37-8.31-24.44c-31.4,3.44-14,61.46-14.28,65.91s3.06,19.75,4.66,28.8,2.66,25.32-.15,25.68-5.79,2.94-8.17,5-13.54-6-13.54-6L453.87,405s-11-5.84-21.42-1-10.79,19-9.66,24.87c1,5.48,19.07,31.36,19.07,31.36-12.38,9.17-6.84,34,28.29,54.35,10.72,6.19,33.93,39.22,41.27,51.45,14.51,24.17,36.05,37.68,48,41,39.18,6.07,58.25-36.83,91.46-47.9C661.71,555.29,670.13,546.52,680.44,540.1Z"/><path class="cls-14" d="M473.25,479.64s1.07,11.68-9.91,16.86c0,0,3.87-8.67-.43-8.52-7.63.25-9.74-1.24-9.74-1.24S462.54,487.24,473.25,479.64Z"/><path class="cls-14" d="M455,456.88s-.21,46.06,34.33,46.06c32,0,35.44-6.44,100.84-6.44,18.35,0,9.82-58.18,4.26-60.17S455,456.88,455,456.88Z"/><path class="cls-15" d="M455.14,429.81s-20.68,6.76-23.22,4.08L455,454.23Z"/><path class="cls-16" d="M456.52,374.62c1.35-3.58.15-12.92-1.27-20-1.55-7.71-6.56-11.66-12.92-11.55s-13.79,6.33-14.53,9.83-5.2,15.23-2.11,22.48c2.22,5.21,24.86,39.85,29.2,44.9,0,0,.16-8.94.16-16.31l0-26.88Z"/><path class="cls-17" d="M438.37,375.87c3.13,9.36,9.42,5.8,9.73,13.28L455,420.27V377.08l1.5-2.46c1.61-3.34.12-13.15-1.31-20.25a18.3,18.3,0,0,0-1.34-4.18C454.71,361.81,450.5,374.65,438.37,375.87Z"/><path class="cls-18" d="M430.73,380.24c-2.11-3.83-4.31-8.56-5-13.21-.17-.64-.34-1.28-.52-1.92,0,0-.14-.35-.3-.8-.57,3.79-.64,7.75.69,10.89,2,4.66,12.92,20.8,16.63,26.9l3.18.31C443.82,400.15,432,382.53,430.73,380.24Z"/><path class="cls-19" d="M439,345.78s-7-2.12-9.94,8.74,2.5,14.51,2.9,15.53-1.54,1.22-2.35.74-6-5.85-.94-18.38C432.43,343.21,439,345.78,439,345.78Z"/><path class="cls-20" d="M438.26,345.61s-7-2.11-9.94,8.75,2,14.46,2.42,15.48-1.07,1.27-1.87.79-6-5.82-.95-18.39C431.48,343.34,438.26,345.61,438.26,345.61Z"/><path class="cls-16" d="M579.65,630.37h164c-29.87-43-59-84.71-62-88.18a9.49,9.49,0,0,1-1.23-2.09c-10.31,6.42-19,16-30.52,15.5-50.58-2.3-48,60.59-90.52,51.47,2,.55,3.47,1,4.33,1.29C565.36,609,571.51,617.79,579.65,630.37Z"/><path class="cls-14" d="M470.15,514.6c10.72,6.19,33.93,39.22,41.27,51.45,14.51,24.17,36.05,37.68,48,41,8.55,2.47,12.71,10.4,20.44,23.3H595c8.84-11.51,20.29-32,14.53-56.21,0,0-14.19,23.65-50.09,18.73-11.93-3.34-33.47-16.85-48-41-7.34-12.23-30.55-45.26-41.27-51.46-19.25-11.14-29.6-23.64-33-34.17C432.26,477.8,441,497.74,470.15,514.6Z"/><path class="cls-21" d="M586.45,187.48l-82.13.24h-3.06l-8.15,0-10.27,0-4,0H477.3a23.71,23.71,0,0,0-7.22,1.09h0a21.51,21.51,0,0,0-6.8,3.54,17.16,17.16,0,0,0-1.39,1.19,17.58,17.58,0,0,0-1.47,1.52,19.71,19.71,0,0,0-1.72,2.28,20.35,20.35,0,0,0-2.6,5.91c-.13.52-.26,1.07-.36,1.62-.06.34-.12.69-.16,1a21.33,21.33,0,0,0-.22,2.42c0,.29,0,.58,0,.87v5.56l0,.45v19.77l0,3.23v21.76l0,1.14v13.05l0,21.2v8.23l0,23.21,0,27.21v3.28l0,19.54,0,28.29v2.74l0,7.21v23.73l0,12.49a4,4,0,0,0,0,.49,18,18,0,0,0,.16,2.46,19,19,0,0,0,.44,2.45,19.39,19.39,0,0,0,1.06,3.31c.14.35.29.68.46,1a16.66,16.66,0,0,0,.87,1.61,19.91,19.91,0,0,0,4.79,5.46,20.41,20.41,0,0,0,3,2,23.25,23.25,0,0,0,11.1,2.71h2.28l101.59-.3h5.26a22.82,22.82,0,0,0,13.71-4.38,15.68,15.68,0,0,0,1.49-1.23,20.93,20.93,0,0,0,6.79-15.88l0-12.17V423.45l0-3.15v-5.37l0-34.45h0v-7.54s0,0,0,0v-1.75l.08-57.56v-.47L608.37,209C608.38,196,598.54,187.48,586.45,187.48Z"/><polygon class="cls-22" points="466.3 226.73 466.02 425.59 598.29 425.45 598.58 226.6 466.3 226.73"/><rect class="cls-21" x="515.36" y="439.48" width="34.73" height="15.97"/><path class="cls-23" d="M516.85,440.71v13.52h32.2V440.71ZM548,453.26H517.87V441.69H548Z"/><g class="cls-2"><polygon class="cls-24" points="550.09 455.45 550.09 439.48 520.34 439.48 542.21 455.45 550.09 455.45"/></g><g class="cls-2"><path class="cls-24" d="M608.37,209c0-12.92-9.83-21.48-21.93-21.48l-93.33.28,115,227.19Z"/></g><path class="cls-25" d="M546.22,205.77a1.66,1.66,0,0,1-1.7,1.62H518.87a1.67,1.67,0,0,1-1.71-1.62h0a1.67,1.67,0,0,1,1.71-1.63h25.65a1.67,1.67,0,0,1,1.7,1.63Z"/><path class="cls-21" d="M546.22,205.35a1.67,1.67,0,0,1-1.7,1.64H518.87a1.68,1.68,0,0,1-1.71-1.64h0a1.67,1.67,0,0,1,1.71-1.62h25.65a1.66,1.66,0,0,1,1.7,1.62Z"/><path class="cls-16" d="M675.06,518c-5.17-24.24-10.12-59.75-10.31-69.11-.27-13.82-1.22-35.86-3.94-41.71s-14.82-29.92-18.22-44-9.07-26.74-12.33-33.88.17-25.37-8.3-24.44c-31.41,3.44-13.48,62-13.8,66.41-.18,2.61.74,8.8,1.85,15.29.79,4.56,1.66,9.28,2.32,13,1.59,9.05-3.19,26.18-5.39,28-26.52,21.85-27.24,50.28-29.5,70.6-5,45.42,31.34,75.08,31.34,75.08s8.06,14.88,50.65-19.37C675.06,541.37,678,530.55,675.06,518Z"/><path class="cls-13" d="M619.13,630.37c-2.19-3.35-4.15-6.19-5.78-8.35-1.28-1.7-1.3-16.12-2.52-30.3-1.28,14.06-7.27,27.27-16,38.65Z"/><path class="cls-18" d="M622.1,574.64s29.6,1.81,53.15-9.66l46.43,65.39H745c-30.16-43.46-59.77-85.89-62.81-89.39-6.38-7.36-17.07-78.23-17.34-92.06s-1.22-35.86-3.94-41.71-14.83-29.92-18.22-44-9.07-26.74-12.33-33.88.16-25.37-8.3-24.44c0,0,3.77,2.1,5.24,23,.56,7.83,7,18.47,10.43,32.52s11.61,39.75,14.34,45.6,3.67,27.88,3.94,41.7c.22,11.33,7.43,60.92,13.54,82.53C670.94,535,675.08,553.85,622.1,574.64Z"/><path class="cls-16" d="M457.21,424.91c1.72-6.38-1.4-17.28-3.64-19.44s-11-5.83-21.43-1-10.62,19.56-9.18,25.14c.75,2.92,6.08,2.67,10.86,5.25C443.79,437.87,453.83,437,457.21,424.91Z"/><path class="cls-13" d="M435.44,431c-6.1-.95-10-6.15-10.73-9.07a27.75,27.75,0,0,1-.51-8.61A29.21,29.21,0,0,0,423,429.63c.74,2.92,5.08,6,10.37,7.65,10.66,3.3,20.5-.27,23.88-12.37a16.25,16.25,0,0,0,.49-4.2C453.61,429.93,445.19,432.49,435.44,431Z"/><path class="cls-16" d="M422.52,420.27s-.59,6.05.44,9.36,5.42,10.63,18.9,30.62a52.48,52.48,0,0,1,4.76-2.84S423.85,435.16,422.52,420.27Z"/><path class="cls-20" d="M446.62,404.59s-3,.7-4.39,9.51.13,10.47.13,10.47.12,2.59-8,.48c-3.67-.95-4.28-7.62-3.46-12.26a11,11,0,0,1,8.68-8.53C443.07,403.83,446.7,403.43,446.62,404.59Z"/><path class="cls-26" d="M433.17,425c-3.68-.95-4.28-7.62-3.46-12.26s5.38-7.89,8.88-8.32a54,54,0,0,1,6.86-.6c-1-.48-5.18.06-8,.4a10.8,10.8,0,0,0-8.76,8.3c-.82,4.65-.22,11.31,3.45,12.26q1.16.3,2.1.48Z"/><path class="cls-19" d="M442.23,414.1c1.37-8.81,4.39-9.51,4.39-9.51a.53.53,0,0,0-.33-.5c-.21.09-.43.16-.64.24v.05s-3,.71-4.38,9.51c-1.08,6.9-.39,9.42,0,10.19a10.22,10.22,0,0,1,1,.88,1,1,0,0,0,.14-.39S440.86,422.9,442.23,414.1Z"/><path class="cls-16" d="M442.42,460.94a26.71,26.71,0,0,1,8.88-5c5.95-2.2,12.81-5.94,17.42-6.54s11.18.36,13.3,10.05-5.34,17.63-9.92,20.85-15.62,8.22-23.2,5.88S436.06,473.88,442.42,460.94Z"/><path class="cls-20" d="M471.44,452.92c.63.48-1.14,5.62-.38,9.82.8,4.39-.46,6.19-5.45,7.45-4,1-4.74,0-5.91-1.26s-1.95-4.29-1.61-7.23,1.54-4.4,6.07-6.26C468,453.85,470.8,452.45,471.44,452.92Z"/><path class="cls-26" d="M458.59,469.25C457.42,468,456.64,465,457,462s2.64-4.71,7.17-6.57c3-1.23,5.75-2.58,7-2.61a2.94,2.94,0,0,0-.53-.08c-.81,0-3.41.93-7.27,2.52-4.54,1.86-6.84,3.64-7.18,6.57s.45,6,1.61,7.23a3.85,3.85,0,0,0,2.66,1.65A4.67,4.67,0,0,1,458.59,469.25Z"/><path class="cls-19" d="M470.52,466.05a8.55,8.55,0,0,1-.09,1.67c.91-1.17,1.05-2.73.64-5-.76-4.21,1-9.34.37-9.82a.52.52,0,0,0-.28-.09,6.11,6.11,0,0,1-.32.74c.19,1.2-1.18,5.75-.49,9.55A9.85,9.85,0,0,1,470.52,466.05Z"/><path class="cls-20" d="M626.9,306.24c-.42-.9-4.65,2.63-4.87,4.87s5.05,16.95,8.27,24.78c0,0,2.32-.51,2.28-1.36S631.33,316,626.9,306.24Z"/><path class="cls-19" d="M627.11,306.73c-.08-.16-.14-.33-.21-.49-.42-.9-4.65,2.63-4.87,4.87a4.72,4.72,0,0,0,.13,1.25C622.35,310.44,625.85,307.08,627.11,306.73Z"/><path class="cls-27" d="M394.64,249.35s-20.95-.09-20.93-19.84c.34-12.87,10.12-19,17.91-20.18,0,0-4.89-1.81-9.31.53a16.51,16.51,0,0,1,6.37-3.44s-18.05-6.28-29.12,11.34.35,38.5,19.49,43.64Z"/><path class="cls-28" d="M368.07,215.91c1.15-3.88,6.79-6.1,6.79-6.1l-3.66,9.58a4.21,4.21,0,0,1,5.67-.73,21.33,21.33,0,0,1,14.75-9.33s-4.89-1.81-9.31.53a16.51,16.51,0,0,1,6.37-3.44s-15.22-5.29-26.29,7.51A6.43,6.43,0,0,1,368.07,215.91Z"/><g class="cls-29"><path class="cls-30" d="M394.64,249.35s-20.95-.09-20.93-19.84c.34-12.87,10.12-19,17.91-20.18,0,0-4.89-1.81-9.31.53a16.51,16.51,0,0,1,6.37-3.44,25.63,25.63,0,0,0-8.15-1.08c-6.62,3.67-13.37,10.48-14.91,24.24-.45,8.43,2.51,14.7,9.53,17.61,5.37,1.85-3.56,12.8-12.27,4.34a33.4,33.4,0,0,0,16.17,9.87Z"/></g><g class="cls-29"><path class="cls-30" d="M382.54,246c-.15.31-.28.61-.43.91a30.93,30.93,0,0,1-5.35,7.79,14.12,14.12,0,0,1-5.38,3.61,34.11,34.11,0,0,0,7.67,3.13l15.59-12A27.09,27.09,0,0,1,382.54,246Z"/></g><path class="cls-31" d="M407.16,296.63A51,51,0,0,0,418.39,311c2.14,2.06-.84,4.6.24,15.3,1.23,10.57,6.1,14.88,20.35,14.89,9.9-.08,13.49-2.59,12.39-7.29s-5.51-6.44-10.79-8.68-6.14-3-5.94-6.76,5.37-7.29,6.53-10c3.09-7.19-1.1-18.66-11.41-16.51S407.16,296.63,407.16,296.63Z"/><path class="cls-32" d="M451.37,333.93c-.78-3.34-3.22-5.18-6.46-6.76-6,2.36-20.61.36-21.58-7.87-1.07-9.14,7.66-7.38,3.59-8.89-8.11-3.55-15.86-9.15-9.59-9.85a70.12,70.12,0,0,0,21.8-5.74,9.32,9.32,0,0,0-9.37-2.84c-10.32,2.15-22.6,4.65-22.6,4.65A51,51,0,0,0,418.39,311c2.14,2.06-.84,4.6.24,15.3,1.23,10.57,6.1,14.88,20.35,14.89C448.88,341.14,452.47,338.63,451.37,333.93Z"/><path class="cls-33" d="M451.37,333.93c-.65-2.79-2.47-4.53-4.93-5.95-1.33,1.71-6.35,2.6-15.55.63-12.41-2.66-10.51-10.71-10.1-13.49.16-1.06-.61-1.86-1.62-2.44.17,2.08-1.37,5.49-.54,13.65,1.23,10.57,6.1,14.88,20.35,14.89C448.88,341.14,452.47,338.63,451.37,333.93Z"/><path class="cls-34" d="M451.37,333.93c-.65-2.79-2.47-4.53-4.93-5.95-1.33,1.71-6.35,2.6-15.55.63-12.41-2.66-10.51-10.71-10.1-13.49.16-1.06-.61-1.86-1.62-2.44.17,2.08-1.37,5.49-.54,13.65,1.23,10.57,6.1,14.88,20.35,14.89C448.88,341.14,452.47,338.63,451.37,333.93Z"/><path class="cls-35" d="M516.54,298.33s-1.93-2.15-8-10.78-4.72-9.87-5.31-20.83c-.68-16.24-8.3-22.66-8.3-22.66-2.83,36-16.69,46-16.69,46s15,19.6,34.68,27.35l.42.19C511.58,312.89,510.16,305.1,516.54,298.33Z"/><path class="cls-33" d="M531.27,292.7c-9.63.22-14.73,5.63-14.73,5.63-6.38,6.77-5,14.56-3.22,19.23,14.5,6.75,22,1.48,28.33-9.15S540.9,292.48,531.27,292.7Z"/><path class="cls-36" d="M524.06,307.55c-7.78,5.09-7.5,9.24-5.49,12,11.15,3.29,17.56-1.9,23.08-11.17a22.75,22.75,0,0,0,1.35-2.63C542.35,300.91,534.48,301.24,524.06,307.55Z"/><path class="cls-37" d="M525.54,293.49a7.83,7.83,0,0,1,3.25,1.2,6.8,6.8,0,0,1,2.39,2.6,6.67,6.67,0,0,1,.7,3.47,9.15,9.15,0,0,1-.26,1.73c-.18.55-.38,1.1-.6,1.62.05-.58.17-1.13.22-1.69l0-.83a4.59,4.59,0,0,0,0-.83l-.06-.82c0-.26-.11-.53-.17-.79a4,4,0,0,0-.23-.77,3.94,3.94,0,0,0-.32-.73,7.41,7.41,0,0,0-2.06-2.47A12.18,12.18,0,0,0,525.54,293.49Z"/><path class="cls-37" d="M534.51,292.85a7.92,7.92,0,0,1,2.85,1.3,7,7,0,0,1,2.16,2.39,6.92,6.92,0,0,1,.56,1.54,6.38,6.38,0,0,1,.06,1.63,6,6,0,0,1-.35,1.56,11.51,11.51,0,0,1-.69,1.41c.09-.52.26-1,.32-1.51a8.31,8.31,0,0,0,.11-1.49,6.91,6.91,0,0,0-.17-1.44,6.45,6.45,0,0,0-.53-1.34,8.17,8.17,0,0,0-1.84-2.27A15.3,15.3,0,0,0,534.51,292.85Z"/><g class="cls-38"><path class="cls-39" d="M489,298.26c4-11.87,11.31-17.1,15-19.07-.82-3.11-.51-6.2-.85-12.47-.68-16.24-8.3-22.66-8.3-22.66-2.83,36-16.69,46-16.69,46s15,19.6,34.68,27.35l.42.19a19.94,19.94,0,0,1-1-11.59C503.21,310.27,498,307.47,489,298.26Z"/></g><path class="cls-40" d="M442.74,212a21.92,21.92,0,0,1-9.63,16.7c-10.54,7.06-23.87,13.68-33.35,16.85-10.33,3.12-32.19,15.29-32.72,49.5,0,4.86.18,5.83-3.32,6.48S349,301,348.24,316s4.7,19.49,15.53,20.43,16.3-7.38,2.48-19.59c20.07.35,32.55-5.09,37.17-17.75,0,0,17.57-.66,30.22-4.48a21.53,21.53,0,0,1,5.46,10.9c1.09,6.62,1.31,12.41,10,14.18,6.38,3.36,12.21,2.23,13.18,1.36,5.18,1.33,15.07-4.58,3.83-20.14,8.36-1.78,24.92-15.87,29-38.48S493,219.25,493,219.25Z"/><path class="cls-33" d="M436.88,299.12a20.6,20.6,0,0,1,2.22,6.38c1.09,6.62,1.31,12.41,10,14.18,6.38,3.36,12.21,2.23,13.18,1.36,5.18,1.33,15.07-4.58,3.83-20.14C461.61,312.15,443.36,302.87,436.88,299.12Z"/><g class="cls-38"><path class="cls-39" d="M469.31,314.85c-2.24,2.68-.45-4.58-5.86-8.19,2.25,7.12-.6,11.34-5,11.11s-1.4-6.55-4-9.84c0,0-.2,10.31-7.62,8.52-5.35-1.51-.95-8.62-7.28-17.88s-16.9-20.85-12.49-31.46c0,0-6.71,5.61-2.35,17.26-1.77.2-5.47-5.24-3.76-17.86,0,0-3.13,5-4.14,14.31-1.45,7.7-8.66,6.8-11.87-1.15a17.36,17.36,0,0,0-11.12-10.45s11.45,9.17,5.32,26.74-30.11,19.93-37.4,15.65c-.35,6.46,9.21,7.23,11,16.93.18,3.94-4.06,4.56-3.66,1.72A13.15,13.15,0,0,0,368,324s1.64,8.75-4.19,9.11-.77-4.33-3.93-9.79c-.68,6.44-8.4,6.87-9.39-3.73-.37-9.36,3-15.32,8.4-14.94,10.49.73,8.48-2.38,8-6-.19,1.85-.86,2.44-3.24,2.88-3.5.65-14.68-.55-15.48,14.48s4.7,19.49,15.53,20.43,16.3-7.38,2.48-19.59c20.07.35,32.55-5.09,37.17-17.75,0,0,17.57-.66,30.22-4.48a21.53,21.53,0,0,1,5.46,10.9c1.09,6.62,1.31,12.41,10,14.18,6.38,3.36,12.21,2.23,13.18,1.36,4.88,1.25,13.95-3.93,5.54-17.58l-.18-.07S472.17,310.45,469.31,314.85Z"/></g><path class="cls-33" d="M495.1,262.42c4.06-22.61-2.11-43.17-2.11-43.17L442.74,212a21.7,21.7,0,0,1-3,9.71c5,5.61,12.32,15.51,14.57,27.32,2.73,18.42,1.49,21.8-2.91,29.77,6.86,10.44,14.73,22.12,14.73,22.12C474.48,299.12,491,285,495.1,262.42Z"/><path class="cls-41" d="M495.1,262.42c4.06-22.61-2.11-43.17-2.11-43.17L442.74,212a21.94,21.94,0,0,1-5.6,13.22c10.92,8.1,40.71,31,42.72,40.82,1.59,9.16-15.65,21.21-18.58,22.61s0-5.44,2.63-10.49-2.14,1.18-6.34,2.26-2.29-.9-1.26-10.45c0,0-3.56,3.44-4-3.06-3.15,5.54-4.48,1.32-10-2.35,7.45,11.89,19.8,30.13,24,36.31C474.75,298.88,491.07,284.85,495.1,262.42Z"/><path class="cls-42" d="M438.83,223.07c.08.09.16.17.23.26a72.93,72.93,0,0,0,9,8.42,25.59,25.59,0,0,0,5,3,52.4,52.4,0,0,0,5.07,1.93,56,56,0,0,1,9.73,3.78c3,1.68,5.21,4.29,7.75,6.53s5.33,4.2,8.69,3.82a7.92,7.92,0,0,0,4.69-2.32c1.29-1.24,2.41-2.65,3.73-3.87a48.13,48.13,0,0,1,3.73-3.12A101.87,101.87,0,0,0,493,219.25L442.74,212A21.9,21.9,0,0,1,438.83,223.07Z"/><path class="cls-37" d="M439.5,329.92a9.08,9.08,0,0,1,1.82,2.94,6.74,6.74,0,0,1,.41,3.51,5.76,5.76,0,0,1-.58,1.71l-.51.75a5.52,5.52,0,0,1-.63.65,7.85,7.85,0,0,1-1.42,1c-.53.24-1.07.45-1.6.64.46-.35.95-.62,1.39-1l.63-.54c.1-.09.21-.17.31-.27l.26-.31a5.24,5.24,0,0,0,1.39-2.81,7.6,7.6,0,0,0-.23-3.2A15.84,15.84,0,0,0,439.5,329.92Z"/><path class="cls-37" d="M444.75,329a11.8,11.8,0,0,1,2.44,2.69,8.52,8.52,0,0,1,1.41,3.43,4.9,4.9,0,0,1-.83,3.66,6.39,6.39,0,0,1-3,2.13,8.6,8.6,0,0,0,2.46-2.46,4.76,4.76,0,0,0,.57-3.22,10.28,10.28,0,0,0-1.16-3.23A25.34,25.34,0,0,0,444.75,329Z"/><path class="cls-33" d="M357.4,320.46c-4.81-4.61-4-12.48-3.14-16.71-3,1.79-5.64,5.26-6,12.24-.8,15,4.7,19.49,15.53,20.43,8.28.71,13.41-4,9.21-11.68C370.1,326.55,362.69,325.52,357.4,320.46Z"/><path class="cls-43" d="M445.1,269.42c1.95,2.48,3.78,5.06,5.57,7.66s3.47,5.29,5.15,7.95,3.38,5.32,5.1,8l5.2,7.91c-2-2.45-3.87-5-5.7-7.57s-3.56-5.22-5.26-7.89-3.32-5.36-5-8Z"/><path class="cls-43" d="M425.62,269.64a14.31,14.31,0,0,0-.58,3.55,14.46,14.46,0,0,0,.25,3.54,15.74,15.74,0,0,0,1.07,3.37c.49,1.06,1.11,2.09,1.72,3.14,1.19,2.1,2.37,4.2,3.51,6.33l1.7,3.2c.54,1.08,1.11,2.15,1.63,3.24-.67-1-1.3-2-2-3l-1.89-3.1c-1.26-2.06-2.47-4.15-3.67-6.25-.59-1.05-1.22-2.09-1.72-3.23a14.26,14.26,0,0,1-1-3.56A13.35,13.35,0,0,1,425.62,269.64Z"/><path class="cls-43" d="M423.77,255.86c-.36,1.33-.7,2.66-1,4s-.56,2.68-.78,4a76.9,76.9,0,0,0-.89,8.15,53.06,53.06,0,0,0,.28,8.17,34,34,0,0,0,.79,4,35,35,0,0,0,1.23,3.93,28.07,28.07,0,0,1-2.61-7.86,41.93,41.93,0,0,1-.47-8.3,54.23,54.23,0,0,1,1.09-8.23A47.45,47.45,0,0,1,423.77,255.86Z"/><path class="cls-43" d="M424.49,271.63a18.67,18.67,0,0,0-.47,4.7,30.67,30.67,0,0,0,.47,4.68l.22,1.15.27,1.15c.16.77.42,1.52.62,2.28s.5,1.5.73,2.26.56,1.49.8,2.25c-.4-.69-.77-1.4-1.15-2.1s-.68-1.46-1-2.21a26.74,26.74,0,0,1-1.3-4.65,21.64,21.64,0,0,1-.31-4.82A12.75,12.75,0,0,1,424.49,271.63Z"/><path class="cls-43" d="M452.84,262.07a10.39,10.39,0,0,1,.1,3.43,16.16,16.16,0,0,1-.79,3.35,16.68,16.68,0,0,1-1.51,3.09,17,17,0,0,1-1,1.42c-.37.44-.74.87-1.13,1.28.54-1,1.08-2,1.57-3a32.64,32.64,0,0,0,1.3-3.06,27.09,27.09,0,0,0,.93-3.19A21.56,21.56,0,0,0,452.84,262.07Z"/><path class="cls-43" d="M397.6,271.5a12.4,12.4,0,0,1,3.12,2.22l.68.7c.22.23.41.49.61.74a12.6,12.6,0,0,1,1.13,1.58A18.51,18.51,0,0,1,405.7,284a26.48,26.48,0,0,1-.17,7.7c-.26,1.26-.55,2.51-.85,3.75s-.82,2.42-1.26,3.62c.27-1.25.59-2.48.89-3.71s.44-2.49.62-3.74c.05-.63.09-1.26.15-1.88l.08-.94c0-.32,0-.63,0-.95l0-1.88c-.05-.62-.14-1.24-.21-1.86a20.16,20.16,0,0,0-2.29-7.08,13.66,13.66,0,0,0-1-1.58c-.18-.25-.35-.52-.56-.76l-.61-.71A14.12,14.12,0,0,0,397.6,271.5Z"/><path class="cls-37" d="M453.63,305.92a10.82,10.82,0,0,1,1.51,3.87A9.18,9.18,0,0,1,455,314a8.61,8.61,0,0,1-.87,2l-.64.86a6,6,0,0,1-.75.76,9.24,9.24,0,0,1-1.7,1.24,18.64,18.64,0,0,1-1.9.84c.55-.41,1.16-.73,1.69-1.16a11.86,11.86,0,0,0,1.48-1.35,8,8,0,0,0,1.94-3.37,10.51,10.51,0,0,0,.32-3.92A16.71,16.71,0,0,0,453.63,305.92Z"/><path class="cls-37" d="M462.71,305a14.15,14.15,0,0,1,2,3.83,14.45,14.45,0,0,1,.78,4.28,11.11,11.11,0,0,1-.76,4.31,10.31,10.31,0,0,1-2.4,3.58c.18-.31.36-.62.55-.92a4.37,4.37,0,0,0,.5-.93l.45-.94.32-1a12.91,12.91,0,0,0,.56-4.09,18.69,18.69,0,0,0-.58-4.13A26.65,26.65,0,0,0,462.71,305Z"/><path class="cls-37" d="M359.66,322.3a10,10,0,0,1,.84,3.55,9.09,9.09,0,0,1-.55,3.68,8.93,8.93,0,0,1-.89,1.67,8,8,0,0,1-1.31,1.35,7.09,7.09,0,0,1-1.56,1,5.69,5.69,0,0,1-.86.34q-.43.15-.87.27a12.33,12.33,0,0,0,2.88-2.06,8.65,8.65,0,0,0,1.11-1.31l.43-.75a6.81,6.81,0,0,0,.34-.78,10.48,10.48,0,0,0,.67-3.39A17.14,17.14,0,0,0,359.66,322.3Z"/><path class="cls-37" d="M368.46,325.51a8.57,8.57,0,0,1,.94,3.27,7.14,7.14,0,0,1-1.27,5,6.92,6.92,0,0,1-1.25,1.23,7.25,7.25,0,0,1-1.49.89,13.27,13.27,0,0,1-1.62.52c.48-.32,1-.53,1.44-.86a8.41,8.41,0,0,0,1.27-1,6.6,6.6,0,0,0,1.76-2.61,9.14,9.14,0,0,0,.56-3.14A15.45,15.45,0,0,0,368.46,325.51Z"/><path class="cls-28" d="M439,221.59s8.93,12.7,32.62,16.43c17.61,2,25.45-.84,26.33-7.11.43-5.47-.24-8.39-3.76-6.65s-19.71,6.5-38.66-1.24c-8.58-3.75-13.37-9.22-15.09-7.94S437.52,220.14,439,221.59Z"/><g class="cls-29"><path class="cls-28" d="M494.15,224.26c-3.53,1.73-19.71,6.5-38.66-1.24-8.58-3.75-13.37-9.22-15.09-7.94s-2.88,5.06-1.44,6.51c0,0,7.27,10.32,26.07,15.09l.2-.4C440.54,229,440,218.37,448.49,222c12.26,6.64,18.62,5.72,20.92,7,1.46.78,1,5.48.46,8.79q.84.17,1.71.3c17.61,2,25.45-.84,26.33-7.11C498.34,225.44,497.67,222.52,494.15,224.26Z"/></g><path class="cls-44" d="M480.76,247.69l-.46-.17c-2.74-1-9.11-3.75-8.95-6.83l.74-13.89.74-.26c.12,0,2.89-1,9-.77s8.42,1.36,8.68,1.49l.65.34,0,.73s-.09,4-.39,11.74l0,.46-.32.33a35.9,35.9,0,0,1-9.16,6.62Z"/><path class="cls-45" d="M490.71,240.07c.3-7.69.39-11.7.39-11.74l0-.73-.65-.34c-.26-.13-2.67-1.29-8.68-1.49l-.54,0c.07.07.15.13.22.21s-.05.55-.29.63c-1.48.54-3.83.37-5.37.67a2.91,2.91,0,0,0-2.33,2.09,12.17,12.17,0,0,0-.42,2.68c-.17,1.28-.16,3.29-.24,4.57a18.91,18.91,0,0,0,0,4.05c.16,1,.83,1.14,1.64,1.8a20.56,20.56,0,0,0,2.95,1.94,6.48,6.48,0,0,1,2.64,2.07,5.52,5.52,0,0,1,.53,1.16l.2.07.45-.21a35.9,35.9,0,0,0,9.16-6.62l.32-.33Z"/><path class="cls-46" d="M474.34,228.57l-.65,12.24c0,.77,3,2.78,6.95,4.33a34.69,34.69,0,0,0,7.75-5.62c.21-5.42.31-8.93.35-10.42a26.28,26.28,0,0,0-7-1A31.23,31.23,0,0,0,474.34,228.57Z"/><path class="cls-47" d="M475.65,230.09l-.53,9.93c0,.62,2.42,2.25,5.64,3.51A28.3,28.3,0,0,0,487,239c.17-4.39.25-7.23.29-8.44a20.86,20.86,0,0,0-5.7-.81A25.86,25.86,0,0,0,475.65,230.09Z"/><path class="cls-48" d="M487.32,230.53a20.86,20.86,0,0,0-5.7-.81h-.28l-.74,13.76.16.06A28.3,28.3,0,0,0,487,239C487.2,234.58,487.28,231.74,487.32,230.53Z"/><g class="cls-49"><path class="cls-34" d="M531.27,292.7a23.4,23.4,0,0,0-11.52,3.21c0,.07,0,.15,0,.22,15.31-8.43,26.21,4,20,3.71-12.1-2.3-17.11,5-22.54,7.71-2.51,1.24-3.71-.9-4.27-3.57-2,5.11-.88,10.18.39,13.58,14.5,6.75,22,1.48,28.33-9.15S540.9,292.48,531.27,292.7Z"/></g><g class="cls-49"><path class="cls-34" d="M451.37,333.93a8.88,8.88,0,0,0-.44-1.32,7.17,7.17,0,0,1-.07,2.75c-.86,2.79-2-.94-3.52-3,0,0,1.13,5.41-3.1,6.28-2.61.51-1.45-4.26-3.7-6.9-.33,5.14-3.89,9.05-11.55,6.41-6.42-2.2-6.92-9.88-2.17-9,3.91.74,16,3.58,19.21-.83-1.78,1.44-6.69,2-15.14.23-12.41-2.66-10.51-10.71-10.1-13.49.16-1.06-.61-1.86-1.62-2.44.17,2.08-1.37,5.49-.54,13.65,1.23,10.57,6.1,14.88,20.35,14.89C448.88,341.14,452.47,338.63,451.37,333.93Z"/></g><path class="cls-33" d="M360.09,324.62l0,0,0-.1A.45.45,0,0,1,360.09,324.62Z"/><path class="cls-50" d="M372.12,332.4c-2.56.2-2-2.77-3.27-5.28,0,0-.35,6.54-6.56,6.43-4.75,0-.42-3.64-2.16-8.91l0,0c-.11.66-1.08,5.63-5.82,5.17-4.53-.58-6.16-10.84-3.72-17.72,2.41-4.07.14,7.37,9.54,12.55a.45.45,0,0,0,0-.08l0,.1a17.85,17.85,0,0,0,4.21,1.63,12.9,12.9,0,0,0,8.68-1.45l0-.08c-2.88,1.81-10.29.78-15.58-4.28-4.81-4.61-4-12.48-3.14-16.71-3,1.79-5.64,5.26-6,12.24-.8,15,4.7,19.49,15.53,20.43,5.56.48,9.7-1.48,10.54-5.16A3.47,3.47,0,0,1,372.12,332.4Z"/><path class="cls-51" d="M401.84,247.6s-25.92,7.33-27.76,38.5C371.37,274.9,374.8,253.15,401.84,247.6Z"/><path class="cls-51" d="M437.11,265.62s10.33,9.86,22,30C463.44,301.13,452.5,273.57,437.11,265.62Z"/><path class="cls-51" d="M503.78,282.37a101.3,101.3,0,0,0,10.19,14C517.13,300.25,504.34,290.81,503.78,282.37Z"/><path class="cls-52" d="M420.34,115.7s-2.29-1.71-11-4.56-17.38-2.45-22.27,9.61c-6,14.73-9.82,25.41-19.79,34.05-9.38,7.28-15,11.65-7.39,21.74,7,8.67,30.39,13.9,38.08,12.4,4.58-1.66,3.9-18.12,3.9-18.12L420.15,181S407.22,144.48,420.34,115.7Z"/><path class="cls-53" d="M415.85,124.46s-6,19.09-.51,43.24c0,0-11.11-4.19-17.4-6.53C396.51,142.84,393.73,114.25,415.85,124.46Z"/><path class="cls-54" d="M413.56,136.68a26.62,26.62,0,0,0-12.24,4.14,20,20,0,0,0-4.32,3.92c.05,5.57.54,11.39.94,16.43,6.29,2.34,17.4,6.53,17.4,6.53A93.84,93.84,0,0,1,413.56,136.68Z"/><path class="cls-55" d="M519.06,151.14A46.58,46.58,0,0,1,536.71,136c7,14.38,8.52,17.68,10.23,17.58s19.82-9.73,22-24.95c1.63-13-7.17-14.77-15-17.26a98.15,98.15,0,0,1-28.7-15.54c-9.07-7.29-15.73-10.3-22.32-7.24s-13.16,9-13.16,9Z"/><path class="cls-56" d="M553.92,111.36a98.15,98.15,0,0,1-28.7-15.54c-7.81-6.28-13.83-9.37-19.56-8.16,3.51,2.18,8.12,7,14.89,17A139,139,0,0,1,536.71,136c7,14.38,8.52,17.68,10.23,17.58s19.82-9.73,22-24.95C570.53,115.65,561.73,113.85,553.92,111.36Z"/><path class="cls-53" d="M513,99.6A54.12,54.12,0,0,0,495.48,108l22.44,41c6-5.67,16.1-15.21,16-15.89C530.64,125.57,516.84,99.32,513,99.6Z"/><g class="cls-57"><path class="cls-53" d="M522.7,116.43a43.59,43.59,0,0,0-17.79,3c-.84.35-1.68.75-2.52,1.19l15.53,28.39c6-5.67,16.1-15.21,16-15.89-1.42-3.28-4.81-10-8.5-16.63C524.53,116.48,523.62,116.44,522.7,116.43Z"/></g><path class="cls-27" d="M422.89,110c-15,18.23-11.77,48.83-5.14,70.46,0,0-9.7,1-9.87,8.71.11,2.43,3.52,2.12,5.41.89-3.42,4.91-3.24,10.74-1.45,13.5.37-2.28,2.58-5.2,2.58-5.2s-3,6.75.89,10.72a21,21,0,0,1,1.61-7.55s-2.23,10.41,16.89,11.95,26.15,2.43,32.48,7.09,14.29,7.5,24.65,4.59,13.5-6.71,15.15-11.64,3.05-8.66,11.18-15.14,15.7-12.31,13.48-22.63c2.84,1.88,3.09,3.63,3.09,3.63s1.57-6.67-2.89-10.53a5.52,5.52,0,0,1,4.46,3.86s.74-7.39-6.08-9.31c2.29-.74,2.93.33,2.93.33s-2.44-6.18-10.45-8.34c-1-13.37,1.37-59.85-51.34-63.69l3.92-.57h0s-5.65-3.5-17.85-.88"/><path class="cls-41" d="M483.93,121.6c.19-16.59-5-35.21-27.57-26.38,5.26-3.77,10.54-4.39,18-4l-3.86.56c52.71,3.84,50.32,50.32,51.34,63.69,8,2.16,10.45,8.34,10.45,8.34s-.64-1.07-2.93-.33c6.82,1.92,6.08,9.31,6.08,9.31a5.52,5.52,0,0,0-4.46-3.86c4.46,3.86,2.89,10.53,2.89,10.53s-.25-1.75-3.09-3.63c2.22,10.32-5.35,16.15-13.48,22.63s-9.54,10.21-11.18,15.14-4.79,8.74-15.15,11.64-18.33.07-24.65-4.59-13.37-5.56-32.48-7.09-16.89-11.95-16.89-11.95a21,21,0,0,0-1.61,7.55c-3.91-4-.89-10.72-.89-10.72s-2.21,2.92-2.58,5.2c-1.79-2.76-2-8.59,1.45-13.5-1.89,1.23-5.3,1.54-5.41-.89.17-7.75,9.87-8.71,9.87-8.71-4.78-15.62-7.79-35.92-3.44-52.86-.77,11.12-.77,26.16,2.88,39.08,3.23,12.36,9.7,12.71,13.92,11.38-8.25,4-17,2.72-18.82,7.55-2,4.3,8.31-.07,8.31-.07s-6.43,3.8-7,8.7a12.63,12.63,0,0,1,7.49-4.27s-7.32,15.7,10.14,19.05c17.86,2.33,27.21,2.14,38.24,9.3s27,6.62,27.92-4.74c-11,5.64-31.22,1.79-40.33-15.64-5.67-10.33-9-12.93-12.2-11s-.44-9.43,5.13-12c5.87,6.65,32.57,11.9,34.4,3.35-9.11,2.28-23.19-8-13.75-12.23s15.56-2.32,20.26-6.1c4.34-3.48-2.36-11.45-13.08-11.07-7.33,1.51-11.74,6.58-8.51,1.64s1.57-20.75,7.27-16.16S483.93,121.6,483.93,121.6Z"/><path class="cls-58" d="M420.41,193.86c7.22.9,13.4-3.18,17.34-8.94s6.46-9.25,19.61-17.63c14.09-11.18,3.92-39.48-13.05-52-8.93-6.62-15.87-7.24-20.45-6.34-.33.37-.65.75-1,1.13-15,18.23-11.77,48.83-5.14,70.46,0,0-9.7,1-9.87,8.71.11,2.43,3.52,2.12,5.41.89-3.42,4.91-3.24,10.74-1.45,13.5a10.08,10.08,0,0,1,1.21-3.07C414.78,196,417.16,193.37,420.41,193.86Z"/><path class="cls-58" d="M473.65,92h0l.66-.86-3.83.56Q472.09,91.85,473.65,92Z"/><path class="cls-58" d="M474.39,91.16l-.06,0,0,0Z"/><path class="cls-59" d="M529.33,163.43c2.29-.74,2.93.33,2.93.33s-2.44-6.18-10.45-8.34c-1-13.09,1.26-57.94-48.16-63.39.07,0,14.81,7.7,13.36,25.22s-1.65,30.07,12.09,39.21c7.35,4.89,11.94,6.34,17.78,10.28S527.06,170.4,529,169c1.44-1.18,4.82-.06,6.39,3.24C535.45,170.45,535,165,529.33,163.43Z"/><path class="cls-37" d="M518.62,141.21c.33,8.39-5.49,15.43-13,15.73s-13.86-6.27-14.19-14.66,5.49-15.43,13-15.72S518.29,132.83,518.62,141.21Z"/><ellipse class="cls-60" cx="505.05" cy="142.47" rx="12.96" ry="14.47" transform="translate(-5.19 19.87) rotate(-2.24)"/><ellipse class="cls-61" cx="505.08" cy="143.18" rx="12.32" ry="13.77" transform="translate(-5.21 19.87) rotate(-2.24)"/><path class="cls-58" d="M406.18,110.27c-7.63-1.72-14.84-.14-19.14,10.48-6,14.73-9.82,25.41-19.79,34.05-9.38,7.28-15,11.65-7.39,21.74,7,8.67,30.39,13.9,38.08,12.4,4.58-1.66,3.9-18.12,3.9-18.12s.82-17.11,1.74-34.5C404.27,123.45,405,115.27,406.18,110.27Z"/><path class="cls-62" d="M382.18,156.8s5.3-5.25,5.19-9.75c-5.29,8.37-11.36,8.73-11.36,8.73a27.13,27.13,0,0,0,3.72-8.1c-5.32,6.09-10.07,7.54-13.18,7.65-8.95,7-14.09,11.37-6.69,21.21,7,8.67,30.39,13.9,38.08,12.4,4.58-1.66,3.9-18.12,3.9-18.12s.82-17.11,1.74-34.5c.06-1.13.12-2.21.18-3.27C398,152.3,382.18,156.8,382.18,156.8Z"/><path class="cls-63" d="M553.92,111.36A97.16,97.16,0,0,1,534,102a37.81,37.81,0,0,0,9.67,7.14c-4.14,2.4-14.05.28-25.39-7.67.72,1,1.46,2.07,2.23,3.21A139,139,0,0,1,536.71,136c7,14.38,8.52,17.68,10.23,17.58s19.82-9.73,22-24.95C570.53,115.65,561.73,113.85,553.92,111.36Z"/><path class="cls-37" d="M457.82,155.63c-1,10.72-11,16.41-19.35,16s-13.21-7.82-12.73-16.83,8.05-17.59,17-17.53C452.9,137.3,458.71,145.94,457.82,155.63Z"/><path class="cls-60" d="M458.59,157.4c-1,10.72-11,16.41-19.35,16s-13.21-7.82-12.73-16.83,8.06-17.59,17-17.53C453.67,139.07,459.49,147.71,458.59,157.4Z"/><path class="cls-61" d="M456.47,157.75c-.91,10-10.23,15.24-18,14.83s-12.27-7.27-11.83-15.64,7.49-16.35,15.79-16.29C451.89,140.72,457.3,148.74,456.47,157.75Z"/><circle class="cls-64" cx="443.11" cy="156.72" r="13.48" transform="translate(-26.9 158.52) rotate(-19.7)"/><circle class="cls-65" cx="443.11" cy="156.72" r="10.35" transform="translate(184.94 549.48) rotate(-76.16)"/><circle class="cls-66" cx="448.88" cy="151.45" r="3.14"/><path class="cls-66" d="M454.29,155.52a1.53,1.53,0,1,1-1.44-1.6A1.53,1.53,0,0,1,454.29,155.52Z"/><ellipse class="cls-64" cx="505.11" cy="143.84" rx="11.28" ry="12.61" transform="translate(-5.24 19.86) rotate(-2.24)"/><path class="cls-65" d="M513.77,143.5c.21,5.34-3.5,9.83-8.28,10s-8.83-4-9-9.33,3.5-9.82,8.28-10S513.56,138.16,513.77,143.5Z"/><path class="cls-66" d="M512.11,138.35a2.65,2.65,0,1,1-2.74-2.84A2.8,2.8,0,0,1,512.11,138.35Z"/><path class="cls-66" d="M514.37,142.52a1.52,1.52,0,1,1-1.44-1.6A1.52,1.52,0,0,1,514.37,142.52Z"/><path class="cls-67" d="M483.55,159.55s-14.71,2-13,9.08c1.78,6.34,13.31,8.6,16.87,8.08s12.85-7,12.25-13.35S485.21,159.4,483.55,159.55Z"/><path class="cls-68" d="M494,161.55s-6.14-.11-17.15,4.57c-4.52,2.4-4.34-4.68,6.93-6.25C493,158.86,496.42,160.8,494,161.55Z"/><path class="cls-66" d="M482.54,162c.3,1-1.1,2.25-3.13,2.9s-3.93.4-4.23-.55,1.09-2.25,3.13-2.9S482.24,161,482.54,162Z"/><path class="cls-69" d="M423.32,140.68s4.34-6.12,8.57-7.91,6.16-2.68,3.85-5.37S424.35,123.45,423.32,140.68Z"/><path class="cls-69" d="M507.1,118.91s-4.79-3.17-8.6-1.09-5.34,2.55-6.53-1.53S497.85,107.71,507.1,118.91Z"/><path class="cls-70" d="M446.41,182.55s-.12,2.21-1.39,2-1.65-3.78,3.62-9.22c5.54,10.45,21.15,12,38.14,8.49,16.14-5.05,23.8-13.69,25.29-14s-.26,5-.26,5-1.77-4.89-5,7.49c-3.34,14-3.13,27.53-15.64,30.18s-24.68-4.63-31.65-15.9S446.41,182.55,446.41,182.55Z"/><path class="cls-71" d="M458.82,195.45a41,41,0,0,1,4.24-1.73,72.35,72.35,0,0,1,16.79-3.47,48.34,48.34,0,0,1,9.77-.08,38.55,38.55,0,0,1,9.48,2.2,36.54,36.54,0,0,1,5.14,2.42c.84-3.92,1.53-8.2,2.56-12.53,3.24-12.38,5-7.49,5-7.49s1.76-5.26.26-5-9.15,8.93-25.29,14c-17,3.53-32.6,2-38.14-8.49-5.27,5.44-4.9,9-3.62,9.22s1.39-2,1.39-2S452.14,185.1,458.82,195.45Z"/><path class="cls-72" d="M478.49,197.18c-8.19,0-13.42,1.77-16.3,3.18,7.17,9,17.93,14.43,29,12.08a16.14,16.14,0,0,0,2.85-.88C493.26,205.63,490.59,197.17,478.49,197.18Z"/><path class="cls-73" d="M490.39,208.13a11.65,11.65,0,0,1-5.3.67,29.4,29.4,0,0,1-6.51-1.19,19.13,19.13,0,0,1-5.93-2.81c-1.11-.83-3.12-2.53-2.6-4.17.44-1.39,2.24-1.59,3.46-1.53a13.6,13.6,0,0,1,6.22,2c1.33.81,2.56,1.79,3.85,2.67a11.78,11.78,0,0,1-1.66-2.76c-.68-1.72-.25-2.79.76-3.45a21.33,21.33,0,0,0-4.19-.39c-8.19,0-13.42,1.77-16.3,3.18,7.17,9,17.93,14.43,29,12.08a16.14,16.14,0,0,0,2.85-.88,24,24,0,0,0-1.16-5.08A7.6,7.6,0,0,1,490.39,208.13Z"/><path class="cls-74" d="M474.53,191.8c2.6-.23,11.17-1.62,16.39-2.63,4.13-1.26,4.7-1.6,4.79-3.25.05-1,.13-3.66.19-5.71a70.62,70.62,0,0,1-9.12,3.57,73.18,73.18,0,0,1-16.7,1.67C470.9,187.77,472.65,192,474.53,191.8Z"/><path class="cls-75" d="M468.61,152.35s7-10.09,21.31.06c0,0-14.37-14.57-16.79-17C474,141.77,468.61,152.35,468.61,152.35Z"/><path class="cls-76" d="M424.88,178.66s19.58-4.09,28.72-10.19c8.63-5.73,11.93-5.94,11.93-5.94S454.1,170,448.72,172.77,432.21,179.15,424.88,178.66Z"/><path class="cls-77" d="M489.7,157s4.91-1.5,13.47.28c8.88,1.2,16.23-2.07,18.25-4.16-1.12,4.63-9,7.43-17.46,5.81S492.93,156.88,489.7,157Z"/><path class="cls-37" d="M459.21,89.86s-9.56,2.29-14.27,5.79C447.33,92.31,455.07,89.83,459.21,89.86Z"/><path class="cls-37" d="M471.9,91.89a32.76,32.76,0,0,0-13.2,2.18C460.65,91.77,468.39,90.66,471.9,91.89Z"/><path class="cls-78" d="M482.28,186.47A82.37,82.37,0,0,0,495.81,183c0-.93.06-1.92.09-2.8a70.62,70.62,0,0,1-9.12,3.57,73.18,73.18,0,0,1-16.7,1.67c.82,2.32,2.57,6.52,4.45,6.35.41,0,1-.1,1.65-.19C475.35,189,475.46,187.8,482.28,186.47Z"/><path class="cls-27" d="M428.24,115c-1.33,1.87-3.29,2.77-4.37,2s-.88-2.91.44-4.78,3.29-2.77,4.37-2S429.56,113.15,428.24,115Z"/><path class="cls-37" d="M487.46,176.71a6.94,6.94,0,0,1,.41,1.79,10,10,0,0,1,.06,1.82,8.57,8.57,0,0,1-.31,1.81,4.45,4.45,0,0,1-.84,1.65,28.46,28.46,0,0,0,.37-3.51C487.23,179.1,487.27,177.93,487.46,176.71Z"/><g class="cls-29"><path class="cls-67" d="M499.71,163.36c-.25-2.7-2.87-3.82-5.94-4.21,2.81,1.44,4,3.52,2.44,6.57-2.42,4.62-9.34,11.77-20.11,6.05-3.71-2-5.14-3.93-5.41-5.67a4.23,4.23,0,0,0-.1,2.53c1.78,6.34,13.31,8.6,16.87,8.08S500.31,169.75,499.71,163.36Z"/></g><path class="cls-37" d="M448.64,175.29a13.69,13.69,0,0,0,3.36,4.16,20,20,0,0,0,4.51,2.88,29.86,29.86,0,0,0,10.34,2.58,50.67,50.67,0,0,0,10.73-.25,90.77,90.77,0,0,0,10.59-1.92h0l3.23-1.15c1.06-.42,2.13-.82,3.18-1.25,2.12-.86,4.21-1.78,6.23-2.83a37.84,37.84,0,0,0,5.74-3.68,36.11,36.11,0,0,1,5.55-4,39.92,39.92,0,0,0-5.36,4.28A34.62,34.62,0,0,1,501,178c-2,1.11-4.1,2.09-6.21,3-1.06.44-2.13.86-3.2,1.28l-3.23,1.19h0a82.12,82.12,0,0,1-10.67,2,52.07,52.07,0,0,1-10.88.16,29.63,29.63,0,0,1-10.47-2.86,18.89,18.89,0,0,1-4.48-3.08A13.17,13.17,0,0,1,448.64,175.29Z"/><g class="cls-29"><path class="cls-79" d="M412.6,197.2c-.31-5.51,2.67-9.92,10.66-11-6-2.46-13.23,2-9.94-2.36,5.17-5.52,15.7,3,11.56-5.16-13.32-16.52-12.4-39.46-10-53-5.14,17.33-2.09,38.64,2.89,54.88,0,0-9.7,1-9.87,8.71.11,2.43,3.52,2.12,5.41.89-3.42,4.91-3.24,10.74-1.45,13.5a10.08,10.08,0,0,1,1.21-3.07c1.73-4.49,4.11-7.15,7.36-6.66l.83.07a15.67,15.67,0,0,1,5-1.19S420.34,189.38,412.6,197.2Z"/></g><path class="cls-24" d="M467.5,210.78s10.88,9.49,23.73,4.95C485.69,221.59,471.87,221.16,467.5,210.78Z"/><g class="cls-80"><path class="cls-81" d="M403.58,136.32c.69-12.87,1.39-21,2.6-26a24,24,0,0,0-3.3-.52,59.93,59.93,0,0,0-4.25,18.68,194.83,194.83,0,0,0-.09,19.93c.09,3.34.16,6.69.11,10a66.16,66.16,0,0,1-.6,9.54,15.45,15.45,0,0,1-2.15,6,12,12,0,0,1-4.14,3.85,19.93,19.93,0,0,1-6,2.07,29.83,29.83,0,0,1-7.11.62,17.46,17.46,0,0,1-10.22-3.61,19.34,19.34,0,0,1-5.71-8.33,36.77,36.77,0,0,1-2-8.34c-4.88,4.64-6.39,9-.84,16.34,7,8.67,30.39,13.9,38.08,12.4,4.58-1.66,3.9-18.12,3.9-18.12S402.66,153.71,403.58,136.32Z"/></g><g class="cls-82"><path class="cls-81" d="M563.23,114.89a48.3,48.3,0,0,1,.54,6.7,28,28,0,0,1-.86,6.62c-1,4.31-3.2,9-7.42,11a7.11,7.11,0,0,1-5.84.38,12.86,12.86,0,0,1-4.69-3.88c-3.11-3.8-5.24-8.29-7.53-12.6a41.08,41.08,0,0,0-3.18-5.24c-1.65-2.25-3.47-4.36-5.24-6.52a82.23,82.23,0,0,1-5.33-7,21.36,21.36,0,0,1-3.19-6.71c-.38-1.61-.7-3.68.42-5.08-5.8-4-10.62-5.88-15.25-4.91,3.51,2.18,8.12,7,14.89,17A139,139,0,0,1,536.71,136c7,14.38,8.52,17.68,10.23,17.58s19.82-9.73,22-24.95C569.86,121,567.19,117.2,563.23,114.89Z"/></g><rect class="cls-21" x="355.94" y="371.4" width="15.97" height="34.73" transform="translate(-153.61 514.22) rotate(-60.52)"/><path class="cls-23" d="M376.59,388.14l-10.77-6.08-.91-.52L363,380.47l-.32-.19-.48-.27-5-2.85L353,374.83l-6.66,11.79,6.23,3.51,1.17.68,2.7,1.52,9.34,5.27,8.59,4.86,5.44-9.61,1.22-2.17Zm-2.6,13-8.17-4.62-8.83-5-1.56-.88-2.5-1.41-5.18-2.92,5.7-10.09,3.38,1.91,5,2.83.47.26.24.13,2.37,1.34.91.52,9.13,5.16L379.7,391l-1,1.82Z"/><g class="cls-2"><polygon class="cls-24" points="344.88 387.17 352.74 373.26 378.63 387.91 351.74 391.05 344.88 387.17"/></g><path class="cls-83" d="M401.3,392.38s17.61-4.12,13.08,7.39S394.87,435,387.73,463.52c-7.43,29.71-21.24,2.25-21.24,2.25l-15.35-52.29Z"/><path class="cls-13" d="M382.28,465.34c4.57-27.62,23.43-53.18,28-64.69,3.24-8.24-4.85-8.47-9.72-7.94l.79-.33s17.61-4.12,13.08,7.39-31.91,56-30,90.84c.66,12.23-6.4-1.64-10.45-2.61C375.8,486.29,381.05,472.76,382.28,465.34Z"/><path class="cls-16" d="M440,278.59c0,.71,0,1.45,0,2.23a69,69,0,0,1-2.11,13.78c-.23,1-.51,2-.79,3a.45.45,0,0,1,0,.11.32.32,0,0,1,0,.09,1.92,1.92,0,0,1-.09.32.23.23,0,0,1,0,.11c-.14.52-.29,1.06-.45,1.59-.73,2.56-1.61,5.29-2.63,8.21l-.83,2.41c-.8,2.29-1.58,4.47-2.32,6.55-.21.59-.41,1.17-.62,1.73q-1,2.73-1.89,5.25c-.26.69-.51,1.38-.74,2.05a1.43,1.43,0,0,0-.08.22c-.1.27-.21.53-.31.81s-.18.49-.27.73c-.71,1.92-1.39,3.74-2,5.48-.16.42-.32.84-.46,1.24-7.44,19.56-11.73,28.23-14.91,35.26,0,0,0,.07-.05.1-1.83,4.06-5.56,13-9.39,23h0c-1.86,4.86-3.75,9.94-5.46,14.83-.88,2.53-1.72,5-2.48,7.37a95,95,0,0,0-3.72,14.34c-.18,1.39-.42,3-.7,4.68-.25,1.48-.51,3.07-.81,4.71-.71,4-1.54,8.37-2.33,12.69,0,.17-.06.35-.1.52-1.1,5.92-2.15,11.7-2.79,16.07-.06.42-.1.81-.16,1.2-.19,1.46-.33,2.73-.39,3.74,0,.3,0,.58,0,.84a6.8,6.8,0,0,0,0,1.05.84.84,0,0,0,0,.18c0,.07,0,.14,0,.18.06.28.15.64.25,1.06A155.18,155.18,0,0,1,384.35,493c.74,6.44.78,13-1.25,16.59-4.51,8-27.46,47.56-34.78,57.62-3.38,4.62-12.6,14.27-22.14,24.24-11.12,11.68-22.65,23.77-25.63,28.73a51.8,51.8,0,0,1-8.39,10.15H138c3-4,6.08-8.26,9.12-12.52.5-.73,1-1.43,1.51-2.14q2.28-3.21,4.5-6.42c.49-.71,1-1.41,1.46-2.12,1.85-2.7,3.64-5.36,5.34-8v0c2.78-4.23,5.32-8.29,7.52-12.05,0,0,0,0,0,0,2.13-3.64,3.93-7,5.27-9.94a37.77,37.77,0,0,0,2.35-6.4c.93-3.9,1.67-7,2.3-9.5.1-.4.2-.79.31-1.17s.18-.76.28-1.12.19-.68.28-1c.13-.49.26-1,.39-1.4q.13-.42.24-.81v0c.09-.26.18-.5.25-.75s.14-.47.23-.71a18.64,18.64,0,0,1,1.84-3.91,64.85,64.85,0,0,1,4.26-5.48,6.21,6.21,0,0,0,.79-1.46,12,12,0,0,0,.52-1.41c.35-1.07.68-2.37,1-3.87.18-.74.34-1.55.51-2.39.41-2.11.81-4.51,1.23-7.14.16-1,.33-2.12.49-3.22.23-1.67.49-3.44.74-5.26.17-1.2.34-2.42.5-3.68.09-.64.18-1.27.26-1.92.35-2.56.7-5.2,1-7.89.09-.68.18-1.38.28-2.07.17-1.36.36-2.73.55-4.12,1.17-8.81,2.47-18,4-26.55q.51-3,1.05-5.78c2.17-11.29,4.75-21.05,8-26.86l1.34-2.42h0l.32-.57c2.24-4,4.48-7.7,6.69-11.22a1.4,1.4,0,0,1,.13-.18c6.59-10.44,13-18.83,19.14-25a57.73,57.73,0,0,1,9.35-7.74c.59-.39,1.17-.74,1.73-1,4.71-2.69,9.08-3.61,13-2.63a12.86,12.86,0,0,1,4.06,1.79l.18.12h0s0-.05,0-.06a0,0,0,0,0,0,0,.16.16,0,0,1,.06-.05v0a97.15,97.15,0,0,1,7.68-8.93l.54-.53s0-.06.07-.07l.26-.26a1.14,1.14,0,0,1,.22-.22,7.14,7.14,0,0,1,.55-.55l.56-.56c7.43-7.17,17.76-14.63,26.6-11.76a12,12,0,0,1,2.34,1c.95.54,1.81,1.06,2.59,1.56s1.5,1,2.11,1.42l0,0c.06,0,.19.13.37.26s.36.29.59.46.24.19.37.3a13.86,13.86,0,0,1,1.22,1.09,8.9,8.9,0,0,1,1.12,1.24c.13.17.25.35.37.5l.2.35v0c.07.13.13.27.19.4a1.57,1.57,0,0,1,.08.33s0,.05,0,.07l1.18-2.05,1.14-2,.1-.17a.45.45,0,0,0,.06-.12s0,0,0,0h0l0,0,.05-.08v0c.74-1.27,1.58-2.74,2.49-4.32.19-.32.37-.65.56-1a1,1,0,0,0,.09-.15l.92-1.6c.41-.71.81-1.42,1.23-2.14h0c.23-.41.46-.81.71-1.22s.39-.69.59-1l.74-1.3.88-1.53.09-.18.78-1.34c.27-.48.53-.95.79-1.4.16-.28.32-.54.46-.8s.42-.75.61-1.1l.62-1.06v0a7.1,7.1,0,0,1,1.19-1.53c3.62-3.61,11.64-5.1,18-4.81a18.78,18.78,0,0,1,7,1.37,4.09,4.09,0,0,1,.47.23l.11.06a1.57,1.57,0,0,0,.25.14l1.21.68c.25.13.51.28.77.44s.42.23.62.36c.62.37,1.27.78,1.9,1.23a19.26,19.26,0,0,1,5,5c.32.49.62,1,.93,1.53a21.07,21.07,0,0,1,1,2.08,27.43,27.43,0,0,1,1.85,8.48c.1,1.19.14,2.46.13,3.8,0,.31,0,.61,0,.93,0,0,.28-.77.8-2.14,2.28-6.05,9.18-23.74,17.07-38.13l0,0c.45-.79.88-1.57,1.31-2.34.29-.51.58-1,.87-1.49h0a.47.47,0,0,1,.06-.09q.35-.57.66-1.17h0l.56-1c1.3-2.31,2.64-4.83,4-7.49.58-1.09,1.13-2.22,1.69-3.36.65-1.32,1.32-2.68,2-4,2.44-5.13,4.87-10.45,7.11-15.48.43-.94.84-1.85,1.24-2.76.06-.14.12-.29.19-.42l.09-.21c1.83-4.14,3.52-8,5-11.24,1.74-4,3.15-7,4-8.72a11.93,11.93,0,0,1,.6-1.08c.45-.67,1-1.52,1.61-2.46.14-.23.3-.47.46-.72s.29-.45.45-.66.34-.51.53-.76c.35-.47.71-.95,1.09-1.41s.52-.64.78-.94l.42-.45c.27-.29.56-.58.85-.85a9.83,9.83,0,0,1,.91-.8c.32-.24.62-.47.95-.7a11.63,11.63,0,0,1,1-.61,7.88,7.88,0,0,1,4.12-1h0a8.48,8.48,0,0,1,1.11.1,7.55,7.55,0,0,1,.8.16c.17,0,.34.1.52.16h0l.28.09.41.16c.42.14.84.32,1.28.49h0l.81.36,1.09.54a15.6,15.6,0,0,1,1.41.82l.51.33c.15.11.31.19.46.3a1.12,1.12,0,0,1,.21.18,9.19,9.19,0,0,1,1.06.92,13.55,13.55,0,0,1,3.15,4.83,19.22,19.22,0,0,1,1.18,4.82c.05.32.08.65.12,1C440,277.16,440,277.85,440,278.59Z"/><path class="cls-13" d="M348.67,348.14a10.53,10.53,0,0,1,2.7,1c2.78,1.57,14.47,5.5,13.65,24.66-5.14,17.05-17.29,30.64-17.29,30.64s5-15,9.28-26.85C361.56,365,354.9,353.21,348.67,348.14Z"/><path class="cls-13" d="M434,308.14c-13.61,39.62-20.17,52.2-24.52,61.83-4,8.92-17.19,41.5-20.46,56.37-3,16.81-6.06,31.44-7.94,49-.42-1.88,1.47-36.8,3.16-49.5s13.45-47.42,17.8-57.06,13.69-23.82,27.3-63.43c8.32-24.2,8.73-37.8.55-43C436.41,265.21,446.68,271.13,434,308.14Z"/><path class="cls-13" d="M292.33,630.37a50.91,50.91,0,0,0,8.33-10.1c5.52-9.18,40.44-42.92,47.77-53s30.27-49.65,34.77-57.62-1.13-30.07-2.05-34.27-3.68,22.53-7.32,29c-4.51,8-32.5,43.12-41.67,51.59-12.09,11.18-46.65,36-53.69,47.68-6.4,10.62-28.51,16.15-33.63,20.91-1.92,1.78-3.81,3.74-5.67,5.81Z"/><path class="cls-13" d="M428.41,261.89a14.14,14.14,0,0,1,1.33.73C429.28,262.38,428.83,262.14,428.41,261.89Z"/><path class="cls-18" d="M330.78,357.3c-3.18,5.6-30.22,41.74-32.73,46.09-.81-.83,10.87-21.14,13.61-27,2.81-4.89,9.93-17.24,13-22.61,3.82-6.76,21.16-7.85,26.64-4.75a56,56,0,0,1,4.87,2.91C349.63,349.62,334.34,351,330.78,357.3Z"/><path class="cls-18" d="M146.7,630.37c15.33-20.88,31.94-45.27,34.52-56.1,4.95-20.8,4.55-18.58,10.37-25.87s9.08-82.24,20.89-103.62c18.26-33.06,36.05-51.77,49.25-51.14,1.67.08-16.53,37.7-16.53,37.7s21.48-33.19,23.25-35.41c0,0,21.47-29.21,37.47-22.52-1.27-.88-2.78-1.9-4.68-3-16.11-9.11-38.95,22-38.95,22-13.47-9.25-34.39,9.79-56,48.85-11.82,21.38-15.08,96.33-20.9,103.62S180,550,175.06,570.79c-2.73,11.44-21.1,38-37.08,59.58Z"/><path class="cls-18" d="M413.79,275.81c-1.66,4.31-16.74,36.42-26.07,56.17-8.92,18.9-28.65,55.91-28.65,55.91,3.74-9.26,17.75-46.09,26-58.23,11.77-17.27,24.57-53.23,27.16-57.06s7.74-13.72,15.93-10.85c1.78.62,4.78,1.8,6.5,3.46C427.66,262.15,417.74,265.51,413.79,275.81Z"/><path class="cls-13" d="M313.06,374s-27.76,52.36-30.74,57.24c0,0,27.94-54.85,23.6-57.81,0,0,4.23,3,4.56,5.06Z"/><path class="cls-13" d="M258.05,390.53s-1.36,11.41-16.94,49.22c0,0,23.28-48.25,30.23-57.5,0,0-3.77,2.25-9,10.21A12.07,12.07,0,0,0,258.05,390.53Z"/><path class="cls-20" d="M419.62,265.58c2.78-1.66,4.86-1.73,7.14-.85a9.18,9.18,0,0,1,5.42,5.93c1,3.13.95,3.88-2.8,13.93-1.21,3.26-5.56,3-9.23,1.58s-8.83-4.28-6.94-9.35C416.38,268.3,416.84,267.25,419.62,265.58Z"/><path class="cls-26" d="M420,287.38c3.68,1.43,8,1.69,9.23-1.57,2.4-6.46,3.28-9.07,3.34-10.95.42,2.15-.19,4.18-3.23,12.34-1.21,3.26-5.55,3-9.23,1.58-3.49-1.36-7.23-2.92-6.8-5.95C414,285,417.09,286.25,420,287.38Z"/><path class="cls-19" d="M419.62,265.58c2.78-1.66,4.86-1.73,7.14-.85a9.18,9.18,0,0,1,5.42,5.93,8.44,8.44,0,0,1,.54,3c-.26.5,0,1.27-.25,1.76a12.36,12.36,0,0,0-.67-3.28,10.46,10.46,0,0,0-6-6.38c-2.35-.91-4.43-.37-7.29,1.34a8.39,8.39,0,0,0-1.54,1.12A5.85,5.85,0,0,1,419.62,265.58Z"/><path class="cls-20" d="M417.46,395.23c.23-.83-4.69-1-6.12.28s-6.31,13.91-8.61,20.85c0,0,2.88,1,3.34.47S414.9,404.1,417.46,395.23Z"/><path class="cls-19" d="M417.32,395.66c0-.14.1-.29.14-.43.23-.83-4.69-1-6.12.28a3.94,3.94,0,0,0-.64.89C411.94,395.27,416.27,395.15,417.32,395.66Z"/><rect class="cls-24" x="474.02" y="366.71" width="116.56" height="4.33"/><rect class="cls-24" x="474.02" y="377.33" width="116.56" height="4.33"/><rect class="cls-24" x="474.02" y="387.09" width="116.56" height="4.33"/><rect class="cls-24" x="474.02" y="397.71" width="116.56" height="4.33"/></g></g></svg>