<?xml version="1.0" encoding="utf-8"?>
<!-- Generator: Adobe Illustrator 25.4.1, SVG Export Plug-In . SVG Version: 6.00 Build 0)  -->
<svg version="1.1" xmlns="http://www.w3.org/2000/svg" xmlns:xlink="http://www.w3.org/1999/xlink" x="0px" y="0px"
	 viewBox="0 0 793.6 698.7" style="enable-background:new 0 0 793.6 698.7;" xml:space="preserve">
<style type="text/css">
	.st0{display:none;}
	.st1{display:inline;}
	.st2{opacity:0.1;}
	.st3{fill:#313F5D;}
	.st4{fill:none;stroke:#000000;stroke-width:2;stroke-miterlimit:10;}
	.st5{fill:none;}
	.st6{fill:#231F20;}
	.st7{opacity:0.3;}
	.st8{fill:url(#SVGID_1_);}
	.st9{fill:url(#SVGID_00000131366160520898302080000006286453807000164798_);}
	.st10{fill:url(#SVGID_00000173124186839761449210000004101055438991829141_);}
	.st11{fill:url(#SVGID_00000165947819987232088170000018104151855081536181_);}
	.st12{fill:url(#SVGID_00000182507874272393404500000005147078825322730378_);}
	.st13{fill:#D4B08B;}
	.st14{fill:#C2A281;}
	.st15{fill:#AA8E71;}
	.st16{fill:#EBC199;}
	.st17{fill:#C0A17F;}
	.st18{fill:#F3DBB9;}
	.st19{fill:#F0D9DF;}
	.st20{fill:#E9B493;}
	.st21{fill:#252526;}
	.st22{fill:#EF4036;}
	.st23{fill:#585657;}
	.st24{fill:#FFFFFF;}
	.st25{fill:#595859;}
	.st26{fill:#D1AD89;}
	.st27{fill:#FFF1CA;}
	.st28{fill:#893930;}
	.st29{fill:#E6B48E;}
	.st30{fill:#E47747;}
	.st31{opacity:0.68;fill:#E27546;enable-background:new    ;}
	.st32{fill:#FFF0C9;}
	.st33{fill:#E6B48F;}
	.st34{fill:#FFBB6E;}
	.st35{fill:#9B3D3E;}
	.st36{fill:#CB7B4C;}
	.st37{opacity:0.53;}
	.st38{fill:#EB804E;}
	.st39{fill:#FFBD6D;}
	.st40{fill:#F4CCA3;}
	.st41{fill:#DB8B4E;}
	.st42{fill:#F9CDB1;}
	.st43{fill:#C4382B;}
	.st44{fill:#FF8A65;}
	.st45{opacity:0.86;}
	.st46{opacity:0.86;fill:#E6B48F;enable-background:new    ;}
	.st47{fill:#F48D5F;}
	.st48{fill:#DD564F;}
	.st49{opacity:0.62;fill:#DD564F;enable-background:new    ;}
	.st50{fill:#F5905B;}
	.st51{fill:#FFB96D;}
	.st52{opacity:0.62;}
	.st53{fill:#FFBB6F;}
	.st54{fill:#F69A5C;}
	.st55{fill:#F5C9A5;}
	.st56{fill:#FCF8ED;}
	.st57{fill:#E3703A;}
	.st58{fill:#E27038;}
	.st59{fill:#734742;}
	.st60{fill:#3E232C;}
	.st61{fill:#FDF7F4;}
	.st62{fill:#361C26;}
	.st63{fill:#825F5B;}
	.st64{fill:#3F1521;}
	.st65{fill:#8A3B3A;}
	.st66{opacity:0.36;fill:#8A3B3A;enable-background:new    ;}
	.st67{fill:#FF7E69;}
	.st68{opacity:0.51;fill:#FF7E69;enable-background:new    ;}
	.st69{fill:#FBECE3;}
	.st70{fill:#FEB96D;}
	.st71{fill:#E39556;}
	.st72{fill:#E8885A;}
	.st73{fill:#F3DCC8;}
	.st74{opacity:0.59;fill:#E27038;enable-background:new    ;}
	.st75{opacity:0.51;}
	.st76{fill:#CC572A;}
	.st77{opacity:0.5;}
	.st78{fill:#BA9A7B;}
	.st79{fill:#B22D2D;}
	.st80{fill:#822525;}
	.st81{fill:url(#SVGID_00000159454407271345353600000006053757977027532705_);}
	.st82{fill:#FDB97D;}
	.st83{fill:#D8D8D8;}
	.st84{fill:#091214;}
	.st85{fill:#1C1C1B;}
	.st86{fill:#3C3C3A;}
	.st87{opacity:0.1;fill:#1C1C1B;}
	.st88{fill:#EBEBEB;}
	.st89{fill:#5B8EA8;}
	.st90{fill:#1B3237;}
	.st91{fill:#233E45;}
	.st92{fill:#575756;}
	.st93{fill:#F4F4F4;}
	.st94{fill:#510B0A;}
	.st95{opacity:0.4;fill:#1C1C1B;}
	.st96{fill-rule:evenodd;clip-rule:evenodd;fill:#C46E1F;}
	.st97{fill-rule:evenodd;clip-rule:evenodd;fill:#510B0A;}
	.st98{fill-rule:evenodd;clip-rule:evenodd;fill:#12110C;}
	.st99{fill-rule:evenodd;clip-rule:evenodd;fill:#863023;}
	.st100{fill-rule:evenodd;clip-rule:evenodd;fill:#EDE6C8;}
	.st101{fill-rule:evenodd;clip-rule:evenodd;fill:#3C3C3A;}
	.st102{fill-rule:evenodd;clip-rule:evenodd;fill:#707070;}
	.st103{fill-rule:evenodd;clip-rule:evenodd;fill:#E39316;}
	.st104{fill-rule:evenodd;clip-rule:evenodd;fill:#575756;}
	.st105{fill-rule:evenodd;clip-rule:evenodd;fill:#B0B0B0;}
	.st106{fill-rule:evenodd;clip-rule:evenodd;fill:#370A03;}
	.st107{fill-rule:evenodd;clip-rule:evenodd;fill:#EBEBEB;}
	.st108{fill-rule:evenodd;clip-rule:evenodd;fill:#E10614;}
	.st109{fill-rule:evenodd;clip-rule:evenodd;fill:#FFFFFF;}
	.st110{fill-rule:evenodd;clip-rule:evenodd;fill:#AE672A;}
	.st111{fill-rule:evenodd;clip-rule:evenodd;fill:#8E4F1B;}
	.st112{fill-rule:evenodd;clip-rule:evenodd;fill:#FFB621;}
</style>
<g id="Layer_1" class="st0">
</g>
<g id="Layer_2">
	<g>
		<g>
			<g>
				<path class="st79" d="M747.2,439.9v31l-434.8-251c-20.1-11.6-52.6-11.6-72.6,0L45,333.1v-30.9c-35.2,19.9-35.2,53.2,0,73.1v0
					c0,0,0,0,0,0l436.7,252.1c20.1,11.6,52.6,11.6,72.6,0l192.9-112.1v0c0,0,0,0,0,0l2.2-1.3c2.5-1.5,4.7-3.1,6.6-4.7
					C782.1,488.6,779.1,458.5,747.2,439.9z"/>
				<g>
					<path class="st80" d="M140.6,418.3l-53.7-30.9c-2-1.2-3.6-4.5-3.6-7.5l0,0c0-3,1.6-4.4,3.6-3.3l53.7,30.9
						c2,1.2,3.6,4.5,3.6,7.5l0,0C144.2,418,142.6,419.4,140.6,418.3z"/>
					<path class="st80" d="M208.4,457.2l-53.7-30.9c-2-1.2-3.6-4.5-3.6-7.5l0,0c0-3,1.6-4.4,3.6-3.3l53.7,30.9
						c2,1.2,3.6,4.5,3.6,7.5l0,0C212,456.9,210.4,458.4,208.4,457.2z"/>
				</g>
				<g>
					<path class="st22" d="M749.1,441L312.4,188.9c-20.1-11.6-52.6-11.6-72.6,0l-195,113.3c-20,11.6-19.9,30.4,0.2,42l436.7,252.1
						c20.1,11.6,52.6,11.6,72.6,0l195-113.3C769.4,471.4,769.2,452.6,749.1,441z"/>
				</g>
				<linearGradient id="SVGID_1_" gradientUnits="userSpaceOnUse" x1="577.1248" y1="700.4449" x2="361.9709" y2="332.5746">
					<stop  offset="0" style="stop-color:#FFFFFF"/>
					<stop  offset="0.4589" style="stop-color:#FDFEFF"/>
					<stop  offset="0.6482" style="stop-color:#F6F9FF"/>
					<stop  offset="0.7877" style="stop-color:#EAF2FF"/>
					<stop  offset="0.9021" style="stop-color:#D8E7FF"/>
					<stop  offset="1" style="stop-color:#C2DAFF"/>
				</linearGradient>
				<path class="st8" d="M734.9,449.3L298.2,197.2c-12.2-7-31.8-7-43.9,0L220.1,217c-4,2.3-4.5,5.9-1.3,8.6l7.7,6.5
					c3,2.5,2.4,5.9-1.2,8l-91.9,53.4c-3.7,2.2-9.5,2.5-13.9,0.8l-11.3-4.5c-4.7-1.8-10.9-1.5-14.9,0.8l-34.2,19.8
					c-12.1,7-12,18.4,0.1,25.5L496,588.1c12.2,7,31.8,7,43.9,0l195-113.3C747.1,467.7,747,456.3,734.9,449.3z"/>
				<g>
					<path class="st79" d="M193.9,241.5c-1.6-1-4.3-1-6,0L147.5,265c-1.6,1-1.6,2.5,0,3.5c1.6,1,4.3,1,6,0l40.4-23.5
						C195.5,244,195.5,242.5,193.9,241.5"/>
					<path class="st79" d="M208.2,233.2c-1.6-1-4.3-1-6,0l-4.6,2.7c-1.6,1-1.6,2.5,0,3.5c1.6,1,4.3,1,6,0l4.6-2.7
						C209.9,235.7,209.8,234.2,208.2,233.2"/>
					<path class="st79" d="M142.3,271.5c-2.9-1.7-7.6-1.7-10.5,0c-2.9,1.7-2.9,4.4,0,6.1c2.9,1.7,7.6,1.7,10.5,0
						C145.2,275.9,145.2,273.2,142.3,271.5"/>
				</g>
				<g>
					<path class="st22" d="M139.2,420l-53.7-30.9c-2-1.2-3.6-4.5-3.6-7.5l0,0c0-3,1.6-4.4,3.6-3.3l53.7,30.9c2,1.2,3.6,4.5,3.6,7.5
						l0,0C142.9,419.7,141.3,421.2,139.2,420z"/>
					<path class="st22" d="M207,459l-53.7-30.9c-2-1.2-3.6-4.5-3.6-7.5v0c0-3,1.6-4.4,3.6-3.3l53.7,30.9c2,1.2,3.6,4.5,3.6,7.5l0,0
						C210.7,458.7,209.1,460.1,207,459z"/>
				</g>
				<g>
					<path class="st80" d="M636.9,571.1l37.8-21.7c2.1-1.2,3.8-4.7,3.8-7.8l0,0c0-3.1-1.7-4.6-3.8-3.4l-37.8,21.7
						c-2.1,1.2-3.8,4.7-3.8,7.8l0,0C633.1,570.8,634.8,572.3,636.9,571.1z"/>
					<path class="st22" d="M676.4,537.8c0.5,0.7,0.8,1.7,0.8,3c0,3.1-1.7,6.6-3.8,7.8l-37.8,21.7c-0.6,0.3-1.1,0.4-1.6,0.4
						c0.7,0.9,1.8,1.1,3,0.4l37.8-21.7c2.1-1.2,3.8-4.7,3.8-7.8C678.6,539.3,677.7,537.9,676.4,537.8z"/>
				</g>
				<g>
					<path class="st80" d="M691.8,534.4c0-2,1.4-4.4,3.1-5.3c1.7-1,3.1-0.2,3.1,1.8c0,1.9-1.4,4.3-3.1,5.3
						C693.2,537.2,691.8,536.4,691.8,534.4z"/>
					<path class="st80" d="M700.1,529.7c0-2,1.4-4.4,3.1-5.3c1.7-1,3.1-0.2,3.1,1.8c0,1.9-1.4,4.3-3.1,5.3
						C701.4,532.5,700.1,531.6,700.1,529.7z"/>
					<path class="st80" d="M708.3,524.9c0-2,1.4-4.4,3.1-5.3c1.7-1,3.1-0.2,3.1,1.8c0,1.9-1.4,4.3-3.1,5.3
						C709.7,527.7,708.3,526.9,708.3,524.9z"/>
					<path class="st80" d="M716.5,520.2c0-2,1.4-4.4,3.1-5.3c1.7-1,3.1-0.2,3.1,1.8c0,1.9-1.4,4.3-3.1,5.3
						C717.9,523,716.5,522.2,716.5,520.2z"/>
					<path class="st80" d="M724.7,515.4c0-2,1.4-4.4,3.1-5.3c1.7-1,3.1-0.2,3.1,1.8c0,1.9-1.4,4.3-3.1,5.3
						C726.1,518.2,724.7,517.4,724.7,515.4z"/>
					<path class="st80" d="M733,510.7c0-2,1.4-4.4,3.1-5.3c1.7-1,3.1-0.2,3.1,1.8c0,1.9-1.4,4.3-3.1,5.3
						C734.4,513.5,733,512.7,733,510.7z"/>
				</g>
				<g>
					<path class="st80" d="M569.1,605.1c0-2,1.4-4.4,3.1-5.3c1.7-1,3.1-0.2,3.1,1.8c0,1.9-1.4,4.3-3.1,5.3
						C570.5,607.9,569.1,607.1,569.1,605.1z"/>
					<path class="st80" d="M577.3,600.3c0-2,1.4-4.4,3.1-5.3c1.7-1,3.1-0.2,3.1,1.8c0,1.9-1.4,4.3-3.1,5.3
						C578.7,603.1,577.3,602.3,577.3,600.3z"/>
					<path class="st80" d="M585.6,595.6c0-2,1.4-4.4,3.1-5.3c1.7-1,3.1-0.2,3.1,1.8c0,1.9-1.4,4.3-3.1,5.3
						C587,598.4,585.6,597.6,585.6,595.6z"/>
					<path class="st80" d="M593.8,590.8c0-2,1.4-4.4,3.1-5.3c1.7-1,3.1-0.2,3.1,1.8c0,1.9-1.4,4.3-3.1,5.3
						C595.2,593.6,593.8,592.8,593.8,590.8z"/>
					<path class="st80" d="M602,586.1c0-2,1.4-4.4,3.1-5.3c1.7-1,3.1-0.2,3.1,1.8c0,1.9-1.4,4.3-3.1,5.3
						C603.4,588.9,602,588.1,602,586.1z"/>
					<path class="st80" d="M610.3,581.4c0-2,1.4-4.4,3.1-5.3c1.7-1,3.1-0.2,3.1,1.8c0,1.9-1.4,4.3-3.1,5.3
						C611.6,584.1,610.3,583.3,610.3,581.4z"/>
				</g>
			</g>
		</g>
	</g>
	<g>
		<g>
			<path class="st82" d="M289.8,289.9l0,2l0,0.1l0,3.6l0.9,4l2.1,3.2c1.1,1.3,2.3,1.2,2.8,0.5c0.3-0.5,0.4-1.3-0.1-2.1l-1.5-2.5
				l-0.5-4v-5.8l-0.1,0l-1.3,0.4L289.8,289.9z"/>
			<path class="st2" d="M289.8,291.9L289.8,291.9l0,3.7l0.9,4l2.1,3.2c1.1,1.3,2.3,1.2,2.8,0.5c-1.8,0.1-2.9-1.3-3.7-3.3
				c-0.9-1.2-1.1-2.5-0.6-3.9c-0.9-1.5-0.5-3.5,0.3-5.3L289.8,291.9z"/>
			<path class="st82" d="M286.7,291.6v4.9l0.5,4.6l2.5,3.7c1.3,1.5,2.6,1.2,3,0.2c0.2-0.5,0.2-1.1-0.2-1.8l-1.9-3.2l-0.1-4.1
				l0.2-5.2L286.7,291.6z"/>
			<path class="st2" d="M286.7,293.2v3.3l0.5,4.6l2.5,3.7c1.3,1.5,2.6,1.2,3,0.2c-2,0.3-4-1.3-4.3-4.2c-0.8-0.8-1.1-2.8-0.4-3.7
				c-0.7-1.2-0.5-3.6,0.4-4.5L286.7,293.2z"/>
			<path class="st82" d="M283.3,297.4l0.8,4.7l2,3.7c0.8,1.1,1.9,1,2.5,0.3c0.3-0.4,0.5-0.9,0.2-1.5l-1.3-3.4l-0.3-4.1l0.3-5.1
				l-3.9,0.5l-0.1,1.4L283.3,297.4z"/>
			<path class="st2" d="M283.3,297.4l0.8,4.7l2,3.7c0.8,1.1,1.9,1,2.5,0.3c-2.2,0.3-2.9-1.7-3.1-4c-0.8-1.2-1-2.6-0.7-4.2
				c-0.7-1.4-0.7-2.8,0-4.1l-1.2,0.1L283.3,297.4z"/>
			<path class="st82" d="M280,291.4c0.1,0.6,0.3,1.2,0.7,1.7c0.2,0.2,0.3,0.3,0.5,0.5c0.6,0.4,1.4,0.6,2.6,0.4c0.2,0,0.3,0,0.5-0.1
				c1.9-0.5,3.9-1.2,5.6-2c1.1-0.5,2.1-1.1,2.8-1.7c0.2-0.2,0.4-0.4,0.6-0.6c0,0,0,0,0,0c0.1-0.1,0.2-0.3,0.3-0.4l-0.1-0.5l-0.7-3.5
				l-3-15.1l-7.1,2.5l-0.8,0.2l0.1,5.8C279.7,281.1,279.8,286.1,280,291.4z"/>
			<path class="st82" d="M280,291.4l0.6,6l0.7,3.5l1.6,3c0.5,0.8,1.3,0.8,1.9,0.4c0.3-0.2,0.5-0.7,0.4-1.1l-0.9-2.8l-0.6-2.9
				l0.2-3.4l0-0.4l-2.9-1.7L280,291.4z"/>
			<path class="st2" d="M292.1,289.2c0.1,0.1,0.2,0.2,0.4,0.3c0,0.3,0.1,0.5,0.1,0.8c0.3,1.6,0.6,3.2,0.2,4.6
				c0.4,1.3,0.7,2.6,1.2,3.7l-0.5-4v-5.8l-0.1,0l-0.7-3.5l-1.4-3.4l-2.4-0.4C288.8,285,289.6,287.1,292.1,289.2z"/>
			<path class="st82" d="M289,282.8c0.6,2.6,1.7,4.8,4.1,6l0.7,4.2c0.3,1,0.9,2.3,1.8,2.9c0.5,0.4,1.2,0.3,1.7-0.2
				c0.4-0.4,0.7-1,0.5-1.7l-0.5-1.8l-0.8-3.5l0.1-5.6c-1.5-3.9-3.3-6.7-5.2-7.6l-0.1-5.7l-2.4,0.6
				C288.7,274.2,288.2,278.9,289,282.8z"/>
			<path class="st2" d="M280,291.4l0.6,6l0.7,3.5l1.6,3c0.5,0.8,1.3,0.8,1.9,0.4v0c-1.6-0.4-2.2-1.7-2.4-3.6
				c-0.8-0.8-1.1-1.8-0.7-3.1c-0.8-1.4-0.2-2.6,0.4-3.8c0,0-0.2-0.8-0.4-2.1c-0.5-3.5-1.1-10.4,2.1-12.9c-0.9-1.5-1.3-3.5-1-6.3
				l-0.8,0.2l0.1,5.8C279.7,281.1,279.8,286.1,280,291.4z"/>
			<path class="st2" d="M289,282.8c0.6,2.6,1.7,4.8,4.1,6l0.7,4.2c0.3,1,0.9,2.3,1.8,2.9c0.5,0.4,1.2,0.3,1.7-0.2
				c-2.3-0.1-3.4-2.7-3.4-7.4C291.6,287.7,290.1,285.6,289,282.8z"/>
			<path class="st2" d="M281.6,291.9c0.2,1.3,0.4,2.1,0.4,2.1c0.5,0.1,1.1,0.2,1.8,0.1c0.2,0,0.3,0,0.5-0.1c1.9-0.5,3.9-1.2,5.6-2
				c1.1-0.5,2.1-1.1,2.8-1.7c0.2-0.2,0.4-0.4,0.6-0.6C289.7,291.6,284.2,293.6,281.6,291.9z"/>
		</g>
		<path class="st83" d="M293,279.9c-4.8,4.1-8,3.6-11.8-0.2c-3.7-15.2-6.5-27.5-6-45.2c0,0,1-12.4,6.5-28.7
			c6.3-18.6,26.6-29.9,23.3-6l-10.9,36.9L293,279.9z"/>
		<path class="st84" d="M275.2,433.8c0,0-2.2,10.6-2.3,14.3c-0.1,4.7,8.9,5.2,11.2,5c2.3-0.1,19.2-4.4,19.2-4.4
			c5.1-2.5,8.8-5.5,7.7-8.7c-1-3.2-4.6-4.5-9-4.3l-7.3-0.8l-2.1-3.7l-16.1-0.5L275.2,433.8z"/>
		<g>
			<path class="st84" d="M377.6,444c-8.3,5-15.3,8.6-21.8,10.8c-3,0.9-5.5,1.2-7.3,0.9c-2.6-0.4-4.1-1.8-4.5-3.9
				c-0.7-5.2,0-9.3,1.2-14.5v-11c9.3-1.1,6.5,0,11.8-4.2c5.8,11,5,8.7,4.8,11.3l6.7,0.4l3.4-0.4c2.2-0.2,4.5,0.6,5.9,2.3
				C380.4,438.8,379.3,442.8,377.6,444z"/>
			<path class="st85" d="M293.4,280.3l-4.2,72c-7.6,19.1-11.1,41.6-15,80c-1.7,8.9,21.1,9.7,24.2,3.1c7.4-19.2,8.8-40.7,20.1-71.8
				c2.2-15.2,11.8-58.7,9.5-69.2C328,294.4,305.8,294.7,293.4,280.3z"/>
			<path class="st86" d="M313.1,320.3l18.8,45.6c-3.2,24.2,1.7,44,9.3,74.1c0.9,6.9,21.6,2,21.6-6.6c-0.4-23.2-3.6-43.2-5.1-75.3
				c-0.9-14.3-14.2-60.1-16.5-70.6c-2.1-17.9-52.5-27.4-52.9-9.8C287.2,299.4,288.2,316.1,313.1,320.3z"/>
		</g>
		<g>
			<path class="st82" d="M386.1,257.2l3.1-0.4l0.2,0l3.9-0.6l2.6-1c1.4-0.4,2.2,0.4,2.3,1.1c0,0.3-0.1,0.7-0.5,0.9l-3.1,1.5
				l-3.3,0.9c0,0-2.6,0.8-3,0.6l-0.7-0.9l-1.4-1.8L386.1,257.2z"/>
			<path class="st87" d="M385.9,259.9l-0.3-2.2l0.7-0.2l2.8-0.7l6.8-1.6l0,0c1.4-0.4,2.2,0.4,2.3,1.1c-1.1,0.2-2.4,0.7-3.3,1.4
				c-0.9-0.1-1.6,0.1-2.9,0.9c-0.9-0.3-2.4,0.2-4.3,0.7C387.2,259.5,386.6,259.7,385.9,259.9z"/>
			<path class="st82" d="M388.5,258.9l-0.7-1.7l-1-2.4l-0.3-0.6l2.4,0.1l3.4,0.2l4.1-1l2.7-1.3c1.5-0.6,2.5,0.2,2.5,1
				c0,0.3-0.1,0.6-0.4,0.9l-3.6,2.3l-4.5,1.5C393.1,257.8,388.8,259,388.5,258.9z"/>
			<path class="st87" d="M387,257.4l-0.4-2.5l0.1,0l2.2-0.5l3.4,0.2l4.1-1l2.7-1.3c1.5-0.6,2.5,0.2,2.5,1c-0.9,0-2.8,0.7-4,1.7
				c-1.1-0.1-1.9,0.2-3.4,1.1c-1.2-0.4-3.7,0.5-6.4,1.3C387.5,257.3,387.3,257.3,387,257.4z"/>
			<path class="st82" d="M391.1,255.8l-1-2.3l-0.8-2.1l-0.2-0.5l0.3,0l5.7,0.3l4.2-1l2.8-1.3c0.8-0.3,1.5-0.2,1.9,0
				c0.8,0.4,1,1.4,0.2,1.9l-3.8,2.4l-4.6,1.5C395.9,254.7,391.5,256,391.1,255.8z"/>
			<path class="st87" d="M388.7,253.9l0.6-2.5l0.1-0.4l5.7,0.3l4.2-1l2.8-1.3c0.8-0.3,1.5-0.2,1.9,0c-1.2,0.2-2.3,0.9-3.4,1.8
				c-1.5,0.2-3.1,0.8-4.6,1.7c-1.1-0.3-3.5,0.3-6,1.1C389.7,253.6,389.2,253.8,388.7,253.9z"/>
			<path class="st82" d="M368.9,260.1c1.9-1.2,2.6-4.2,1.9-6.8c-0.3-1.3-1-2.5-1.9-3.4l9.5-1.3c2.3-2.2,4.9-3.5,8.1-3.9l0.8,0.7
				l3.2,2.6l0.3,0.6l1.5,3.1c-0.3,2.9-1.1,6.3-3.7,8.6c-4.2-0.3-8.1-0.5-10.7-1.7L368.9,260.1z"/>
			<path class="st82" d="M391.4,252.7l-1.5-3.7l-0.3-0.6l-0.1-0.1l-0.2-0.4l1.6,0.1l1.5,0.1l3,0.1l4.2-1l2.8-1.3
				c1.3-0.5,2.2,0,2.5,0.6c0.2,0.5,0.2,1-0.3,1.4l-3.8,2.4l-4.6,1.5C396.2,251.5,391.8,252.8,391.4,252.7z"/>
			<path class="st82" d="M386.3,245.7c0-0.3,0.1-0.7,0.1-1c3.5-0.6,7-0.7,7.1-0.7l3.9-1.7c0.3-0.1,0.5-0.2,0.7-0.2
				c0.8-0.1,1.2,0.5,1,1.3c-0.1,0.5-0.4,1.1-1,1.7c-0.8,0.8-3.1,1.9-4.2,2.4l-1.5,0.6l-1.1,0.4l-0.7,0.3l-0.8,0.3l-1.7,0.6
				C386.6,248.6,386.1,247.3,386.3,245.7z"/>
			<path class="st87" d="M388.7,248.3c0.3,0,0.6-0.1,0.8-0.1c0.5-0.1,1-0.2,1.4-0.3c1.8-0.4,3.4-1,4.6-2c1.4-0.4,2.5-1.4,3.6-2.6
				c-0.1,0.5-0.4,1.1-1,1.7c-0.8,0.8-3.1,1.9-4.2,2.4l-1.5,0.6l3,0.1l4.2-1l2.8-1.3c1.3-0.5,2.2,0,2.5,0.6c-1.7-0.6-3.2,0.1-4.7,1.3
				c-1.4-0.2-2.8,0.5-4.5,1.6c-1.1-0.5-2.6-0.8-4.3-0.8c-0.6,0-1.2,0-1.8,0C389.4,248.3,389.1,248.3,388.7,248.3z"/>
			<path class="st87" d="M368.9,249.9l9.5-1.3c2.3-2.2,4.9-3.5,8.1-3.9c3.5-0.6,7-0.7,7.1-0.7l3.9-1.7c0.3-0.1,0.5-0.2,0.7-0.2
				c-2.1,1-4,1.9-4.9,2.8c-1.9-0.5-3.9-0.3-6,0.4c-0.3,0.1-0.6,0.2-1,0.4c-2.9,0-6.3,2.7-7.2,4.9c-2.8-1.3-6.3,0.4-8.3,2.7
				C370.5,252,369.8,250.7,368.9,249.9z"/>
		</g>
		<g>
			<g>
				<path d="M342.7,288.5c0,0.1,0.1,5,0,6.9c-16.3,11.5-50.1-2.5-53.1-13.4c0.1-2.3-0.3-4.5,0-7.5
					C299.6,288.3,330.5,295.5,342.7,288.5z"/>
				<g>
					<path class="st88" d="M289.5,276.6c8.6,11.9,38.7,23.1,53.2,12.4c8-29.5,6.1-68.9,1.9-81.6c-5.9-7-15-13.8-26.1-19.1
						c-11.1-2.1-11.3-4.6-18.5-2.6C278.1,191.9,286.7,272.7,289.5,276.6z"/>
				</g>
			</g>
			<path class="st83" d="M307.2,185.8c-5.3,4.8-5.3,9.6,4.3,14.4c8.7,2.4,16.4,1.7,22.1-3.3l-5.2-5.2L307.2,185.8z"/>
		</g>
		<path class="st83" d="M377.5,248.4c2.3,0.7,5.2,8.5,1.2,11.7c-11.9,6.4-28.6,8.3-38.8,8.3c-6-9.9-10.3-22.4-11.8-39.5
			c-3-19.4,18.2-34.8,20.3-10.8l6.2,29.4C361.1,247.5,368.6,247.5,377.5,248.4z"/>
		<g>
			<path class="st82" d="M307.2,180.3l-0.1,8c0.5,7.8,17.9,8.9,21.3,4.7l0-4.7l1.5-0.6c3.1-1.5,3.9-3,4.4-11.2
				c0.3-5.1,0.2-7.8,0.7-10.6c0.3-1.7,0.1-3.1,0-4.5c-0.3-5.7-5.5-15.2-16.5-14.1c-10.6,1-16.5,7.2-16.5,17
				C302.1,170.8,303.4,176.3,307.2,180.3z"/>
			<path class="st85" d="M307.2,184c4.4,3,9.1,4.1,13.9,2.8c3.9-1.6,4.1-9.2,4.4-16.6l2.2-1.2c-0.6-1.8-1-4.4,0-7
				c2.1-5.7,9.1-6,9.4-9.2c0.2-3.3-7-7.3-13.5-8.3c-6.2-1-16.1,0.1-20.8,7.3c-2.7,4.1-2.6,8.4-2.6,12.1
				C300.3,173.4,304.6,180.5,307.2,184z"/>
			<path class="st82" d="M325.7,168.9c-0.9-3.8-5.8-1.4-4,5.8c0.7,2.8,2.1,5,4.1,2.3C325.7,176.5,325.7,169.2,325.7,168.9z"/>
		</g>
	</g>
	<g>
		<g>
			<g>
				<path class="st82" d="M439.3,226.7C439.3,226.7,439.3,226.7,439.3,226.7c0.2,0.2,0.6,0.8,1.3,1.7c0.4,0.6,0.9,1.2,1.4,1.9
					c0,0,0,0,0,0c1,1.5,2.2,3.4,3.1,5.2c0.4,0.8,0.8,1.7,1,2.5c0.1,0.4,0.2,0.8,0.3,1.1c0.8,0,1.4,0,2.1-0.1c2.8-0.3,4.5-1.4,7-3.4
					l3.5-0.8c2.6-2.4,1.1-9-1.8-9.8l-6.2,0.6l-9.6,0.9l-1.7,0.2L439.3,226.7z"/>
				<path class="st82" d="M432.9,242.9c0.1,0.2,0.2,0.4,0.4,0.6c1.4,1,4.1-1.8,6.1-4.3c1.8-0.5,3.6-1.5,5.3-2.7
					c0.5-0.4,1-0.8,1.4-1.2l-2.6-3l-6.3,4C434.8,238.6,432.4,241.4,432.9,242.9z"/>
				<path class="st82" d="M438.4,245.9c1.6,0.9,2.6-2.4,4.1-4.8c1.4-0.5,2.7-1.1,3.9-2c0.4-0.3,0.8-0.6,1.2-1
					c0.2-0.2,0.4-0.4,0.6-0.6l-2.5-2.4l-0.6,0.4l-4.7,3.6C438.2,241.4,436.7,245,438.4,245.9z"/>
				<path class="st82" d="M430.1,238.8c1,1.5,4.4-1,6.7-3.1c2.3-0.2,4.6-1.1,6.7-2.3c0.2-0.1,0.4-0.2,0.6-0.3l-2.1-3.4l-6.9,2.8
					C432.2,234.4,429,237.2,430.1,238.8z"/>
				<path class="st82" d="M427.9,233.1c0,0.2,0.1,0.4,0.1,0.6c0.7,1.6,4.5-0.4,7.1-2.2c2.3,0.2,4.6-0.2,6.9-1.1
					c0.1-0.1,0.3-0.1,0.4-0.2c0,0,0.1,0,0.1,0l-0.6-1.8l-0.6-1.9l-0.1-0.2l-1.6,0.4l-0.3,0.1l-2.3,0.6l-3,0.7
					C431.1,229.4,427.9,231.3,427.9,233.1z"/>
				<path class="st87" d="M437,227.3c1.6,0.9,2.4,1.1,3.6,1.1c0.4,0,0.8,0,1.3,0c0.3,0,0.7,0,1.2,0c3.9,3.3,9.7,4.6,10.4-1.9
					c-0.9-0.2-1.7-0.5-2.6-0.9l-9.7,0.7L437,227.3z"/>
				<path class="st82" d="M453.4,225.4c-2.1-0.6-4.1-1.5-6.1-2.7c-0.7-0.5-1.7-0.6-2.5-0.4c-3.8,1.3-6.5,0.9-9.4-0.3
					c-1.6,1-0.6,3,1.2,3.9c2.8,1.5,3.2,1.2,6.4,1.2C446.9,230.5,454.5,235.2,453.4,225.4z"/>
				<path class="st87" d="M435,230.3c2.3,0.5,4.7-0.3,7-1.5l0,0c0.1-0.1,0.2-0.1,0.3-0.1c0.6,3.4,3.4,8.1,5.6,8.7
					c2.2,0.6,4.6-0.5,7.2-2.7l3.8,0.1l-3.5,0.8c-2.6,2-4.3,3.2-7.2,3.4c-0.1,0-0.3,0-0.4,0c-0.1,0-0.1,0-0.2,0c-0.1,0-0.3,0-0.5,0
					c-0.1,0-0.1,0-0.2,0c-0.2,0-0.4,0-0.7,0c-1.2,0.9-2.5,1.6-3.9,2c-1.6,2.4-2.5,5.6-4.1,4.8c0.8-0.2,2-2.1,3.7-5.4
					c1.3-0.4,2.5-1.1,3.5-2c-0.4-0.4-0.8-1.1-1.2-1.9c-1.6,1.1-3.3,2.1-5,2.5c-2,2.5-4.6,5.3-6.1,4.3c-0.2-0.2-0.4-0.3-0.4-0.6
					c2.3,0,4.3-1.9,6.3-4.6c2-0.3,3.8-0.9,5-2c-0.4-0.8-0.8-1.7-1.1-2.5c-2,1.1-4.1,1.9-6.2,2c-2.4,2.1-5.8,4.6-6.7,3.1
					c2,0,4.2-2.1,7-4.3l5.7-1.5c-0.4-1-0.7-2-0.8-2.7c-2.3,0.9-4.6,1.3-6.8,1.1c-2.7,1.8-6.4,3.7-7.1,2.2c-0.1-0.2-0.1-0.4-0.1-0.6
					C429.9,234.2,432.7,232.4,435,230.3z"/>
			</g>
			<path class="st89" d="M519.2,185.7l-16,35.9c-19.3,9.9-45.3,20.1-48.9,15.9c-2.9-3.5-4-8.6-2.1-13.1c0,0,27-13.4,34-18.9
				l12.6-31.2C505.3,159.6,527.5,167.1,519.2,185.7z"/>
			<path class="st85" d="M544.9,379.1l7.3,10.7l-2.7,11.8c-5.2,4.4-7.5,7.8-6.1,10.7c3.1,3.2,7.6,3.5,12.5,2.7
				c8.9-0.6,15-17.5,18-26.6c-1.8-4-3.9-6.5-6.7-8.2l-7.4-11.5L544.9,379.1z"/>
			<path class="st85" d="M490.2,406.9l-2.8,14.2c-2.4,3.7-5.9,6.7-10.7,8.6c-5.8,1.1-9.9,2.5-11.5,5.6c-1,1.9-0.6,4.2,0.7,5.9
				c1.8,2.4,4.2,4.1,9.7,4.1c10.6-0.8,25-2.9,28.7-6.4c1-4.1,1.7-8.3,0.6-12.8l3.6-15.1L490.2,406.9z"/>
			<path class="st90" d="M498.2,270.3l11.6,65.2l42.4,54.4c2.7,2.3,19.2-1.2,16.4-10.4l-32.5-59.2l-5.6-49l-25.6-8.4L498.2,270.3z"
				/>
			<path class="st91" d="M543.2,309.4l-18.9,44.1c-8,44.2-14.4,63.4-17.6,74.8c-1.5,5.4-21.6,3-21.6-6l11.6-79.1l17.1-50.5
				c-10-4.3-15.7-11.4-16.1-29.5c1.2-23.9,47.6-0.9,52,13.1C552.9,288.2,549,302.3,543.2,309.4z"/>
			<g>
				<path d="M549.6,271.2c0,0.1,0.1,5,0,6.8c-16.1,11.4-49.5-2.5-52.5-13.3c0.1-2.2-0.3-4.4,0-7.4C507,270.9,537.5,278,549.6,271.2z
					"/>
				<path class="st92" d="M507.1,273.2c1.6,1.4,3.9,2.3,6.7,3.3v-4.2c-2.5-1-4.8-1.9-6.7-3.3V273.2z"/>
				<g>
					<path class="st93" d="M497,259.4c8.5,11.7,38.2,22.9,52.6,12.3c3-2.2,2.1-4.9,3-11.5c0.8-7,1.4-13.4,1.9-19.2
						c2.1-22.8,2.5-37.4,2.2-45v0c0-1.4,0.2-1.9,0.1-2.8c-5.8-6.9-16.3-14.8-24.7-20.2c-11.4-5.2-12.3-4.8-18.1-6.9
						C491.1,157.7,494.2,255.5,497,259.4z"/>
					<path class="st89" d="M558.3,304c-1.3,0.5-2.5,1-3.7,1.5c-1.7,0.7-3.5,1.2-5.2,1.7c-5.7,1.6-11,2.3-15.9,1.7
						c-1.4-0.1-2.7-0.4-4-0.7c-0.8-0.2-1.7-0.5-2.5-0.8c-5.3-1.9-8.8-7-8.9-12.7l0.7-19l0.4-10.2l1.4-34
						c2.8-22.5,7.6-43.7,16.3-55.7c7.2,5,15.4,11,19.9,17.2l0.4,32.3v0.4l0.9,69.5L558.3,304z"/>
					<path class="st89" d="M518.8,166.7c-6.3,16.3-12.1,35.7-13.6,56.9l-4.4,55.1c0.1,4.9,0,13.4-8.1,9.5l-3.8-2.1l6.1-84.6
						C497.8,176.7,503,160.6,518.8,166.7z"/>
				</g>
				<path class="st85" d="M535.3,171.5c0.9,8-2.3,9.7-5.4,17.5c-4.8,12-8,29.6-9.3,42.6l15.8-35.4l-6-4.8l6.5,0.7
					c2.1-4.8,3.5-9.4,3.3-13.7C539.2,176.4,537.4,173.3,535.3,171.5z"/>
				<path class="st85" d="M519.9,166.6c-7.7,14.3-12.6,36.3-14.9,60.7c-1.3-16-1.9-31-0.7-43.8l5.3,0.8l-4.6-3.6l10.2-15.3
					L519.9,166.6z"/>
				<g>
					<path class="st94" d="M509.6,150.4c-5.3-2.3-6.3-6.4-5.6-11.9c1.3-7.8,9.8-10.3,18.5-10.3c12.4,0.1,18,10.4,15.2,23
						c-1,4.4-1.1,8.9-1.4,10.8c-0.3,2.5-1.3,3-3.6,3.4L509.6,150.4z"/>
					<path class="st82" d="M515.5,179.2c0-0.1-0.1-0.2-0.1-0.3l-0.5-6.4l-0.2-1.9l19.1-12.3l1.4,12.4
						C537.6,183,517.7,185.4,515.5,179.2z"/>
					<path class="st87" d="M515.5,179.2c0-0.1-0.1-0.2-0.1-0.3l-0.5-6.4l14-7.4C529.9,173,523.5,181.2,515.5,179.2z"/>
					<path class="st82" d="M504.9,140.9c1.3-7.6,9.1-10.4,17.4-10.2c11.3,0.3,14.3,8.6,14.6,17.4c-0.2,4.1-1.3,8.9-2.6,13l-5.4,4.1
						c0,0-1.5,4.6-4.4,7c-2.8,2.4-6.4,4.2-9.9,3.5c-3.8-0.6-6.4-2.9-7.4-9c-0.9-5.8-1.7-6.2-2-8.8c-0.2-1.5,0.1-3.2,0-4
						c-0.1-1-0.8-2.3-0.9-3.4C504,148,504.5,143.1,504.9,140.9z"/>
					<path class="st94" d="M503.9,138.5c0.6-0.8,1.9-0.5,2.5,0.3c0.6,0.7,0.9,1.7,1.6,2.4c1.2,1.3,3.3,1.4,4.9,0.8
						c1.7-0.6,3.1-1.8,4.5-2.7c1.5-1,3.2-1.8,5-1.5c2.4,0.3,4.1,2.6,4.6,5c0.5,2.4,0.2,9.2,0.2,9.2s3.4-0.3,4.2,0.4
						c2.1,1.8-2,11.5,3.2,12.5c1-3.8,2.2-10.7,2.6-14.6c0.3-3.9,0.1-7.9-1.4-11.5c-1.5-3.6-4.2-6.8-7.9-8.2
						c-3.3-1.3-6.9-1.2-10.4-0.6c-2.8,0.4-5.6,1.1-8.1,2.4C507,133.7,504.8,135.8,503.9,138.5z"/>
					<path class="st82" d="M531.5,148.5c2.7-1,2.7,2.8,2.5,4.4c-0.1,1.1-0.5,2.1-0.6,3.1c-0.1,1,0.1,2.3-0.6,3.1
						c-1.8,2-3.5-1.4-3.9-2.7C528.4,154.5,529.2,149.4,531.5,148.5z"/>
				</g>
			</g>
		</g>
		<g>
			<path class="st95" d="M558.3,304c-1.3,0.5-2.5,1-3.7,1.5c-1.7,0.7-3.5,1.2-5.2,1.7c-5.7,1.6-11,2.3-15.9,1.7
				c-1.4-0.1-2.7-0.4-4-0.7c9.7-10.1,13.5-32.8,14.9-56l-3.9-36.1l16.5,22.8l1.2,56.4L558.3,304z"/>
			<g>
				<path class="st82" d="M557.5,301.2l0,3.2v0.2l-0.2,4l-0.7,2.8c-0.2,1.5,0.6,2.2,1.3,2.2c0.4,0,0.7-0.2,0.8-0.6l1.2-3.3l0.6-3.4
					c0,0,0.5-2.7,0.3-3.1l-1-0.6l-2-1.2L557.5,301.2z"/>
				<path class="st87" d="M560.1,300.7l-2.2-0.1l-0.1,0.8l-0.4,2.9l-0.9,7.1l0,0c-0.2,1.5,0.6,2.2,1.3,2.2c0-1.1,0.4-2.5,1.1-3.5
					c-0.2-0.9-0.1-1.6,0.6-3c-0.4-0.9-0.1-2.5,0.2-4.4C559.9,302,560,301.4,560.1,300.7z"/>
				<path class="st82" d="M559.4,303.4l-1.8-0.5l-2.5-0.7l-0.7-0.2l0.4,2.4l0.5,3.4l-0.5,4.2l-1,2.9c-0.4,1.6,0.5,2.5,1.3,2.4
					c0.3,0,0.6-0.2,0.8-0.5l1.9-4l1-4.7C558.8,308.1,559.6,303.7,559.4,303.4z"/>
				<path class="st87" d="M557.8,302.1l-2.6-0.1l0,0.2l-0.3,2.3l0.5,3.4l-0.5,4.2l-1,2.9c-0.4,1.6,0.5,2.5,1.3,2.4
					c-0.1-0.9,0.3-2.9,1.2-4.2c-0.2-1.1-0.1-1.9,0.7-3.6c-0.5-1.2,0-3.8,0.5-6.7C557.7,302.6,557.7,302.3,557.8,302.1z"/>
				<path class="st82" d="M556.6,306.4l-2.5-0.7l-2.2-0.6l-0.5-0.1l0,0.3l0.9,5.8l-0.6,4.4l-1,3c-0.2,0.9-0.1,1.5,0.3,1.9
					c0.5,0.8,1.6,0.8,2,0l1.9-4.1l1-4.9C556.1,311.4,556.8,306.8,556.6,306.4z"/>
				<path class="st87" d="M554.4,304.2l-2.4,0.9l-0.4,0.2l0.9,5.8l-0.6,4.4l-1,3c-0.2,0.9-0.1,1.5,0.3,1.9c0.1-1.3,0.6-2.5,1.4-3.7
					c0-1.6,0.4-3.2,1.2-4.8c-0.5-1.1-0.1-3.5,0.4-6.2C554.2,305.2,554.3,304.7,554.4,304.2z"/>
				<path class="st82" d="M558.4,283.4c-0.9,2.1-3.9,3.1-6.7,2.8c-1.4-0.2-2.7-0.7-3.7-1.5l-0.2,9.8c-2,2.6-3,5.4-3,8.6l0.8,0.8
					l3,2.9l0.7,0.2l3.3,1.1c2.9-0.7,6.2-1.8,8.3-4.7c-0.8-4.3-1.5-8.2-3-10.6L558.4,283.4z"/>
				<path class="st82" d="M553.5,307.1l-4-1.1l-0.6-0.2l-0.1,0l-0.4-0.1l0.3,1.6l0.2,1.5l0.5,3l-0.6,4.4l-1,3
					c-0.3,1.3,0.2,2.2,0.9,2.4c0.5,0.2,1.1,0,1.3-0.5l1.9-4.1l1-4.9C552.9,312.1,553.7,307.5,553.5,307.1z"/>
				<path class="st82" d="M545.8,302.7c-0.3,0.1-0.7,0.2-1,0.3c-0.2,3.6,0.1,7.1,0.1,7.3l-1.2,4.2c-0.1,0.3-0.1,0.5-0.1,0.7
					c0,0.8,0.6,1.1,1.4,0.9c0.5-0.1,1.1-0.5,1.6-1.2c0.7-0.9,1.5-3.3,1.9-4.6l0.4-1.6l0.3-1.1l0.2-0.8l0.2-0.9l0.4-1.8
					C548.7,302.6,547.5,302.4,545.8,302.7z"/>
				<path class="st87" d="M548.7,304.9c0,0.3,0,0.6,0,0.9c0,0.5-0.1,1-0.1,1.5c-0.2,1.9-0.6,3.6-1.4,4.8c-0.3,1.4-1.1,2.7-2.2,4
					c0.5-0.1,1.1-0.5,1.6-1.2c0.7-0.9,1.5-3.3,1.9-4.6l0.4-1.6l0.5,3l-0.6,4.4l-1,3c-0.3,1.3,0.2,2.2,0.9,2.4
					c-0.8-1.6-0.3-3.2,0.8-4.9c-0.4-1.4,0.2-2.9,1.1-4.7c-0.7-1-1.1-2.6-1.4-4.3c-0.1-0.6-0.2-1.2-0.2-1.8
					C548.8,305.5,548.8,305.2,548.7,304.9z"/>
				<path class="st87" d="M548,284.6l-0.2,9.8c-2,2.6-3,5.4-3,8.6c-0.2,3.6,0.1,7.1,0.1,7.3l-1.2,4.2c-0.1,0.3-0.1,0.5-0.1,0.7
					c0.7-2.3,1.5-4.3,2.3-5.3c-0.8-1.8-0.7-3.9-0.3-6.1c0.1-0.3,0.2-0.7,0.2-1c-0.3-3,2-6.7,4.1-7.9c-1.7-2.7-0.4-6.4,1.7-8.7
					C550.3,286,549,285.5,548,284.6z"/>
			</g>
			<path class="st89" d="M556.7,193c8.3,8.6,8.9,32.3,11,49c-1.1,16.8-2.6,33.8-6.8,51.3c-0.7,6.3-13.3,5.9-14.1,1.1
				c-0.7-19-0.6-30.6,1.6-44.7c-3.7-8.9-5.3-23.1-8.5-37.4C539.4,198.5,547.7,187.7,556.7,193z"/>
		</g>
	</g>
	<g>
		<g>
			<path class="st96" d="M240,320c0.9-3.7-2.4-11.6-5.9-10c-4.5,2.2-6,10.2-3.5,14.5C232.3,327.5,239.1,323.4,240,320z"/>
			<path class="st97" d="M224.4,363.6c-1.9-1.6-3.1-5.7-6.3-6.4c-7.7-1.6-9.1,0-8.6,1.4c-5.3-0.1-6.3,1.3-3.6,3.4
				c-3.5,1.2-0.4,2.7,1.4,3.5c4.9,2.2,5.7,3.9,9.4,4.8C228.6,373.2,230.9,369.1,224.4,363.6z"/>
			<g>
				<path class="st98" d="M217.4,357.3c-2.3-0.5-4.2,0-4.4,1.1c-0.1,1.1,1.6,2.5,3.9,3c2.3,0.5,4.2,0,4.4-1.1
					C221.4,359.1,219.7,357.8,217.4,357.3z"/>
				<path class="st98" d="M212.7,358.7c-2.3-0.5-4.2,0-4.4,1.1c-0.1,1.1,1.6,2.5,3.9,3c2.3,0.5,4.2,0,4.4-1.1
					C216.7,360.6,215,359.3,212.7,358.7z"/>
				<path class="st98" d="M214.9,361.9c-2.3-0.5-4.2,0-4.4,1.1c-0.1,1.1,1.6,2.5,3.9,3c2.3,0.5,4.2,0,4.4-1.1
					C218.9,363.8,217.2,362.4,214.9,361.9z"/>
			</g>
			<path class="st97" d="M229.6,336.9c-2.4,11.6-8.3,11.7-7.9,24.1c0.4,13.2,4.4,11.5,14.2,3.5c3-2.6,2.5-5.7,1.9-8.8
				c1.3-2,2.6-4.7,3.7-8c1.6-4.9,1.9-9.3,1.8-12.3c-0.4,0.5-3,3.4-7.3,3.6C232.7,339.2,230.3,337.4,229.6,336.9z"/>
			<path class="st99" d="M134.8,324c-15.8-24.4,7.1-29.8,32.3-20.4c3.3,1.2-6.1,6.4-9.2,4.7c-12.1-6.6-25.2-7.3-25.9,1.8
				C131.7,314.1,135.3,320.8,134.8,324z"/>
			<path class="st99" d="M156.3,307c-5.7,5.5-11.1,14-12.4,20.6c-0.5,2.4-8.1,2.5-8,5.3c0.5,9.5,0.7,12.6-0.7,19.7
				c-0.6,3.2,0.8,9.7,6.2,8.8c1.4,1.4,5.2,2.2,5.3-1.1c1,0.8,1.3-0.8,1.1-1.9c-0.6-2.4-3.4-2.7-3.4-5.1c0.1-4.9-2.1-7.9,1.1-11.5
				c3-3.4,12,2.2,20.4-6.3c3.4-3.4,17.6,6.5,16.2,0.6C179.5,323.4,164.5,317.2,156.3,307z"/>
			<path class="st99" d="M165.2,301.7c24.3-4.1,18.8,1.8,34.8,8.5c3.2,1.3,7.7,0.9,11.1,1.8c10,2.6,28.2,10.7,31.7,20.4
				c0.6,1.7,2.7,8.9-5.5,18.8c-2.7,3.3-9.1,12.6-12.7,14c-4.7,1.8-20.5,0.9-26-1.5c-20.3-8.6-15.6-17-32.3-29.8
				c-6.7-5.2-19.7-9.9-17-18C151.9,307.9,158.9,302.8,165.2,301.7z"/>
			<path class="st99" d="M238.9,310.9c-2.3,8.1-1.2,13.6,2.2,20.4c2,4-3,12.1-8.5,13.7c-19.3,0.9-36.7-6.8-29.2-25.9
				c5.1-5.2,6.6-10.4,6.8-16C210.5,295.1,241.2,303.1,238.9,310.9z"/>
			<path class="st100" d="M213.1,358.7c-0.5,3.8-5.6,4-4.8,7.1c6.3,0.7,13.4,0.6,16.3-0.5c3.3-1.3,9.4-9.1,12.1-13.1
				c2-3.6,2.5-5.8,2.8-13.8C240,327.1,217,331.5,213.1,358.7z"/>
			<path class="st99" d="M193.8,357.9c1.8,10.8,5,10.9,8,15.9c2.7,4.4,5.6,8.8,8.7,13.4c1.4,2.1,0.8,6.6,3.4,8.2
				c6.4,3.9,8.3,2.7,8.3,1.2c4.8,1.6,6.2,0.6,4.4-2.3c3.6-0.1,1.3-2.6,0-3.8c-3.6-3.6-5.4-3.9-6.8-7.6c-0.9-2.4-2.8-3.2-3.5-5.6
				c1.1-4-1.1-6.2-3.1-8.3c-0.7-3.6-0.1-8.9-0.8-12.4C208.5,358.1,197.7,356.3,193.8,357.9z"/>
			<path class="st99" d="M157.6,304.9c-0.4,0.6-0.3,1.3-0.4,1.9c-1.2,8.1,4.1,9.5,11.2,10.7c7.9,1.3,9.3,11.7,16.7,15.4
				c2,1,5.3,2.6,7.9,2.3c6.3-0.6,5.8,4.3,8.2-4.9c2.8-11,5.4,5.4,6.5-3.5c0.4-3,2.2-9.8,2.4-15c-3.2-0.6-7.1-0.3-10-1.5
				c-16-6.6-10.5-12.6-34.8-8.5C162.7,302.1,160.1,303.2,157.6,304.9z"/>
			<path class="st101" d="M267.8,299.8c-1.5,1.1-4.7,2.9-6.6-0.3c-0.7-1.1-0.3-2,0.7-2.6c1.7-1,2.4-0.4,3.7,0.6
				C266.4,298.2,267.4,299.1,267.8,299.8z"/>
			<path class="st102" d="M233.1,317.4c5.8-0.9,15.2,1.5,21.7,2.9c4.1-2.4,7.9-5.2,9.6-10.8c-6.1-4.2-12.2-8.4-18.3-12.6
				C242.5,303.3,236.6,310.9,233.1,317.4z"/>
			<path class="st97" d="M236,316.3c5.1-0.8,13.3,0.7,18.9,1.5c3.6-1.9,7-4,8.7-8.2c-5.2-2.9-10.4-5.8-15.7-8.7
				C244.6,305.8,239.2,311.5,236,316.3z"/>
			<path class="st103" d="M240,320c0.1,1.4-0.7,5-1.4,6.1c-3.2,4.7-14.4,4.9-23,0.5c-7.3-3.8-9.4-14.3-7.7-16.8
				c1.7-2.6,1.7-3.3,2.1-3.6c0.7,4.1,2.1,10.3,9.4,13.8C226.6,323.4,236.1,323.7,240,320z"/>
			<g>
				<path class="st104" d="M220.4,322.3c-1.4,0.3-2.4,1.6-2.1,3.1c0.3,1.4,1.6,2.4,3.1,2.1c1.4-0.3,2.4-1.6,2.1-3.1
					C223.2,323,221.8,322,220.4,322.3z"/>
				<path class="st104" d="M213.5,317.3c-1.1-0.1-2.2,0.9-2.4,2.4c-0.2,1.4,0.6,2.7,1.8,2.9c1.1,0.1,2.2-0.9,2.4-2.4
					C215.5,318.8,214.7,317.5,213.5,317.3z"/>
				<path class="st104" d="M209.9,310.7c-1-0.1-1.9,0.8-2.1,2.1c-0.1,1.3,0.5,2.4,1.5,2.5c1,0.1,1.9-0.8,2.1-2.1
					C211.6,311.9,210.9,310.8,209.9,310.7z"/>
				<path class="st104" d="M230.4,323.8c-1.3-0.1-2.6,1-2.9,2.5c-0.2,1.5,0.6,2.7,2,2.8c1.3,0.1,2.6-1,2.9-2.5
					C232.6,325.2,231.7,323.9,230.4,323.8z"/>
				<path class="st104" d="M238.9,322.1c-1-0.5-2.4,0.2-3,1.5c-0.6,1.3-0.3,2.8,0.8,3.3c1,0.5,2.4-0.2,3-1.5
					C240.3,324.1,239.9,322.6,238.9,322.1z"/>
			</g>
			<path class="st105" d="M264.4,291.1c2.3,3.5,5,4.2,4.1,7.9c-0.5,2-2.6-0.4-4.1,0.6c-3,1.9-4.1,7.8-7.1,3.1
				c-1.5-2.4-0.6-4.6,1-6.2c0.8-0.8,2-1.9,3-2.5C261.9,293.6,263.9,291.1,264.4,291.1z"/>
			<path class="st100" d="M217.1,282.2c9.9-9.1,13.4-8,23.1-3.2c2.2,1.1-0.9,4.1,4.3,5.5c2.8,0.7,12.5,5.4,19.2,5.4
				c3,0,1.4,8.1,0.3,10.9c-1.1,2.8-5.6,10.6-8.5,11.5c-8.5,2.6-11.9-1.6-16.5,1.7c-11.7,8.4-19.4,5.1-24.2-0.8
				c-1.1-1.3-5.5-7.7-6.2-13.9C208.1,293.7,209.8,286.3,217.1,282.2z"/>
			<path class="st98" d="M255.4,295.8c1.5,2.2,5.1-0.9,7,1.8c0.8,1.2,1.7,2.2,2.3,1.9c0.9-3.5,1.4-9.7-1-9.7c-1.4,0-2.9-0.2-4.5-0.5
				C258,289.9,255.9,292.3,255.4,295.8z"/>
			<path class="st99" d="M220.5,281.9c10.1,1.6,17.9,4.7,17.5,10.6c-0.5,6.7-2.4,12.7-3.8,14.7c-5.3,7.5-13.5,9.2-15.6,9.6
				c-0.9-0.6-2.2-1.4-3.5-2.7c-6-5.6-7-13.1-7.3-15.4c-0.2-2.5-0.5-4.9,0.6-7.8c1.1-3.1,3.7-6.1,9.1-9.2
				C218.6,281.7,219.6,281.8,220.5,281.9z"/>
			<path class="st106" d="M224.6,271.8c0.2,0.2,2.6-0.3,3.1-0.3c3.8,0.1,7.2,3.1,9.5,1.1c1.1-0.9-1.8-1.4-3.7-3.3
				c-0.8-0.8-0.5-1.5-0.9-1.6C230.6,267.8,225.3,269.8,224.6,271.8z"/>
			<path class="st107" d="M229.9,295.7c-1.1,0.6-2,2.3-1.9,3.7c0.1,1.5,1,2.2,2.2,1.5c1.1-0.6,2-2.3,1.9-3.7
				C232,295.8,231,295.1,229.9,295.7z"/>
			<path class="st98" d="M230.3,295c-0.8,0.5-1.3,2-1.1,3.4c0.2,1.4,1,2.2,1.8,1.7c0.8-0.5,1.3-2,1.1-3.4
				C231.9,295.2,231.1,294.5,230.3,295z"/>
			<path class="st106" d="M229.4,290.4c-1.4,0.5-3.3,1.2-4.4,2.2c-0.5,0.5-0.1,1.7,0.6,2c1.3,0.4,4.4,0.3,4.8-1.5
				C230.4,292.5,230.3,289.8,229.4,290.4z"/>
			<path class="st99" d="M221.2,279.7c4.9-0.6,5.8-1.7,10.8-2.3c1.2-3.7-4.6-5.9,0.7-9.6c-4.9-0.1-6.6,1.8-8.1,4
				C223.3,273.9,221.8,276.3,221.2,279.7z"/>
			<path class="st99" d="M219.1,280.4c6.9,0.8,14.9,4.5,22.5,5.5c1.4,0.2,3.4-0.1,5.3-0.5c-1.1-0.4-1.9-0.7-2.5-0.8
				c-5.3-1.3-2.1-4.3-4.3-5.5C231.2,274.5,225.9,273.3,219.1,280.4z"/>
			<path class="st106" d="M239.5,278.7c0.4,0.2,0.8,0.4,1.2,0.6c1,0.5,1.2,1.3,1.6,2.1c-0.2,0.4-0.6,0.7-1,0.8
				C237.6,283.2,238.6,280.8,239.5,278.7z"/>
			<path class="st108" d="M242.5,312.6c-7.5,2.6-4.2,7-0.2,12.3c2.1,2.7,6.5,5,4.7-0.9c-1.4-4.4-1-9.1,5.2-11
				C248.7,313.3,244,312.9,242.5,312.6z"/>
			<path class="st102" d="M264.3,309.4c2.6,2.6-2,11.1-6.2,11.1c-0.6,0-6.4,0.3-5.1-2.5C256.8,319.2,264.3,309.9,264.3,309.4z"/>
			<path class="st109" d="M250.2,316.2c0.1-0.6,0.7-0.9,0.6-1.6c-0.1-0.7-0.3-1.7,0.7-1.1c0.6,0.4,2,3.4,1.6,3.7
				C252.8,317.2,250.3,317.5,250.2,316.2z"/>
			<g>
				<path class="st99" d="M236.3,277.2c-1,2.4-2.6,4.8-4.1,6.5c-4.6-1.3-9.1-2.8-13.2-3.2C224.8,274.4,229.5,274.3,236.3,277.2z"/>
				<path class="st99" d="M231.2,284.7c-0.2,0.2-0.3,0.3-0.5,0.4c-3.9,3.1-8.9,3.7-10.5,8.5c-1.4,4.5-4,7.7-5.4,1.3
					c-0.2-0.8,0.6-2.5,0.1-3.2c-1-1.5-5.1,4.2-5.8,5.1c-0.4,0.4-0.8,0.8-1.4,1.2c-0.5-5.3,0.2-10.7,9.7-16.1l0,0
					c1.1,0,2.1,0,2.9,0.1C224.5,282.6,228.2,283.5,231.2,284.7z"/>
			</g>
			<path class="st106" d="M208,291.5c0.2,0.2-1.5,3.3-1.6,3.7c-0.3,3.7,2.3,7.5,0.1,9.6c-0.1,0.1-0.2,0.2-0.4,0.2
				c-1.1,0-2-3.9-3.1-4.4c-0.1,0-0.7-0.3-0.8-0.7c0,0,0,0,0-0.1C202.4,297.7,204.7,292.4,208,291.5z"/>
			<path class="st99" d="M215.2,289.6c1.4,2.6-1.7,2.9-1.9,4.9c-0.4,4,1.9,8.4-1.3,9.7c-1.8-2-3.4-2.8-4.7-3.1
				c-2-0.5-4.8-0.1-5.1-1.1c0-0.1,0-0.1,0-0.1c0.2-1,0.6-2.7,1.6-4.4c1-1.7,2.3-2.9,3.1-3.5c1-0.5,2.2-1,3.6-1.5
				C212.3,289.9,213.9,289.6,215.2,289.6z"/>
		</g>
	</g>
	<g>
		<path class="st110" d="M601.1,400.7c0.1,0.1,0.2,0.2,0.3,0.3c0.7-2.4,1.9-6.7,2.4-7.3c0.6,0.6,2.2-0.6,3-0.3
			c0.1,0-1.3,0.7-1.9,1.3c-0.5,0.5,0.7,0.1,0.9,0.2c0.7,0.2-1.4,1.2-1.5,1.3c0,0.1,0.7,0,0.8,0c1,0.1,2.4-0.8,0.7,0.4
			c-0.5,0.4-1.6,1.1-0.7,1.1c0.3,0,2-0.6,1.4-0.1c-0.4,0.3-1.9,1.1-1.8,1.2c0,0.2,1-0.2,1.3-0.2c1.2-0.2-3.8,2.9-2.2,2.4
			c0.5-0.1,3.6-2,1.4-0.3c-0.5,0.4-1.1,0.7-1.6,1c0.4,0.1,0.8,0.2,1.1,0.3c0.9,0.4-2.8,1.3-3.6,1.5c0,0-0.1,0.1-0.1,0.1
			c0.2,0.2,1.8,0.9,2.5,1.3c0.3,0.2-4.6,0.8-3.7,0.9c0.4,0.1,2.9,0.6,2.6,0.7c-0.3,0.1-3.9,0.4-2.4,0.8c2.5,0.7,1.5,0.4-1.1,1.8
			c-0.8,0.4,1.2,0.4,1.3,0.5c0.1,0.7-3.5,1.7-2.2,1.4c0.3-0.1,3.1-0.6,2-0.1c-0.7,0.3-5.2,2-2.4,1.1c0.1,0,2.6-0.5,2.2-0.2
			c-0.2,0.2-3.7,1.9-3.5,1.8c0.2-0.1,2.9-0.9,2.9-0.9c-0.1,0.3-2.7,1.3-4,2.2c-1.6,1,4.8-2.6,1.1-0.3c-3.4,2.1-6.9,5.7-4.1,0
			c1.3-2.7,3.7-9.3,5.5-11.4C598.3,402.7,600.8,400.1,601.1,400.7z"/>
		<path class="st110" d="M605.1,391.9c-1.4-0.8-4.8,13.4-19.2,19.6l-1,7.7C599.9,412.9,608.3,393.6,605.1,391.9z"/>
		<path class="st111" d="M584.8,424.7c0.4,11.1-0.6,14.4-3.3,21.4c-1,2.6,8.2,4.2,6.4,7.1c-6.4,9.7-5,13.9-6.9,21.8
			c-0.8,3.4-6.7,8.8-9.6,7.4c-2.4,1.1-6.9,0.9-5-2.4c-1.5,0.6-0.9-1.2,0-2.2c2.1-2.3,5.3-1.9,6.8-4.5c2.9-5,5.5-8.7,4.3-13.2
			c-1.2-4.2-6.1-2.1-9.8-12.8c-1.5-4.3-31.4,4.8-26.4-0.9C552.2,434,569.8,433.1,584.8,424.7z"/>
		<path class="st110" d="M603.4,420.2c1.9,11.9-2.8,15.7-3.7,24.7c-0.3,2.7,8.8,6.4,7.4,9.2c-4.7,9.6-5.7,14.2-6.4,22.5
			c-0.3,3.5-5.1,8.7-8,6.9c-2.1,0.9-6.4,0.2-5.1-3.1c-1.4,0.4-1-1.4-0.3-2.3c1.7-2.2,4.8-1.5,5.8-4c2-5.1,4.8-11.4,3-16.3
			c-1.7-4.6-8.1,0-13.1-12c-2-4.8-24.3-5.1-20.4-10.6C571.2,423,590.4,427.6,603.4,420.2z"/>
		<path class="st111" d="M540.3,455.4c-0.8,8.6-2.2,17.1-0.7,26.6c0.4,2.3,0.9,6.2-0.5,8.5c-3.3,5.5-4.7,4.9-5,3.5
			c-2.7,2.9-3.8,2.4-3.3-0.8c-2.3,1-1.3-1.9-0.8-3.5c1.5-4.4,2.6-5.2,2.7-8.9c0.1-2.4-0.1-4.9-0.2-7.3c-1.5-3.4-0.6-6,0.3-8.5
			c-0.3-3.5-1.2-9.9-1.5-13.4C534.2,451.8,537.6,455.1,540.3,455.4z"/>
		<path class="st110" d="M587,407.5c-14.1,0.4-30,24.3-43.2,3.4c-10.9,5-14.6,23.6-16.6,35.5c-0.3,2.1,1.9,6,4.9,11.9
			c2.3,4.4,3.9,5.9,8.2,6.8c22.2,4.5,36.2-22.7,41.9-28.9c6.6-7.3,21.9-2.9,21.3-12.8C603,411.3,594.4,407.3,587,407.5z"/>
		<path class="st110" d="M559.1,459.4c-0.5,9.8-4.6,19.6-3,29c0.4,2,0.9,5.4-0.5,7.4c-3.5,4.7-4.9,4.3-5.3,3.1
			c-2.9,2.6-4,2.1-3.5-0.7c-2.4,0.8-1.4-1.7-0.9-3c1.6-3.8,2.8-4.5,2.9-7.8c0.1-2.1-0.1-4.3-0.2-6.4c-1.6-2.9-0.6-5.2,0.3-7.4
			c-0.3-3-0.6-6.1-0.9-9.1C551,464.7,556.1,459.1,559.1,459.4z"/>
		<path class="st110" d="M585.8,407.6c4.5,0.6,13.4,2.2,8,5.5c-6,3.7-15.3,3.7-20,9.6c-3.6,4.6-5.9,7.9-11.9,7.9
			c-11.7,0-5.6-6.8-11.8-13l-0.2-0.2C561.3,424.9,574.1,409,585.8,407.6z"/>
		<path class="st111" d="M508.3,423.2c-0.3,0.6-0.8,1.2-1.2,1.8c-0.7,1.1-1.5,2.8-1.5,4.1c0,0.7,1.2-2.4,1.2-1.7
			c0,1.1-0.1,2.1-0.1,3.1c0,0.2,0.9-2.5,0.9-1.9c0,0.4-0.1,2.6,0.1,2.8c0,0,0.8-1.5,1.1-2c0.8-1.2,1.5-1.7,2.5-2.5
			c1.3-1,0.7-1.4-0.5-2.8C510.5,423.7,508.7,422.1,508.3,423.2z"/>
		<path class="st110" d="M531.6,423.9c-3.6,1.9-5.9,3.3-8.5,6.2c-1.4,1.5-0.2-0.3-1.4-0.3c-0.4,0-0.8,2-0.9,2.3
			c0,0.3-1.3-2.2-1.3-0.3c0,1.7,0.5,1.8-0.8,0.7c-0.5-0.4,0,2.1,0,2.1c0,0.1-2.8-3-3-2.8c-0.4,0.7,0.5,2.5,0.7,3.3
			c0.1,0.4-2.9-3.4-3.8-4.7c-1.3-2.1-5.4-5.2-1.5-6.4c4.6-1.4,12.3-2.1,17.3-2.3C530.2,421.5,532.9,422.2,531.6,423.9z"/>
		<path class="st111" d="M521.5,404.6c-0.5-0.6-1.1-1.9-1-3c0.6-8.7-7.6-15.8,0.4-24.1c2.5-2.6,2.9,5,6.9,10.3c1.7,2.1,5.2,5,5.1,6
			C532.3,399,525.5,397.3,521.5,404.6z"/>
		<path class="st110" d="M518.4,417.3c6.9-0.3,14.5,9.5,13.5,25c-0.7,11.2,26.6-15.4,19.5-24.1c-6-7.4-6.3-9.8-11.5-18.7
			C535.7,392.3,510.1,417.7,518.4,417.3z"/>
		<path class="st112" d="M530,430.1c0.1,1,0.5,2,1.3,2.7c3,3.1,10.3,2.2,16.3-2.1c6-4.2,5.5-11.1,3.9-12.8c-1.6-1.7-0.6-0.5-0.9-0.7
			c0.4,3.2-0.2,6.5-5.1,10C540.5,430.9,533.5,432.3,530,430.1z"/>
		<path class="st110" d="M533.8,391.2c-7.8-0.4-12.8,2.3-18.4,10.7c-2.5,3.8,7.1,3.1-6.5,14.7c-1.7,1.5-2.2,2.5-2.5,4.8
			c-0.3,2.7,1.1,3.8,3.3,5.5c2.1,1.8,4.3,3.1,7,2.4c3-0.7,5.3-1.4,12.5-4.5c6.5-2.8,12-4.7,16.2-10.4c3.4-4.7,3.1-8.1,1.8-14.3
			C546,395.1,540.5,391.5,533.8,391.2z"/>
		<path class="st111" d="M518.2,402.7c-0.6-0.6-1.3-1.2-2-1.8c-0.2,0.3-0.5,0.7-0.7,1c-0.6,0.8-0.4,1.6-0.3,2.4
			c0.4,0.2,0.8,0.3,1.2,0.2C516.9,404.4,519.1,403.2,518.2,402.7z"/>
		<path class="st111" d="M528.6,404c2.5-0.3,8.7,0.2,8.7,4.5c0,5-11.8,12.5-15.8,7.1C517.8,410.5,523.3,404.6,528.6,404z"/>
		<path class="st107" d="M529.6,409.2c-1.2-0.1-2.7,0.7-3.4,1.9c-0.7,1.2-0.3,2.2,0.8,2.3c1.2,0.1,2.7-0.7,3.4-1.9
			C531.1,410.4,530.7,409.4,529.6,409.2z"/>
		<path class="st98" d="M528.7,409.1c-0.9-0.1-2.1,0.8-2.7,2c-0.6,1.2-0.4,2.2,0.5,2.2c0.9,0.1,2.1-0.8,2.7-2
			C529.8,410.1,529.6,409.1,528.7,409.1z"/>
		<path class="st110" d="M524.7,405.9c1.4-0.2,3.2-0.5,4.6-0.2c0.6,0.1,0.9,1.3,0.4,1.8c-0.8,0.9-3.5,2.3-4.6,1
			C524.8,408,523.6,405.8,524.7,405.9z"/>
		<path class="st110" d="M545.4,396.6c-7.4,2.9-21.7,6.4-23.3,4.7c-0.9-1-2.6-1.8-4.1-2.9c4.6-5.6,9.2-7.5,15.8-7.2
			C538.7,391.5,543.1,393.5,545.4,396.6z"/>
		<path class="st110" d="M543.1,410.7c0.7-0.3,1.8-1.3,2.1-2.3c3-8.2,13.5-11.3,9.6-22.1c-1.2-3.4-4.7,3.4-10.6,6.5
			c-2.4,1.3-6.8,2.4-7.1,3.4C535.6,401.1,542.5,402.4,543.1,410.7z"/>
		<path class="st111" d="M553.8,388.1c-2.5,2.1-4.4,6-7.1,7.5c-2.7,1.5-4.7,2.1-6.8,3.9c3.5,1.2,3.9,11.5,5.3,8.9
			c3-9.3,8.5-10.4,9.2-15.3C554.7,391.2,554,389.8,553.8,388.1z"/>
		<path class="st110" d="M516.4,407.2c2.2,0.4,4.1,1.5,4.1,3.7c0,5.7-6.3,11.6-12.2,10c-0.7-0.2-1.2-0.4-1.7-0.7
			c0.3-1.4,0.9-2.3,2.3-3.5C514.8,411.7,516.3,409,516.4,407.2z"/>
		<path class="st98" d="M507.1,418.9c2.4,0.6,3.6,2,4.6,3.4c1,1.3-1.6,3.1-2.2,3.5c-0.3,0.2-0.6,0.4-0.8,0.6
			c-1.6-1.3-2.6-2.4-2.3-4.8C506.5,420.4,506.7,419.6,507.1,418.9z"/>
		<path class="st110" d="M544.7,410.9c0.1,0.1,0.2,0.3,0.3,0.4c0.8-1.9,2.3-5.3,2.8-5.6c0.5,0.9,2.3,0.8,3,1.6
			c0.1,0.1-1.3-0.1-2,0.1c-0.5,0.2,0.7,0.5,0.9,0.7c0.6,0.6-1.5,0.3-1.6,0.4c0,0,0.7,0.4,0.8,0.5c1,0.7,2.5,0.7,0.7,0.9
			c-0.5,0.1-1.6,0.1-0.7,0.7c0.3,0.2,2,0.6,1.4,0.7c-0.4,0.1-1.9-0.1-1.9,0.1c0,0.2,1,0.5,1.3,0.6c1.2,0.5-4,0.5-2.3,1
			c0.5,0.2,3.7,0.3,1.5,0.6c-0.5,0.1-1.1,0-1.7,0c0.4,0.3,0.8,0.7,1.1,1c0.9,0.9-2.8-0.4-3.7-0.8c0,0-0.1,0-0.1,0
			c0.2,0.3,1.7,1.9,2.4,2.8c0.2,0.3-4.6-2-3.7-1.3c0.4,0.3,2.8,2.3,2.6,2.3c-0.3-0.1-4-2-2.5-0.7c2.4,2.2,1.5,1.3-1.2,1
			c-0.8-0.1,1.2,1.1,1.2,1.2c0,0.7-3.6-0.5-2.2,0.1c0.3,0.1,3.1,1.3,2,1.2c-0.7-0.1-5.3-1.3-2.5-0.4c0.1,0,2.6,1.1,2.2,1.1
			c-0.2,0-3.8-0.5-3.6-0.4c0.2,0,3,0.9,3,0.9c-0.1,0.3-2.8-0.3-4.1-0.4c-1.6,0,4.9,0.4,1.2,0.4c-3.5,0-7.2,1.3-4.1-2.5
			c1.5-1.8,4.2-6.7,6.1-7.7C541.8,411.1,544.3,410.1,544.7,410.9z"/>
	</g>
</g>
</svg>
