<svg id="Layer_44" data-name="Layer 44" xmlns="http://www.w3.org/2000/svg" viewBox="0 0 512 512"><defs><style>.cls-1{fill:#fff;}</style></defs><path d="M281.79,50.4a88.43,88.43,0,0,1,8.84,2.85,33.57,33.57,0,0,1,15,49l-1.89,3c2.74,1.36,5.34,2.5,7.8,3.87,42.49,23.7,65.88,59.74,66.54,108.48.92,67.85.23,135.71.26,203.57,0,5.4-2.07,9.5-7.13,11.6s-9.26.44-12.9-3.25c-4.44-4.5-8.86-9-13.72-14-4.63,4.75-8.83,9.16-13.12,13.46-6.2,6.21-12.33,6.2-18.53.05-4.16-4.12-8.3-8.27-12.46-12.4a6.55,6.55,0,0,0-1.34-.58c-4,4.16-8.23,8.56-12.52,12.86-6.33,6.35-12.38,6.3-18.78-.07l-12.2-12.14a9,9,0,0,0-1.31-.73c-4,4.1-8.09,8.4-12.28,12.61-6.72,6.75-12.62,6.75-19.32.07L210.83,416.8a11.16,11.16,0,0,0-1.07-.73l-12,12c-7.61,7.58-13,7.57-20.66-.07-3.94-3.95-7.85-7.93-12.32-12.44-5,5.15-9.42,10.18-14.31,14.75-6.68,6.27-16.74,3.27-18.82-5.4a17.9,17.9,0,0,1-.32-4.08c0-67.61-.75-135.23.23-202.82.74-51.31,25.93-88.22,71.58-111.32.77-.39,1.57-.72,2.67-1.22-.5-.93-.88-1.79-1.38-2.56C191.12,82.31,202.1,56.11,226.17,51a11.62,11.62,0,0,0,1.73-.63h9l17.88,7.15,18.05-7.15ZM355.9,395.06v-4.93q0-84.37,0-168.75a104,104,0,0,0-.67-13.44c-5.16-39.6-26.29-67.16-62.87-83-2.08-.9-3.22-.54-4.59,1.33q-11.52,15.66-23.33,31.12c-5.49,7.2-13.68,7.19-19.14,0-7.47-9.82-14.82-19.73-22.23-29.6-1-1.28-1.95-2.53-2.88-3.74-1,.34-1.74.54-2.44.81C180,139.26,154,176.36,153.87,216.88c-.24,58.37-.07,116.75-.07,175.12,0,.8.12,1.6.22,2.87,1-.94,1.66-1.49,2.27-2.07,5.74-5.43,11.84-5.43,17.48,0,1.43,1.39,2.82,2.82,4.24,4.23l9.64,9.61c4.41-4.52,8.39-8.65,12.43-12.71,7-7,12.74-7,19.85.11,4.11,4.12,8.2,8.25,12.55,12.62,4.49-4.58,8.57-8.78,12.7-12.92,6.71-6.73,12.62-6.74,19.32,0,4.2,4.2,8.34,8.47,12.36,12.56a7.37,7.37,0,0,0,1.22-.58q6.24-6.19,12.46-12.41c6.19-6.13,12.29-6.12,18.53.09,4.31,4.29,8.57,8.63,13.16,13.26,4.68-4.72,9-9.16,13.42-13.53,5.79-5.76,11.85-5.85,17.73-.34C354,393.35,354.63,393.91,355.9,395.06Zm-101-262.3c10.92-14.61,21.51-28.6,31.87-42.77,2.92-4,2.3-9.09-.72-12.89a11,11,0,0,0-11.72-3.76c-4.83,1.45-7.78,5.19-8.22,10.42-.6,7-5,11.55-11.26,11.54s-10.66-4.58-11.21-11.22c-.46-5.68-3.51-9.53-8.63-10.88a11.14,11.14,0,0,0-11.79,4.55c-2.89,4.19-2.75,8.94.59,13.54s6.72,9,10.09,13.47Z"/><path class="cls-1" d="M272.81,50.4l-18.05,7.15L236.88,50.4Z"/><path d="M254.86,364.18c-9.46,0-19.11,1.21-28.34-.23-24.48-3.82-35.85-32-21.58-52.26,5.88-8.36,12.14-16.45,18.4-24.53,1.58-2.05,1.53-3.41.1-5.51-7.38-10.8-14.59-21.73-21.82-32.63-5.22-7.86-3.43-14.41,5-18.66,13.92-7,27.89-13.85,41.76-20.92a13.13,13.13,0,0,1,12.81,0c14,7.1,28.07,14,42.07,21.11,8.23,4.15,9.91,10.77,4.79,18.48-7,10.49-13.77,21.08-21,31.35-2.37,3.34-1.9,5.36.4,8.28,6.08,7.74,12.12,15.54,17.67,23.66a33.51,33.51,0,0,1-19.33,51.33,40.35,40.35,0,0,1-9.24,1.12c-7.23.16-14.46.06-21.7.06ZM238.43,304.3c-5.42,7.28-10.65,13.8-15.33,20.7a11,11,0,0,0,8.76,17.23q23,.43,46,0c7.92-.15,13.46-8.92,9.49-15.59-4.59-7.73-10.45-14.72-16-22.43-2.56,3.82-4.64,7.05-6.85,10.19-5.17,7.36-14.14,7.34-19.3,0C243,311.22,240.9,308,238.43,304.3Zm-12.09-58.65c9.59,14.36,18.92,28.36,28.52,42.74l28.49-42.76C274,241,265,236.43,256,232a3.62,3.62,0,0,0-2.74.22C244.42,236.57,235.65,241,226.34,245.65Z"/><path d="M221.14,196.49a11.21,11.21,0,1,1-11-11.34A11.34,11.34,0,0,1,221.14,196.49Z"/><path d="M311,196.42a11.22,11.22,0,1,1-11.06-11.27A11.35,11.35,0,0,1,311,196.42Z"/></svg>