<svg id="Layer_26" data-name="Layer 26" xmlns="http://www.w3.org/2000/svg" viewBox="0 0 512 512"><defs><style>.cls-1{fill:none;stroke:#000;stroke-miterlimit:10;stroke-width:13px;}</style></defs><path d="M280.12,343.24c-.15-.44-.33-.87-.49-1.31l-26.44-70.68c-2.06-5.51-2-5.49,2.3-9.51,27.14-25.22,25.88-69.91-6.3-86.05-10.36-5.2-21.57-7-33-7.18-16.41-.28-32.82-.11-49.23-.11-3.36,0-3.86.53-3.86,4V343.14c0,3.64.51,4.14,4.2,4.14h18.2c4.38,0,4.68-.29,4.68-4.57V272.42c1-.05,1.78-.11,2.54-.11,10.43,0,20.85.05,31.27-.05,1.82,0,2.52.65,3.11,2.28,8.33,23.15,16.76,46.27,25.07,69.44.88,2.44,2.15,3.42,4.76,3.36,6.46-.15,12.91,0,19.37,0h.93C280.14,347.22,281,346,280.12,343.24Zm-53.79-95.06A47.32,47.32,0,0,1,214,250.32c-7.81.34-15.66.1-23.64.1.33-6.49.09-50.45,0-59.91.15-.08.28-.23.41-.23,10.4,0,20.84-.81,31.16,1.12,7.48,1.39,14.43,4,19.35,10.22C253.12,216.49,247.79,241.3,226.33,248.18Z"/><path d="M322.38,352.75c-13.83-.28-25.08-2.44-35.48-8.22-2-1.09-2.6-2.09-1.75-4.4,2.09-5.67,3.85-11.48,5.75-17.22.89-2.68,1.18-2.77,3.52-1.29,8.95,5.66,18.56,9.09,29.29,8.32a25.58,25.58,0,0,0,8.11-1.88,12.34,12.34,0,0,0,2.86-21.2,44.88,44.88,0,0,0-10.3-5.79c-7.5-3.19-15.11-6-21.83-10.86-22-15.79-17-46.54,4.86-57.65,14.28-7.26,29.09-6.87,44-2.14,3.45,1.09,6.65,3,10,4.45,1.72.77,1.87,1.91,1.27,3.6-2,5.7-3.94,11.45-5.92,17.17-.81,2.32-1.21,2.47-3.31,1.12a41.53,41.53,0,0,0-21.48-6.89c-4.68-.16-9.21.5-12.89,3.74-5.27,4.64-5,12.45.77,16.48a61.72,61.72,0,0,0,10.88,5.74c7,3,14.06,5.81,20.45,10.05,20.86,13.85,18.4,40.9,6.45,53.28-6.52,6.75-14.57,10.51-23.62,12.21C329.47,352.21,324.87,352.46,322.38,352.75Z"/><circle class="cls-1" cx="254.15" cy="260.04" r="161.61"/></svg>