<svg id="Layer_16" data-name="Layer 16" xmlns="http://www.w3.org/2000/svg" viewBox="0 0 512 512"><path d="M108.34,251.15q0-67.31,0-134.59c0-19.18,9.07-28.36,28-28.37,36.29,0,72.58,0,108.88,0,5.6,0,10.43,1,12.73,6.75,3.07,7.65-2.46,14.48-11.86,14.53-22.63.09-45.25,0-67.87,0-13.2,0-26.41.38-39.59-.16-7-.28-9.34,1.6-9.25,9,.39,34,.17,68,.17,102,0,54.78.09,109.56-.12,164.34,0,6.29,1.37,8.89,8.21,8.55,11.29-.56,22.62-.21,33.93-.12,7.73.06,12.54,4,12.77,10.28.24,6.51-4.75,10.87-12.8,10.93q-18.37.12-36.76,0c-16.63-.08-26.41-9.76-26.43-26.4Q108.27,319.51,108.34,251.15Z"/><path d="M248.29,261.8c-24.75,0-49.5.15-74.24-.15-3.69,0-8.22-1.21-10.85-3.55-5.82-5.18-3-14.54,4.6-16.78a30.38,30.38,0,0,1,8.38-.75q72.84-.06,145.66,0c1.42,0,2.83-.06,4.24,0,7.06.41,11.76,4.71,11.75,10.68s-4.6,10.44-11.76,10.48c-25.93.12-51.85,0-77.78,0Z"/><path d="M219.33,309.75q-22.59,0-45.18,0c-8.91,0-13.86-3.76-14-10.42s5-10.81,13.66-10.82q45.53,0,91,0c8.65,0,13.76,4.18,13.63,10.85-.14,6.46-5,10.35-13.3,10.38C249.91,309.79,234.62,309.75,219.33,309.75Z"/><path d="M248.29,214c-24.75,0-49.5.15-74.24-.15-3.69-.05-8.22-1.21-10.85-3.55-5.82-5.18-3-14.55,4.6-16.79a30.77,30.77,0,0,1,8.38-.74q72.84-.06,145.66,0c1.42,0,2.83-.06,4.24,0,7.06.41,11.76,4.7,11.75,10.68s-4.6,10.44-11.76,10.48c-25.93.12-51.85.05-77.78.05Z"/><path d="M403.66,251.31q0,67.29,0,134.59c0,19.18-9.07,28.35-28,28.36-36.29,0-72.58,0-108.88.05-5.6,0-10.43-1-12.73-6.75C251,399.92,256.5,393.08,265.9,393c22.63-.1,45.25,0,67.87,0,13.2,0,26.41-.38,39.59.16,7,.29,9.34-1.59,9.25-9-.39-34-.17-68-.17-102,0-54.78-.09-109.56.12-164.34,0-6.28-1.37-8.89-8.21-8.55-11.29.56-22.62.21-33.93.13-7.73-.06-12.54-4-12.77-10.29-.24-6.51,4.75-10.87,12.8-10.92q18.38-.12,36.76,0c16.63.07,26.41,9.76,26.43,26.39Q403.73,182.95,403.66,251.31Z"/></svg>