<svg id="Layer_11" data-name="Layer 11" xmlns="http://www.w3.org/2000/svg" viewBox="0 0 512 512"><path d="M76.78,237.79v-19.6c.47-3.33.93-6.66,1.4-10,3.44-24.29,13.22-45.49,30.83-62.81,16.89-16.59,37.32-26.83,60-32.84,3.44-.91,6-2.26,8-5.35a46.07,46.07,0,0,1,21-17.36c4.9-2,10.16-3.14,15.27-4.67h85.4c.2.13.38.34.59.37,16,2.36,28.4,10.43,37.43,23.85.78,1.17,2.51,1.88,3.95,2.42,10.13,3.77,20.71,6.58,30.37,11.3,33.22,16.22,54.57,42.13,61.72,78.91,1,5.34,1.65,10.77,2.46,16.17v18.9a26.15,26.15,0,0,0-.61,3,143,143,0,0,1-7.42,33.71c-9.76,28.1-26.08,52.22-45.38,74.5-18.49,21.34-39.4,40.07-61.93,57a6.18,6.18,0,0,0-2.9,5.77c.21,6.29-.21,12.61.15,18.89.36,6.48-1.88,11.06-7.92,13.63H304.3c-6.2-2.33-8.33-6.91-8.32-13.39q.18-83.46.07-166.93v-3.6l-29.55,5.79c0,9.6,0,19.85,0,30.1,0,5.13-1.24,10.77.51,15.23,1.65,4.19,6.49,7.13,9.93,10.61.17.17.34.33.5.5,4.24,4.52,4.34,11,.22,15.08s-10.49,4.1-15.05-.25c-2.17-2.07-4.19-4.32-6.76-7-2.38,2.58-4.29,4.93-6.5,7-4.89,4.5-11.2,4.52-15.28.22s-3.92-10.52.73-15.3c2.86-2.92,5.91-5.66,8.58-8.73a8.16,8.16,0,0,0,2-4.77c.16-13.53.09-27.07.08-40.6a17,17,0,0,0-.13-2l-29.54-5.94v4q0,83.29.07,166.58c0,6.46-2,11.07-8.19,13.48h-4.91c-6.1-2.49-8.38-7.07-8-13.55.32-6.05-.13-12.14.15-18.19.15-3.29-1-5.24-3.59-7.21-27.48-20.78-52.53-44.09-73.51-71.54-17.59-23-31.52-47.87-37.8-76.47C78.63,250.43,77.84,244.08,76.78,237.79ZM317.05,380l.87.54c7.09-6.2,14.32-12.25,21.25-18.62,21.29-19.58,40.52-40.92,55-66.16,14-24.48,22.24-50.4,19.47-79.07-3.22-33.36-19.43-58-49.12-73.57-2.18-1.15-4.43-2.16-7.32-3.55.73,1.77,1.15,2.71,1.51,3.67,6.09,16.18,5.4,32.08-4.09,46.56C343.31,207,331,223.55,319.18,240.48a11.08,11.08,0,0,0-2,5.93q-.18,65.05-.09,130.13ZM154.71,139.62c-14.81,6.54-27.3,15.07-37,27.24-17.92,22.48-22.27,48.49-18.81,76.23,2.62,21.07,11,40.1,22.1,58,16,25.85,36.67,47.59,59.35,67.56,4.5,4,9.15,7.75,14.21,12,.13-1.36.24-1.9.24-2.45q0-66.66,0-133.33a6.46,6.46,0,0,0-1.15-3.49c-3.27-4.69-6.73-9.23-10-13.9-7.34-10.37-14.4-20.95-22-31.14C148.66,179,145.91,160.47,154.71,139.62ZM256,106.18c-12.24,0-24.48-.08-36.72,0-10.36.08-18.76,4.33-24.85,12.71q-9.44,13-18.48,26.31a30.3,30.3,0,0,0,0,34.81c4.23,6.28,8.63,12.45,13.07,18.59a4.69,4.69,0,0,0,2.94,1.93c20.17,1.14,39.54-1.45,57-12.62,4.7-3,9.41-3,14.13,0,2,1.23,3.94,2.51,6,3.55,16.08,8.08,33.26,10.22,51,9.08a5.17,5.17,0,0,0,3.15-2.2c4.19-5.74,8.27-11.57,12.31-17.41,8.05-11.65,8.05-24.89,0-36.58-5.7-8.24-11.48-16.43-17.27-24.61Q308.64,106.2,292,106.18ZM306.55,222a14.54,14.54,0,0,0-1.52-.32,114.28,114.28,0,0,1-47.27-12.45,5.38,5.38,0,0,0-3.76.12c-9.1,3.16-18,6.94-27.27,9.54-6.72,1.88-13.86,2.27-20.8,3.33,7,13.3,26,23.29,39.57,20.6,0-1.91,0-3.88,0-5.85.17-6.06,4.5-10.51,10.29-10.6,6-.1,10.5,4.35,10.69,10.55.06,2.06,0,4.13,0,6.44C283.85,243.46,296.91,236.51,306.55,222Z"/><path d="M226.69,164.14a10.49,10.49,0,0,1-10.28,10.58,10.74,10.74,0,0,1-10.68-10.63,10.59,10.59,0,0,1,10.55-10.33A10.37,10.37,0,0,1,226.69,164.14Z"/><path d="M295.8,153.74A10.53,10.53,0,0,1,306.38,164a10.49,10.49,0,1,1-21,.17A10.46,10.46,0,0,1,295.8,153.74Z"/></svg>