<?xml version="1.0" encoding="utf-8"?>
<!-- Generator: Adobe Illustrator 25.4.1, SVG Export Plug-In . SVG Version: 6.00 Build 0)  -->
<svg version="1.1" xmlns="http://www.w3.org/2000/svg" xmlns:xlink="http://www.w3.org/1999/xlink" x="0px" y="0px"
	 viewBox="0 0 512 512" style="enable-background:new 0 0 512 512;" xml:space="preserve">
<style type="text/css">
	.st0{display:none;}
	.st1{display:inline;fill:#FFFFFF;}
	.st2{display:inline;fill:#00AEEF;}
	.st3{display:inline;}
	.st4{fill:#FFFFFF;}
	.st5{display:inline;fill:#FFFFFF;stroke:#000000;stroke-width:15;stroke-miterlimit:10;}
</style>
<g id="Layer_2" class="st0">
	<rect x="-24.4" y="-11.9" class="st1" width="555.7" height="536.1"/>
</g>
<g id="Layer_1" class="st0">
	<path class="st2" d="M362,305.7c0.3-0.7,0.5-1.3,0.6-2c0-0.3-0.8-0.7-1.7-1.1c0.5,0.3,0.9,0.8,1.1,1.5
		C362.2,304.6,362.2,305.1,362,305.7z"/>
	<path class="st2" d="M361.3,307c-0.3,0.4-0.6,0.8-0.9,1.1C360.8,307.8,361.1,307.4,361.3,307z"/>
	<path class="st2" d="M144.8,336.8c9.3,10.7,20.5,19.9,31.1,29.4c0.1,0.1,0.1,0.1,0.2,0.2c0.1,0.1,0.2,0.1,0.2,0.2
		c5.3,4.4,33,24.5,49.6,43.5c8.8,10.1,19.8,25.9,27.7,50.1c0.2,0.7,0.5,1.5,0.7,2.3c0.2,0.5,0.3,0.9,0.4,1.4
		c0.2-0.4,0.4-0.8,0.6-1.2c0.1-0.2,0.2-0.4,0.2-0.5c1.7-3.7,3.5-8.8,4.6-15c0,0,0-0.2,0.1-0.3c0-0.1,0-0.2,0-0.2
		c0-0.1,0-0.3,0.1-0.4c0-0.1,0-0.3,0.1-0.4c0.1-0.6,0.2-1.2,0.2-2c0-0.2,0-0.4,0.1-0.7c0-0.2,0-0.5,0.1-0.7c0-0.1,0-0.2,0-0.3
		c0-0.2,0-0.5,0.1-0.7c0-0.6,0.1-1.2,0.1-1.9c0-0.3,0-0.5,0-0.8c0-0.5,0-1,0-1.6c0-0.4,0-0.8,0-1.3c0-0.5,0-1-0.1-1.6
		c0-0.2,0-0.5-0.1-0.7c-0.1-0.7-0.1-1.4-0.2-2.1c0-0.3-0.1-0.5-0.1-0.8c-0.1-0.4-0.1-0.8-0.2-1.2c0-0.2-0.1-0.4-0.1-0.6
		c0-0.3-0.1-0.5-0.1-0.8c-0.1-0.3-0.1-0.6-0.2-0.9c-0.1-0.3-0.1-0.6-0.2-1c-0.3-1.2-0.6-2.4-0.9-3.6c-0.1-0.4-0.2-0.8-0.3-1.1
		c-0.1-0.4-0.2-0.7-0.4-1.1c-0.1-0.4-0.2-0.7-0.4-1.1c-0.3-0.7-0.5-1.5-0.8-2.2c-0.1-0.3-0.2-0.6-0.4-0.9c-0.2-0.4-0.4-0.8-0.5-1.3
		c-0.2-0.4-0.3-0.7-0.5-1.1c-0.6-1.3-1.3-2.7-2-4c-0.1-0.3-0.3-0.6-0.5-0.8c-0.1-0.2-0.2-0.3-0.3-0.5c-0.2-0.4-0.4-0.7-0.6-1
		c-0.1-0.2-0.2-0.3-0.3-0.5c-0.2-0.3-0.4-0.6-0.6-0.9c-0.2-0.3-0.4-0.6-0.6-0.9c-0.6-0.9-1.2-1.8-1.9-2.7
		c-11.8-16.6-25-32.4-37.7-48.4c-10.3-12.8-20.5-25.6-27.7-40.6c-6.3-13.3-8.1-26.8-4.4-41.5c1,2.5,2.1,5,3,7.5
		c8.2,22.6,22.3,41.4,38,59.3c9.8,11.2,19.7,22.3,28.9,34c10.6,13.5,15.7,29.3,16.2,46.5c0,1.7,0,3.4,0.6,5.2
		c14.1-22.2,17.8-46.4,13.7-72.1c0.6-0.1,1.2-0.3,1.8-0.4c1.7,8.3,3.4,16.5,5,24.6c15-15.2,30.5-65.5,22-88.2
		c-3.4,20.1-9,38.5-22.5,54.9c0.1-7-0.4-15.8-2.3-25.7c-2.2-11.1-5.6-20.2-8.7-27.2c-1.8,7.1-3.3,16.8-2.2,28
		c0.4,3.8,1,7.3,1.7,10.5c-1.5-0.3-3.5-0.8-5.6-2c-2.9-1.6-4.9-3.6-5.9-4.9c3,6.6,6.3,16.5,7.9,28.8c1.3,9.8,1.2,19.7-1,30
		c-1.5-4.8-2.3-9.9-4.5-14.3c-7.1-14.2-14.7-28.2-22-42.3c-0.1-0.2-0.1-0.2-0.2-0.4c-6.4-13.6-12.4-22.8-14.2-25.6
		c-3.6-5.9-7.9-15.4-10.2-31.1c-0.8,6.8-1.3,17.2,1.5,29.3c2.2,9.5,5.7,17,8.7,22.3c-7-3.3-14.8-17.5-18.1-33.2
		c-2.8-13.3-0.8-26.5,1.8-39.6c-9.4,10.6-11.7,23.1-10.3,36.8c-7.6-13.6-9.2-28.4-9.7-44.1c-30,33.8-38.1,34.4-49.4,49.6
		C131,304.5,131.4,321.2,144.8,336.8z"/>
	<path class="st2" d="M359.3,257.3c-6.5-4.8-11.9-10.4-18.1-14.8c-7.6-5.5-13.8-11.6-16.4-21c-1-3.7-2.7-7.2-4.2-10.8
		c-1.9-4.6-5.3-5.8-9.8-3.7c-6.9,3.3-24.6,2.4-30.2,0.3c-5.9-2.3-7.7,0.6-8.9,5.1c-2.1,7.8-4,15.6-6,23.6c6.9,2.4,1.8,9.5,4.8,14
		c21.8,14.8,33.3,37.1,28.8,56.4c-1,4.3-3.5,11.4-10.5,18.7c0.4-17.7-5.6-31.9-15.3-45.9c-4.1,13.7-8.4,26.2-5.4,41.3
		c-1.6-2.2-2.3-2.9-2.8-3.8c-0.1-0.2-17.8-28.8-17.2-55.8c0.1-4,0-7.9,0-11.9c-12.3,13.5-13.9,29.4-12.1,46.4
		c-3.3-9.6-8.8-30.2-3.3-55c3.2-14.5,9.1-25.7,13.7-32.9c-2.4,0.6-5.6,1.6-9.4,3c-8.7,3.3-14.6,7-21.2,11.3
		c-4.9,3.1-11.2,7.5-18.3,13.2c4.8-8.7,10-14.4,13.7-18c13.6-12.9,26.1-13.9,29.5-25.5c1.2-3.9,0.3-6,2.5-12.2
		c1.7-4.8,4.2-9.3,7.5-13.6c-16.5-14.2-30-30.5-41.8-48.6c14.9-0.6,27.7-0.2,38,0.3c2.2,0.1,18.4,1,28.9,7.1
		c5.4,3.2,9.9,7.3,11.8,14.6c-14.4-11.5-34.7-18.6-41.8-15c11.9,2.9,30.8,10.8,33.8,15.4c-5.7-1.2-11.3-2.4-17-3.6
		c29.9,13.1,40.4,19.7,43.2,28.7c-17.4-13.3-37.5-20.2-58.3-25.3c4.3,3,8.9,5.3,13.6,7.5c13.3,6.3,27,11.9,39.7,19.1
		c12.6,7.1,21.3,18.4,22.8,33c1.4,13.7,9.1,23.5,17,33.4c4.6,5.7,9.8,11,14.4,16.7C356.8,251.5,357.9,254.5,359.3,257.3z"/>
	<path class="st2" d="M305.1,353c3.7-2.7,9-7.2,13.3-14.2c2.7-4.4,4.5-8.8,5.7-12.8c2.2-7.6,2.1-14.2,1.9-17.5
		c1.6-0.6,4.2-1.3,7.3-1.1c5.1,0.4,6.6,2.4,12.7,4.1c0.3,0.1,0.6,0.2,0.9,0.2c1.7,0.4,3.3,0.6,4.9,0.5c0.2,0,0.4,0,0.6,0
		c0.1,0,0.1,0,0.2,0c0.3,0,0.6-0.1,0.9-0.1c0.2,0,0.5-0.1,0.7-0.1c0.2,0,0.4-0.1,0.6-0.1c0.2-0.1,0.4-0.1,0.6-0.2
		c0.2-0.1,0.4-0.1,0.6-0.2c0.1-0.1,0.3-0.1,0.4-0.2c1.5-0.7,2.9-1.7,4.1-3.1c0.3-0.3,0.6-0.7,0.9-1.1c0,0,0,0,0,0
		c0.3-0.4,0.5-0.8,0.7-1.2c0,0,0,0,0-0.1c0.2-0.5,0.2-1.1,0.1-1.7c-0.2-0.7-0.7-1.1-1.1-1.5c-0.6-0.3-1.2-0.5-1.6-0.8
		c1.3-0.2,4.9-0.9,7.7-3.9c1.4-1.5,2.2-3,2.6-4.1c-4.5,2.9-8.4,4.1-11,4.7c-1.2,0.3-4.6,1-5.4-0.4c0,0,0,0,0,0
		c-0.7-0.5-1.1-1.5-1.2-3.3c0-0.1-0.3-0.3-0.4-0.3c-7.9,1.3-12.2-6.9-19.3-7.6c-8.3-0.8-15.5-4-22.8-10.5
		C313.2,302.7,318.3,328.5,305.1,353z"/>
	<path class="st2" d="M362,305.7c-0.2,0.4-0.4,0.9-0.7,1.2C361.6,306.6,361.9,306.2,362,305.7z"/>
	<path class="st2" d="M359.3,301.8c0.4,0.2,1,0.5,1.6,0.8C360.2,302,359.5,301.8,359.3,301.8z"/>
	<path class="st2" d="M360.5,308.1c-1.3,1.4-2.7,2.4-4.1,3.1C357.4,310.7,359.1,309.8,360.5,308.1z"/>
	<path class="st2" d="M352,294.8c0,1.8,0.5,2.8,1.2,3.3C352.8,297.3,352.1,296.3,352,294.8z"/>
	<path class="st2" d="M203.2,95.3c0.1,0.4,0.3,1.5,1.1,2.6c2.1,3.1,6.2,3.7,8.6,4c6,0.7,20.3,1.4,39.4,1.5
		c-4.1-8.2-11.4-20.3-23.8-31.9c-14.4-13.5-29.3-20.2-38.4-23.4C197.3,73.2,202.3,91.1,203.2,95.3z"/>
	<path class="st2" d="M204.4,105.9c0.1,0.1,0.1,0.2,0.2,0.3c2.8,4.3,7.3,7,12.7,7.1c15,0.2,30.1-0.1,45.2-1.2
		c-4.8-2.7-9.8-4-14.9-4.5c-4.6-0.5-9.2-0.5-13.9-0.6C223.9,106.7,214.2,106.2,204.4,105.9z"/>
	<path class="st2" d="M321.8,227.5c-1.3,1.3-9-4.8-12.2-7.6c-2.4-2.1-5.7-5-5-6.3c0.2-0.3,0.5-0.4,1.1-0.4c1,1.1,2.6,2,2.8,2.1
		c2.5,1.4,4.1,1.1,5.7,2.7c0.9,0.9,1.3,2,1.5,2.8c0.2-0.4,0.4-1.1,0.4-1.9c0-1.6-0.7-2.8-1-3.2c-1.2-1.9-2.8-1.9-3-3.4
		c0.8-0.2,1.8-0.5,2.9-0.1c0.2,0.1,1.1,0.3,1.6,1.1c0.2,0.3,0.4,0.7,0.6,1.2c0.5,1.3,1.1,2.6,1.5,3.9
		C319.9,223,322.8,226.6,321.8,227.5z"/>
	<path class="st2" d="M360.4,279.3c-1.9,6.7-0.4,8.1,14,13.1c8.5-9.9-0.1-25.4-21.2-36.2c11.8,15.6,23.1,27.9,16.9,27
		c-1-0.1-2.3-0.6-4.2-1.4C364.3,281.2,362.5,280.4,360.4,279.3z"/>
	<path class="st1" d="M285.4,198c1.9,2,5.2,2,7.5,2c2.6,0,5.8,0,7-1.8c1.9-3-2.8-9.2-5.8-13c-3.8-5-7.8-8.3-10.6-10.4
		c0.7,5.8,0.8,10.6,0.7,14C284,193.5,283.6,196.1,285.4,198z"/>
</g>
<g id="Layer_3" class="st0">
	<g class="st3">
		<g>
			<path d="M437.8,314.1c-0.2-0.5-0.3-0.9-0.5-1.4c-0.3-1-0.6-1.9-1-2.9c-3.9-10.8-11.5-17.2-21.7-18.4c-5.2-0.6-10.9-0.1-16,1.4
				c-17.2,4.9-34.6,10.1-51.4,15.2c-6.6,2-13.1,3.9-19.7,5.9c-1.2,0.3-2.3,0.7-3.6,1c-2-9.8-8.4-16.7-19.6-20.9
				c-10-3.8-21.7-8.3-33.1-13.3c-16.5-7.2-31-9.9-45.6-8.6c-3.8,0.3-7.8,0.5-11.6,0.7c-7.6,0.3-15.5,0.7-23.1,2.3
				c-16.7,3.5-32.9,11.6-51.1,25.4c-6.4,4.8-12.5,10.2-18.4,15.5c-2.2,2-4.5,4-6.9,6c-10.1-3.2-15-1.2-22.3,8.4c-0.8,1-1.6,2-2.4,3
				c-1.9,2.5-3.9,5-5.7,7.7l-1.2,1.7c-9.6,14.2-15.5,22.7,3.2,38c9.1,7.4,18.3,15.1,27.2,22.4c10.1,8.4,20.6,17,30.9,25.4
				c5.2,4.3,10.4,6.4,15.4,6.4c5.6,0,11-2.7,15.7-8.2c4.6-5.3,8.8-11.1,12.9-16.7c1.4-1.9,2.8-3.8,4.2-5.6c3.8-5.1,4.5-11,2-17.1
				c-0.4-1.1-1-2-1.6-2.9c2.7-2.6,6.1-4.4,10.2-5.5c7.9-2.2,16.2-1.4,25.6,2.2c5.4,2.1,10.9,4.3,16.1,6.4c6.7,2.7,13.6,5.5,20.4,8.1
				c13.7,5.3,27,5.5,39.5,0.7c5.1-2,28.8-12.5,53.9-23.6c22.6-10,45.9-20.3,54.2-23.8c13.6-5.7,21.5-13.7,24.9-25.4l0.1-0.5v-8.7
				L437.8,314.1z M161.7,416.7c-0.3,0.3-0.5,0.5-0.8,0.7c-1,0.7-2.1,1.2-4.4-0.7c-20.6-17-42-34.6-63.4-52.3
				c-2.5-2.1-2.7-3.6-0.8-6.2c2.3-3.1,4.7-6.2,7-9.3c2.6-3.4,5.3-6.9,7.9-10.4c0.4-0.5,0.6-0.7,0.7-0.8c0.2,0.1,0.5,0.2,1,0.6
				c24.4,19.6,46.9,37.6,68.8,55.1c0.7,0.6,0.9,0.9,0.9,0.9c0,0.1-0.1,0.4-0.7,1.2c-2.2,2.8-4.4,5.8-6.5,8.6
				c-2.8,3.7-5.7,7.6-8.7,11.3C162.5,415.8,162.1,416.3,161.7,416.7z M416,327.8c-1.8,1.5-3.9,2.9-6,3.8c-6.2,2.9-12.6,5.7-18.8,8.4
				c-2.1,0.9-4.2,1.8-6.3,2.8c-3.7,1.6-7.3,3.2-11,4.8l0-0.1l-3,1.3c-1,0.5-66.9,29.7-67.1,29.8c-11,5.1-22,5.3-33.6,0.7
				c-7.1-2.8-14.4-5.7-21.4-8.5c-4.5-1.8-9-3.6-13.6-5.4c-8.1-3.2-15.7-4.8-23.1-4.8c-5,0-10,0.7-14.8,2.2
				c-6.4,2-12.1,5.4-17.3,10.4l-51.2-41c0.2-0.2,0.4-0.4,0.6-0.5c2.8-2.4,5.7-4.8,8.4-7.1c6.5-5.6,13.2-11.4,20.2-16.2
				c11.8-8.1,26.1-16.6,43-18.3c10.3-1,20.9-1.1,31.2-1.1c2.3,0,4.6,0,6.8,0c3.4,0,6.9,0.6,9.7,1.6c14.6,5.5,29.5,11.4,43.8,17
				l9,3.6c0.8,0.3,1.6,0.9,2.2,1.4c3.7,2.8,4.7,7.9,2.5,12.4c-1.6,3.3-3.5,4.7-9.5,3.2l-13.8-3.3c-10.5-2.5-21-5.1-31.6-7.6
				c-5.5-1.3-9.9,0.9-11.1,5.7c-0.6,2.3-0.4,4.5,0.7,6.4c0.9,1.4,2.7,3.4,6.4,4.3l8,2c12.9,3.2,26.3,6.5,39.5,9.6
				c10.6,2.5,19.7-1.3,25.7-10.7c0.4-0.7,1.3-1.4,2.1-1.6c12.2-3.7,24.7-7.4,36.8-11c4.3-1.3,8.6-2.5,13-3.8c3.7-1.1,7.3-2.2,11-3.3
				c7.4-2.3,15.1-4.6,22.7-6.7c6.1-1.7,11.1,0.3,13.7,5.5c0.9,1.8,1.3,3.5,1.3,5C420.9,322.6,418.5,325.7,416,327.8z"/>
		</g>
		<g>
			<path d="M322.6,85.6c-7.8-10.4-19.8-15.9-30.8-14c-10.1,1.7-17.8,9.5-21.6,21.8c-4.2,13.5-2,26.1,6.3,37.3
				c6,8,14.3,12.5,23.2,12.5c0.8,0,1.6,0,2.4-0.1c4.9-0.4,9.5-2.2,13.5-5.1c4-2.9,7.4-7,9.8-11.9C332.3,112,331.3,97.3,322.6,85.6z
				 M310.8,123.7c-5.1,6.6-13.1,7.5-19.7,2.5c-10-7.7-12.2-25.4-4.5-35.3c5.5-7.1,14-8,20.7-2.1c6,5.3,8.2,12.2,8.3,19.9
				C315.6,114.2,314.2,119.3,310.8,123.7z"/>
		</g>
		<g>
			<path d="M384.2,80.8c-10.4-12.2-25.5-13.2-38.7-2.6c-14.8,12-18,36.5-6.7,52.5c4.9,7,12,11.3,19.8,12.2c1,0.1,1.9,0.2,2.9,0.2
				c6.7,0,13.3-2.6,18.8-7.5C398,119.7,396.1,94.8,384.2,80.8z M372.4,124.2c-7.5,7.8-18.2,6.7-23.3-2.8c-5.7-10.7-4.7-22,3.1-30.9
				c7.4-8.4,18.2-7.3,23.8,2.3C381.7,102.3,380,116.3,372.4,124.2z"/>
		</g>
		<g>
			<path d="M433.1,123.3c-4-6.7-10.3-11-17.4-12c-7.2-0.9-14.6,1.7-20.3,7.3c-10.9,10.7-12.9,29.7-4.4,42.3c3.5,5.2,8,8.7,13.5,10.2
				c2.1,0.6,4.2,0.9,6.3,0.9c4.9,0,9.8-1.6,14-4.5c4.2-2.9,7.7-7.2,10.1-12.4C439.6,144,439.1,133.3,433.1,123.3z M417.6,155.6
				c-4.9,4.1-10.8,3.3-14.7-1.7c-5.7-7.3-4.2-20.4,2.9-26.3c5.1-4.3,11.5-3.6,15,2.1C427,139.7,423.5,150.6,417.6,155.6z"/>
		</g>
		<g>
			<path d="M409.1,211c0-0.8-0.1-1.6-0.2-2.5c-0.2-2.1-0.5-4.2-1-6.2c-0.2-0.7-0.3-1.4-0.5-2.1c-0.1-0.2-0.1-0.5-0.2-0.7
				c-0.2-0.7-0.4-1.5-0.7-2.2c-0.4-1.2-0.9-2.5-1.4-3.7c-5.2-12.5-14.8-21.4-22.6-27.7c-17.6-14.4-32.9-20.6-51.2-20.8
				c-27.8-0.2-56.4,17.3-73.1,44.6c-8.4,13.8-9.1,28.9-2,43.5c3.9,8,8.8,15.5,14.1,21.6c14,16.1,33.5,19.2,52.2,8.3
				c5.8-3.4,10.5-3.4,16.3-0.1c4.1,2.3,9,4.1,15.5,5.7c2.6,0.6,5.1,0.9,7.7,0.9c5.6,0,11.1-1.5,16-4.5c1.3-0.8,2.4-1.5,3.5-2.3
				c0.4-0.3,0.7-0.5,1.1-0.8c0.2-0.1,0.4-0.3,0.5-0.4c0.4-0.3,0.8-0.6,1.1-0.8c0.4-0.3,0.8-0.6,1.2-0.9c0.4-0.3,0.8-0.6,1.2-1
				l0.3-0.3c0.4-0.3,0.8-0.7,1.2-1c1-0.9,2-1.9,2.9-2.8c0.5-0.5,0.9-0.9,1.4-1.4c0.4-0.5,0.9-0.9,1.3-1.4c0.7-0.8,1.3-1.5,1.9-2.3
				c0.3-0.4,0.6-0.7,0.9-1.2l0.1-0.1c0-0.1,0.1-0.1,0.2-0.3l0.6-0.7c0.3-0.5,0.7-0.9,1-1.4c0.7-1,1.3-1.9,1.8-2.7l0.4-0.7
				c0.6-0.9,1.1-1.8,1.5-2.7c0.2-0.3,0.3-0.6,0.5-0.9c0.3-0.6,0.6-1.2,0.9-1.7c0.3-0.5,0.5-1,0.7-1.5c0.1-0.2,0.2-0.4,0.3-0.6
				c0.2-0.5,0.4-1.1,0.6-1.5c0.2-0.5,0.4-1,0.6-1.5l0.1-0.3c0.1-0.1,0.1-0.3,0.1-0.4c0.2-0.5,0.3-0.9,0.5-1.4c0-0.1,0.1-0.2,0.1-0.3
				c0.2-0.5,0.3-1,0.5-1.5c0.4-1.2,0.7-2.4,0.9-3.5c0.1-0.4,0.2-0.8,0.2-1.1c0-0.1,0.1-0.3,0.1-0.4c0-0.1,0.1-0.3,0.1-0.4
				c0.1-0.5,0.2-1,0.3-1.5l0-0.3c0.1-0.6,0.2-1.1,0.2-1.7c0.1-0.7,0.1-1.3,0.2-2c0-0.6,0.1-1.3,0.1-1.9v-0.1c0-0.6,0-1.3,0-1.9
				C409.1,212.7,409.1,211.9,409.1,211z M390.1,225.4c-2.6,5.9-6.2,11.7-10.3,16.7c-9.8,11.9-20,13.6-33.9,5.8
				c-3-1.7-5.8-2.9-8.4-3.6c-9.8-2.7-18.1,1.1-23.4,4.2c-11.2,6.5-21,5.4-29.8-3.3c-6.5-6.4-11.3-14.1-14.2-22.7
				c-2.2-6.5-1.9-13.2,0.7-19.9c2.7-6.8,7.2-13,13.8-19c16.7-15.1,30.5-21.6,46.2-21.6h0.4c17.9,0.1,36.4,10.4,52.2,28.7
				c6.3,7.3,9.4,14.8,9.4,22.4C392.8,217.2,391.9,221.3,390.1,225.4z"/>
		</g>
		<g>
			<path d="M239.1,113.2c0.8-0.4,1.5-0.7,2.3-0.9C240.7,112.5,239.9,112.9,239.1,113.2z"/>
			<path d="M265.1,117.8c-5.4-4.9-12-7.2-18.7-6.6c-1.7,0.2-3.3,0.5-4.9,1.1c-0.8,0.3-1.6,0.6-2.3,0.9c-3.8,1.8-7.2,4.6-9.9,8.3
				c-9.5,13.2-7.2,33.4,5.1,44.1c4.8,4.2,10.4,6.4,16.2,6.4c1.1,0,2.2-0.1,3.3-0.2c3.9-0.6,7.5-2.1,10.6-4.5
				c0.3-0.2,0.5-0.4,0.8-0.6c0.5-0.4,1-0.9,1.5-1.3c0.2-0.2,0.5-0.5,0.7-0.7c1.2-1.3,2.4-2.8,3.4-4.4c0.6-1,1.2-2,1.7-3
				c0.3-0.7,0.6-1.4,0.9-2.1c0.3-0.7,0.5-1.4,0.8-2.1c0.1-0.4,0.2-0.7,0.3-1.1c0.1-0.4,0.2-0.7,0.3-1.1c0.1-0.4,0.2-0.7,0.3-1.1
				c0.1-0.5,0.2-1.1,0.3-1.7c0-0.2,0.1-0.4,0.1-0.6c0.2-1.6,0.3-3.2,0.3-4.9v0C275.5,132.4,271.9,124.1,265.1,117.8z M257.7,154.8
				c-3.5,3.9-8.5,4.5-12.9,1.6c-8.6-5.7-10.3-20.7-3.3-28.2c3.8-4.1,8.9-4.6,13.4-1c5,4,6.9,9.4,6.9,14.6
				C261.8,147.3,260.7,151.4,257.7,154.8z"/>
		</g>
	</g>
</g>
<g id="Layer_4" class="st0">
	<g class="st3">
		<path d="M82.8,330.5c0-1.6,0-3.2,0-4.7c2.1-5.3,6.2-7.5,11.7-8.2c5.8-0.7,11.6-1.9,17.7-2.9c-1.2-4.2-2.4-8-3.4-11.8
			c-5.6-21-8.7-42.3-6.5-64.1c0.4-3.5,0.9-7.3,0.1-10.6c-5.7-24.4-10-48.9-11-74c-0.7-17.5,0.2-34.9,4.8-51.9
			c1.3-4.9,3.4-9,8.2-11.2c1.8,0,3.6,0,5.4,0c5.6,1.4,11.2,2.5,16.7,4.1c28.6,8.5,53.5,22.9,72.6,46.3c1.8,2.2,3.5,1.6,5.7,1.4
			c12.1-1.5,24.1-3.5,36.2-4.3c22.7-1.6,45.2,0.2,67.6,4.5c1.2,0.2,3.1-0.5,3.9-1.5c17.2-21,39.3-34.9,64.7-43.7
			c7.9-2.7,16.2-4.6,24.3-6.8c1.8,0,3.6,0,5.4,0c4.7,1.6,7,5.1,8.3,9.8c3.1,10.7,4.7,21.6,5.2,32.6c1.3,31.2-3.3,61.8-10.4,92
			c-0.8,3.3-0.9,6.8-0.8,10.3c0.1,4.7,0.9,9.4,1.1,14.1c0.5,17.9-2.5,35.4-7.1,52.7c-1.1,4-2.2,7.9-3.3,12.1
			c6.2,1,11.9,2.2,17.7,2.9c5.5,0.6,9.6,2.9,11.7,8.2c0,1.6,0,3.2,0,4.7c-3.7,7.1-6.7,8.6-14.7,7.3c-6.2-1-12.4-2.2-18.7-3.1
			c-1.2-0.2-3.3,0.2-3.7,0.9c-3.8,7.6-7.3,15.4-11,23.3c1,0.5,1.9,1,2.9,1.5c10.1,5,20.2,9.9,30.3,14.9c4.6,2.3,6.8,6.1,6.3,10.5
			c-0.9,7.3-8,11.1-15,7.8c-10.8-5.2-21.5-10.3-32.1-15.8c-3.1-1.6-4.5-0.9-6.4,1.6c-21.3,28.1-48.7,47.1-83.4,54.9
			c-6.2,1.4-12.6,2.1-19,3.1c-6.1,0-12.2,0-18.3,0c-3.8-0.5-7.6-1-11.3-1.6c-33-5.5-60.2-21.4-82.3-46.2c-3.8-4.3-7.3-8.8-11-13.3
			c-0.9,0.4-1.8,0.8-2.6,1.2c-11.2,5.5-22.4,11-33.7,16.4c-5.4,2.6-11,0.4-13.4-4.7c-2.5-5.4-0.5-10.9,5.3-13.8
			c10.2-5.1,20.4-10,30.6-15c1-0.5,1.9-1,2.7-1.4c-3.5-7.5-7-14.5-10.1-21.7c-1.1-2.6-2.5-3-4.9-2.5c-6.1,1.1-12.2,2.1-18.3,3.1
			C89.5,339.2,86.5,337.7,82.8,330.5z M160.8,367c51,69.9,146.6,63.1,190.1-0.1c-2.9-1.5-5.8-2.9-8.7-4.4c-6.2-3.1-8.6-8.6-5.9-14.1
			c2.6-5.4,8.6-7.1,14.7-4.2c3.7,1.8,7.4,3.7,11.6,5.7c3.2-6.3,6.2-12.3,9.4-18.7c-8-1.2-15.4-2.2-22.7-3.4c-6.1-1-9.7-6-8.7-11.9
			c0.9-5.3,6-8.8,11.8-8c7.9,1.1,15.8,2.3,23.8,3.4c1.7,0.2,3.1,0.7,3.9-1.8c6.9-22.2,11.7-44.7,9.2-68.2
			c-1.6-15.5-6.6-29.8-16.4-42.2c-11.5-14.5-26.7-23.6-43.9-29.6c-7.1-2.5-14.5-4.3-21.8-6.5c-0.2,0.9-0.3,1.2-0.3,1.4
			c0,10.6,0,21.2,0,31.8c0,6.6-4.2,11.1-10.2,11.1c-5.9,0-10.1-4.5-10.1-11.1c0-10.8,0-21.6,0-32.5c0-1.2,0-2.4,0-3.8
			c-7-0.5-13.5-1-20.3-1.5c0,1.9,0,3.1,0,4.3c0,17.4,0,34.7,0,52.1c0,8.1-3.8,12.8-10.2,12.7c-6.3,0-10.1-4.7-10.1-12.6
			c0-17.6,0-35.2,0-52.8c0-1.2,0-2.4,0-3.9c-7,0.6-13.5,1.1-20.3,1.6c0,1.5,0,2.7,0,3.9c0,10.9,0,21.9,0,32.8c0,4-1.6,7.2-5.2,9.2
			c-3.4,2-6.9,1.9-10.3-0.2c-3.5-2.1-4.9-5.4-4.9-9.4c0.1-10.9,0-21.8,0-32.8c-9.9,1.3-26.2,6.6-37.8,12.7
			c-23.3,12.2-38.5,30.7-43.5,56.9c-3.2,16.8-2.1,33.5,1.3,50c2,9.5,4.7,18.9,7,28.4c1.7-0.1,2.7-0.2,3.7-0.3
			c7.9-1.1,15.8-2.3,23.8-3.4c5.9-0.8,10.9,2.7,11.8,8.1c1,5.9-2.6,10.7-8.8,11.9c-1.2,0.2-2.4,0.4-3.7,0.6
			c-6.2,0.9-12.4,1.8-19.1,2.8c3.2,6.4,6.3,12.4,9.4,18.6c4.3-2.1,8.3-4.1,12.2-5.9c5.7-2.7,11.6-0.8,14.1,4.4
			c2.6,5.2,0.5,10.9-5.2,13.8C167.3,363.8,164.2,365.3,160.8,367z M116.6,196c15.2-24,36.9-37.7,62.7-46.7
			c-18.1-18.9-39.8-30-64.8-36.4C109,140.8,112,167.9,116.6,196z M395.4,196c4.5-28.1,7.5-55.2,2.1-83c-25,6.5-46.8,17.5-64.8,36.4
			c13,4.5,24.7,10.1,35.4,17.7C378.8,174.7,387.8,184.1,395.4,196z"/>
		<path d="M255.9,380.8c-5.1,4.9-10.8,8.4-17.7,10.1c-22.8,5.6-44.9-11.1-45.6-34.6c-0.2-6,3.9-10.8,9.5-11
			c5.8-0.3,10.2,3.6,10.7,9.8c0.6,7.4,3.8,12.9,11,15.5c6.6,2.4,12.5,1,17.3-4c1.7-1.8,3.1-4.2,3.9-6.6c1.9-5.3,1.1-6-3.8-8.5
			c-14.4-7.3-23.9-18.8-26.5-34.9c-1.6-9.6,2.7-17.6,10.9-22.8c19.9-12.4,40.2-12.5,60.3-0.3c10,6,14.2,18.3,10,29.2
			c-5.2,13.6-13.8,24.4-27.9,30c-0.9,0.3-1.8,1.9-1.8,2.9c-0.1,8.2,6.4,15.1,14.9,16c8,0.8,15.9-4.9,17.5-12.8
			c0.3-1.3,0.4-2.7,0.5-4c0.6-5.9,4.9-9.8,10.6-9.5c5.5,0.2,9.6,4.8,9.6,10.6c-0.1,17.7-13.6,33-31.1,35.5
			c-11.7,1.7-21.8-1.4-30.6-9.3C257.2,381.8,256.6,381.4,255.9,380.8z M256.2,304.9c-6.5,0.1-12.5,1.6-18.1,4.9
			c-3.6,2.1-4.6,4-2.5,7.5c3,4.8,6.4,9.5,10.3,13.6c3.2,3.3,7.9,4.1,12.6,3.3c7.2-1.3,17.1-11.3,18.4-18.6c0.5-2.6-0.7-4.2-2.9-5.5
			C268.6,306.7,262.6,305.1,256.2,304.9z"/>
		<path d="M167.9,275.5c0.1-5.6,4.6-10,10.2-9.9c5.5,0.1,10.1,4.8,10,10.3c-0.1,5.5-4.9,10.1-10.3,10
			C172.2,285.7,167.8,281.1,167.9,275.5z"/>
		<path d="M344,275.8c-0.1,5.6-4.7,10.1-10.2,10c-5.5-0.1-10.1-4.9-10.1-10.3c0.1-5.5,4.8-10,10.3-10
			C339.7,265.6,344.1,270.1,344,275.8z"/>
	</g>
</g>
<g id="Layer_5" class="st0">
	<g class="st3">
		<path d="M64,205.8c0-3,0-6,0-9c0.3-0.9,0.6-1.9,0.9-2.8c4.1-15.5,18.4-25.3,34.1-22.5c20.1,3.6,37.5,12.5,51.6,27.6
			c1,1.1,2,2.2,3,3.3c5.7-4.8,11.2-9.5,17-14.4c-5.7-3.6-11.4-6.8-16.7-10.4c-8.6-5.9-12.4-14.2-11.2-24.6
			c1.1-9.6,6.2-16.6,14.9-20.5c9.9-4.3,20.4-5.7,31.2-4.4c16.4,2.1,30.1,9.4,41,21.9c0.6,0.7,2.2,1.5,3,1.2
			c7.2-2.3,14.4-4.9,21.3-7.3c-0.6-6.8-1.8-13.4-1.6-20.1c0.3-13.1,5.1-24,18.1-29.3c10.8-4.4,22-5.5,33.4-3.1
			c16.3,3.5,29.1,12.7,40.7,24.1c14.3,14.1,25.5,30.7,36.6,47.3c1.4,2.1,3.5,3.8,5.5,5.3c12.7,9.3,25.7,18.2,38,27.9
			c10.8,8.5,17.8,19.8,21.3,33.2c0.7,2.6,1.3,5.3,1.9,7.9c0,4.5,0,9,0,13.5c-0.2,0.3-0.5,0.6-0.5,0.9c-2.4,17.2-10.9,30.9-24.3,41.7
			c-8.4,6.7-16.7,13.7-25.8,19.2c-10.1,6.1-17.6,14-24,23.9c-11.1,17.1-23.7,33.2-40,45.8c-17.6,13.6-36.9,19.4-59,12.6
			c-12-3.7-19.1-11.6-21.1-23.7c-0.9-5.1-0.6-10.4-0.4-15.7c0.2-3.8,1.1-7.6,1.6-11.4c-7.3-2.5-14.4-5.1-21.7-7.4
			c-0.8-0.3-2.4,0.7-3.2,1.5c-17.7,19.1-39.1,26-64.5,19.8c-12.8-3.1-20.9-11-22.3-21.9c-1.6-12.6,3.5-21.8,14.6-27.9
			c4.5-2.5,8.7-5.3,13.3-8.1c-5.8-4.9-11.4-9.6-17-14.3c-17.9,18.1-32.5,26.4-53.6,30.6c-14.5,2.9-28.4-4.7-33.9-18.5
			c-0.9-2.2-1.5-4.5-2.2-6.7c0-3,0-6,0-9c2-4.9,4-9.9,6-14.8c6.6-15.6,6.6-31.3,0-46.9C68,215.7,66,210.7,64,205.8z M349.5,313.5
			c-27.7-46.5-27.6-92.7,0-139c-35.4-15.7-71.1-16.9-107-2.5c-1.4,0.5-2.6,1.9-3.4,3.2c-11,17.3-17.5,36.1-19.4,56.5
			c-2.7,29.5,3.9,56.8,19.8,81.8c0.7,1.1,1.8,2.1,3,2.6C278.5,330.4,314.1,329.2,349.5,313.5z M370.5,303.1
			c15.5-9.3,30.4-19.1,43.2-31.8c15.3-15,15.8-38.1,1-53.6c-12.8-13.4-28.4-23.2-44-32.7C346.3,217.2,344.3,267.3,370.5,303.1z
			 M94.7,294.4c0.9-0.2,2.5-0.5,4.1-0.9c14.6-3.9,27.8-10.3,37.5-22.4c1.7-2.1,1.9-3.7,0.8-6.3c-6.1-13.9-6-27.8,0.1-41.7
			c0.8-1.8,1.3-3.2-0.2-5.1c-10.8-13.6-25.1-21-41.8-24.1c-5.8-1.1-9.9,4.5-7.9,10.2c0.4,1,0.9,2,1.4,3c9.6,19.4,11.7,39.5,5.3,60.3
			c-1.7,5.4-4.3,10.6-6.5,15.9C85.2,288.7,88.5,294.3,94.7,294.4z M206.1,297.5c-12.7-36-12.7-71-0.4-105.9c-0.5,0-0.8-0.1-0.9,0
			c-15.4,10.1-30.1,21.1-42.8,34.4c-9.2,9.7-9.5,26.1-0.2,35.9C174.7,275.4,189.6,286.6,206.1,297.5z M277.1,348
			c-1.6,6.6-3.2,12.9-1.7,19.5c0.7,3,2.3,5.1,5.3,5.6c4.8,0.8,9.6,1.7,14.4,1.6c7.6-0.2,14.1-3.6,20.5-7.5
			c7.8-4.8,23.3-20.4,26.1-26.5C320.7,347.7,299.2,350.2,277.1,348z M276.3,140.2c23.1-2.4,44.5,0.3,66.4,7.4
			c-10.8-13.3-21.3-25.3-36.7-31.7c-7.7-3.2-15.7-3.5-23.8-1.5c-4.3,1.1-7,3.6-7,8C275.2,128.2,275.9,134,276.3,140.2z M209.9,326.2
			c-6.2-3.8-12-7.4-17.9-10.8c-0.7-0.4-2-0.4-2.6,0c-7.5,4.5-15,9-22.3,13.7c-3,1.9-2.6,5,0.8,6.2c3.2,1.1,6.5,2,9.8,2.3
			C189.9,338.7,200.6,334.8,209.9,326.2z M209.7,162c-10.1-10.7-28.1-14.7-41.4-9.3c-1.2,0.5-2.8,1.9-2.9,2.9c0,1.3,1.1,3,2.2,3.8
			c7,4.5,14.2,8.9,21.3,13.2c0.8,0.5,2.2,0.7,2.9,0.2C197.8,169.3,203.6,165.7,209.7,162z"/>
		<path d="M391.3,255.3c-6.1-0.1-11.1-5.1-11.1-11.3c0-6.3,5.1-11.4,11.4-11.3c6.1,0.1,11.1,5.2,11.1,11.3
			C402.8,250.3,397.5,255.4,391.3,255.3z"/>
	</g>
</g>
<g id="Layer_6" class="st0">
	<g class="st3">
		<path d="M72.2,189.8c0-2.6,0-5.3,0-7.9c1.7-6.7,4.3-13,10.1-17.3c13.2-9.8,27.9-16,44.5-17.2c5.9-0.4,11.9-0.1,18-0.1
			c-0.2-0.7-0.4-1.3-0.7-1.9c-8.7-17.1-13.7-35.3-15.5-54.4c-0.8-8.2,3.2-15.5,10.6-19.1c1.6-0.8,3.3-1.4,4.9-2c2.4,0,4.8,0,7.2,0
			c6.3,1.8,10.4,6.1,14.3,11.2c15.9,21.1,35.2,38.1,60.1,47.9c2.1,0.8,4.7,1,6.9,0.6c13.4-2.2,26.8-3.1,40.3-1
			c6.5,1,12.5,1.5,19-1.6c22.2-10.7,40-26.4,54.7-45.9c3.8-5.1,8-9.5,14.3-11.2c2.4,0,4.8,0,7.2,0c1.1,0.4,2.2,0.9,3.2,1.3
			c8,3,13,10.7,12.3,19.1c-1.7,19-6.6,37.1-15.1,54.2c-0.5,0.9-0.8,1.9-1.4,3.2c1.6-0.1,2.7-0.1,3.9-0.2c17.1-1.6,32.9,2.2,48,10.2
			c10.2,5.4,18.5,12.2,20.9,24.3c0,2.9,0,5.7,0,8.6c-0.4,1.2-0.9,2.4-1.3,3.6c-1.6,5.1-4.3,9.7-8.6,12.9
			c-12.9,9.5-27.2,15.9-43.4,17.2c-5.5,0.4-11.1,0.1-16.8,0.1c0.2,2.8,0.4,5.2,0.4,7.6c0.9,42.1-8.5,81.6-28.9,118.6
			c-3.8,6.8-6,14.5-8.6,21.9c-1.4,4-2.1,8.3-3.5,12.4c-8.3,24.5-23.7,42-49.2,49.3c-5.2,1.5-10.7,2.2-16.1,3.3c-5.3,0-10.5,0-15.8,0
			c-1-0.2-2.1-0.5-3.1-0.7c-10.8-1.2-21-4.4-30.4-10.1c-18.7-11.4-28.9-28.8-33.9-49.5c-2.6-10.8-6.5-20.9-11.9-30.6
			c-15.5-28.4-24.2-58.9-26.3-91.2c-0.7-10.2-0.1-20.5-0.1-31c-1.3,0-2.2-0.1-3.2,0c-13.4,1.2-26.3-1.1-38.4-6.6
			C88,212,75.3,205.7,72.2,189.8z M210.7,158.6c1.1,1.5,1.9,2.5,2.6,3.7c6.4,11,13.8,21.6,19.1,33.1c16.2,35.6,17.4,71.8,2,108
			c-8.2,19.3-20.3,36-34.9,50.8c-1.7,1.8-2.1,3.3-1.3,5.6c1.3,3.9,2.2,8,3.3,12.1c3,11.8,7.9,22.6,17.1,30.9
			c12.1,10.9,26.7,13.8,42.4,12.8c23-1.5,38.7-13.2,46.6-34.8c2.5-6.9,4-14.2,6.3-21.3c0.7-2.3,0.3-3.7-1.4-5.3
			c-10.9-11-20.4-23.1-27.9-36.7c-14.6-26.1-20.7-54-16.4-83.9c3.4-23.4,12.5-44.5,25.4-64.1c2.5-3.8,5.1-7.4,7.8-11.4
			C271,145.8,241.2,145.9,210.7,158.6z M324.6,335.6c0.6-1.1,1.2-2.1,1.7-3c13.8-26.9,20.9-55.6,22.3-85.7
			c0.7-15.5-0.3-30.8-5.8-45.6c-4.7-12.5-12-23.2-22.6-31.5C276.8,223.7,276.7,285.1,324.6,335.6z M191.9,170.1
			c-1.5,1.3-3.1,2.6-4.5,3.9c-16.3,15.5-22.7,35.2-23.9,57c-1.5,29.3,4.2,57.5,14.8,84.7c2.6,6.7,5.8,13.2,8.8,20
			C235.9,285.1,234.2,221.8,191.9,170.1z M158,174.1c-19.8-9.5-43.2-6.5-61.7,7c-3.6,2.6-3.5,7.1,0.2,9.7
			c14.4,10.1,30.3,14.5,47.8,11.2c0.9-0.2,2.1-0.8,2.5-1.6C150.6,191.7,154.3,182.9,158,174.1z M354.1,173.9
			c3.7,8.9,7.3,17.6,11,26.2c0.4,0.9,1.8,1.7,2.9,1.9c17.4,3.3,33.1-1.2,47.4-11.2c3.8-2.7,3.9-7.4,0-9.9c-4.7-3-9.6-5.9-14.7-8
			C384.9,166.5,369.1,167.4,354.1,173.9z M197.7,140.3c-8-6.2-16.5-12.2-24.3-19c-7.8-6.9-14.7-14.6-22-21.9
			c3,20,14.7,46.5,24.3,55.3C183.3,149.7,190.7,144.9,197.7,140.3z M360.8,98.1c-13.9,17-29.2,31-47.1,41.7
			c7.7,5,15.1,9.8,22.9,14.8C349.2,138.3,357.1,119.7,360.8,98.1z"/>
		<path d="M247.4,384.2c0,6.8-3.9,11.2-9.5,12c-5,0.7-10.4-2.5-11.4-7.7c-1.2-6-3.9-10.5-8.7-14.2c-4.3-3.3-4.7-9.6-1.6-13.9
			c3.1-4.4,9-6.1,13.7-3.3C240.5,363.4,246.3,373,247.4,384.2z"/>
		<path d="M264.6,383.9c1.2-11,7-20.4,17.2-26.8c4.7-2.9,10.9-1.2,14,3.2c3,4.4,2.6,10.7-1.7,14c-4.7,3.6-7.6,7.9-8.6,13.8
			c-1,5.4-6.4,8.8-11.5,8C268.3,395.4,264.5,390.8,264.6,383.9z"/>
		<path d="M309.8,257.4c0.1-5.9,5.1-10.7,10.9-10.5c5.9,0.1,10.7,5.1,10.6,10.9c-0.1,5.9-5,10.6-11,10.5
			C314.4,268.2,309.7,263.3,309.8,257.4z"/>
		<path d="M191.5,246.8c5.9,0,10.7,4.9,10.7,10.8c0,5.9-4.8,10.7-10.7,10.7c-5.9,0-10.8-4.8-10.8-10.7
			C180.7,251.7,185.7,246.8,191.5,246.8z"/>
	</g>
</g>
<g id="Layer_7" class="st0">
	<g class="st3">
		<path d="M175,53.4c1.8,0,3.5,0,5.3,0c2.9,2.1,6.1,3.9,8.6,6.4c10.9,10.6,20.3,22.4,27.9,35.5c1.3,2.3,2.5,2.7,5,2
			c22.8-5.9,45.7-5.8,68.5,0c2.5,0.6,3.7,0.3,5-2c7.5-12.9,16.7-24.5,27.4-35c2.7-2.7,6.1-4.6,9.2-6.9c1.8,0,3.5,0,5.3,0
			c2.9,2.2,6.1,4,8.5,6.5c5.7,6,11.3,12,16.4,18.5c13.1,16.9,23.3,35.3,26.8,56.6c4.3,25.6,0.4,50.5-8.3,74.7
			c-0.7,2.1-1.4,4.3-1.4,6.5c-0.1,25.9-4.9,50.9-13.7,75.2c-8.6,24-22.6,45-37.9,65.1c-4.9,6.5-10.7,12.9-17.4,17.4
			c-7.3,4.9-9.6,10.2-9.4,18.8c0.4,15.6-6.6,28.4-19.8,36.9c-5.6,3.6-12.5,5.2-18.8,7.8c-4,0-8,0-12,0c-0.8-0.3-1.6-0.6-2.4-0.8
			c-16.8-3.8-28.7-13.6-33.9-30c-2.2-7-2-14.7-2.5-22.2c-0.2-2.7-0.9-4.2-3.2-6c-7-5.6-14.1-11.2-20.1-17.8
			c-6-6.6-10.9-14.3-16-21.7c-25.7-37.1-38.8-78.2-38.9-123.4c0-1.5-0.4-2.9-0.8-4.4c-2.4-8-5.4-15.9-7.1-24
			c-3.8-18.1-5.3-36.3-1.4-54.7c4.9-23.1,16.6-42.7,31.6-60.5C161.2,65.1,166.8,57.9,175,53.4z M267.3,369.1
			c17-2.8,30.6-11,40.7-24.3c7.7-10,14.4-20.7,21.7-31c1.8-2.5,1.2-3.9-0.9-5.9c-11.2-10.9-22.5-21.7-33.3-33
			c-17.4-18.2-26.8-40.2-28.2-65.3c-1.8-31.2,8.7-57.8,30.3-80.3c1.2-1.2,2.3-2.5,3.5-3.7c-25.4-14.6-71.6-12.1-89.8,0.1
			c0.1,0.2,0.2,0.4,0.4,0.6c1.2,1.3,2.4,2.5,3.6,3.8c17,17.8,27.3,38.8,29.3,63.3c2.8,33.5-8.1,62.2-32.1,85.8
			c-9.9,9.7-19.8,19.5-29.7,29.1c-1.8,1.7-2,3-0.6,5c7.3,10.5,14,21.3,21.7,31.4c10.2,13.3,24,21.1,40.8,24.3c0-8,0.1-15.7-0.1-23.5
			c0-0.8-1.2-2-2.1-2.4c-12.7-5.8-20.9-15.6-25.7-28.4c-4.4-11.5-0.3-23.6,10.3-30c18.7-11.3,37.8-11.6,56.8-0.6
			c11.8,6.8,16.1,19.9,10.7,32.4c-5.1,12-13.2,21.4-25.4,26.8c-0.8,0.4-1.8,1.5-1.8,2.3C267.3,353.4,267.3,361.1,267.3,369.1z
			 M170.3,289.5c11.3-11.3,22.6-21.6,32.6-33c22.6-25.9,26.1-63,9.5-92.7c-5.5-9.8-12.8-18-20.9-25.8c-17,14.8-27.8,33-33,54.5
			c-3.8,15.5-3.5,31.2-1.5,46.9C159.2,256.4,163.4,272.9,170.3,289.5z M320.5,137.9c-3.3,3.5-6.4,6.8-9.4,10.1
			c-30.6,33.6-27.1,81.5,0,110.7c9.4,10.1,19.7,19.5,29.5,29.3c0.3,0.3,0.8,0.6,1.3,0.9c0.3-0.5,0.6-0.9,0.7-1.4
			c10.5-26.6,15.9-54.2,13-82.8C352.9,178.2,341,156,320.5,137.9z M314,106.5c24.3,13.3,41.4,32.2,53.3,56.8
			c3.9-29.4-10.7-59.1-33.1-82.6c-1.6,1.8-3.3,3.4-4.7,5.3C324.4,92.6,319.4,99.3,314,106.5z M178.3,80.2
			c-25,26.6-37.5,56.6-33.4,82.8c11.8-24.4,29-43.3,53.2-56.6C191.4,97.6,185,89.1,178.3,80.2z M234.1,389.9
			c-1.4,8.7,3,17.4,10.6,21.9c7.9,4.7,17.7,4,25-1.6c6.3-4.9,9.8-13.7,8-20.2C263.2,393.5,248.6,393.4,234.1,389.9z M256,297.8
			c-5.4,1.9-10.7,3.6-15.9,5.5c-2.5,0.9-3.1,3.1-1.6,5.2c2.9,4.1,5.7,8.6,9.3,12c4.6,4.2,12,4.2,16.5,0c3.6-3.3,6.3-7.6,9.1-11.7
			c1.7-2.4,0.7-4.7-2-5.7C266.6,301.2,261.5,299.6,256,297.8z"/>
		<path d="M192.8,206c6.3,0.3,11.1,5.7,10.8,12c-0.4,6.1-5.7,10.7-11.9,10.4c-6-0.4-10.8-5.6-10.5-11.5
			C181.4,210.7,186.8,205.7,192.8,206z"/>
		<path d="M331,217.3c-0.1,6.2-5.1,11.1-11.4,11.1c-6.2-0.1-11.2-5.1-11.1-11.3c0.1-6.1,5.2-11.2,11.3-11.1
			C325.9,206,331.1,211.2,331,217.3z"/>
	</g>
</g>
<g id="Layer_8" class="st0">
	<g class="st3">
		<path d="M59.8,266.4c0-4.3,0-8.7,0-13c0.3-1,0.6-1.9,0.8-2.9c2.1-12.4,7.4-23.2,16.2-32.3c2.1-2.2,4.4-4.2,6.7-6.4
			c-3.8-5.8-7.5-11.4-11.2-17.1c-4.9-7.5-3.1-14.2,4.7-18.5c9.2-5,18.3-10.1,27.5-15c2.2-1.2,3.1-2.4,2.9-5
			c-0.7-9.7-1.2-19.4-1.6-29.1c-0.3-7.2,4.2-12.1,11.4-12.6c12.1-0.8,24.2-1.6,36.3-2c3-0.1,4.1-1.2,5-3.9
			c2.7-8.9,5.6-17.7,8.5-26.6c2.7-8.3,8.3-11.2,16.6-8.6c11.9,3.8,23.8,7.6,35.6,11.7c2.8,1,4.3,0.3,6.2-1.7
			c7-7.7,14.1-15.2,21.1-22.7c6.1-6.4,12.8-6.4,18.8-0.1c7.3,7.7,14.5,15.4,21.7,23.3c1.6,1.8,3,2.1,5.3,1.4c12-4,24-7.9,35.9-11.8
			c8.3-2.7,13.9,0.2,16.6,8.5c3,9.2,6,18.4,8.9,27.7c0.6,2.1,1.6,2.7,3.8,2.8c12,0.6,24,1.3,35.9,2c9.1,0.6,13,5.1,12.6,14.1
			c-0.5,9.3-0.9,18.6-1.6,27.9c-0.2,2.2,0.6,3.4,2.5,4.4c9.2,4.9,18.4,10,27.5,15.1c8.5,4.7,10.1,11.1,4.7,19.3
			c-3.6,5.5-7.2,11-10.9,16.6c11,8.8,18.3,19.6,21.8,32.9c0.7,2.8,1.3,5.7,2,8.5c0,4.3,0,8.7,0,13c-0.3,1.1-0.6,2.2-0.8,3.3
			c-4.1,25.9-26.3,47.1-52.2,49.6c-2.8,0.3-3.8,1.3-4.6,3.9c-7.5,25.9-18.8,49.8-36,70.7c-54.8,66.8-149.5,62.9-200.7,5.3
			c-19.6-22.1-32.3-47.9-40.5-76c-0.7-2.3-1.4-3.6-4.2-3.9c-24.8-2.5-45.8-20.9-51.7-45.1C60.9,271.6,60.3,269,59.8,266.4z
			 M267.5,419.2c0.8,0,1.2,0,1.6,0c29.1-3.4,52.6-17,71.2-39.3c19-22.8,29.8-49.4,36-78.1c3.4-15.7,4.5-31.5,0.8-47.4
			c-7.5-32.2-44.7-53.4-69.1-48.7c-19.8,3.8-38.6,18.7-40.6,40.5c-0.6,6.1-5.4,10.2-11.4,10.3c-5.8,0-10.7-4.1-11.4-10.3
			c-3.2-28.6-32.3-45.6-58.9-39.9c-30.7,6.6-53,33.2-52.9,64.8c0.2,41.5,14.1,78.5,40.5,110.6c12.2,14.9,27.6,25.6,45.9,32.1
			c8.1,2.9,16.4,5,25.4,5.6c0-14.3,0.1-28.2-0.1-42.2c0-1.1-1.3-2.6-2.4-3.1c-10.9-5.8-18.5-14.4-22.2-26.1c-3-9.4-1.7-18,6-24.8
			c14.8-13.3,42.4-14.2,58.1-1.9c9.3,7.3,12.5,18.2,7.9,29.1c-4.4,10.5-11.5,18.9-22,24c-1,0.5-2.1,1.9-2.1,2.9
			C267.5,391.1,267.5,405,267.5,419.2z M256,84.2c-7.2,7.7-14,15-20.8,22.3c-3.8,4.1-8.2,5.3-13.5,3.5c-3.4-1.1-6.8-2.2-10.2-3.3
			c-8.4-2.8-16.9-5.5-25.6-8.3c-3.1,9.5-6,18.6-8.9,27.6c-1.8,5.4-5.5,8.4-11.3,8.7c-8.9,0.5-17.8,1-26.8,1.5
			c-3.1,0.2-6.2,0.5-9.6,0.7c0.5,9,0.9,17.5,1.6,26.1c0.5,6.6-1.9,11.2-7.9,14.3c-7.5,3.8-14.8,8-22.2,12.1c-1.1,0.6-2.1,1.3-3.3,2
			c1.9,2.9,3.6,5.4,5.2,8c1.1,1.8,2.2,2.4,4.3,1.9c10.7-2.5,21.3-1.5,31.7,1.6c1.3,0.4,3.1-0.2,4.4-0.9c6-3.6,11.6-8,17.8-11.1
			c34.9-17.5,73.3-7.2,93.9,20.5c0.3,0.4,0.7,0.6,0.9,0.9c0.4-0.1,0.5-0.1,0.6-0.2c0.6-0.7,1.1-1.4,1.7-2.1
			c18.4-22.1,41.9-30.9,70.2-26.5c15,2.3,28,9.1,40,18.2c1.2,0.9,3.3,1.8,4.6,1.4c10.6-3.3,21.2-4.1,32.1-1.8c1,0.2,2.6,0.2,3-0.4
			c2.3-3,4.2-6.2,6.4-9.6c-9.2-5.1-17.9-9.9-26.7-14.6c-4.9-2.7-7.2-6.7-6.8-12.2c0.1-1.8,0.3-3.6,0.4-5.4
			c0.4-7.3,0.8-14.7,1.1-22.2c-11.7-0.7-22.9-1.3-34.1-2c-9-0.6-11.4-2.6-14.2-11.2c-2.7-8.3-5.4-16.7-8.1-25.2
			c-11.7,3.8-23.2,7.3-34.5,11.3c-6.4,2.2-11.3,0.9-15.8-4.1C269.5,98.4,262.9,91.5,256,84.2z M401.4,295.7
			c12.8-3.8,21.8-11.6,25.8-24.3c4.7-14.5,1.3-27.5-9.6-38.3c-7.9-7.8-17.7-10.9-29.4-10c7.2,11.3,11.9,22.8,12.9,35.2
			C402.2,270.6,401.4,283,401.4,295.7z M111,295.4c-1.8-12.4-2.2-24.7-0.4-37c1.8-12.5,6-24.1,12.8-34.9
			c-16.6-3.9-36.4,10.8-39.8,28.9C78.9,276.3,97,293.3,111,295.4z M249,351.3c4.2,2.8,9.7,2.9,13.9,0.2c4-2.6,7.2-7.9,5.7-11.4
			c-2.8-6.5-22-6.9-25-0.6C241.9,342.9,244.9,348.5,249,351.3z"/>
		<path d="M330.3,305.6c0,6.3-5.1,11.4-11.4,11.4c-6.4,0-11.7-5.3-11.6-11.6c0.1-6.2,5.5-11.4,11.6-11.3
			C325.2,294.1,330.4,299.4,330.3,305.6z"/>
		<path d="M204.6,305.4c0.1,6.2-5,11.5-11.2,11.6c-6.3,0.1-11.6-4.8-11.8-11.1c-0.2-6.3,5.1-11.8,11.4-11.9
			C199.2,294,204.5,299.2,204.6,305.4z"/>
		<path d="M321.2,150.2c0,2.7,0.1,5.4,0,8c-0.3,6.3-5.2,11.1-11.3,11.2c-5.9,0.1-11.2-4.5-11.5-10.6c-0.3-5.7-0.3-11.5,0-17.2
			c0.3-6.1,5.6-10.7,11.5-10.6c6.1,0.1,11.1,4.9,11.3,11.2C321.3,144.9,321.2,147.5,321.2,150.2z"/>
		<path d="M267.5,141.1c0,2.7,0.1,5.4,0,8c-0.3,6.3-5.3,11.1-11.4,11.1c-6.1,0-11.3-4.8-11.5-11c-0.2-5.5-0.2-11,0-16.5
			c0.3-6.2,5.6-11.1,11.6-11c6.1,0.1,11,5,11.3,11.3C267.6,135.7,267.5,138.4,267.5,141.1z"/>
		<path d="M213.8,150.2c0,2.7,0.1,5.4,0,8c-0.3,6.3-5.3,11.1-11.4,11.2c-6.3,0.1-11.4-4.9-11.5-11.4c-0.1-5.2-0.1-10.5,0-15.7
			c0.2-6.4,5.4-11.5,11.6-11.4c6.1,0.1,11.1,4.9,11.4,11.2C213.9,144.9,213.8,147.5,213.8,150.2z"/>
	</g>
</g>
<g id="Layer_9" class="st0">
	<g class="st3">
		<path d="M241.2,102c-14.1-18.9-36-28.9-56-25.5c-18.4,3.2-32.3,17.2-39.2,39.6c-7.6,24.6-3.7,47.3,11.4,67.7
			c10.9,14.6,26,22.7,42.1,22.7c1.4,0,2.8-0.1,4.3-0.2c9-0.8,17.3-4,24.6-9.3c7.2-5.3,13.4-12.6,17.9-21.7
			C259,150,257.1,123.3,241.2,102z M219.8,171.2c-9.3,11.9-23.9,13.7-35.8,4.5c-18.1-14-22.2-46.1-8.2-64.2
			c10-12.9,25.5-14.6,37.7-3.8c10.8,9.6,14.9,22.1,15,36.2C228.5,154,226,163.3,219.8,171.2z"/>
	</g>
	<g class="st3">
		<path d="M353,93.4c-18.8-22.1-46.4-23.9-70.2-4.6c-27,21.8-32.6,66.4-12.1,95.3c9,12.7,21.8,20.6,35.9,22.2
			c1.8,0.2,3.5,0.3,5.3,0.3c12.2,0,24.2-4.8,34.2-13.7C378.2,164.1,374.7,118.9,353,93.4z M331.7,172.2c-13.6,14.1-33,12.1-42.3-5.2
			c-10.4-19.4-8.6-40,5.6-56.1c13.4-15.2,33.1-13.3,43.3,4.1C348.6,132.3,345.6,157.8,331.7,172.2z"/>
	</g>
	<g class="st3">
		<path d="M441.9,170.5c-7.2-12.1-18.8-20-31.7-21.7c-13.1-1.7-26.5,3.1-36.8,13.2c-19.8,19.4-23.4,53.9-7.9,76.9
			c6.4,9.5,14.6,15.7,24.4,18.5c3.8,1.1,7.6,1.6,11.4,1.6c9,0,17.8-2.9,25.4-8.2c7.6-5.3,14-13,18.3-22.6
			C453.8,208.1,452.8,188.7,441.9,170.5z M413.7,229.2c-8.9,7.4-19.5,6.1-26.6-3.1c-10.3-13.3-7.6-37.1,5.3-47.9
			c9.3-7.7,20.9-6.6,27.2,3.8C430.9,200.4,424.6,220.1,413.7,229.2z"/>
	</g>
	<g class="st3">
		<path d="M398.3,329.9c-0.1-1.5-0.2-3-0.3-4.5c-0.4-3.8-1-7.6-1.8-11.3c-0.3-1.3-0.6-2.6-1-3.9c-0.1-0.4-0.2-0.9-0.3-1.2
			c-0.4-1.3-0.8-2.7-1.2-4c-0.7-2.3-1.6-4.6-2.6-6.8c-9.5-22.6-26.9-38.8-41.1-50.3c-32.1-26.2-59.8-37.4-92.9-37.7
			c-50.4-0.3-102.5,31.5-132.8,81.1c-15.3,25.1-16.6,52.4-3.6,79c7.1,14.6,16,28.2,25.6,39.3c25.4,29.2,60.9,34.8,94.8,15
			c10.5-6.1,19.1-6.2,29.7-0.1c7.4,4.2,16.3,7.5,28.1,10.3c4.7,1.1,9.3,1.7,13.9,1.7c10.2,0,20.1-2.8,29.1-8.2
			c2.4-1.4,4.4-2.8,6.3-4.1c0.6-0.5,1.3-0.9,2-1.4c0.3-0.2,0.7-0.5,1-0.7c0.7-0.5,1.4-1,2-1.5c0.7-0.6,1.5-1.1,2.1-1.7
			c0.7-0.6,1.4-1.1,2.1-1.7l0.5-0.5c0.7-0.6,1.5-1.3,2.1-1.9c1.9-1.7,3.7-3.4,5.4-5.1c0.8-0.8,1.7-1.7,2.6-2.6
			c0.8-0.9,1.6-1.7,2.3-2.6c1.2-1.4,2.4-2.8,3.5-4.1c0.5-0.7,1.1-1.3,1.7-2.1l0.2-0.2c0.1-0.1,0.2-0.3,0.4-0.5l1-1.4
			c0.6-0.8,1.3-1.7,1.8-2.6c1.3-1.8,2.3-3.4,3.2-4.8l0.8-1.3c1-1.7,2-3.3,2.8-4.9c0.3-0.5,0.6-1.1,0.8-1.6c0.6-1.1,1.1-2.1,1.6-3.2
			c0.5-0.9,0.9-1.9,1.3-2.7c0.2-0.4,0.4-0.8,0.5-1c0.4-1,0.8-1.9,1.2-2.8c0.4-0.9,0.7-1.8,1.1-2.7l0.2-0.6c0.1-0.2,0.2-0.5,0.2-0.6
			c0.3-0.8,0.6-1.7,0.8-2.5c0.1-0.2,0.2-0.4,0.2-0.6c0.3-0.9,0.6-1.8,0.8-2.7c0.7-2.3,1.2-4.3,1.6-6.3c0.2-0.7,0.3-1.4,0.4-2.1
			c0.1-0.2,0.1-0.5,0.1-0.7c0.1-0.3,0.1-0.5,0.2-0.8c0.2-0.9,0.3-1.8,0.5-2.8l0.1-0.5c0.2-1,0.3-2,0.4-3.1c0.1-1.2,0.3-2.4,0.3-3.6
			c0.1-1.2,0.2-2.3,0.2-3.5v-0.3c0.1-1.2,0.1-2.3,0.1-3.5C398.4,332.9,398.3,331.4,398.3,329.9z M363.8,356
			c-4.7,10.7-11.2,21.2-18.6,30.2c-17.8,21.6-36.2,24.8-61.6,10.6c-5.5-3.1-10.5-5.2-15.2-6.5c-17.8-4.9-32.8,2-42.6,7.6
			c-20.4,11.8-38.1,9.8-54.2-6.1c-11.9-11.7-20.5-25.6-25.8-41.3c-4-11.9-3.5-24.1,1.3-36.2c4.9-12.4,13.1-23.6,25-34.4
			c30.3-27.5,55.4-39.3,83.9-39.3h0.8c32.4,0.3,66.1,18.8,94.8,52.2c11.4,13.3,17.1,26.9,17.1,40.8
			C368.7,341.1,367.1,348.5,363.8,356z"/>
	</g>
	<path class="st3" d="M136.8,160.5c-9.7-8.9-21.8-13.2-34-11.9c-3.1,0.3-6,1-8.9,1.9c-1.4,0.5-2.8,1-4.2,1.7
		c-6.9,3.2-13,8.4-17.9,15.1c-17.3,24-13.1,60.6,9.2,80c8.7,7.6,18.9,11.5,29.4,11.5c2,0,4-0.2,6.1-0.4c7-1,13.6-3.9,19.2-8.2
		c0.5-0.4,0.9-0.7,1.4-1.1c0.9-0.8,1.8-1.6,2.7-2.4c0.4-0.4,0.9-0.8,1.3-1.3c2.2-2.4,4.3-5,6.1-7.9c1.1-1.8,2.1-3.6,3-5.4
		c0.6-1.2,1.1-2.5,1.6-3.7c0.5-1.3,1-2.6,1.4-3.9c0.2-0.7,0.4-1.3,0.6-2c0.2-0.7,0.4-1.4,0.5-2c0.2-0.7,0.3-1.3,0.5-2
		c0.2-1,0.4-2,0.5-3c0.1-0.4,0.1-0.7,0.2-1.1c0.4-2.9,0.6-5.8,0.6-8.9v0C155.7,187.1,149.3,171.9,136.8,160.5z M123.4,227.7
		c-6.3,7.1-15.5,8.2-23.4,3c-15.5-10.3-18.7-37.5-6-51.2c6.9-7.4,16.2-8.3,24.4-1.8c9.1,7.2,12.5,17.1,12.6,26.5
		C130.8,214.1,128.8,221.5,123.4,227.7z"/>
</g>
<g id="Layer_10" class="st0">
	<g class="st3">
		<path d="M328.7,59.7c17.1,4.3,25.1,17.5,30.8,32.5c7.1,18.6,9,38,9.7,57.7c1.1,33.2-6,65.2-14.5,97c-0.9,3.2-0.4,5.5,1.3,8.3
			c17.2,29.1,27.7,60.4,28.1,94.3c0.4,38.7-19.3,67-55.2,81.5c-17.9,7.2-36.6,10.5-55.8,11.9c-2,0.1-3.9,0.5-5.9,0.7
			c-7.5,0-15,0-22.5,0c-6.8-0.7-13.6-1.4-20.4-2.3c-18.2-2.4-35.8-6.7-52-15.5c-29.3-15.8-44-40.9-44.3-73.7
			c-0.4-34.5,10.2-66.3,27.5-96c2-3.5,2.7-6.4,1.6-10.4c-5.8-21.2-11-42.6-13.1-64.5c-2.8-29.6-2.1-59,8-87.3
			c2.7-7.7,7.3-15,11.9-21.9c4.5-6.8,11.6-10.4,19.4-12.4c3,0,6,0,9,0c9.3,2.3,16.8,7.4,22.7,14.9c2.8,3.6,5.6,7.4,7.8,11.4
			c14.2,25.1,21,52.5,23.4,81c0.8,9.4,1.1,18.9,1.7,28.3c5.6,0,10.9,0,16,0c0.9-12,1.4-23.7,2.6-35.4c2.6-24.4,8.9-47.8,20.3-69.7
			c7.3-14,16.4-26.3,32.9-30.5C322.7,59.7,325.7,59.7,328.7,59.7z M256.7,421.3c4.6-0.2,10.1-0.4,15.6-0.8
			c17.5-1.3,34.7-4.1,50.9-11.4c18-8.1,31.1-20.7,36.1-40.4c3.8-15,2.6-30-0.6-44.9c-5.6-25.8-14.9-50-31.7-70.7
			c-21.8-26.8-50-38.8-84.4-34.1c-25.6,3.5-45.2,17.2-60.3,37.6c-17.7,23.8-27.1,51-31.2,80.1c-1.9,13.4-1.2,26.7,3.9,39.5
			c7,17.7,20.9,28.1,38.1,34.8C213.2,418.8,234.5,420.6,256.7,421.3z M225.2,199.6c0-1.3,0.1-2.4,0-3.5c-1-13.7-1.4-27.5-3.2-41
			c-2.7-20.7-8.6-40.5-19.3-58.6c-2.5-4.2-5.7-8.2-9.3-11.6c-4.4-4.2-8.3-3.6-12.2,1.1c-1.7,2.1-3.2,4.5-4.5,6.9
			c-5.1,9.9-7.7,20.5-9.3,31.4c-3.8,26-2.9,51.8,2.3,77.5c1.8,9,3.9,18,6,27.6C190,214.9,206.3,205.2,225.2,199.6z M336,228.8
			c0.3-0.8,0.5-1.3,0.6-1.8c4.5-19.2,9-38.4,9.8-58.2c1-22.4,0.2-44.8-7.2-66.2c-2-5.9-5.2-11.6-8.8-16.8c-3.3-4.8-7.4-5-11.9-1.1
			c-2.7,2.3-5.4,5.1-7.1,8.1c-4.3,7.8-8.6,15.8-11.9,24.1c-10.3,25.8-12.2,53.1-12.9,80.5c-0.1,2.4,1.4,2.6,2.9,3
			c13,4,24.9,10.3,35.5,18.8C328.7,222.2,332.1,225.5,336,228.8z"/>
		<path d="M244.7,362.2c1.6-6.3-1.1-9.8-6.6-13.3c-8.6-5.7-14.6-14.1-16-24.7c-1.1-8.7,2.3-15.9,9.7-20.5c15.4-9.7,31.4-10,47.1-0.9
			c10.2,5.9,13.9,17.3,9.2,28.2c-3.9,9.1-9.9,16.4-18.8,21.1c-1,0.5-2,2.1-2,3.3c-0.2,4-0.1,8-0.1,12c0,4.6,1.7,7.1,5.8,8.4
			c3.8,1.1,7.9-0.4,10.1-3.8c0.5-0.8,0.9-1.8,1.4-2.7c2.9-5.8,9.2-8.2,14.8-5.7c5.6,2.5,8,8.8,5.7,14.8
			c-6.7,17.8-28.4,25.6-45.1,15.9c-2.8-1.6-4.6-1.9-7.5-0.1c-16.2,9.6-37.1,2.6-44.7-14.6c-2.9-6.7-0.9-13.2,5-15.9
			c5.9-2.7,12.1-0.1,15.4,6.5c2.1,4.3,5.8,6.5,9.8,5.9c4.4-0.6,6.7-3.3,6.7-7.9C244.7,366.2,244.7,364.2,244.7,362.2z M244.5,322.4
			c3,4.8,5.4,10.4,12,10c6-0.3,8.3-5.5,10.9-10C260.6,317.8,251.7,317.7,244.5,322.4z"/>
		<path d="M200.9,302.7c-6.1-0.1-11.1-5.2-11-11.3c0.1-6.1,5.2-11.2,11.3-11.1c6.2,0,11.4,5.4,11.2,11.6
			C212.2,298,207.1,302.8,200.9,302.7z"/>
		<path d="M310.6,302.7c-6.1-0.1-11.1-5.1-11.1-11.2c0-6,5.2-11.2,11.2-11.2c6.2,0,11.4,5.3,11.3,11.5
			C321.8,297.9,316.8,302.8,310.6,302.7z"/>
	</g>
</g>
<g id="Layer_11" class="st0">
	<g class="st3">
		<path d="M76.8,237.8c0-6.5,0-13.1,0-19.6c0.5-3.3,0.9-6.7,1.4-10c3.4-24.3,13.2-45.5,30.8-62.8c16.9-16.6,37.3-26.8,60-32.8
			c3.4-0.9,6-2.3,8-5.3c5.2-7.8,12.3-13.8,21-17.4c4.9-2,10.2-3.1,15.3-4.7c28.5,0,56.9,0,85.4,0c0.2,0.1,0.4,0.3,0.6,0.4
			c16,2.4,28.4,10.4,37.4,23.9c0.8,1.2,2.5,1.9,4,2.4c10.1,3.8,20.7,6.6,30.4,11.3c33.2,16.2,54.6,42.1,61.7,78.9
			c1,5.3,1.7,10.8,2.5,16.2c0,6.3,0,12.6,0,18.9c-0.2,1-0.5,2-0.6,3c-1.1,11.5-3.6,22.8-7.4,33.7c-9.8,28.1-26.1,52.2-45.4,74.5
			c-18.5,21.3-39.4,40.1-61.9,57c-2.1,1.6-3,3.1-2.9,5.8c0.2,6.3-0.2,12.6,0.1,18.9c0.4,6.5-1.9,11.1-7.9,13.6c-1.6,0-3.3,0-4.9,0
			c-6.2-2.3-8.3-6.9-8.3-13.4c0.1-55.6,0.1-111.3,0.1-166.9c0-1.4,0-2.9,0-3.6c-10,2-19.6,3.8-29.5,5.8c0,9.6,0,19.9,0,30.1
			c0,5.1-1.2,10.8,0.5,15.2c1.6,4.2,6.5,7.1,9.9,10.6c0.2,0.2,0.3,0.3,0.5,0.5c4.2,4.5,4.3,11,0.2,15.1c-4.2,4.2-10.5,4.1-15-0.3
			c-2.2-2.1-4.2-4.3-6.8-7c-2.4,2.6-4.3,4.9-6.5,7c-4.9,4.5-11.2,4.5-15.3,0.2c-4.2-4.4-3.9-10.5,0.7-15.3c2.9-2.9,5.9-5.7,8.6-8.7
			c1.1-1.3,2-3.2,2-4.8c0.2-13.5,0.1-27.1,0.1-40.6c0-1-0.1-2-0.1-2c-10.1-2-19.7-4-29.5-5.9c0,1,0,2.5,0,4
			c0,55.5-0.1,111.1,0.1,166.6c0,6.5-2,11.1-8.2,13.5c-1.6,0-3.3,0-4.9,0c-6.1-2.5-8.4-7.1-8-13.5c0.3-6.1-0.1-12.1,0.1-18.2
			c0.2-3.3-1-5.2-3.6-7.2c-27.5-20.8-52.5-44.1-73.5-71.5c-17.6-23-31.5-47.9-37.8-76.5C78.6,250.4,77.8,244.1,76.8,237.8z M317,380
			c0.3,0.2,0.6,0.4,0.9,0.5c7.1-6.2,14.3-12.2,21.3-18.6c21.3-19.6,40.5-40.9,55-66.2c14-24.5,22.2-50.4,19.5-79.1
			c-3.2-33.4-19.4-57.9-49.1-73.6c-2.2-1.1-4.4-2.2-7.3-3.6c0.7,1.8,1.2,2.7,1.5,3.7c6.1,16.2,5.4,32.1-4.1,46.6
			c-11.3,17.2-23.7,33.8-35.4,50.7c-1.2,1.7-2,3.9-2,5.9c-0.1,43.4-0.1,86.8-0.1,130.1C317,377.7,317,378.8,317,380z M154.7,139.6
			c-14.8,6.5-27.3,15.1-37,27.2c-17.9,22.5-22.3,48.5-18.8,76.2c2.6,21.1,11,40.1,22.1,58c16,25.9,36.7,47.6,59.4,67.6
			c4.5,4,9.1,7.7,14.2,12c0.1-1.4,0.2-1.9,0.2-2.4c0-44.4,0-88.9,0-133.3c0-1.2-0.5-2.5-1.1-3.5c-3.3-4.7-6.7-9.2-10-13.9
			c-7.3-10.4-14.4-21-22-31.1C148.7,179,145.9,160.5,154.7,139.6z M256,106.2c-12.2,0-24.5-0.1-36.7,0c-10.4,0.1-18.8,4.3-24.8,12.7
			c-6.3,8.7-12.4,17.5-18.5,26.3c-7.3,10.8-7.3,24,0,34.8c4.2,6.3,8.6,12.4,13.1,18.6c0.7,0.9,1.9,1.9,2.9,1.9
			c20.2,1.1,39.5-1.4,57-12.6c4.7-3,9.4-3,14.1,0c2,1.2,3.9,2.5,6,3.6c16.1,8.1,33.3,10.2,51,9.1c1.1-0.1,2.4-1.2,3.2-2.2
			c4.2-5.7,8.3-11.6,12.3-17.4c8-11.6,8.1-24.9,0-36.6c-5.7-8.2-11.5-16.4-17.3-24.6c-6.4-9-15.1-13.6-26.2-13.6
			C280,106.2,268,106.2,256,106.2z M306.6,222c-0.9-0.2-1.2-0.3-1.5-0.3c-16.6-0.9-32.4-4.8-47.3-12.5c-1-0.5-2.6-0.3-3.8,0.1
			c-9.1,3.2-18,6.9-27.3,9.5c-6.7,1.9-13.9,2.3-20.8,3.3c7,13.3,26,23.3,39.6,20.6c0-1.9,0-3.9,0-5.8c0.2-6.1,4.5-10.5,10.3-10.6
			c6-0.1,10.5,4.4,10.7,10.6c0.1,2.1,0,4.1,0,6.4C283.8,243.5,296.9,236.5,306.6,222z"/>
		<path d="M226.7,164.1c0,5.8-4.6,10.5-10.3,10.6c-5.8,0.1-10.8-4.9-10.7-10.6c0.1-5.7,4.9-10.4,10.6-10.3
			C222.1,153.8,226.7,158.4,226.7,164.1z"/>
		<path d="M295.8,153.7c5.7,0,10.5,4.6,10.6,10.3c0.1,5.8-4.9,10.8-10.6,10.7c-5.7-0.1-10.4-4.9-10.4-10.5
			C285.4,158.4,290.1,153.8,295.8,153.7z"/>
	</g>
</g>
<g id="Layer_12" class="st0">
	<g class="st3">
		<path d="M436.4,129.8c0,1.6,0,3.3,0,4.9c-2.6,6.2-7.4,8.6-14,8.1c-4.4-0.3-8.9-0.1-13.8-0.1c0,4.2,0.1,8.1,0,11.9
			c-0.1,2.8,0.6,5.1,2.3,7.5c10.7,15.3,18.2,32,22.1,50.2c1.5,7,2.3,14.1,3.5,21.1c0,6.6,0,13.2,0,19.7c-0.4,2.9-0.9,5.8-1.3,8.7
			c-7.3,48.2-31.9,84.5-74.5,108.3c-5.9,3.3-12.2,5.8-18.6,8.9c3.2,8.8,6.4,17.8,9.7,26.6c0.3,0.8,1.9,1.6,2.9,1.6
			c5.6,0.2,11.3-0.1,16.9,0.2c6.2,0.2,10.4,5.2,10,11.3c-0.4,5.9-5,9.8-12,9.8c-28.2,0-56.4,0-84.6,0c-3.6,0-7.3,0.1-10.9,0
			c-5-0.2-8.8-3-10.2-7.3c-2.2-6.9,2.6-13.5,10.2-13.8c3.6-0.1,7.1,0,11.1,0c-2.5-7-4.8-13.3-7.1-19.5c-0.2-0.6-0.8-1.3-1.3-1.4
			c-5.6-0.7-11.6-2.8-16.9-1.8c-28.1,5.2-55.1,2.5-81.3-8.9c-2.3-1-3.9-0.9-6.1,0.4c-17.9,11.1-35.9,22.2-54,33.1
			c-6.3,3.8-11.2,2.6-15.6-3.3c-1.9-2.5-3.8-5.1-5.7-7.6C90,388.2,82.8,378.1,75.6,368c0-1.9,0-3.8,0-5.6c1.9-3.8,5.1-6.2,8.7-8.3
			c12.1-7.3,24-14.7,36-22.1c0.9-0.5,1.7-1.2,2.6-1.8c-1.5-2.3-2.9-4.3-4.1-6.4c-3.7-6.1-2.4-12,3.7-15.7
			c6.1-3.8,12.2-7.5,18.3-11.3c2.6-1.6,5.1-3.2,7.8-4.9c-0.6-0.8-0.9-1.2-1.2-1.7c-18.3-22.4-28.3-48.1-30.4-77
			c-0.6-8.1,3.1-12.9,11.2-13.3c33.2-1.6,66.4-3.2,99.6-4.7c2.9-0.1,4.7-1,6.2-3.5c2.6-4.2,5.5-8.2,8.2-12.3
			c17.6-25.9,35.2-51.9,52.9-77.7c6-8.7,14-15.1,23.6-19.5c34.3-15.8,73.7,0.8,86.6,36.5c0.7,2,1.6,2.8,3.7,2.7
			c4.5-0.2,8.9,0.2,13.4-0.1C428.9,121.1,433.8,123.3,436.4,129.8z M334.4,202.4c-64,39.4-128,78.7-192,118.1
			c28.9,41,92.2,61.6,146.6,30.5C343.3,320.1,360.2,252.9,334.4,202.4z M361,210c0.9-0.9,1.8-1.8,2.6-2.8
			c10.4-12.6,18.2-26.7,22.9-42.4c0.6-1.9,1-3.9,1-5.8c0.1-6.2,0.1-12.4,0-18.7c0-7.7-1.7-14.9-5.6-21.5
			c-15.8-27.2-53.5-28.5-71.4-2.3c-28.9,42.3-57.6,84.8-86.4,127.3c-0.4,0.6-0.7,1.3-1.5,2.7c1.8-1.1,2.8-1.6,3.8-2.2
			c25.1-15.4,50.2-30.8,75.2-46.3c10.2-6.3,20.4-12.6,30.6-18.8c6.2-3.8,11.7-2.5,15.7,3.6c1.5,2.3,2.9,4.6,4,7
			C355,196.4,357.9,203.1,361,210z M401.2,186.4c-0.9,1.8-1.4,2.8-1.9,3.8c-6.6,13.9-14.8,26.8-25.9,37.5c-5.2,5-6.7,9.7-6.4,17
			c2,49.2-17.2,88.7-56.8,118.1c-0.9,0.7-1.8,1.4-2.7,2.1c45.5-6.8,78.8-30.5,97.5-72.6C420.6,256.9,418.5,221.5,401.2,186.4z
			 M167.1,281.1c4.2-3.2,9.3-5.5,12.1-9.5c12.1-17,23.6-34.4,35.3-51.7c0.5-0.8,1-1.6,1.7-3c-26.2,1.3-51.7,2.5-77.6,3.7
			C142.1,243.7,151.5,263.5,167.1,281.1z M136.3,347c-11.4,7-23,14.1-34.8,21.4c4.6,6.2,9,12.2,13.6,18.4
			c13.3-8.2,26.4-16.2,39.4-24.2C148.2,357.2,142.4,352.1,136.3,347z M300.5,387.3c2.2,6.2,4.4,12.4,6.7,18.5
			c0.2,0.6,1.1,1.4,1.7,1.4c6.7,0.1,13.5,0.1,20.8,0.1c-2.9-8.1-5.6-15.5-8.2-22.7C314.2,385.5,307.5,386.4,300.5,387.3z"/>
		<path class="st4" d="M167.1,281.1c-15.6-17.6-25-37.3-28.4-60.4c25.9-1.2,51.4-2.5,77.6-3.7c-0.8,1.3-1.2,2.2-1.7,3
			c-11.7,17.3-23.2,34.7-35.3,51.7C176.4,275.6,171.3,277.9,167.1,281.1z"/>
		<path class="st4" d="M300.5,387.3c7-0.9,13.8-1.8,21-2.7c2.6,7.2,5.3,14.6,8.2,22.7c-7.3,0-14,0-20.8-0.1c-0.6,0-1.5-0.8-1.7-1.4
			C304.9,399.7,302.7,393.5,300.5,387.3z"/>
		<path d="M359.1,132c0.1,5.9-4.5,10.6-10.4,10.6c-5.8,0.1-10.6-4.6-10.7-10.4c-0.1-5.7,4.7-10.6,10.5-10.7
			C354.2,121.5,359,126.2,359.1,132z"/>
	</g>
</g>
<g id="Layer_13" class="st0">
	<circle class="st5" cx="258.4" cy="249.7" r="185.2"/>
	<g class="st3">
		<g>
			<path d="M216,371.2c-10.9-5.2-19.7-12.8-26.3-22.7c-6.6-9.9-10.8-21.8-12.6-35.8h36.6c1.1,7.3,3.3,13.2,6.9,17.9
				c3.5,4.7,8.1,8.2,13.6,10.5c5.6,2.3,12.1,3.4,19.6,3.4c11.8,0,21-3.2,27.6-9.5c6.6-6.3,9.8-15.2,9.8-26.7v-7.7
				c0-12.8-3.1-22.6-9.3-29.6c-6.2-7-15-10.5-26.4-10.5h-18.1v-34.1h18.1c10,0,17.7-3,23.2-9c5.5-6,8.3-14.4,8.3-25.3v-7.9
				c0-10.1-2.9-17.9-8.7-23.4c-5.8-5.5-14-8.3-24.7-8.3c-6.1,0-11.5,1.1-16.3,3.4c-4.8,2.3-8.9,5.8-12.2,10.5s-5.8,10.7-7.3,17.8
				h-36.4c2.3-13.9,6.8-25.9,13.3-35.9c6.5-10,14.7-17.5,24.7-22.7c10-5.2,21.4-7.7,34.3-7.7c22,0,39.1,5.8,51.2,17.4
				c12.1,11.6,18.1,27.9,18.1,49v4.2c0,12.8-3.5,23.9-10.4,33.4c-6.9,9.5-16.7,16.4-29.4,20.7c13.9,3,24.8,9.9,32.4,20.6
				c7.7,10.7,11.5,24.3,11.5,40.8v4.2c0,14.9-2.9,27.6-8.6,38.1c-5.7,10.5-14.1,18.6-25,24.1c-11,5.5-24.2,8.3-39.6,8.3
				C239.5,379,226.9,376.4,216,371.2z"/>
		</g>
	</g>
</g>
<g id="Layer_14">
	<g>
		<path d="M256.3,151.2c-1.6-1.9-3.7-4.3-5.9-6.8C223,112.8,189.1,96.1,147,103.7C82.2,115.4,35.4,182.1,62,263.6
			c3.2,9.8,15.5,12.6,23.2,6.2c6.4-5.3,5.2-12.1,4.4-19.4c-1.6-16.2-4.8-32.9-2.8-48.8c3.9-31.1,22.6-52.7,51.5-64.2
			c28.2-11.2,54.5-5.4,76.5,14.7c10.7,9.8,19.4,22.1,27.5,34.3c9.2,13.6,20.9,13.9,29.6,0c6.2-9.9,12.8-19.8,20.9-28.2
			c20.7-21.5,45.9-31.6,75.6-23.3c30.5,8.5,49.9,29,58.2,59.6c6.5,24,2.5,47.5-6,70.1c-28.8,76.6-83.9,126.9-158.6,157.1
			c-3.4,1.4-8.5,0.6-12.2-0.8c-54.2-21.4-97.5-56.7-130.6-104.7c-6.7-9.7-15.4-11.6-23-5.8c-7.3,5.4-8,13.9-1.6,23.2
			c38.7,56.2,89.8,96.3,154.1,119c5.2,1.8,12.2,1.9,17.3,0c71.1-25.6,126.6-70.7,164.4-136.3C451.3,280,465,241,458.2,198.1
			c-6.6-42.1-30.5-72.1-69.6-88.2c-37.8-15.5-73.7-9.2-105.7,16.3C273.6,133.7,265.4,142.6,256.3,151.2z"/>
		<path d="M256.3,151.2c9.2-8.6,17.4-17.5,26.7-25c32-25.5,67.9-31.8,105.7-16.3c39.1,16,63,46.1,69.6,88.2
			c6.8,42.9-6.9,81.9-27.8,118.2c-37.8,65.6-93.3,110.8-164.4,136.3c-5.2,1.9-12.1,1.8-17.3,0c-64.3-22.8-115.4-62.9-154.1-119
			c-6.4-9.3-5.7-17.7,1.6-23.2c7.7-5.7,16.4-3.8,23,5.8c33.1,48,76.4,83.2,130.6,104.7c3.7,1.4,8.8,2.2,12.2,0.8
			c74.6-30.2,129.8-80.5,158.6-157.1c8.5-22.6,12.5-46.1,6-70.1c-8.3-30.6-27.7-51.1-58.2-59.6c-29.8-8.3-54.9,1.8-75.6,23.3
			c-8,8.4-14.6,18.3-20.9,28.2c-8.8,13.8-20.5,13.6-29.6,0c-8.2-12.1-16.8-24.5-27.5-34.3c-22-20.1-48.4-25.9-76.5-14.7
			c-28.9,11.5-47.6,33.1-51.5,64.2c-2,15.9,1.2,32.5,2.8,48.8c0.7,7.3,2,14.1-4.4,19.4c-7.7,6.4-20,3.6-23.2-6.2
			C35.4,182.1,82.2,115.4,147,103.7c42.1-7.6,76,9.1,103.3,40.7C252.5,146.9,254.7,149.4,256.3,151.2z"/>
	</g>
</g>
</svg>
