<svg id="Layer_18" data-name="Layer 18" xmlns="http://www.w3.org/2000/svg" viewBox="0 0 377.34 378"><defs><style>.cls-1{fill:#010101;}.cls-2{fill:#fff;}</style></defs><path class="cls-1" d="M256.08,200.56a50.92,50.92,0,1,0,50.75,51.6C307.1,223.42,284.65,200.6,256.08,200.56Zm-.37,77.29a26.38,26.38,0,1,1,26.63-26.69A26,26,0,0,1,255.71,277.85Z" transform="translate(-67.33 -62.48)"/><path class="cls-1" d="M350.54,243.57A94.94,94.94,0,0,1,270.89,345c-39.25,6.42-79.84-13.26-97.66-47.34-3.86-7.4-2.48-14.2,3.65-17.84s12.71-1.77,17.31,5.23c1.05,1.59,2,3.25,3,4.84,15.94,24.38,44,36.12,72.84,30.43,27.77-5.46,49.47-27.55,54.87-55.81,7-36.38-15.72-72.19-51.47-81.31s-73,11.54-84.26,46.54c-.77,2.32-1.14,4.78-2,7.07-2.53,6.91-8.94,10.18-15.61,8.09-6.05-1.87-9.32-8.16-7.86-15,7.46-35.06,38.89-65.29,74.5-71.62,5.89-1,11.8-2,16.64-1.68C304.81,156.38,346.66,194.89,350.54,243.57Z" transform="translate(-67.33 -62.48)"/><path class="cls-1" d="M444.25,236c-.74-13.19-8.57-21.48-21.57-23.88-12.28-2.27-24.62-4.23-36.92-6.3-8.48-1.44-10.73-7.09-5.63-14.27q10.19-14.3,20.44-28.5c3.73-5.19,6.43-10.73,6-17a24.29,24.29,0,0,0-7.22-18q-9.06-9.39-18.41-18.54c-11.45-11.21-23.48-12.17-36.63-2.88-9.75,6.92-19.39,14-29.14,20.92-6.54,4.64-12.26,2.07-13.61-6-2.12-12.61-4.06-25.26-6.41-37.82C292.9,71.61,284.68,63.8,272.33,63a252.68,252.68,0,0,0-32.56,0c-12.65.83-20.69,8.75-23,21.5-2.24,12.3-4.23,24.67-6.3,37-1.42,8.47-7.07,10.73-14.22,5.63-9.49-6.8-18.91-13.72-28.46-20.46-13.2-9.31-25.21-8.37-36.64,2.82q-8.48,8.31-16.73,16.75c-11.23,11.49-12.21,23.48-2.92,36.7,7,10,14.33,19.85,21.35,29.86,4,5.69,1.29,11.73-5.63,12.91-12.58,2.16-25.18,4.1-37.72,6.39-13.09,2.4-20.9,10.68-21.68,23.79a263.48,263.48,0,0,0,0,31c.74,13.15,8.55,21.5,21.54,23.9,12.28,2.27,24.63,4.23,36.93,6.3,8.44,1.42,10.75,7.13,5.69,14.24-6.78,9.53-13.7,18.95-20.41,28.53-9.49,13.5-8.4,25.43,3.31,37.31,5.37,5.43,10.73,10.82,16.18,16.16,11.43,11.21,23.49,12.24,36.64,3,10-7,19.8-14.37,29.79-21.42,5.69-4,11.69-1.33,12.89,5.63,2.18,12.87,4.12,25.78,6.5,38.62,2.25,12.11,10.49,20,22.81,20.77a249.59,249.59,0,0,0,32.59,0c12.69-.83,20.69-8.7,23.05-21.48,2.27-12.3,4.21-24.67,6.28-37,1.42-8.44,7.11-10.75,14.22-5.69,9.51,6.78,18.93,13.69,28.48,20.43,13.15,9.31,25.23,8.4,36.64-2.75q8.47-8.26,16.73-16.77c11.18-11.49,12.19-23.57,2.94-36.72-7-10-14.35-19.83-21.37-29.86-4-5.65-1.27-11.71,5.65-12.89,12.84-2.2,25.73-4.12,38.53-6.52,12.11-2.27,19.89-10.56,20.72-22.88A262.21,262.21,0,0,0,444.25,236Zm-24,24.58c.43,5.1-1.94,6.52-6.39,7.15-11,1.55-21.94,4.36-33,5-23.66,1.31-36.88,35.15-21.92,51.6,7.81,8.59,13.68,18.93,20.7,28.28,2.38,3.19,2.64,5.35-.5,8.18-5.82,5.3-10.58,14-17.16,15.64-6.85,1.66-12.74-7.55-19.28-11.65-4.61-2.88-9.4-5.73-13.2-9.53C313,338.74,277.68,352.72,277,378c-.28,10.8-3.34,21.49-4.86,32.26-.59,4.32-2.36,6-6.85,5.78-7.59-.41-16.66,2.27-22.42-1-6.24-3.57-3.86-13.8-5.39-21.08a215.72,215.72,0,0,1-3.9-22.51c-1.64-16.93-32.47-30.62-47.15-18.8-9.95,8-20.78,14.83-31,22.46-3.45,2.58-5.74,3-8.79-.52-5.21-5.89-14.11-10.73-15.42-17.25-1.37-6.72,7.68-12.78,11.91-19.3,2.79-4.34,5.82-8.55,9-12.61,11.06-14,9.75-25.06-.8-41.94-4.32-6.91-11.8-9.2-19.52-10.42-11.28-1.79-22.51-3.75-33.81-5.26-4.75-.63-6.49-2.53-6.17-7.37a122.21,122.21,0,0,0,0-18c-.41-5.1,1.9-6.56,6.37-7.17,11-1.55,21.94-4.36,33-5,23.62-1.33,36.88-35.09,21.94-51.62-7.79-8.63-13.7-18.93-20.72-28.28-2.4-3.21-2.62-5.37.52-8.18,6.06-5.41,11.32-14.79,17.86-15.68,5.76-.81,12.85,7.65,19.3,12.1,4,2.77,8.07,5.54,11.89,8.57,14.37,11.45,24.71,9.75,41.18.13,7.35-4.29,10-11.84,11.31-19.89,1.81-11.27,3.78-22.55,5.26-33.87.65-5.06,2.6-7,7.83-6.58,7.52.61,16.79-2.07,22.2,1.46s3.38,13.54,4.78,20.69c1.46,7.49,3.16,14.94,3.88,22.51,1.66,16.9,32.52,30.6,47.17,18.78,9.95-8,20.81-14.83,31-22.49,3.47-2.57,5.74-2.9,8.79.55,4.32,4.88,9.18,9.29,13.76,14,1.12,1.11,2,2.44,3.1,3.79-1.24,1.81-2.29,3.36-3.4,4.91-6.94,9.75-13.22,20.06-21,29.09-13.3,15.4.09,47.65,19.95,49.44,11.89,1.07,23.58,4,35.42,5.45,5.58.68,7.37,2.91,7,8.34A104.6,104.6,0,0,0,420.22,260.58Z" transform="translate(-67.33 -62.48)"/><path class="cls-2" d="M256.08,200.56a50.92,50.92,0,1,0,50.75,51.6C307.1,223.42,284.65,200.6,256.08,200.56Zm-.37,77.29a26.38,26.38,0,1,1,26.63-26.69A26,26,0,0,1,255.71,277.85Z" transform="translate(-67.33 -62.48)"/><path class="cls-2" d="M270.89,345c-39.25,6.42-79.84-13.26-97.66-47.34-3.86-7.4-2.48-14.2,3.65-17.84s12.71-1.77,17.31,5.23c1.05,1.59,2,3.25,3,4.84,15.94,24.38,44,36.12,72.84,30.43,27.77-5.46,49.47-27.55,54.87-55.81,7-36.38-15.72-72.19-51.47-81.31s-73,11.54-84.26,46.54c-.77,2.32-1.14,4.78-2,7.07-2.53,6.91-8.94,10.18-15.61,8.09-6.05-1.87-9.32-8.16-7.86-15,7.46-35.06,38.89-65.29,74.5-71.62,5.89-1,11.8-2,16.64-1.68,49.95-.21,91.8,38.3,95.68,87A94.94,94.94,0,0,1,270.89,345Z" transform="translate(-67.33 -62.48)"/><path class="cls-1" d="M270.89,345c-39.25,6.42-79.84-13.26-97.66-47.34-3.86-7.4-2.48-14.2,3.65-17.84s12.71-1.77,17.31,5.23c1.05,1.59,2,3.25,3,4.84,15.94,24.38,44,36.12,72.84,30.43,27.77-5.46,49.47-27.55,54.87-55.81,7-36.38-15.72-72.19-51.47-81.31s-73,11.54-84.26,46.54c-.77,2.32-1.14,4.78-2,7.07-2.53,6.91-8.94,10.18-15.61,8.09-6.05-1.87-9.32-8.16-7.86-15,7.46-35.06,38.89-65.29,74.5-71.62,5.89-1,11.8-2,16.64-1.68,49.95-.21,91.8,38.3,95.68,87A94.94,94.94,0,0,1,270.89,345Z" transform="translate(-67.33 -62.48)"/><path class="cls-1" d="M256.08,200.56a50.92,50.92,0,1,0,50.75,51.6C307.1,223.42,284.65,200.6,256.08,200.56Zm-.37,77.29a26.38,26.38,0,1,1,26.63-26.69A26,26,0,0,1,255.71,277.85Z" transform="translate(-67.33 -62.48)"/></svg>