<svg id="Layer_43" data-name="Layer 43" xmlns="http://www.w3.org/2000/svg" viewBox="0 0 512 512"><path d="M424.57,186.23H368.49c.47-1,.7-1.54,1-2,11.34-21.1,8.69-42.62-7.39-60.68a6.47,6.47,0,0,1-1.45-3.83C359.93,84.43,327.81,61,294.34,71.5c-2.12.67-3.29.16-4.73-1.26a48.4,48.4,0,0,0-21.45-12.17c-2.45-.68-5-1.18-7.44-1.77H249a5.46,5.46,0,0,1-1.34.54,48.4,48.4,0,0,0-28.06,13.93c-1.6,1.6-2.88,1.07-4.55.55a50.49,50.49,0,0,0-66,48A7.9,7.9,0,0,1,147.1,124c-11.61,13-16.15,28.07-12.56,45.16,1.21,5.74,3.85,11.19,5.93,17h-3.59c-17.49,0-35,0-52.48,0-7.59,0-12.26,4.7-12,12.17.8,20.93,10,37.22,27.45,48.76,11.1,7.35,23.54,9.92,36.69,9.33,3-.14,4.33.71,5.26,3.81,2,6.76,4.12,13.66,7.37,19.88,8.07,15.47,11.3,31.76,11.13,49.12-.21,21.94,5.69,42.38,18.18,60.52,18.28,26.55,43.26,42,76,42.22,31.06.21,55.48-13.81,74-38.32,14.71-19.54,21.26-41.91,21-66.24-.18-16.22,3-31.49,10.48-45.95A131.13,131.13,0,0,0,367,263.88c2.49-7.25,2.3-7.31,10.19-7.33,32.75-.09,58.32-24.36,60.07-57C437.69,190.9,433.26,186.24,424.57,186.23ZM137.06,234c-15.83,4-37.66-9.72-40.51-25.61h42.08C138.1,217,137.58,225.5,137.06,234ZM244.78,368.1c1.33-1,20.62-1.06,22.33.43-1.54,1.85-9.37,6-11.65,6.13C253.84,373.84,245.41,369.66,244.78,368.1ZM350,236c-1.09,14.22-5.37,27.44-11.8,40.15a101.44,101.44,0,0,0-10.66,47.48c.16,15.25-1.88,30-8.73,43.79-12.07,24.31-32.07,38.16-53.12,41.73v-.69c0-5.54,0-10.78.1-16.05a3.33,3.33,0,0,1,1.05-1.1c1.46-.91,3-1.72,4.6-2.56,1.9-1,3.88-2,5.76-3.29,8-5.25,11.4-14.36,8.63-23.18s-10.14-14-19.82-14c-6.16,0-13.45-.07-20.67,0-9.09.11-16.39,5.39-19.07,13.78-2.75,8.66,0,17.23,7.29,22.37a61.8,61.8,0,0,0,6.38,3.82c1.75.95,3.42,1.86,5,2.91a3.69,3.69,0,0,1,1.33,1.81c.2,4.2.16,8.52.13,12.71,0,1.3,0,2.6,0,3.91a67,67,0,0,1-37.41-17.73c-18-16.79-26.61-37.9-26.55-62.23,0-21-3.64-40.78-13.61-59.34a67.24,67.24,0,0,1-4.24-10.52,97.15,97.15,0,0,1-2.81-52.07c.2-.94.52-1.87.84-3,16.95,7.07,33.2,5.86,49-3.81,10.26,15.45,24.59,24.07,43.18,24.08s32.79-8.39,43.23-24.07c15.63,9.56,32,11,49.16,3.76A95,95,0,0,1,350,236Zm-.53-61.25a28.37,28.37,0,0,1-45.45,1.9l-1.14-1.43c-3-3.77-6.68-5.71-11.53-4.59s-7.55,4.49-8.64,9.36c-2.69,11.94-11.35,20.54-22.44,22.48-15.71,2.74-29.68-6.56-33.18-22.26-1-4.42-3.12-7.68-7.41-9.26-4.85-1.78-9.28-.23-13.11,4.67-5.88,7.53-13.53,11.39-20.43,11.5-14.18,0-24.61-7.2-28.83-18s-1.57-23.61,7.44-31.12c5.44-4.53,7.58-9.19,6.71-16.46-1.33-11.09,3.5-20.14,13-26.14s19.12-6,28.92-.88c.55.29,1.06.62,1.59.92,6.23,3.52,11.77,2.21,15.88-3.75,12.29-17.79,35.86-17.89,48-.2,4.34,6.33,9.77,7.56,16.44,3.71,10.41-6,20.88-6,30.79.69s13.86,16.45,12,28.33c-.85,5.53,1.6,9.24,5.68,12.6A28.16,28.16,0,0,1,349.44,174.71Zm23.21,59.44c-.55-8.65-1.07-17-1.61-25.66h42.12C409.8,224.6,390.4,236.87,372.65,234.15Z"/><path d="M216.84,295.08a11.25,11.25,0,0,1-10.4-11.56c.15-5.49,5.59-10.5,11.26-10.37,6.12.14,11.08,5.71,10.72,12C228.1,290.75,222.75,295.32,216.84,295.08Z"/><path d="M291.75,295.08a11.14,11.14,0,0,1-10.49-11.79c.25-5.49,5.81-10.42,11.45-10.13a11.42,11.42,0,0,1,10.54,11.52C303.18,290.41,297.79,295.28,291.75,295.08Z"/></svg>