<svg id="Layer_10" data-name="Layer 10" xmlns="http://www.w3.org/2000/svg" viewBox="0 0 512 512"><path d="M328.67,59.67c17.12,4.34,25.06,17.48,30.78,32.51,7.06,18.56,9.05,38,9.71,57.7,1.12,33.24-6,65.24-14.54,97a9.69,9.69,0,0,0,1.28,8.28c17.22,29.09,27.7,60.38,28.09,94.34.43,38.68-19.26,67-55.16,81.51-17.9,7.24-36.64,10.46-55.77,11.9-2,.15-3.92.49-5.89.74h-22.5c-6.8-.75-13.62-1.37-20.4-2.27-18.17-2.39-35.78-6.74-52.05-15.53C142.9,410,128.26,385,127.9,352.14c-.39-34.55,10.22-66.34,27.5-96,2-3.49,2.69-6.36,1.59-10.35-5.85-21.19-11-42.57-13.06-64.49-2.76-29.56-2.1-59,7.95-87.34,2.75-7.74,7.28-15,11.86-21.91s11.59-10.39,19.43-12.4h9a40.86,40.86,0,0,1,22.7,14.89A92.1,92.1,0,0,1,222.7,86c14.21,25.13,21,52.46,23.43,81,.82,9.42,1.15,18.88,1.7,28.28h16c.86-12,1.37-23.7,2.6-35.36,2.59-24.41,8.87-47.83,20.31-69.67,7.34-14,16.39-26.33,32.9-30.53ZM256.72,421.26c4.65-.24,10.14-.43,15.62-.84,17.51-1.33,34.72-4.15,50.88-11.41,18-8.09,31.08-20.7,36.08-40.39,3.81-15,2.61-30-.64-44.92-5.61-25.79-14.89-50-31.72-70.73-21.81-26.82-50-38.77-84.41-34.1-25.55,3.46-45.18,17.2-60.33,37.56-17.7,23.8-27.06,51-31.16,80.09-1.89,13.4-1.17,26.73,3.9,39.47,7.05,17.7,20.95,28.09,38.08,34.82C213.23,418.75,234.45,420.57,256.72,421.26ZM225.18,199.61c0-1.3.07-2.42,0-3.52-1-13.69-1.41-27.45-3.16-41-2.68-20.68-8.6-40.51-19.34-58.58a54,54,0,0,0-9.31-11.59c-4.43-4.17-8.33-3.59-12.22,1.08a37.75,37.75,0,0,0-4.47,6.88c-5.09,9.87-7.65,20.52-9.25,31.43a223.28,223.28,0,0,0,2.3,77.46c1.82,9,3.88,18,6,27.58A113.16,113.16,0,0,1,225.18,199.61ZM336,228.8c.29-.82.5-1.28.61-1.76,4.49-19.19,9-38.41,9.82-58.21,1-22.43.2-44.75-7.23-66.21a71.27,71.27,0,0,0-8.79-16.75c-3.32-4.84-7.38-5-11.86-1.09a31.31,31.31,0,0,0-7.06,8.15c-4.31,7.84-8.64,15.76-11.94,24.06-10.27,25.83-12.2,53.08-12.94,80.5-.06,2.38,1.41,2.57,2.92,3A107.75,107.75,0,0,1,325,219.31C328.69,222.25,332.15,225.48,336,228.8Z"/><path d="M244.67,362.23c1.58-6.34-1.13-9.75-6.6-13.33-8.65-5.65-14.58-14.09-16-24.74-1.14-8.7,2.27-15.91,9.65-20.53,15.43-9.66,31.35-10,47.14-.85,10.24,5.91,13.89,17.31,9.22,28.21-3.89,9.07-9.92,16.37-18.8,21.13a4.66,4.66,0,0,0-2,3.31c-.25,4-.1,8-.1,12,0,4.64,1.74,7.13,5.81,8.36A9,9,0,0,0,283.11,372a27.63,27.63,0,0,0,1.35-2.66c2.92-5.77,9.24-8.19,14.83-5.68s8,8.79,5.69,14.84a31.51,31.51,0,0,1-45.06,15.93c-2.79-1.62-4.57-1.88-7.53-.12a31.38,31.38,0,0,1-44.68-14.62c-2.91-6.68-.86-13.19,5-15.95s12.11-.12,15.37,6.48c2.13,4.33,5.75,6.49,9.85,5.88,4.39-.65,6.69-3.34,6.69-7.86C244.68,366.23,244.67,364.23,244.67,362.23Zm-.19-39.83c3,4.82,5.39,10.38,12,10,6-.34,8.28-5.49,10.91-10A20.5,20.5,0,0,0,244.48,322.4Z"/><path d="M200.92,302.74a11.17,11.17,0,0,1-11-11.31,11.23,11.23,0,1,1,22.46.45A11.24,11.24,0,0,1,200.92,302.74Z"/><path d="M310.57,302.74a11.25,11.25,0,0,1-11.11-11.23,11.23,11.23,0,1,1,22.46.28A11.18,11.18,0,0,1,310.57,302.74Z"/></svg>