<svg id="Layer_25" data-name="Layer 25" xmlns="http://www.w3.org/2000/svg" viewBox="0 0 512 512"><defs><style>.cls-1{fill:#fff;}.cls-2{fill:#231f20;}</style></defs><path d="M290.59,218.34c-2.14-8.91-9.28-14.77-18.18-14.92-10.21-.19-21.08-.33-32,0a10.8,10.8,0,0,1-9.36-3.92c-3.79-4.14-7.87-8.09-11.82-11.9-1.29-1.26-2.58-2.5-3.86-3.76a30.17,30.17,0,0,0-21.56-9.06c-24.47-.07-50.8-.11-77.51,0a31,31,0,0,0-29.15,21.46c-.4,1.23-.73,2.48-1.05,3.69-.14.54-.29,1.08-.43,1.62l-.1.33v92.94l.2.48c.22.49.41,1,.61,1.5a30.69,30.69,0,0,0,1.59,3.62,19.28,19.28,0,0,0,21.53,9.61v84.63c0,15,3.54,20.34,17.21,26.05l.47.19h8l.47-.19.9-.37,2-.81c.45-.18.9-.37,1.33-.58l1.18-.59h0c.6-.33,1.18-.66,1.73-1s1-.67,1.46-1c.25-.18.49-.37.72-.56s.48-.39.7-.59a17.93,17.93,0,0,0,1.45-1.44,2.06,2.06,0,0,0,.28-.31c.22-.24.43-.49.63-.74s.39-.51.58-.76.17-.23.25-.36.32-.46.46-.69a7,7,0,0,0,.37-.61c.06-.09.11-.2.17-.29s.24-.43.35-.65.22-.43.32-.66.24-.49.33-.73c.18-.41.35-.83.49-1.25a6,6,0,0,0,.23-.68c.07-.2.13-.4.19-.6s.15-.54.22-.82.14-.56.2-.84a8.71,8.71,0,0,0,.17-.86c.06-.29.11-.58.16-.87s.08-.54.11-.82a40.56,40.56,0,0,0,.23-5.24v-.49q0-40.1,0-80.17V296.51h4.44v98.14c0,.47,0,.93,0,1.39,0,.31,0,.63,0,.94,0,.62,0,1.21.07,1.8,0,.3,0,.58.06.87,0,.08,0,.15,0,.24,0,.38.07.77.11,1.14,0,.14,0,.29,0,.43l.09.72c.13,1,.28,1.85.48,2.71.05.22.11.44.16.65.1.43.22.84.35,1.25l.22.66a2.08,2.08,0,0,0,.12.32l.12.31a1.09,1.09,0,0,0,.1.25c.07.18.15.36.22.53s.21.44.31.65l.21.41c.19.34.38.67.58,1,.11.16.2.32.31.47s.35.5.54.74.3.39.46.58a.31.31,0,0,0,.08.1l.22.26.08.08a3.61,3.61,0,0,0,.33.35.31.31,0,0,0,.09.11l.36.36.47.44.48.42a11,11,0,0,0,.92.74c.17.14.35.27.54.41l.71.5c.49.33,1,.66,1.55,1a4.36,4.36,0,0,0,.41.24,2.86,2.86,0,0,0,.42.24l.86.47h0c1.51.8,3.2,1.58,5.08,2.36l.48.19h8.14l.55-.27c.79-.4,1.61-.78,2.49-1.18a29.66,29.66,0,0,0,6-3.25c5.81-4.37,8.64-10.84,8.63-19.79-.06-44.34,0-89.41,0-133V223.79l.26.26c2.77,2.86,5.64,5.79,8.52,8.65a30.82,30.82,0,0,0,22.42,9.24h0l11.11,0c9.33,0,19,0,28.48-.12a22.33,22.33,0,0,0,9.64-2.46A19,19,0,0,0,290.59,218.34Zm-18.27,11.37c-14.25.11-28.5.16-42.75-.08-4.59-.08-8.48-2.46-11.76-5.76-6.3-6.35-12.65-12.64-18.94-19-2.05-2.07-4-4.4-7.37-3s-2.89,4.36-2.89,7.13v94c0,31.21,0,62.44-.07,93.66A17.87,17.87,0,0,1,187,404a8.88,8.88,0,0,1-10,4.6,9.44,9.44,0,0,1-7.41-8.19,35.9,35.9,0,0,1-.15-4.15q0-52.26,0-104.54c0-6.49-1.12-7.6-7.62-7.6H147.49c-5.33,0-6.73,1.42-6.74,6.87q0,29.89,0,59.78c0,15.46.07,30.91-.08,46.36a17,17,0,0,1-1.76,7.29c-1.76,3.42-6,5-9.57,4.22a9.45,9.45,0,0,1-7.55-8.08,34.72,34.72,0,0,1-.18-4.46q0-79,0-157.92a24.88,24.88,0,0,0-.19-4.15,4.67,4.67,0,0,0-9.18-.05,22,22,0,0,0-.19,3.81q0,25.26,0,50.51a34.31,34.31,0,0,1-.11,3.52c-.42,3.94-3.15,6.52-6.9,6.6a7.21,7.21,0,0,1-7.24-6.33,22.58,22.58,0,0,1-.11-3.19q0-40.6,0-81.2c0-12.8,7.93-20.76,20.67-20.77,24.46,0,48.92.07,73.38-.05A21.5,21.5,0,0,1,208,193.62c6.2,6.3,12.62,12.38,18.77,18.72a10,10,0,0,0,7.92,3.21c11.49-.14,23-.06,34.46-.05,1.06,0,2.13,0,3.19.07a7,7,0,0,1,6.6,7.22A6.85,6.85,0,0,1,272.32,229.71Z"/><path d="M412,350.39c-7.79-13.76-20.05-20.78-36.44-20.86-7.8,0-15.73,0-23.4,0H340.47c-8,0-11.74-2.88-13.86-10.62q-2.19-8-4.35-15.94c-3.64-13.35-7.38-27.14-11.29-40.67-3.08-10.61-10.78-17.15-22.28-18.91-2.21-.34-5.4-.55-7.75,1.46s-2.66,5.35-2.67,7.65v9.87c-8.67.31-15.54,3.6-20.45,9.84a34.64,34.64,0,0,0-3.26,5.33,40.09,40.09,0,0,1-2.05,3.58,4.61,4.61,0,0,1-2,1.76c-3.08.95-6.32,1.72-9.45,2.47-1.12.26-2.25.53-3.36.81-5.41,1.33-7.24,3.62-7.27,9.06v.71c0,2.39,0,4.88,0,7.34A21.76,21.76,0,0,0,252.22,325c2.1,0,4.16,0,6.35,0h.54v4.15c0,8.19,0,15.94-.06,23.81a5.42,5.42,0,0,1-.83,1.27c-4.83,6.23-7.5,12.53-8.15,19.29-.36,3.62-.48,7.18-.6,10.93,0,.85,0,1.71-.09,2.57h-9.11c-6.15,0-12.5,0-18.75,0A16.87,16.87,0,0,0,205,400.85,17.06,17.06,0,0,0,216,420c.45.17.91.34,1.35.53l1.13.43h53.71l.25-.05c9.36-1.89,15.3-8.22,21-14.34l1.84-2c2.32-2.43,4.11-3.22,6.65-2.91a35.1,35.1,0,0,0,5.2.15,24.35,24.35,0,0,0,.18,5.17c1.13,6.54,5.46,11.18,12.87,13.8l.41.14h83.34l.52-.24.51-.26c.25-.13.48-.24.65-.31a16.87,16.87,0,0,0,6-28.8C419.44,377.53,419.56,363.75,412,350.39Zm-16.26,45.47c.49,1.45,2.7,2.8,4.41,3.24,3.27.83,5.18,2.34,5.09,5.06s-2.24,4.63-5.74,4.63q-29.67,0-59.34,0c-5.11,0-10.21,0-15.31,0-3.51,0-5.64-1.81-5.71-4.66s2.13-4.9,5.78-4.91q13.4,0,26.79,0c2.51,0,4.67-.44,5.77-3s-.15-4.25-1.72-6q-12.3-13.84-5.54-31.13c1.42-3.63.57-6.37-2.31-7.49-2.69-1-5.09.31-6.57,3.85a38,38,0,0,0,.39,31c.41.95.84,1.89,1.41,3.19H329.49c-10.85,0-21.69.07-32.54,0a8.16,8.16,0,0,0-6.47,2.73c-3.82,4-7.81,7.84-11.69,11.78A15.64,15.64,0,0,1,267,408.83c-14.56-.07-29.13,0-43.7,0-4.29,0-6.45-1.68-6.4-4.88s2.15-4.7,6.26-4.71q16.11,0,32.22,0c4.69,0,6.2-1.61,6.29-6.36.11-6.18,0-12.36.55-18.5a22.75,22.75,0,0,1,6.49-13.6,9.23,9.23,0,0,0,2.56-6.9c-.1-11.51,0-23-.05-34.52,0-4.91-1.55-6.42-6.52-6.43-3.82,0-7.66,0-11.48,0-6.82,0-10.66-3.87-10.71-10.68,0-1.5,0-3,0-4.72,4.51-1.12,8.9-2.33,13.34-3.28a8.1,8.1,0,0,0,6.36-5.13,61.59,61.59,0,0,1,3.4-6.86,14,14,0,0,1,12.72-7.67c2.23-.06,4.46,0,6.7,0,3.52-.11,5.27-1.84,5.33-5.37.07-4.12,0-8.25,0-12.84,5.42,2,8.07,5.81,9.43,10.76q5.79,21.24,11.62,42.47c1.26,4.61,2.5,9.24,3.8,13.84,3.22,11.4,12.15,18.24,23.93,18.28,12,0,24,0,36.06,0,12.7,0,22.27,5.51,27.44,17.18s2.81,22.18-5.49,31.69C396.07,391.84,395.24,394.4,395.74,395.86Z"/><path d="M179.13,96.31c-5.62-4.15-12.09-6.11-18.26-7.76l-.33-.09H149.59l-.38.13-.73.26a7.86,7.86,0,0,1-1,.32,41,41,0,0,0,3.9,81c1.3.13,2.6.2,3.89.2a41,41,0,0,0,23.9-74.06Zm-24,61.84a28.77,28.77,0,1,1,28.71-28.61A28.82,28.82,0,0,1,155.1,158.15Z"/><path class="cls-1" d="M167.76,417.44c-.55-.31-1.06-.63-1.55-1C166.7,416.8,167.22,417.13,167.76,417.44Z"/><path class="cls-2" d="M167.76,417.44c-.55-.31-1.06-.63-1.55-1C166.7,416.8,167.22,417.13,167.76,417.44Z"/><path d="M121.44,216.22c-.17,2.72-2,4.19-4.7,4.15a4.32,4.32,0,0,1-4.6-4.29c-.16-1.68,0-3.4,0-5.09h0c0-1.7-.12-3.4,0-5.08.26-2.86,2.13-4.58,4.77-4.49s4.43,1.62,4.58,4.32A89.37,89.37,0,0,1,121.44,216.22Z"/></svg>