<svg id="Layer_8" data-name="Layer 8" xmlns="http://www.w3.org/2000/svg" viewBox="0 0 512 512"><path d="M59.77,266.4v-13a29.77,29.77,0,0,0,.75-2.92,59.56,59.56,0,0,1,16.22-32.32c2.11-2.18,4.42-4.17,6.75-6.35C79.71,206,76,200.38,72.33,194.72c-4.87-7.52-3.15-14.19,4.75-18.52,9.17-5,18.31-10.1,27.54-15,2.18-1.16,3.09-2.41,2.89-5-.71-9.67-1.22-19.36-1.63-29.06-.31-7.23,4.21-12.15,11.44-12.6,12.1-.76,24.2-1.56,36.32-2,3-.11,4.15-1.24,5-3.91,2.7-8.9,5.61-17.74,8.48-26.6,2.69-8.32,8.31-11.24,16.61-8.56,11.89,3.84,23.8,7.61,35.6,11.7,2.83,1,4.31.33,6.16-1.7,7-7.66,14.06-15.18,21.15-22.71,6.05-6.43,12.81-6.45,18.83,0C272.69,68.33,280,76,287.1,83.88a4.26,4.26,0,0,0,5.26,1.36c11.95-4,23.95-7.93,35.95-11.85,8.27-2.71,13.94.19,16.64,8.49,3,9.21,6,18.41,8.89,27.67.64,2.09,1.63,2.71,3.75,2.81q18,.87,35.94,2c9.07.58,13,5.08,12.59,14.15-.46,9.3-.94,18.61-1.57,27.91-.16,2.25.58,3.4,2.53,4.45,9.22,4.94,18.37,10,27.52,15.08,8.53,4.73,10.08,11.11,4.73,19.33-3.6,5.52-7.21,11-10.87,16.63,11,8.78,18.33,19.57,21.81,32.87.73,2.82,1.31,5.69,2,8.53v13c-.27,1.1-.62,2.19-.8,3.3-4.09,25.94-26.32,47.13-52.22,49.59-2.76.26-3.85,1.3-4.6,3.9-7.49,25.87-18.83,49.79-36,70.74-54.82,66.78-149.49,62.9-200.7,5.26-19.63-22.09-32.27-47.87-40.54-76-.66-2.27-1.38-3.61-4.16-3.89a59.88,59.88,0,0,1-51.7-45.1C60.85,271.62,60.34,269,59.77,266.4ZM267.5,419.24c.83,0,1.21,0,1.59,0,29.12-3.35,52.62-17,71.21-39.31,19-22.77,29.8-49.42,36-78.11,3.41-15.74,4.49-31.51.8-47.45-7.46-32.18-44.67-53.36-69.1-48.72-19.82,3.77-38.56,18.72-40.59,40.51A11.15,11.15,0,0,1,256,256.42a11.28,11.28,0,0,1-11.41-10.31c-3.2-28.56-32.32-45.62-59-39.87-30.73,6.64-53,33.16-52.9,64.81.2,41.52,14.1,78.54,40.47,110.6a103.16,103.16,0,0,0,45.9,32.1,93.83,93.83,0,0,0,25.36,5.56c0-14.34.06-28.25-.11-42.15,0-1.08-1.34-2.56-2.44-3.14-10.91-5.77-18.48-14.4-22.22-26.13-3-9.36-1.66-18,6-24.84,14.82-13.28,42.43-14.17,58.1-1.92,9.31,7.28,12.5,18.18,7.9,29.07-4.45,10.53-11.52,18.87-22,24a4.22,4.22,0,0,0-2.14,2.94C267.45,391.09,267.5,405,267.5,419.24ZM256,84.21c-7.2,7.71-14,15-20.77,22.27-3.78,4.06-8.25,5.32-13.55,3.53-3.38-1.15-6.78-2.23-10.18-3.33L186,98.33c-3.05,9.47-6,18.56-8.92,27.64-1.77,5.44-5.46,8.41-11.27,8.7-8.92.46-17.84,1-26.77,1.51-3.12.18-6.24.47-9.57.73.53,9,.89,17.54,1.57,26.05.54,6.65-1.92,11.23-7.91,14.29-7.49,3.84-14.8,8-22.17,12.11-1.07.59-2.08,1.29-3.26,2,1.88,2.88,3.65,5.38,5.17,8,1,1.83,2.22,2.35,4.33,1.87,10.71-2.47,21.27-1.55,31.74,1.62a6.18,6.18,0,0,0,4.35-.93c6-3.62,11.58-8,17.81-11.13,35-17.52,73.29-7.19,93.85,20.48a6.88,6.88,0,0,0,.94.89c.36-.12.51-.13.58-.21.58-.67,1.14-1.36,1.71-2.05,18.39-22.08,41.89-30.85,70.19-26.54,15,2.27,28,9.07,40,18.18,1.23.94,3.33,1.8,4.62,1.4a62.35,62.35,0,0,1,32.12-1.78c1,.2,2.6.16,3-.42,2.26-3,4.22-6.23,6.42-9.57-9.24-5.07-17.95-9.87-26.67-14.63-4.86-2.66-7.21-6.68-6.83-12.24.12-1.78.28-3.57.37-5.35.39-7.34.76-14.69,1.15-22.21-11.74-.69-23-1.27-34.15-2-9.05-.61-11.4-2.58-14.16-11.17-2.67-8.34-5.37-16.67-8.13-25.23-11.73,3.81-23.16,7.34-34.46,11.26-6.38,2.21-11.31.88-15.77-4.12C269.52,98.39,262.87,91.53,256,84.21Zm145.4,211.47c12.81-3.76,21.76-11.65,25.84-24.3,4.69-14.55,1.27-27.54-9.59-38.25-7.92-7.8-17.66-10.91-29.35-10,7.15,11.26,11.91,22.81,12.89,35.24C402.18,270.59,401.43,283,401.43,295.68ZM111,295.37a129.12,129.12,0,0,1-.43-37,88.78,88.78,0,0,1,12.77-34.87c-16.61-3.86-36.35,10.79-39.84,28.95C78.92,276.35,97,293.3,111,295.37Zm138,55.89a12.64,12.64,0,0,0,13.93.17c4-2.59,7.16-7.9,5.68-11.38-2.77-6.51-22-6.92-25-.56C241.92,342.92,244.9,348.49,249,351.26Z"/><path d="M330.35,305.6a11.49,11.49,0,1,1-23-.22,11.49,11.49,0,0,1,23,.22Z"/><path d="M204.62,305.4a11.48,11.48,0,0,1-23,.56,11.48,11.48,0,1,1,23-.56Z"/><path d="M321.19,150.23c0,2.68.09,5.36,0,8a11.44,11.44,0,0,1-22.85.55,152,152,0,0,1,0-17.21,11.44,11.44,0,0,1,22.84.59C321.28,144.86,321.19,147.55,321.19,150.23Z"/><path d="M267.5,141.07c0,2.68.1,5.37,0,8a11.46,11.46,0,0,1-22.9.08c-.2-5.48-.22-11,0-16.45a11.45,11.45,0,0,1,22.89.29C267.59,135.71,267.5,138.39,267.5,141.07Z"/><path d="M213.81,150.23c0,2.68.11,5.36,0,8a11.47,11.47,0,0,1-22.93-.21c-.12-5.23-.13-10.47,0-15.69a11.46,11.46,0,0,1,22.92-.17C213.92,144.86,213.81,147.55,213.81,150.23Z"/></svg>