<svg id="Layer_21" data-name="Layer 21" xmlns="http://www.w3.org/2000/svg" viewBox="0 0 512 512"><defs><style>.cls-1,.cls-2{fill:none;stroke:#000;stroke-miterlimit:10;}.cls-1{stroke-width:13px;}.cls-2{stroke-width:11px;}</style></defs><path class="cls-1" d="M420.06,143.42c0-12.47-2.38-14.8-14.83-14.81-4.42,0-8.84,0-13.27,0-.1,0-244.29,0-276.16,0-12.43,0-14.78,2.32-14.79,14.84q0,109.37,0,218.74c0,12.47,2.49,15,14.81,15H405.28c12.28,0,14.78-2.54,14.78-15Q420.09,252.8,420.06,143.42ZM302,265.83l-52.59,30.49A16.25,16.25,0,0,1,225,282.26V221.48a16.26,16.26,0,0,1,24.37-14.09l52.59,30.29A16.26,16.26,0,0,1,302,265.83Z"/><path class="cls-2" d="M302,265.83l-52.59,30.49A16.25,16.25,0,0,1,225,282.26V221.48a16.26,16.26,0,0,1,24.37-14.09l52.59,30.29A16.26,16.26,0,0,1,302,265.83Z"/><path d="M392,104h0Z"/></svg>