<svg id="Layer_21" data-name="Layer 21" xmlns="http://www.w3.org/2000/svg" viewBox="0 0 512 512"><defs><style>.cls-1{fill:#010101;}.cls-2{fill:#fff;}</style></defs><path class="cls-1" d="M260.54,401.76q-72.38,0-144.73,0c-25.89,0-39.33-13.39-39.34-39.3q-.06-109.78,0-219.57c0-25.47,13.44-38.85,38.79-38.85q90.77,0,181.53,0a61.83,61.83,0,0,1,6.53.14c6.31.68,9.95,4.63,10.73,10.56s-2.12,10.43-7.87,12.86c-3.16,1.34-6.43,1-9.67,1q-90.36,0-180.71,0c-12.43,0-14.78,2.32-14.79,14.84q0,109.37,0,218.74c0,12.47,2.49,15,14.81,15H405.28c12.28,0,14.78-2.54,14.78-15q0-109.37,0-218.74c0-12.47-2.38-14.8-14.83-14.81-14.17,0-28.34.06-42.52,0-9.49-.06-15.19-4.74-15.31-12.25S353,104.08,362.45,104c15.81-.07,31.62-.16,47.43,0,19.09.23,34.16,13.18,34.3,32.27q.85,116.32,0,232.66c-.14,20-15.41,32.67-36.49,32.73C358.66,401.84,309.6,401.76,260.54,401.76Z"/><path class="cls-1" d="M311.47,252.72c0,9-3.57,16.5-11.35,21.17-17.69,10.6-35.41,21.2-53.58,30.94-17.23,9.25-36.54-2.68-36.84-22.37q-.47-29.82,0-59.67c.34-19.6,19.77-31.17,37.1-21.84,17.67,9.51,34.93,19.81,52.22,30C307.07,235.72,311.36,243,311.47,252.72Z"/><path class="cls-2" d="M234.29,283.81V221.92l53.55,30.84Z"/></svg>